<svg xmlns="http://www.w3.org/2000/svg" xmlns:xlink="http://www.w3.org/1999/xlink" viewBox="0 0 143.66 137.3"><defs><style>.cls-1{fill:url(#linear-gradient);}.cls-2{fill:url(#linear-gradient-2);}.cls-3{fill:url(#linear-gradient-3);}.cls-4{fill:url(#linear-gradient-4);}.cls-5{fill:#c10505;}.cls-6{fill:url(#linear-gradient-5);}.cls-7{fill:url(#linear-gradient-6);}.cls-8{fill:url(#linear-gradient-7);}.cls-9{fill:url(#linear-gradient-8);}.cls-10{fill:url(#linear-gradient-9);}</style><linearGradient id="linear-gradient" x1="71.89" y1="24.88" x2="71.89" y2="15.74" gradientUnits="userSpaceOnUse"><stop offset="0.36" stop-color="#f7f7f7"/><stop offset="1" stop-color="#d3e2ea"/></linearGradient><linearGradient id="linear-gradient-2" x1="16.34" y1="15.71" x2="16.34" y2="94.47" xlink:href="#linear-gradient"/><linearGradient id="linear-gradient-3" x1="-149.44" y1="15.71" x2="-149.44" y2="94.47" gradientTransform="matrix(-1, 0, 0, 1, -22.12, 0)" xlink:href="#linear-gradient"/><linearGradient id="linear-gradient-4" x1="35.52" y1="54.52" x2="22.42" y2="54.52" gradientUnits="userSpaceOnUse"><stop offset="0" stop-color="#c10505"/><stop offset="0.08" stop-color="#c90606"/><stop offset="0.26" stop-color="#d60606"/><stop offset="0.5" stop-color="#de0707"/><stop offset="1" stop-color="#e00707"/></linearGradient><linearGradient id="linear-gradient-5" x1="-105.87" y1="54.52" x2="-118.97" y2="54.52" gradientTransform="matrix(-1, 0, 0, 1, 2.31, 0)" xlink:href="#linear-gradient-4"/><linearGradient id="linear-gradient-6" x1="71.52" y1="117.93" x2="71.52" y2="137.3" gradientUnits="userSpaceOnUse"><stop offset="0" stop-color="#c10505"/><stop offset="0.37" stop-color="#c50505"/><stop offset="0.71" stop-color="#d00606"/><stop offset="1" stop-color="#e00707"/></linearGradient><linearGradient id="linear-gradient-7" x1="71.83" y1="4.25" x2="71.83" y2="127.5" gradientUnits="userSpaceOnUse"><stop offset="0" stop-color="#ff4d4d"/><stop offset="0.48" stop-color="#fe4b4b"/><stop offset="0.66" stop-color="#fb4444"/><stop offset="0.78" stop-color="#f63939"/><stop offset="0.88" stop-color="#ee2828"/><stop offset="0.97" stop-color="#e51212"/><stop offset="1" stop-color="#e00707"/></linearGradient><linearGradient id="linear-gradient-8" x1="71.83" y1="4.13" x2="71.83" y2="33.74" gradientUnits="userSpaceOnUse"><stop offset="0" stop-color="#c10505"/><stop offset="0.59" stop-color="#d70606"/><stop offset="1" stop-color="#e00707"/></linearGradient><linearGradient id="linear-gradient-9" x1="71.85" x2="71.85" y2="28.28" gradientUnits="userSpaceOnUse"><stop offset="0.36" stop-color="#f7f7f7"/><stop offset="0.57" stop-color="#f2f4f5"/><stop offset="0.8" stop-color="#e5ecf0"/><stop offset="1" stop-color="#d3e2ea"/></linearGradient></defs><g id="Layer_2" data-name="Layer 2"><g id="Layer_1-2" data-name="Layer 1"><polygon class="cls-1" points="73 15.74 70.08 15.74 66.35 19.46 71.77 24.88 77.43 19.22 73 15.74"/><path class="cls-2" d="M30,15.71S20.18,25.22,0,56.87c0,0,8.48,37.37,32.68,37.6Z"/><path class="cls-3" d="M113.62,15.71s9.86,9.51,30,41.16c0,0-8.49,37.37-32.68,37.6Z"/><path class="cls-4" d="M35.52,10.31l-.3,9,0,1.24-.33,9.78,0,1.12L34.52,40l0,1.11-.24,7.26,0,1.09-.28,8.34,0,.49,0,.59-.28,8.47,0,1.09-.25,7.43,0,1.06-.73,21.77C30.85,99,27.9,91.2,26.6,79.53c0-.33-.07-.67-.11-1-.23-2.13-.45-4.35-.66-6.63,0-.34-.07-.68-.1-1-.26-2.74-.5-5.55-.72-8.38l-.09-1c-.2-2.58-.39-5.16-.58-7.71,0-.35-.05-.69-.07-1-.16-2.26-.31-4.49-.46-6.65L23.75,45c-.18-2.76-.34-5.39-.49-7.82l-.06-1.08c-.16-2.65-.29-5-.4-7.08,0-.41-.05-.8-.07-1.18-.2-3.85-.31-6.18-.31-6.18C29.87,12.72,35.52,10.31,35.52,10.31Z"/><path class="cls-5" d="M35.22,19.3l0,1.24L22.8,29c0-.41-.05-.8-.07-1.18Z"/><path class="cls-5" d="M34.85,30.32l0,1.12L23.26,37.19l-.06-1.08Z"/><path class="cls-5" d="M34.52,40l0,1.11L23.81,46.06,23.75,45Z"/><path class="cls-5" d="M34.24,48.38l0,1.09-9.86,4.28c0-.35-.05-.69-.07-1Z"/><path class="cls-5" d="M33.92,57.81l0,.49,0,.59L25,62.48l-.09-1Z"/><path class="cls-5" d="M33.6,67.36l0,1.09-7.73,3.44c0-.34-.07-.68-.1-1Z"/><path class="cls-5" d="M33.31,75.88l0,1.06L26.6,79.53c0-.33-.07-.67-.11-1Z"/><path class="cls-6" d="M108.17,10.31l.3,9,0,1.24.33,9.78,0,1.12.29,8.57,0,1.11.24,7.26,0,1.09.28,8.34,0,.49,0,.59.28,8.47,0,1.09.25,7.43,0,1.06.73,21.77c1.69.27,4.64-7.51,5.94-19.18,0-.33.07-.67.11-1,.23-2.13.45-4.35.66-6.63,0-.34.07-.68.1-1,.26-2.74.5-5.55.72-8.38l.09-1c.2-2.58.39-5.16.58-7.71,0-.35.05-.69.07-1,.16-2.26.31-4.49.46-6.65l.06-1.05c.18-2.76.34-5.39.49-7.82l.06-1.08c.16-2.65.29-5,.4-7.08,0-.41,0-.8.07-1.18.2-3.85.31-6.18.31-6.18C113.82,12.72,108.17,10.31,108.17,10.31Z"/><path class="cls-5" d="M108.47,19.3l0,1.24L120.89,29c0-.41,0-.8.07-1.18Z"/><path class="cls-5" d="M108.84,30.32l0,1.12,11.55,5.75.06-1.08Z"/><path class="cls-5" d="M109.17,40l0,1.11,10.67,4.94.06-1.05Z"/><path class="cls-5" d="M109.45,48.38l0,1.09,9.86,4.28c0-.35.05-.69.07-1Z"/><path class="cls-5" d="M109.77,57.81l0,.49,0,.59,8.87,3.59.09-1Z"/><path class="cls-5" d="M110.09,67.36l0,1.09,7.73,3.44c0-.34.07-.68.1-1Z"/><path class="cls-5" d="M110.38,75.88l0,1.06,6.67,2.59c0-.33.07-.67.11-1Z"/><path class="cls-7" d="M108.41,130.75l-1,.34-.19.07c-3.48,1.22-7.18,2.47-11.41,3.51l-1,.24a89,89,0,0,1-15,2.18l-1,.06c-2.32.12-4.78.17-7.4.14-3.08,0-5.94,0-8.62-.22l-1-.07a87.92,87.92,0,0,1-14.15-2.19l-1-.24c-4-1-7.62-2.23-11-3.41l-1.47-.53-1-.36c-7.66-3-6.26-4.58-5.32-9.27.2-1,.42-2,.66-3.06a40.32,40.32,0,0,0,5.89,2.47l.37.13,1,.33a111.86,111.86,0,0,0,12.21,3.58l1,.22a92.7,92.7,0,0,0,13.58,1.86l1,.06c2.46.13,5.06.19,7.83.15,2.31,0,4.5,0,6.59-.09l1-.05a94.45,94.45,0,0,0,14.39-1.84l1-.21a107.34,107.34,0,0,0,11.35-3.23c.33-.11.65-.22,1-.34l1.66-.57a39.06,39.06,0,0,0,5.89-2.48c.24,1.08.46,2.06.66,3.07C116,125.93,117.49,127.41,108.41,130.75Z"/><path class="cls-5" d="M35.92,120.87l-1.61,9.76-1-.36,1.6-9.73Z"/><path class="cls-5" d="M49.11,124.67l-1.37,10.14-1-.24,1.37-10.12Z"/><path class="cls-5" d="M63.69,126.59l-.79,10.48-1-.07.8-10.47Z"/><path class="cls-5" d="M108.41,130.75l-1,.34-1.62-9.77c.33-.11.65-.22,1-.34Z"/><path class="cls-5" d="M95.86,134.67l-1,.24-1.38-10.15,1-.21Z"/><path class="cls-5" d="M79.92,137.09l-1,.06-.81-10.5,1-.05Z"/><path class="cls-8" d="M108.77,121.16c-9.14,3.21-19.83,6.56-36.94,6.33-17.11.23-27.8-3.12-36.94-6.33-10.69-3.76-9-5.2-8-10.5s2.5-9.73,5.3-31.4.54-65.63.47-66.46,2.16-4.44,9.68-6.57c.53-.15,1.14-.3,1.82-.45s1.28-.27,2-.4c2.2-.4,4.8-.78,7.49-1.13.64,1.19,1.3,2.29,2,3.31.19.28.37.56.56.83.33.49.67,1,1,1.41l0,.06q.66.88,1.32,1.68l.05.06c.65.78,1.31,1.5,1.95,2.15.24.25.47.48.71.7a29.4,29.4,0,0,0,5.79,4.4c.3.18.6.34.88.48a18.47,18.47,0,0,0,3.5,1.45c.24.07.39.1.44.11a4.45,4.45,0,0,0,.56-.15,18.37,18.37,0,0,0,3.32-1.36l.88-.48a30.46,30.46,0,0,0,5.81-4.41c.23-.22.47-.46.71-.71.66-.66,1.32-1.38,2-2.18l0-.06a15.77,15.77,0,0,0,1.32-1.68l0-.06q.49-.66,1-1.38c.19-.27.37-.55.56-.83q1-1.54,2-3.33c2.67.35,5.24.72,7.43,1.12.71.13,1.38.27,2,.4s1.28.3,1.81.45c7.52,2.13,9.76,5.74,9.68,6.57s-2.32,44.78.47,66.46,4.24,26.1,5.3,31.4S119.46,117.4,108.77,121.16Z"/><path class="cls-9" d="M99.57,5.55v0l-.06.2a41.31,41.31,0,0,1-2.78,6.58c-.15.28-.3.58-.47.87A44.31,44.31,0,0,1,90,21.88c-.22.24-.45.49-.69.73a42.67,42.67,0,0,1-8.2,6.64c-.28.19-.57.36-.86.54a46.69,46.69,0,0,1-7.84,3.72l-.52.2v0h-.08l-.4-.15a46.42,46.42,0,0,1-8-3.8l-.86-.53a43.39,43.39,0,0,1-8.2-6.65l-.69-.73a44.77,44.77,0,0,1-6.22-8.65c-.17-.3-.32-.59-.47-.88a41.29,41.29,0,0,1-2.78-6.57l-.06-.2v0A15.82,15.82,0,0,1,46,5.27h0c2.22-.41,4.83-.79,7.54-1.13h.07l.06.11c.64,1.19,1.3,2.29,2,3.31.19.28.37.56.56.83.33.49.67,1,1,1.41l0,.06q.66.88,1.32,1.68l.05.06c.65.78,1.31,1.5,1.95,2.15.24.25.47.48.71.7a29.4,29.4,0,0,0,5.79,4.4c.3.18.6.34.88.48a18.47,18.47,0,0,0,3.5,1.45c.24.07.39.1.44.11a4.45,4.45,0,0,0,.56-.15,18.37,18.37,0,0,0,3.32-1.36l.88-.48a30.46,30.46,0,0,0,5.81-4.41c.23-.22.47-.46.71-.71.66-.66,1.32-1.38,2-2.18l0-.06a15.77,15.77,0,0,0,1.32-1.68l0-.06q.49-.66,1-1.38c.19-.27.37-.55.56-.83q1-1.54,2-3.33l.06-.11s0,0,0,0c2.71.34,5.32.72,7.54,1.13h0A15.82,15.82,0,0,1,99.57,5.55Z"/><path class="cls-5" d="M56.18,8.39l-8.76,4.84c-.17-.3-.32-.59-.47-.88l8.67-4.79C55.81,7.84,56,8.12,56.18,8.39Z"/><path class="cls-5" d="M61.26,14.45l-6.93,8.16-.69-.73,6.91-8.13C60.79,14,61,14.23,61.26,14.45Z"/><path class="cls-5" d="M67.93,19.33,63.39,29.79l-.86-.53,4.52-10.41C67.35,19,67.65,19.19,67.93,19.33Z"/><path class="cls-5" d="M72.43,20.74V33.51l-.52.2v0h-.08l-.4-.15V20.78c.24.07.39.1.44.11A4.45,4.45,0,0,0,72.43,20.74Z"/><path class="cls-5" d="M96.72,12.36c-.15.28-.3.58-.47.87L87.54,8.42c.19-.27.37-.55.56-.83Z"/><path class="cls-5" d="M90,21.88c-.22.24-.45.49-.69.73l-6.89-8.12c.23-.22.47-.46.71-.71Z"/><path class="cls-5" d="M81.13,29.25c-.28.19-.57.36-.86.54L75.75,19.38l.88-.48Z"/><path class="cls-10" d="M90.06,2.1c-3.41-.85-4.79-1.6-5.34-2a.44.44,0,0,0-.63.14A54.49,54.49,0,0,1,72,15.13a.45.45,0,0,0-.13.23.4.4,0,0,0-.14-.23A54.73,54.73,0,0,1,59.61.22.44.44,0,0,0,59,.08c-.55.42-1.93,1.17-5.34,2a.42.42,0,0,0-.32.41c0,2.24.43,15.63,2,25.42a.43.43,0,0,0,.68.26c2.58-1.94,13.25-10,15.71-12.47a.12.12,0,1,1,.2,0c2.46,2.49,13.13,10.53,15.71,12.47a.43.43,0,0,0,.68-.26c1.61-9.79,2-23.18,2-25.42A.42.42,0,0,0,90.06,2.1Z"/></g></g></svg>