<svg id="Layer_1" data-name="Layer 1" xmlns="http://www.w3.org/2000/svg" xmlns:xlink="http://www.w3.org/1999/xlink" viewBox="0 0 965.75 417.74"><defs><style>.cls-1{fill:url(#linear-gradient);}.cls-2{fill:url(#linear-gradient-2);}.cls-3{fill:#fff;}</style><linearGradient id="linear-gradient" x1="524.03" y1="37.88" x2="524.03" y2="455.62" gradientUnits="userSpaceOnUse"><stop offset="0" stop-color="#0c4e7d"/><stop offset="0.18" stop-color="#0d5380"/><stop offset="0.38" stop-color="#11608a"/><stop offset="0.59" stop-color="#18769b"/><stop offset="0.8" stop-color="#2195b2"/><stop offset="1" stop-color="#2bb9cd"/></linearGradient><linearGradient id="linear-gradient-2" x1="506.01" y1="309.98" x2="506.85" y2="99.18" gradientTransform="matrix(1, 0, 0, -1, 0, 462.39)" gradientUnits="userSpaceOnUse"><stop offset="0" stop-color="#fdffff"/><stop offset="1" stop-color="#b2f0fa"/></linearGradient></defs><path class="cls-1" d="M995.57,356.41c-22.78-4.66-34.07-7.4-41-17.48a8.05,8.05,0,0,1,6.82-12.64h0a11.59,11.59,0,0,0,11.43-9.69c1.64-10,3.26-17.15,5.8-20,2-2.22,6.51-3.83,16.61-5.91a11.85,11.85,0,0,0,9.53-10.24,11.58,11.58,0,0,0-9.2-12.52c-10.33-2.11-14.93-3.73-16.94-6-2.51-2.78-4.12-9.84-5.74-19.6a11.88,11.88,0,0,0-10.39-10A11.58,11.58,0,0,0,950,242c-1.65,10-3.27,17.16-5.8,20-2,2.25-6.61,3.87-16.95,6C912,271.73,912,245.8,912,245.8a16,16,0,0,0-9.07-15,16.45,16.45,0,0,0-7.19-1.56H870.57a16,16,0,0,0-8,2.14,16,16,0,0,0-8-2.14H829.35a15.91,15.91,0,0,0-12.17,5.65l3-6.75a15.91,15.91,0,0,0,5.23-11.81V191l32.15-60a16.37,16.37,0,0,0,1.39-12.35,16,16,0,0,0-15.35-11.47H815.4A16,16,0,0,0,801,116.28l-4.12,8.58-4.13-8.58a16,16,0,0,0-14.42-9.07H750.13a16,16,0,0,0-13.19,7,16,16,0,0,0-13.18-7H689.21a16,16,0,0,0-15.19,11l-20.44,61.92a16.34,16.34,0,0,0-2.22-.17H629.72V123.21a16,16,0,0,0-16-16H588.45a16,16,0,0,0-14.09,8.41c-1.33-.88-2.7-1.72-4.14-2.48a54.3,54.3,0,0,0-25.59-5.93H504.45a16,16,0,0,0-16,16l-11.58,4.32h0a45.11,45.11,0,0,0-19.37-16.36,62.3,62.3,0,0,0-26.16-5.23,64.54,64.54,0,0,0-26,5.06h0a52,52,0,0,0-9.08,5.11,16,16,0,0,0-14.32-8.91H364.46a16,16,0,0,0-6.57,1.42,16,16,0,0,0-6.58-1.42H270.4a16.15,16.15,0,0,0-5,.8,16.15,16.15,0,0,0-5-.8h-67.1a16,16,0,0,0-16,16v56.73H161.47V123.21a16,16,0,0,0-16-16H128.29c2.34-.59,5-1.18,8-1.8a11.26,11.26,0,0,0,9.05-9.72,11,11,0,0,0-8.71-11.85c-14.48-3-20.78-5.3-24.06-9-3.93-4.36-6.07-13.39-8.42-27.5a11.22,11.22,0,0,0-9.84-9.46,11,11,0,0,0-11.86,9.13C80.09,61.35,77.94,70.48,74,74.88c-3.27,3.63-9.49,6-23.74,8.9a11.24,11.24,0,0,0-9,9.71,11,11,0,0,0,8.72,11.85c14.47,3,20.77,5.31,24.06,9,3.92,4.36,6.06,13.38,8.4,27.47a11.26,11.26,0,0,0,10.13,9.51,11,11,0,0,0,11.66-9.74h0V216.3a16,16,0,0,0,16,16h18.19a16,16,0,0,0-5.75,7.89L102,332.93a16.44,16.44,0,0,0,.22,11.32,16,16,0,0,0,14.86,10.05h27.27a16,16,0,0,0,15.32-11.38l1.94-6.44h6.93l2,6.44a16,16,0,0,0,15.32,11.38h27.27a16,16,0,0,0,4.49-.65,15.74,15.74,0,0,0,4.47.65h25.28A16,16,0,0,0,263.26,340l5.09,7.4a16,16,0,0,0,13.18,6.93h21.09a15.89,15.89,0,0,0,6-1.17,15.8,15.8,0,0,0,6,1.17h35.82c11.55,0,22.44-2.27,32.12-7.42h37.95A16,16,0,0,0,434,354.3h62.91a16,16,0,0,0,5.11-.85,16,16,0,0,0,5.1.85H574a16,16,0,0,0,4.82-.74,16.17,16.17,0,0,0,4.81.74h27.27a16,16,0,0,0,15.32-11.38l1.94-6.44h6.93l1.95,6.44a16,16,0,0,0,15.32,11.38h27.27a16,16,0,0,0,4.49-.65,15.74,15.74,0,0,0,4.47.65h25.28a15.93,15.93,0,0,0,12.54-6.09,16,16,0,0,0,12.55,6.09h27.45a16,16,0,0,0,3.86-.48,16.05,16.05,0,0,0,3.82.48h25.28A16,16,0,0,0,815.26,340l5.09,7.4a16,16,0,0,0,13.18,6.93h21.09a16,16,0,0,0,11.1-4.49c3.15,4.23-.47,5.8-2.4,6.31l-1.07.22a14.48,14.48,0,0,0-11.59,12.21,14.2,14.2,0,0,0,11.23,15.64c40.61,8.31,44.71,10.49,52.79,59.15A14.5,14.5,0,0,0,928,455.6a14.18,14.18,0,0,0,14.7-11.84c8.1-48.92,12.11-51.23,52.5-59.5a14.48,14.48,0,0,0,11.59-12.21A14.2,14.2,0,0,0,995.57,356.41ZM104.18,141.54Z" transform="translate(-41.16 -37.88)"/><path class="cls-2" d="M120.2,216.3V123.21h25.27v72.73h37.64V216.3Zm73.12,0V123.21h67.1v20.36H218.6v16H257v20.37H218.6v16h41.63V216.3Zm77.08-72.73V123.21h80.91v20.36h-28V216.3H298.4V143.57Zm111.52-20.36v10.91A23.47,23.47,0,0,1,380.1,143a40.28,40.28,0,0,1-10.18,14.54l-10.37-5.27a43.29,43.29,0,0,0,3.41-7.59,32.54,32.54,0,0,0,1.5-10.59V123.21Zm62,29.09a9.82,9.82,0,0,0-3.41-7.09q-3-2.55-9.13-2.55a18.08,18.08,0,0,0-6.41,1,7.68,7.68,0,0,0-3.64,2.5,6.15,6.15,0,0,0-1.23,3.63,6,6,0,0,0,.59,3.05,7.47,7.47,0,0,0,2.28,2.41,18,18,0,0,0,3.95,1.91,43,43,0,0,0,5.73,1.54l7.63,1.64a57.06,57.06,0,0,1,13.23,4.32,31.33,31.33,0,0,1,9,6.32,22.41,22.41,0,0,1,5.14,8.09,28.55,28.55,0,0,1,1.73,9.82q0,9.18-4.6,15.54a28,28,0,0,1-13,9.68q-8.4,3.31-20.22,3.32a57.28,57.28,0,0,1-21.18-3.59,29.5,29.5,0,0,1-14-11.05q-5-7.5-5-19.18h24a14.21,14.21,0,0,0,2.13,7.18,11.86,11.86,0,0,0,5.37,4.41,21,21,0,0,0,8.31,1.5,19.8,19.8,0,0,0,6.78-1,9.13,9.13,0,0,0,4.13-2.77,6.54,6.54,0,0,0,1.46-4,5.73,5.73,0,0,0-1.41-3.73,10.91,10.91,0,0,0-4.37-2.91,46.47,46.47,0,0,0-8.22-2.46l-9.28-2q-12.36-2.67-19.5-8.95t-7-17.23a25.57,25.57,0,0,1,4.73-15.5,31.71,31.71,0,0,1,13.31-10.41,48.7,48.7,0,0,1,19.6-3.72q11.27,0,19.5,3.77a29.13,29.13,0,0,1,12.68,10.64,28.53,28.53,0,0,1,4.54,16Zm60.57,64V123.21h40.18a38.37,38.37,0,0,1,18.14,4.09,29.72,29.72,0,0,1,12.09,11.5,33.76,33.76,0,0,1,4.32,17.32,32.69,32.69,0,0,1-4.46,17.32,29.24,29.24,0,0,1-12.41,11.27,41.22,41.22,0,0,1-18.59,3.95h-24V169h18.91a17,17,0,0,0,7.59-1.55,11.36,11.36,0,0,0,4.87-4.5,13.21,13.21,0,0,0,1.72-6.86,12.82,12.82,0,0,0-1.72-6.82,10.89,10.89,0,0,0-4.87-4.36,17,17,0,0,0-7.59-1.55h-8.91V216.3Zm84,0V123.21h25.27v72.73h37.64V216.3Zm97.31,0H658.48l30.73-93.09h34.55l30.72,93.09H727.21l-20.36-67.45h-.73Zm-5.09-36.73h51.27v18.91H680.67Zm69.46-56.36h28.18L796.49,161h.73l18.18-37.82h28.19L809.4,187V216.3H784.31V187ZM144.38,338.3H117.11l30.73-93.09h34.54l30.73,93.09H185.84l-20.37-67.45h-.73Zm-5.09-36.73h51.27v18.91H139.29Zm163.33-56.36V338.3H281.53l-33.64-48.91h-.54V338.3H222.07V245.21h21.46l33.09,48.73h.73V245.21Zm47.77,93.09H314.57V245.21H350q14.36,0,24.82,5.59a38.53,38.53,0,0,1,16.18,16q5.73,10.41,5.73,24.95t-5.69,25a38.89,38.89,0,0,1-16.09,16Q364.57,338.3,350.39,338.3Zm-10.54-21.45h9.63a28.27,28.27,0,0,0,11.78-2.23,15.06,15.06,0,0,0,7.45-7.68q2.6-5.46,2.59-15.19t-2.63-15.18a15.17,15.17,0,0,0-7.64-7.68,30.2,30.2,0,0,0-12.27-2.23h-8.91ZM434,338.3V245.21h25.27v72.73h37.64V338.3Zm73.12,0V245.21h67.1v20.36H532.35v16h38.36v20.37H532.35v16H574V338.3Zm103.81,0H583.61l30.73-93.09h34.54l30.73,93.09H652.34L632,270.85h-.73Zm-5.09-36.73h51.27v18.91H605.79Zm82.78,36.73V245.21h40.19A41.12,41.12,0,0,1,746.89,249,28.29,28.29,0,0,1,759,259.85q4.32,7.08,4.32,17t-4.45,16.86a27.39,27.39,0,0,1-12.41,10.36,45.74,45.74,0,0,1-18.59,3.5h-24V287.94h18.91a23.42,23.42,0,0,0,7.59-1.09,9.6,9.6,0,0,0,4.86-3.6,10.88,10.88,0,0,0,1.73-6.4,11.2,11.2,0,0,0-1.73-6.5,9.64,9.64,0,0,0-4.86-3.73,20.81,20.81,0,0,0-7.59-1.23h-8.91V338.3Zm54.55-42.73,23.27,42.73H738.94l-22.73-42.73Zm111.5-50.36V338.3H833.53l-33.64-48.91h-.54V338.3H774.07V245.21h21.46l33.09,48.73h.73V245.21Zm41.41,0-2.36,64H872.94l-2.37-64ZM883.3,339.75a12.46,12.46,0,0,1-9-3.68,12.14,12.14,0,0,1-3.69-9,11.86,11.86,0,0,1,3.69-8.87,12.5,12.5,0,0,1,9-3.68,12.36,12.36,0,0,1,8.82,3.68A12,12,0,0,1,896,327a12.25,12.25,0,0,1-1.86,6.45,13.76,13.76,0,0,1-4.64,4.59A12.11,12.11,0,0,1,883.3,339.75Z" transform="translate(-41.16 -37.88)"/><ellipse class="cls-3" cx="52.12" cy="56.71" rx="37.51" ry="41.7"/><ellipse class="cls-3" cx="887.57" cy="332.42" rx="64" ry="71.14"/><ellipse class="cls-3" cx="920.25" cy="241.43" rx="31.85" ry="35.41"/></svg>