<svg xmlns="http://www.w3.org/2000/svg" viewBox="0 0 931.8 187.11"><defs><style>.cls-1{fill:#ffe3d7;}.cls-2{fill:#ffd6ab;}.cls-3{fill:#ffb98a;}.cls-4{fill:#de816e;}.cls-5{fill:#ffb7b3;}.cls-6{fill:#ac584b;}.cls-7{fill:#663531;}.cls-8{fill:#c3cfdf;}.cls-9{fill:#c4be9c;}.cls-10{fill:#ffe7e6;}.cls-11{fill:#ffc7b3;}.cls-12{fill:#f4b28e;}.cls-13{fill:#ea976e;}.cls-14{fill:#c6584f;}.cls-15{fill:#ea8c88;}.cls-16{fill:#8e3b35;}.cls-17{fill:#4f1f1f;}.cls-18{fill:#9bb3c9;}.cls-19{fill:#a89e74;}.cls-20{fill:#fcc;}</style></defs><g id="Layer_2" data-name="Layer 2"><g id="Layer_1-2" data-name="Layer 1"><rect class="cls-1" x="93.55" y="93.55" width="93.55" height="93.55"/><rect class="cls-2" x="187.64" y="93.55" width="93.55" height="93.55"/><rect class="cls-3" x="280.59" y="93.55" width="93.55" height="93.55"/><rect class="cls-4" x="467.54" y="93.55" width="93.55" height="93.55"/><rect class="cls-5" x="373.83" y="93.55" width="93.55" height="93.55"/><rect class="cls-6" x="559.41" y="93.55" width="93.55" height="93.55"/><rect class="cls-7" x="652.36" y="93.55" width="93.55" height="93.55"/><rect class="cls-8" x="745.3" y="93.55" width="93.55" height="93.55"/><rect class="cls-9" x="838.24" y="93.55" width="93.55" height="93.55"/><rect class="cls-10" y="93.55" width="93.55" height="93.55"/><rect class="cls-11" x="93.55" width="93.55" height="93.55"/><rect class="cls-12" x="187.64" width="93.55" height="93.55"/><rect class="cls-13" x="280.59" width="93.55" height="93.55"/><rect class="cls-14" x="467.54" width="93.55" height="93.55"/><rect class="cls-15" x="373.83" width="93.55" height="93.55"/><rect class="cls-16" x="559.41" width="93.55" height="93.55"/><rect class="cls-17" x="652.36" width="93.55" height="93.55"/><rect class="cls-18" x="745.3" width="93.55" height="93.55"/><rect class="cls-19" x="838.24" width="93.55" height="93.55"/><rect class="cls-20" width="93.55" height="93.55"/></g></g></svg>