<svg xmlns="http://www.w3.org/2000/svg" xmlns:xlink="http://www.w3.org/1999/xlink" viewBox="0 0 443.23 321.98"><defs><style>.cls-1{fill:url(#linear-gradient);}.cls-2{opacity:0.74;fill:url(#linear-gradient-2);}.cls-3{fill:url(#linear-gradient-3);}.cls-4{fill:url(#linear-gradient-4);}.cls-5{fill:url(#linear-gradient-5);}.cls-6{fill:url(#linear-gradient-6);}.cls-7{fill:url(#linear-gradient-7);}.cls-8{fill:url(#linear-gradient-8);}.cls-9{fill:url(#linear-gradient-9);}.cls-10{fill:url(#linear-gradient-10);}.cls-11{fill:url(#linear-gradient-11);}.cls-12{fill:url(#linear-gradient-12);}.cls-13{fill:url(#linear-gradient-13);}.cls-14{fill:url(#linear-gradient-14);}.cls-15{fill:url(#linear-gradient-15);}.cls-16{fill:url(#linear-gradient-16);}.cls-17{fill:url(#linear-gradient-17);}.cls-18{fill:url(#linear-gradient-18);}.cls-19{fill:url(#linear-gradient-19);}.cls-20{fill:url(#linear-gradient-20);}.cls-21{fill:url(#linear-gradient-21);}.cls-22{fill:url(#linear-gradient-22);}.cls-23{fill:url(#linear-gradient-23);}.cls-24{fill:url(#linear-gradient-24);}.cls-25{fill:url(#linear-gradient-25);}.cls-26{fill:url(#linear-gradient-26);}.cls-27{fill:url(#linear-gradient-27);}.cls-28{fill:url(#linear-gradient-28);}.cls-29{fill:url(#linear-gradient-29);}.cls-30{fill:url(#linear-gradient-30);}.cls-31{fill:url(#linear-gradient-31);}.cls-32{fill:url(#linear-gradient-32);}.cls-33{fill:none;}</style><linearGradient id="linear-gradient" x1="119.54" y1="321.98" x2="119.54" y2="92.71" gradientUnits="userSpaceOnUse"><stop offset="0" stop-color="#ffa6c2"/><stop offset="0.17" stop-color="#ff9db9"/><stop offset="0.47" stop-color="#ff83a0"/><stop offset="0.84" stop-color="#ff5a78"/><stop offset="1" stop-color="#ff4564"/></linearGradient><linearGradient id="linear-gradient-2" x1="119.54" y1="189.09" x2="119.54" y2="94.83" gradientUnits="userSpaceOnUse"><stop offset="0.04" stop-color="#fff4d4"/><stop offset="0.47" stop-color="#fff3d2"/><stop offset="0.62" stop-color="#fff1cb"/><stop offset="0.73" stop-color="#ffedc0"/><stop offset="0.81" stop-color="#ffe8af"/><stop offset="0.89" stop-color="#ffe199"/><stop offset="0.95" stop-color="#ffd87e"/><stop offset="1" stop-color="#ffd066"/></linearGradient><linearGradient id="linear-gradient-3" x1="65.48" y1="59.56" x2="65.48" y2="82.9" gradientUnits="userSpaceOnUse"><stop offset="0" stop-color="#fff4d4"/><stop offset="0.18" stop-color="#fff3cf"/><stop offset="0.37" stop-color="#ffeec2"/><stop offset="0.58" stop-color="#ffe7ac"/><stop offset="0.79" stop-color="#ffdd8d"/><stop offset="1" stop-color="#ffd066"/></linearGradient><linearGradient id="linear-gradient-4" x1="868.55" y1="59.56" x2="868.55" y2="82.9" gradientTransform="matrix(-1, 0, 0, 1, 1041.31, 0)" xlink:href="#linear-gradient-3"/><linearGradient id="linear-gradient-5" x1="873.45" y1="4.94" x2="873.45" y2="71.46" gradientTransform="matrix(-1, 0, 0, 1, 1041.31, 0)" gradientUnits="userSpaceOnUse"><stop offset="0" stop-color="#ffa6c2"/><stop offset="0.17" stop-color="#ffa0bc"/><stop offset="0.4" stop-color="#ff8eab"/><stop offset="0.68" stop-color="#ff718f"/><stop offset="0.97" stop-color="#ff4968"/><stop offset="1" stop-color="#ff4564"/></linearGradient><linearGradient id="linear-gradient-6" x1="70.38" y1="4.94" x2="70.38" y2="71.46" gradientTransform="matrix(1, 0, 0, 1, 0, 0)" xlink:href="#linear-gradient-5"/><linearGradient id="linear-gradient-7" x1="78.25" y1="93.13" x2="159.9" y2="93.13" gradientUnits="userSpaceOnUse"><stop offset="0" stop-color="#fff4d4"/><stop offset="0.12" stop-color="#ffeab5"/><stop offset="0.26" stop-color="#ffe199"/><stop offset="0.4" stop-color="#ffd982"/><stop offset="0.57" stop-color="#ffd472"/><stop offset="0.75" stop-color="#ffd169"/><stop offset="1" stop-color="#ffd066"/></linearGradient><linearGradient id="linear-gradient-8" x1="118.26" y1="2.95" x2="118.26" y2="93.17" gradientUnits="userSpaceOnUse"><stop offset="0" stop-color="#ffa6c2"/><stop offset="0.37" stop-color="#ffa4c0"/><stop offset="0.55" stop-color="#ff9cb9"/><stop offset="0.68" stop-color="#ff8fac"/><stop offset="0.8" stop-color="#ff7d9a"/><stop offset="0.9" stop-color="#ff6583"/><stop offset="0.99" stop-color="#ff4867"/><stop offset="1" stop-color="#ff4564"/></linearGradient><linearGradient id="linear-gradient-9" x1="118.82" y1="0" x2="118.82" y2="24.92" xlink:href="#linear-gradient-3"/><linearGradient id="linear-gradient-10" x1="237.72" y1="50.38" x2="252.93" y2="76.73" gradientTransform="matrix(1, -0.08, 0.08, 1, -126.54, 54.6)" gradientUnits="userSpaceOnUse"><stop offset="0" stop-color="#fff4d4"/><stop offset="0.16" stop-color="#fff2ce"/><stop offset="0.37" stop-color="#ffedbe"/><stop offset="0.61" stop-color="#ffe4a3"/><stop offset="0.86" stop-color="#ffd87e"/><stop offset="1" stop-color="#ffd066"/></linearGradient><linearGradient id="linear-gradient-11" x1="293.92" y1="44.24" x2="276.71" y2="74.05" gradientTransform="matrix(1, -0.08, 0.08, 1, -126.54, 54.6)" gradientUnits="userSpaceOnUse"><stop offset="0" stop-color="#fff4d4"/><stop offset="0.18" stop-color="#fff3d0"/><stop offset="0.37" stop-color="#ffeec3"/><stop offset="0.58" stop-color="#ffe7ad"/><stop offset="0.78" stop-color="#ffdd8e"/><stop offset="0.99" stop-color="#ffd168"/><stop offset="1" stop-color="#ffd066"/></linearGradient><linearGradient id="linear-gradient-12" x1="265.62" y1="53.74" x2="265.62" y2="72.72" gradientTransform="matrix(1, -0.08, 0.08, 1, -126.54, 54.6)" gradientUnits="userSpaceOnUse"><stop offset="0" stop-color="#fff4d4"/><stop offset="0.16" stop-color="#fff2cd"/><stop offset="0.38" stop-color="#ffecba"/><stop offset="0.65" stop-color="#ffe19b"/><stop offset="0.94" stop-color="#ffd370"/><stop offset="1" stop-color="#ffd066"/></linearGradient><linearGradient id="linear-gradient-13" x1="362.67" y1="17.8" x2="362.67" y2="231.17" gradientUnits="userSpaceOnUse"><stop offset="0" stop-color="#c10505"/><stop offset="0.37" stop-color="#c50505"/><stop offset="0.71" stop-color="#d00606"/><stop offset="1" stop-color="#e00707"/></linearGradient><linearGradient id="linear-gradient-14" x1="324.14" y1="238.95" x2="324.14" y2="315.94" gradientUnits="userSpaceOnUse"><stop offset="0" stop-color="#824121"/><stop offset="0.22" stop-color="#7d3f1f"/><stop offset="0.48" stop-color="#6f391a"/><stop offset="0.75" stop-color="#592e11"/><stop offset="1" stop-color="#3d2207"/></linearGradient><linearGradient id="linear-gradient-15" x1="249.41" y1="238.95" x2="249.41" y2="315.94" gradientTransform="matrix(-1, 0, 0, 1, 650.44, 0)" xlink:href="#linear-gradient-14"/><linearGradient id="linear-gradient-16" x1="334.47" y1="131.36" x2="334.47" y2="242.84" gradientUnits="userSpaceOnUse"><stop offset="0" stop-color="#f7f7f7"/><stop offset="0.5" stop-color="#f5f6f6"/><stop offset="0.72" stop-color="#eef2f4"/><stop offset="0.89" stop-color="#e1eaef"/><stop offset="1" stop-color="#d3e2ea"/></linearGradient><linearGradient id="linear-gradient-17" x1="280.39" y1="131.36" x2="280.39" y2="242.84" gradientTransform="matrix(-1, 0, 0, 1, 671.11, 0)" xlink:href="#linear-gradient-16"/><linearGradient id="linear-gradient-18" x1="1404.84" y1="94.15" x2="1405.27" y2="115.13" gradientTransform="matrix(-1, 0.02, 0.02, 1, 1704.23, -29.15)" gradientUnits="userSpaceOnUse"><stop offset="0" stop-color="#d6e4eb"/><stop offset="0.43" stop-color="#d4e2ea"/><stop offset="0.62" stop-color="#cddde4"/><stop offset="0.76" stop-color="#c0d3db"/><stop offset="0.88" stop-color="#aec5cf"/><stop offset="0.98" stop-color="#97b3be"/><stop offset="1" stop-color="#91aeba"/></linearGradient><linearGradient id="linear-gradient-19" x1="1395.2" y1="110.6" x2="1397.12" y2="198.11" gradientTransform="matrix(-1, 0.02, 0.02, 1.06, 1702.19, -127.73)" gradientUnits="userSpaceOnUse"><stop offset="0" stop-color="#f7f7f7"/><stop offset="0.55" stop-color="#f5f6f6"/><stop offset="0.75" stop-color="#eef2f4"/><stop offset="0.89" stop-color="#e3ebf0"/><stop offset="1" stop-color="#d3e2ea"/></linearGradient><linearGradient id="linear-gradient-20" x1="1508.58" y1="92.01" x2="1509.02" y2="112.99" gradientTransform="translate(-1082.65 -29.15) rotate(1.18)" xlink:href="#linear-gradient-18"/><linearGradient id="linear-gradient-21" x1="1498.95" y1="108.58" x2="1500.86" y2="196.09" gradientTransform="matrix(1, 0.02, -0.02, 1.06, -1080.61, -127.73)" xlink:href="#linear-gradient-19"/><linearGradient id="linear-gradient-22" x1="322.79" y1="14.72" x2="322.79" y2="74.82" gradientUnits="userSpaceOnUse"><stop offset="0" stop-color="#fff4d4"/><stop offset="1" stop-color="#ffd066"/></linearGradient><linearGradient id="linear-gradient-23" x1="246.69" y1="14.72" x2="246.69" y2="74.82" gradientTransform="matrix(-1, 0, 0, 1, 648.36, 0)" xlink:href="#linear-gradient-22"/><linearGradient id="linear-gradient-24" x1="362.37" y1="13.14" x2="362.37" y2="106.08" gradientUnits="userSpaceOnUse"><stop offset="0" stop-color="#003a8e"/><stop offset="0.51" stop-color="#00398c"/><stop offset="0.72" stop-color="#003585"/><stop offset="0.87" stop-color="#002d79"/><stop offset="0.99" stop-color="#002368"/><stop offset="1" stop-color="#026"/></linearGradient><linearGradient id="linear-gradient-25" x1="362.24" y1="7.02" x2="362.24" y2="30.13" xlink:href="#linear-gradient-24"/><linearGradient id="linear-gradient-26" x1="354.22" y1="14.89" x2="354.22" y2="7.02" xlink:href="#linear-gradient-22"/><linearGradient id="linear-gradient-27" x1="340.96" y1="14.82" x2="340.96" y2="6.95" gradientTransform="matrix(-1, 0, 0, 1, 711.22, 0)" xlink:href="#linear-gradient-22"/><linearGradient id="linear-gradient-28" x1="362.42" y1="180.86" x2="362.42" y2="109.06" xlink:href="#linear-gradient-24"/><linearGradient id="linear-gradient-29" x1="362.42" y1="101.26" x2="362.42" y2="116.39" xlink:href="#linear-gradient-14"/><linearGradient id="linear-gradient-30" x1="362.35" y1="103.44" x2="362.35" y2="117.72" gradientUnits="userSpaceOnUse"><stop offset="0" stop-color="#d6e4eb"/><stop offset="0.26" stop-color="#d2e1e8"/><stop offset="0.49" stop-color="#c8d9e1"/><stop offset="0.71" stop-color="#b5cad4"/><stop offset="0.93" stop-color="#9cb6c2"/><stop offset="1" stop-color="#91aeba"/></linearGradient><linearGradient id="linear-gradient-31" x1="362.42" y1="9.71" x2="362.42" y2="30.13" gradientUnits="userSpaceOnUse"><stop offset="0" stop-color="#ff4d4d"/><stop offset="0.26" stop-color="#f23030"/><stop offset="0.52" stop-color="#e81919"/><stop offset="0.78" stop-color="#e20c0c"/><stop offset="1" stop-color="#e00707"/></linearGradient><linearGradient id="linear-gradient-32" x1="362.41" y1="25.56" x2="362.41" y2="6.03" xlink:href="#linear-gradient-13"/></defs><g id="Layer_2" data-name="Layer 2"><g id="Layer_1-2" data-name="Layer 1"><path class="cls-1" d="M81.32,92.71S34.24,152,0,285c0,0,92.33,83.16,239.08,0,0,0-40.05-148-79.79-191.39Z"/><path class="cls-2" d="M217.18,175.23a3.92,3.92,0,0,1-.11,4.41l-.09.13A22.58,22.58,0,0,1,177.41,174a25.39,25.39,0,0,1-37-28,18,18,0,0,1-4.79.64A18.21,18.21,0,0,1,119,135.92a18.24,18.24,0,0,1-16.63,10.75,18,18,0,0,1-4.79-.64,25.4,25.4,0,0,1-37,28,22.59,22.59,0,0,1-38.42,7.2l0,0a3.93,3.93,0,0,1-.38-4.53C26,169.57,33.37,156.85,41,144c9.16-15.42,18.63-31.05,23.1-37.45C74.2,92.1,79,95.08,79,95.08l39.54,1.58h0l39.55-1.58s4.81-3,14.9,11.46c4.53,6.49,14.62,22.14,24.36,37.42C205.25,156.31,212.89,168.42,217.18,175.23Z"/><path class="cls-3" d="M83.52,77.09l-.39-6.83L54.2,59.56,48.91,64.9a5.17,5.17,0,0,0,6.46,8s0,.07,0,.1a5.16,5.16,0,0,0,8.89,3.57,5.14,5.14,0,0,0,9.28,2.91,5.17,5.17,0,0,0,10-2.38Z"/><path class="cls-4" d="M154.72,77.09l.39-6.83L184,59.56l5.29,5.34a5.17,5.17,0,0,1-6.46,8s0,.07,0,.1A5.16,5.16,0,0,1,174,76.56a5.14,5.14,0,0,1-9.28,2.91,5.17,5.17,0,0,1-10-2.38Z"/><path class="cls-5" d="M148.34,14.4s10.21-22,31.93,1.14S201,60.76,162.93,70.48,148.34,14.4,148.34,14.4Z"/><path class="cls-6" d="M89.9,14.4S79.69-7.64,58,15.54,37.23,60.76,75.31,70.48,89.9,14.4,89.9,14.4Z"/><path class="cls-7" d="M79.57,80.81A47.12,47.12,0,0,1,78.25,95.6s47,25.24,81.65-.14c0,0-3.56-10.62-2-16C126.57,94.89,79.57,80.81,79.57,80.81Z"/><path class="cls-8" d="M159.79,42.46c-.14-10.39-.34-20.2-.34-24.81C159.45,6.47,157.24,6,155,4.2S136.3,3.06,136.3,3.06l-4.6,11-13.44,4.71-13.45-4.71-4.59-11S83.7,2.42,81.49,4.2s-4.42,2.27-4.42,13.45c0,4.57-.2,14.26-.34,24.57-.21,14.85-.3,31,.5,34.91.74,3.61,1.33,5.35,2.49,6.56,1,1,2.32,1.65,4.5,2.67a29.74,29.74,0,0,0,4,1.47l0,0a171.74,171.74,0,0,0,19.71,4.5l.5.08,2.81.46.24,0c.36,0,.73,0,1.09.06,1.82.11,3.66.18,5.53.18q3.72,0,7.27-.3a79.16,79.16,0,0,0,21.34-4.54,60.2,60.2,0,0,0,6.18-2.69l.05,0a11.81,11.81,0,0,0,6.27-8.06l.09-.43C160.09,73.23,160,57.25,159.79,42.46Z"/><path class="cls-9" d="M134.92,12.4a6.13,6.13,0,0,1-.62,0c3.58,6-4.84,12.47-9.61,7.48-.84,6.6-10.93,6.82-12.06.29-4.93,4.48-12.78-2-9.32-7.77-8.69.91-8.74-13.18,0-12.33-.81,21.53,31.88,21.52,31.07,0C142.64-.84,143.25,12.49,134.92,12.4Z"/><path class="cls-10" d="M138.34,90s-24.48-12.11-25.9-1.64-3,28.33,6.08,26.07,21-8.31,23.14-12.28S138.34,90,138.34,90Z"/><path class="cls-11" d="M148.58,88.61s-.36-1.58,2.17-4.32,14.58-18.25,19.32-8.4,6.66,22,2.22,23.86-22.7,6.49-22.85,1.9S148.58,88.61,148.58,88.61Z"/><path class="cls-12" d="M149.69,88.13s4,12.17.8,14.2-12.27,4.63-13.23,1.34-4.32-15.83-.2-16.09,4.85.21,7.13-1.06S149,85.28,149.69,88.13Z"/><path class="cls-13" d="M401.65,17.8,363,18.1l-39.34-.3s-27.51,162.65-41.58,196.89c0,0,35.53,15.13,80.92,16.48,45.39-1.35,80.2-16.48,80.2-16.48C429.17,180.45,401.65,17.8,401.65,17.8Z"/><path class="cls-14" d="M318.13,240.91s-6.54-2.07-6.65,2-1.38,44-3.1,47.92-14.67,10.2-8,20.41,43,1.83,43.79-5.05,5.28-43.56,5.16-53.42,2.06-14-1.95-13.76S318.13,240.91,318.13,240.91Z"/><path class="cls-15" d="M407,240.91s6.53-2.07,6.65,2,1.37,44,3.09,47.92,14.68,10.2,8,20.41-43,1.83-43.8-5.05-5.27-43.56-5.16-53.42-2.06-14,1.95-13.76S407,240.91,407,240.91Z"/><path class="cls-16" d="M322.14,134.13s-20.94,92-9,107.16c0,0,12.23,4.13,35.62-1.07,0,0,9-20,10.7-71.7S322.14,134.13,322.14,134.13Z"/><path class="cls-17" d="M403.06,134.13s20.94,92,9,107.16c0,0-12.23,4.13-35.62-1.07,0,0-9-20-10.7-71.7S403.06,134.13,403.06,134.13Z"/><path class="cls-18" d="M285.52,102.49s0,0,0,0c.23,1.29,1.34,2.69,3,4.09.27.23.55.45.86.68a35.64,35.64,0,0,0,5.7,3.43l.92.44a49.11,49.11,0,0,0,5.68,2.22l1,.3a31.78,31.78,0,0,0,6.36,1.27c.35,0,.69,0,1,0a8,8,0,0,0,4.43-.91s0,0,0,0c1.68-.93,2.26-3.56,3.44-8.87a14.52,14.52,0,0,1-5.23.27c-.33,0-.67-.07-1-.11a40.52,40.52,0,0,1-6.31-1.45l-1-.3a54,54,0,0,1-5.69-2.21c-.32-.13-.62-.27-.92-.42a46.74,46.74,0,0,1-5.77-3.2c-.29-.2-.59-.39-.87-.61A19.15,19.15,0,0,1,287.52,94C285.86,98.23,285,101.36,285.52,102.49Z"/><path class="cls-19" d="M285.07,95.47s0,0,0,0c1.36,7.7,26.64,18.91,33.53,14.2,0,0,0,0,0,0,3.38-2,2.9-10.24,8.89-31,5.29-19.91,14.65-55.45-4.35-60.52l0,.12c-3.67,1.89-5,4.68-9.36,11.65h0C310.39,35.92,282.44,89.41,285.07,95.47Z"/><path class="cls-20" d="M439.83,102.49s0,0,0,0c-.23,1.29-1.34,2.69-3,4.09-.27.23-.55.45-.86.68a36.1,36.1,0,0,1-5.7,3.43l-.92.44a49.83,49.83,0,0,1-5.68,2.22l-1,.3a31.78,31.78,0,0,1-6.36,1.27c-.35,0-.69,0-1,0a8,8,0,0,1-4.43-.91s0,0,0,0c-1.68-.93-2.26-3.56-3.44-8.87a14.52,14.52,0,0,0,5.23.27c.33,0,.67-.07,1-.11a40.52,40.52,0,0,0,6.31-1.45l1-.3a54,54,0,0,0,5.69-2.21c.32-.13.62-.27.92-.42a46.74,46.74,0,0,0,5.77-3.2c.29-.2.59-.39.87-.61A19.47,19.47,0,0,0,437.83,94C439.49,98.23,440.35,101.36,439.83,102.49Z"/><path class="cls-21" d="M440.28,95.47s0,0,0,0c-1.36,7.7-26.64,18.91-33.53,14.2,0,0,0,0,0,0-3.38-2-2.9-10.24-8.89-31-5.29-19.91-14.65-55.45,4.35-60.52l0,.12c3.67,1.89,5,4.68,9.36,11.65h0C415,35.92,442.91,89.41,440.28,95.47Z"/><path class="cls-22" d="M327.64,14.74s-2.79-.46-8.71,3.06c0,0-3.14,41,1.74,57Z"/><path class="cls-23" d="M396.81,14.74s2.79-.46,8.72,3.06c0,0,3.13,41-1.75,57Z"/><path class="cls-24" d="M401.11,25.21c-.78-11.77-3.42-12.07-3.42-12.07l-14.94.76L362.37,24,342,13.9l-14.94-.76s-2.65.3-3.42,12.07-6.07,57.94-.32,80.87h78.1C407.17,83.15,401.89,37,401.11,25.21Z"/><path class="cls-25" d="M382.25,19.86,362.3,30.07v.06l-.05,0-.06,0v-.06L342.24,19.86s4.18-6.95,5.31-11.8a25.38,25.38,0,0,1,13.34,6.83l1.36,14.62,1.12-12.12.31-3.37a2,2,0,0,1,.18-.25C367.73,8.14,376.75,7,376.75,7,377.44,11.84,382.25,19.86,382.25,19.86Z"/><path class="cls-26" d="M360.89,14.89a25.38,25.38,0,0,0-13.34-6.83c.08-.36.14-.71.19-1,0,0,9.29,1.15,13.07,7Z"/><path class="cls-27" d="M363.59,14.82A25.38,25.38,0,0,1,376.93,8c-.08-.36-.14-.71-.19-1,0,0-9.29,1.15-13.07,7Z"/><path class="cls-28" d="M321.83,109.75s-7.57,31.64-11.69,53.88c0,0,43.1,38.75,104.56,0l-11.24-54.57Z"/><path class="cls-29" d="M405.67,102.39a1.62,1.62,0,0,0-1.82-1.1,276.51,276.51,0,0,1-42.19,3.11A250.42,250.42,0,0,1,321,101.29a1.62,1.62,0,0,0-1.82,1.1,18.54,18.54,0,0,0-.89,8.35,1.62,1.62,0,0,0,1.22,1.31c14.19,3.37,29.77,4.43,42.17,4.34,12.41.09,29.49-1,43.68-4.34a1.62,1.62,0,0,0,1.22-1.31A18.54,18.54,0,0,0,405.67,102.39Z"/><path class="cls-30" d="M367.59,103.44H357.1a1.9,1.9,0,0,0-1.89,1.9v10.49a1.89,1.89,0,0,0,1.89,1.89h10.49a1.89,1.89,0,0,0,1.89-1.89V105.34A1.89,1.89,0,0,0,367.59,103.44Zm-.36,10.73a1.3,1.3,0,0,1-1.3,1.29h-7.17a1.3,1.3,0,0,1-1.3-1.29V107a1.3,1.3,0,0,1,1.3-1.29h7.17a1.3,1.3,0,0,1,1.3,1.29Z"/><path class="cls-31" d="M400.17,15.2c-4-.58-16.95-.56-37.72,14.93-20.78-15.49-33.76-15.51-37.78-14.93a.65.65,0,0,1-.61-1c3.05-4.17,8.74-4.54,11.66-4.43a82.2,82.2,0,0,1,26.7,15.83A82.2,82.2,0,0,1,389.11,9.73h0c2.92-.11,8.61.26,11.66,4.43A.65.65,0,0,1,400.17,15.2Z"/><path class="cls-32" d="M389.27,9.68l-.15.05h0a82.2,82.2,0,0,0-26.69,15.83,82.2,82.2,0,0,0-26.7-15.83l-.16-.05c-.87-3.33.69-4.09,3.44-3.42,4.61,1.13,12.55,6.31,17.91,10.07,0,0,0,0,0,0,2.95,2.07,5.1,3.72,5.49,4,.39-.31,2.54-2,5.49-4,0,0,0,0,0,0,5.35-3.77,13.3-8.94,17.91-10.07C388.58,5.59,390.14,6.35,389.27,9.68Z"/><line class="cls-33" x1="360.05" y1="231.17" x2="360.05" y2="18.1"/></g></g></svg>