<svg xmlns="http://www.w3.org/2000/svg" xmlns:xlink="http://www.w3.org/1999/xlink" viewBox="0 0 750 500"><defs><style>.cls-1,.cls-22,.cls-37,.cls-50,.cls-63,.cls-76{fill:none;}.cls-2{isolation:isolate;}.cls-3{fill:url(#linear-gradient);}.cls-4{clip-path:url(#clip-path);}.cls-5{mix-blend-mode:screen;fill:url(#radial-gradient);}.cls-15,.cls-6{fill:#fff;mix-blend-mode:overlay;}.cls-24,.cls-6{opacity:0.3;}.cls-7{fill:url(#linear-gradient-2);}.cls-10,.cls-8{fill:#e3c3cf;}.cls-8{opacity:0.19;}.cls-10,.cls-16,.cls-21,.cls-24,.cls-35,.cls-8{mix-blend-mode:multiply;}.cls-9{fill:url(#linear-gradient-3);}.cls-10{opacity:0.09;}.cls-11{fill:url(#linear-gradient-4);}.cls-12{fill:url(#linear-gradient-5);}.cls-13{fill:url(#linear-gradient-6);}.cls-14{fill:url(#linear-gradient-7);}.cls-15,.cls-16,.cls-35{opacity:0.2;}.cls-16,.cls-21{fill:#4570b4;}.cls-17{fill:url(#linear-gradient-8);}.cls-18{fill:url(#linear-gradient-9);}.cls-19{fill:url(#linear-gradient-10);}.cls-20{fill:url(#linear-gradient-11);}.cls-21{opacity:0.54;}.cls-22,.cls-37,.cls-50,.cls-63,.cls-76{stroke-miterlimit:10;}.cls-22{stroke-width:4px;stroke:url(#linear-gradient-12);}.cls-23{fill:url(#linear-gradient-13);}.cls-24{fill:#f2c379;}.cls-25{fill:url(#linear-gradient-14);}.cls-26{fill:url(#linear-gradient-15);}.cls-27{fill:url(#linear-gradient-16);}.cls-28{fill:url(#linear-gradient-17);}.cls-29{fill:url(#linear-gradient-18);}.cls-30{fill:url(#linear-gradient-19);}.cls-31{fill:url(#linear-gradient-20);}.cls-32{fill:url(#linear-gradient-21);}.cls-33{fill:url(#linear-gradient-22);}.cls-34{fill:url(#linear-gradient-23);}.cls-35{fill:#adaee0;}.cls-36{fill:url(#linear-gradient-24);}.cls-37{stroke-width:2.2px;stroke:url(#linear-gradient-25);}.cls-38{fill:url(#linear-gradient-26);}.cls-39{fill:url(#linear-gradient-27);}.cls-40{fill:url(#linear-gradient-28);}.cls-41{fill:url(#linear-gradient-29);}.cls-42{fill:url(#linear-gradient-30);}.cls-43{fill:url(#linear-gradient-31);}.cls-44{fill:url(#linear-gradient-32);}.cls-45{fill:url(#linear-gradient-33);}.cls-46{fill:url(#linear-gradient-34);}.cls-47{fill:url(#linear-gradient-35);}.cls-48{fill:url(#linear-gradient-36);}.cls-49{fill:url(#linear-gradient-37);}.cls-50{stroke-width:1.78px;stroke:url(#linear-gradient-38);}.cls-51{fill:url(#linear-gradient-39);}.cls-52{fill:url(#linear-gradient-40);}.cls-53{fill:url(#linear-gradient-41);}.cls-54{fill:url(#linear-gradient-42);}.cls-55{fill:url(#linear-gradient-43);}.cls-56{fill:url(#linear-gradient-44);}.cls-57{fill:url(#linear-gradient-45);}.cls-58{fill:url(#linear-gradient-46);}.cls-59{fill:url(#linear-gradient-47);}.cls-60{fill:url(#linear-gradient-48);}.cls-61{fill:url(#linear-gradient-49);}.cls-62{fill:url(#linear-gradient-50);}.cls-63{stroke-width:2.38px;stroke:url(#linear-gradient-51);}.cls-64{fill:url(#linear-gradient-52);}.cls-65{fill:url(#linear-gradient-53);}.cls-66{fill:url(#linear-gradient-54);}.cls-67{fill:url(#linear-gradient-55);}.cls-68{fill:url(#linear-gradient-56);}.cls-69{fill:url(#linear-gradient-57);}.cls-70{fill:url(#linear-gradient-58);}.cls-71{fill:url(#linear-gradient-59);}.cls-72{fill:url(#linear-gradient-60);}.cls-73{fill:url(#linear-gradient-61);}.cls-74{fill:url(#linear-gradient-62);}.cls-75{fill:url(#linear-gradient-63);}.cls-76{stroke-width:1.81px;stroke:url(#linear-gradient-64);}.cls-77{fill:url(#linear-gradient-65);}.cls-78{fill:url(#linear-gradient-66);}.cls-79{fill:url(#linear-gradient-67);}.cls-80{fill:url(#linear-gradient-68);}.cls-81{fill:url(#linear-gradient-69);}.cls-82{fill:url(#linear-gradient-70);}.cls-83{fill:url(#linear-gradient-71);}.cls-84{fill:url(#linear-gradient-72);}.cls-85{fill:url(#linear-gradient-73);}.cls-86{fill:url(#linear-gradient-74);}.cls-87{fill:url(#linear-gradient-75);}.cls-88{fill:url(#linear-gradient-76);}.cls-89{fill:url(#linear-gradient-77);}.cls-90{fill:url(#linear-gradient-78);}.cls-91{fill:url(#linear-gradient-79);}.cls-92{fill:url(#linear-gradient-80);}.cls-93{fill:url(#linear-gradient-81);}.cls-94{fill:url(#linear-gradient-82);}.cls-95{fill:url(#linear-gradient-83);}.cls-96{opacity:0.6;}.cls-97{fill:url(#linear-gradient-84);}.cls-98{fill:url(#linear-gradient-85);}</style><linearGradient id="linear-gradient" x1="375" y1="-77.36" x2="375" y2="402.81" gradientUnits="userSpaceOnUse"><stop offset="0" stop-color="#5cc9f0"/><stop offset="0.12" stop-color="#7cceea"/><stop offset="0.33" stop-color="#aad6e0"/><stop offset="0.53" stop-color="#cfdcd9"/><stop offset="0.71" stop-color="#e9e0d3"/><stop offset="0.87" stop-color="#f9e3d0"/><stop offset="1" stop-color="#ffe4cf"/></linearGradient><clipPath id="clip-path"><rect class="cls-1" width="750" height="500"/></clipPath><radialGradient id="radial-gradient" cx="455.53" cy="209.31" r="373.22" gradientTransform="translate(0 168.23) scale(1 0.63)" gradientUnits="userSpaceOnUse"><stop offset="0" stop-color="#ff1408"/><stop offset="0.1" stop-color="#fa1409" stop-opacity="0.98"/><stop offset="0.22" stop-color="#ec150a" stop-opacity="0.92"/><stop offset="0.36" stop-color="#d5170d" stop-opacity="0.81"/><stop offset="0.51" stop-color="#b51910" stop-opacity="0.67"/><stop offset="0.67" stop-color="#8c1b15" stop-opacity="0.48"/><stop offset="0.83" stop-color="#5b1e1b" stop-opacity="0.26"/><stop offset="1" stop-color="#222221" stop-opacity="0"/></radialGradient><linearGradient id="linear-gradient-2" x1="448.68" y1="265.21" x2="447.12" y2="406.23" gradientUnits="userSpaceOnUse"><stop offset="0" stop-color="#65cbf0"/><stop offset="0.09" stop-color="#7ccdeb"/><stop offset="0.31" stop-color="#aad1e1"/><stop offset="0.51" stop-color="#cfd5d9"/><stop offset="0.7" stop-color="#e9d7d4"/><stop offset="0.87" stop-color="#f9d8d0"/><stop offset="1" stop-color="#ffd9cf"/></linearGradient><linearGradient id="linear-gradient-3" x1="193.28" y1="139.34" x2="166.39" y2="265.52" gradientUnits="userSpaceOnUse"><stop offset="0" stop-color="#ace0f2"/><stop offset="0.29" stop-color="#cfe3ea"/><stop offset="0.56" stop-color="#e9e5e3"/><stop offset="0.81" stop-color="#f9e7df"/><stop offset="1" stop-color="#ffe7de"/></linearGradient><linearGradient id="linear-gradient-4" x1="621.5" y1="258.6" x2="621.5" y2="426.12" gradientUnits="userSpaceOnUse"><stop offset="0" stop-color="#65cbf0"/><stop offset="0.09" stop-color="#7ccceb"/><stop offset="0.31" stop-color="#aacde1"/><stop offset="0.51" stop-color="#cfced9"/><stop offset="0.7" stop-color="#e9ced4"/><stop offset="0.87" stop-color="#f9cfd0"/><stop offset="1" stop-color="#ffcfcf"/></linearGradient><linearGradient id="linear-gradient-5" x1="570.73" y1="287.33" x2="544.99" y2="408.13" xlink:href="#linear-gradient-3"/><linearGradient id="linear-gradient-6" x1="520.16" y1="391.74" x2="545.08" y2="473.02" gradientUnits="userSpaceOnUse"><stop offset="0" stop-color="#5cc9f0"/><stop offset="0.22" stop-color="#62b2e4"/><stop offset="0.52" stop-color="#6998d7"/><stop offset="0.79" stop-color="#6d88cf"/><stop offset="1" stop-color="#6e82cc"/></linearGradient><linearGradient id="linear-gradient-7" x1="251.91" y1="271.16" x2="272.65" y2="571.13" xlink:href="#linear-gradient-6"/><linearGradient id="linear-gradient-8" x1="604.2" y1="385.84" x2="617.78" y2="582.2" xlink:href="#linear-gradient-6"/><linearGradient id="linear-gradient-9" x1="364.39" y1="418.04" x2="353.19" y2="482.63" gradientTransform="matrix(0.62, 0.22, -0.25, 0.69, 201.78, 71.39)" gradientUnits="userSpaceOnUse"><stop offset="0" stop-color="#1e5a9e"/><stop offset="0.24" stop-color="#2a589f"/><stop offset="0.67" stop-color="#3a56a1"/><stop offset="1" stop-color="#4055a1"/></linearGradient><linearGradient id="linear-gradient-10" x1="158.53" y1="444" x2="149.21" y2="497.72" xlink:href="#linear-gradient-9"/><linearGradient id="linear-gradient-11" x1="-50.55" y1="458.07" x2="372.74" y2="458.07" xlink:href="#linear-gradient-6"/><linearGradient id="linear-gradient-12" x1="126.68" y1="299.26" x2="126.68" y2="585.97" gradientUnits="userSpaceOnUse"><stop offset="0" stop-color="#65cbf0"/><stop offset="0.09" stop-color="#7cceeb"/><stop offset="0.31" stop-color="#aad5e1"/><stop offset="0.51" stop-color="#cfdbd9"/><stop offset="0.7" stop-color="#e9dfd4"/><stop offset="0.87" stop-color="#f9e1d0"/><stop offset="1" stop-color="#ffe2cf"/></linearGradient><linearGradient id="linear-gradient-13" x1="109.88" y1="226.57" x2="132.68" y2="306.56" gradientTransform="translate(21.36 -9.36) rotate(4.28)" gradientUnits="userSpaceOnUse"><stop offset="0" stop-color="#fff5cf"/><stop offset="0.15" stop-color="#feefca"/><stop offset="0.35" stop-color="#fcdfba"/><stop offset="0.58" stop-color="#f9c5a0"/><stop offset="0.81" stop-color="#f4a17d"/><stop offset="1" stop-color="#f07f5c"/></linearGradient><linearGradient id="linear-gradient-14" x1="152.96" y1="217.71" x2="130.94" y2="295.62" xlink:href="#linear-gradient-13"/><linearGradient id="linear-gradient-15" x1="179.64" y1="241.32" x2="133.29" y2="293.66" xlink:href="#linear-gradient-13"/><linearGradient id="linear-gradient-16" x1="199.91" y1="276.9" x2="137.1" y2="301.2" xlink:href="#linear-gradient-13"/><linearGradient id="linear-gradient-17" x1="202.98" y1="311.07" x2="135.7" y2="296.49" xlink:href="#linear-gradient-13"/><linearGradient id="linear-gradient-18" x1="156.57" y1="349.1" x2="143.49" y2="290.41" xlink:href="#linear-gradient-13"/><linearGradient id="linear-gradient-19" x1="110.27" y1="336.88" x2="141.3" y2="284.92" xlink:href="#linear-gradient-13"/><linearGradient id="linear-gradient-20" x1="68.55" y1="309.67" x2="135.1" y2="297.71" xlink:href="#linear-gradient-13"/><linearGradient id="linear-gradient-21" x1="75.02" y1="250.02" x2="133.33" y2="303.1" xlink:href="#linear-gradient-13"/><linearGradient id="linear-gradient-22" x1="135" y1="289.57" x2="127.57" y2="311.86" gradientTransform="translate(429.41 166.48) rotate(90)" gradientUnits="userSpaceOnUse"><stop offset="0" stop-color="#ebc431"/><stop offset="0.18" stop-color="#ebbe30"/><stop offset="0.41" stop-color="#edae2c"/><stop offset="0.67" stop-color="#ef9427"/><stop offset="0.95" stop-color="#f1701f"/><stop offset="1" stop-color="#f2681d"/></linearGradient><linearGradient id="linear-gradient-23" x1="155.8" y1="358.32" x2="155.8" y2="473.36" xlink:href="#linear-gradient-12"/><linearGradient id="linear-gradient-24" x1="109.09" y1="353.24" x2="109.09" y2="433.72" gradientTransform="matrix(-0.96, -0.28, -0.28, 0.96, 314.38, 48.06)" xlink:href="#linear-gradient-12"/><linearGradient id="linear-gradient-25" x1="670.21" y1="386.88" x2="670.21" y2="544.91" gradientTransform="translate(305.06 -266.45) rotate(28.48)" xlink:href="#linear-gradient-12"/><linearGradient id="linear-gradient-26" x1="666.58" y1="306.33" x2="679.15" y2="350.42" gradientTransform="matrix(0.84, 0.54, -0.54, 0.84, 328.29, -264.48)" xlink:href="#linear-gradient-13"/><linearGradient id="linear-gradient-27" x1="690.33" y1="301.45" x2="678.19" y2="344.4" gradientTransform="matrix(0.84, 0.54, -0.54, 0.84, 328.29, -264.48)" xlink:href="#linear-gradient-13"/><linearGradient id="linear-gradient-28" x1="705.03" y1="314.46" x2="679.48" y2="343.31" gradientTransform="matrix(0.84, 0.54, -0.54, 0.84, 328.29, -264.48)" xlink:href="#linear-gradient-13"/><linearGradient id="linear-gradient-29" x1="716.21" y1="334.07" x2="681.59" y2="347.47" gradientTransform="matrix(0.84, 0.54, -0.54, 0.84, 328.29, -264.48)" xlink:href="#linear-gradient-13"/><linearGradient id="linear-gradient-30" x1="717.9" y1="352.91" x2="680.81" y2="344.87" gradientTransform="matrix(0.84, 0.54, -0.54, 0.84, 328.29, -264.48)" xlink:href="#linear-gradient-13"/><linearGradient id="linear-gradient-31" x1="692.32" y1="373.87" x2="685.1" y2="341.52" gradientTransform="matrix(0.84, 0.54, -0.54, 0.84, 328.29, -264.48)" xlink:href="#linear-gradient-13"/><linearGradient id="linear-gradient-32" x1="666.8" y1="367.14" x2="683.9" y2="338.5" gradientTransform="matrix(0.84, 0.54, -0.54, 0.84, 328.29, -264.48)" xlink:href="#linear-gradient-13"/><linearGradient id="linear-gradient-33" x1="643.8" y1="352.14" x2="680.48" y2="345.54" gradientTransform="matrix(0.84, 0.54, -0.54, 0.84, 328.29, -264.48)" xlink:href="#linear-gradient-13"/><linearGradient id="linear-gradient-34" x1="647.36" y1="319.26" x2="679.51" y2="348.52" gradientTransform="matrix(0.84, 0.54, -0.54, 0.84, 328.29, -264.48)" xlink:href="#linear-gradient-13"/><linearGradient id="linear-gradient-35" x1="680.43" y1="341.06" x2="676.33" y2="353.35" gradientTransform="translate(1057.95 -284.89) rotate(90)" xlink:href="#linear-gradient-22"/><linearGradient id="linear-gradient-36" x1="686.26" y1="419.43" x2="686.26" y2="482.84" gradientTransform="translate(305.06 -266.45) rotate(28.48)" xlink:href="#linear-gradient-12"/><linearGradient id="linear-gradient-37" x1="-436.77" y1="259.37" x2="-436.77" y2="303.73" gradientTransform="matrix(-0.71, -0.7, -0.7, 0.71, 558.47, -74.28)" xlink:href="#linear-gradient-12"/><linearGradient id="linear-gradient-38" x1="628.11" y1="427.8" x2="628.11" y2="555.26" gradientTransform="translate(-34.93 20.53) rotate(-4.77)" xlink:href="#linear-gradient-12"/><linearGradient id="linear-gradient-39" x1="629.58" y1="358.1" x2="639.72" y2="393.66" gradientTransform="matrix(1, -0.01, 0.01, 1, -14.43, 9.43)" xlink:href="#linear-gradient-13"/><linearGradient id="linear-gradient-40" x1="648.73" y1="354.17" x2="638.94" y2="388.8" gradientTransform="matrix(1, -0.01, 0.01, 1, -14.43, 9.43)" xlink:href="#linear-gradient-13"/><linearGradient id="linear-gradient-41" x1="660.59" y1="364.66" x2="639.98" y2="387.93" gradientTransform="matrix(1, -0.01, 0.01, 1, -14.43, 9.43)" xlink:href="#linear-gradient-13"/><linearGradient id="linear-gradient-42" x1="669.6" y1="380.48" x2="641.68" y2="391.28" gradientTransform="matrix(1, -0.01, 0.01, 1, -14.43, 9.43)" xlink:href="#linear-gradient-13"/><linearGradient id="linear-gradient-43" x1="670.96" y1="395.67" x2="641.06" y2="389.19" gradientTransform="matrix(1, -0.01, 0.01, 1, -14.43, 9.43)" xlink:href="#linear-gradient-13"/><linearGradient id="linear-gradient-44" x1="650.33" y1="412.57" x2="644.52" y2="386.48" gradientTransform="matrix(1, -0.01, 0.01, 1, -14.43, 9.43)" xlink:href="#linear-gradient-13"/><linearGradient id="linear-gradient-45" x1="629.75" y1="407.15" x2="643.55" y2="384.05" gradientTransform="matrix(1, -0.01, 0.01, 1, -14.43, 9.43)" xlink:href="#linear-gradient-13"/><linearGradient id="linear-gradient-46" x1="611.21" y1="395.05" x2="640.79" y2="389.73" gradientTransform="matrix(1, -0.01, 0.01, 1, -14.43, 9.43)" xlink:href="#linear-gradient-13"/><linearGradient id="linear-gradient-47" x1="614.08" y1="368.53" x2="640.01" y2="392.13" gradientTransform="matrix(1, -0.01, 0.01, 1, -14.43, 9.43)" xlink:href="#linear-gradient-13"/><linearGradient id="linear-gradient-48" x1="640.74" y1="386.11" x2="637.44" y2="396.02" gradientTransform="translate(-11.06 3.86)" xlink:href="#linear-gradient-22"/><linearGradient id="linear-gradient-49" x1="641.05" y1="454.06" x2="641.05" y2="505.2" gradientTransform="translate(-34.93 20.53) rotate(-4.77)" xlink:href="#linear-gradient-12"/><linearGradient id="linear-gradient-50" x1="-407.57" y1="304.02" x2="-407.57" y2="339.8" gradientTransform="matrix(-0.98, -0.2, -0.2, 0.98, 282.36, 42.27)" xlink:href="#linear-gradient-12"/><linearGradient id="linear-gradient-51" x1="92.23" y1="443.75" x2="92.23" y2="614.2" gradientTransform="translate(-191.32 42.79) rotate(-21.7)" xlink:href="#linear-gradient-12"/><linearGradient id="linear-gradient-52" x1="93.66" y1="402.96" x2="107.22" y2="450.52" gradientTransform="translate(-174.94 26.2) rotate(-17.42)" xlink:href="#linear-gradient-13"/><linearGradient id="linear-gradient-53" x1="119.27" y1="397.69" x2="106.18" y2="444.01" gradientTransform="translate(-174.94 26.2) rotate(-17.42)" xlink:href="#linear-gradient-13"/><linearGradient id="linear-gradient-54" x1="135.14" y1="411.73" x2="107.58" y2="442.84" gradientTransform="translate(-174.94 26.2) rotate(-17.42)" xlink:href="#linear-gradient-13"/><linearGradient id="linear-gradient-55" x1="147.19" y1="432.88" x2="109.85" y2="447.33" gradientTransform="translate(-174.94 26.2) rotate(-17.42)" xlink:href="#linear-gradient-13"/><linearGradient id="linear-gradient-56" x1="149.01" y1="453.2" x2="109.01" y2="444.53" gradientTransform="translate(-174.94 26.2) rotate(-17.42)" xlink:href="#linear-gradient-13"/><linearGradient id="linear-gradient-57" x1="121.42" y1="475.8" x2="113.64" y2="440.91" gradientTransform="translate(-174.94 26.2) rotate(-17.42)" xlink:href="#linear-gradient-13"/><linearGradient id="linear-gradient-58" x1="93.9" y1="468.54" x2="112.34" y2="437.65" gradientTransform="translate(-174.94 26.2) rotate(-17.42)" xlink:href="#linear-gradient-13"/><linearGradient id="linear-gradient-59" x1="69.09" y1="452.36" x2="108.66" y2="445.25" gradientTransform="translate(-174.94 26.2) rotate(-17.42)" xlink:href="#linear-gradient-13"/><linearGradient id="linear-gradient-60" x1="72.94" y1="416.9" x2="107.61" y2="448.46" gradientTransform="translate(-174.94 26.2) rotate(-17.42)" xlink:href="#linear-gradient-13"/><linearGradient id="linear-gradient-61" x1="108.6" y1="440.41" x2="104.18" y2="453.67" gradientTransform="translate(-46.32 -26.23)" xlink:href="#linear-gradient-22"/><linearGradient id="linear-gradient-62" x1="109.54" y1="478.86" x2="109.54" y2="547.25" gradientTransform="translate(-191.32 42.79) rotate(-21.7)" xlink:href="#linear-gradient-12"/><linearGradient id="linear-gradient-63" x1="102.51" y1="477.38" x2="102.51" y2="525.23" gradientTransform="matrix(-1, 0.1, 0.1, 1, 118.55, -28.79)" xlink:href="#linear-gradient-12"/><linearGradient id="linear-gradient-64" x1="190.91" y1="557.24" x2="190.91" y2="686.69" gradientTransform="translate(249.32 -120.72) rotate(25.96)" xlink:href="#linear-gradient-12"/><linearGradient id="linear-gradient-65" x1="203.13" y1="519.27" x2="213.42" y2="555.38" gradientTransform="matrix(0.86, 0.5, -0.5, 0.86, 272.62, -119.78)" xlink:href="#linear-gradient-13"/><linearGradient id="linear-gradient-66" x1="222.57" y1="515.27" x2="212.63" y2="550.45" gradientTransform="matrix(0.86, 0.5, -0.5, 0.86, 272.62, -119.78)" xlink:href="#linear-gradient-13"/><linearGradient id="linear-gradient-67" x1="234.62" y1="525.93" x2="213.69" y2="549.56" gradientTransform="matrix(0.86, 0.5, -0.5, 0.86, 272.62, -119.78)" xlink:href="#linear-gradient-13"/><linearGradient id="linear-gradient-68" x1="243.77" y1="541.99" x2="215.42" y2="552.96" gradientTransform="matrix(0.86, 0.5, -0.5, 0.86, 272.62, -119.78)" xlink:href="#linear-gradient-13"/><linearGradient id="linear-gradient-69" x1="245.16" y1="557.42" x2="214.78" y2="550.84" gradientTransform="matrix(0.86, 0.5, -0.5, 0.86, 272.62, -119.78)" xlink:href="#linear-gradient-13"/><linearGradient id="linear-gradient-70" x1="224.2" y1="574.59" x2="218.3" y2="548.09" gradientTransform="matrix(0.86, 0.5, -0.5, 0.86, 272.62, -119.78)" xlink:href="#linear-gradient-13"/><linearGradient id="linear-gradient-71" x1="203.3" y1="569.08" x2="217.31" y2="545.61" gradientTransform="matrix(0.86, 0.5, -0.5, 0.86, 272.62, -119.78)" xlink:href="#linear-gradient-13"/><linearGradient id="linear-gradient-72" x1="184.47" y1="556.79" x2="214.51" y2="551.39" gradientTransform="matrix(0.86, 0.5, -0.5, 0.86, 272.62, -119.78)" xlink:href="#linear-gradient-13"/><linearGradient id="linear-gradient-73" x1="187.38" y1="529.86" x2="213.71" y2="553.82" gradientTransform="matrix(0.86, 0.5, -0.5, 0.86, 272.62, -119.78)" xlink:href="#linear-gradient-13"/><linearGradient id="linear-gradient-74" x1="214.47" y1="547.71" x2="211.11" y2="557.78" gradientTransform="translate(730.67 251.23) rotate(90)" xlink:href="#linear-gradient-22"/><linearGradient id="linear-gradient-75" x1="204.06" y1="583.91" x2="204.06" y2="635.85" gradientTransform="translate(249.32 -120.72) rotate(25.96)" xlink:href="#linear-gradient-12"/><linearGradient id="linear-gradient-76" x1="-23.66" y1="550.4" x2="-23.66" y2="586.73" gradientTransform="matrix(-0.74, -0.67, -0.67, 0.74, 510.94, 60.12)" xlink:href="#linear-gradient-12"/><linearGradient id="linear-gradient-77" x1="248.42" y1="393.41" x2="248.42" y2="546.88" gradientUnits="userSpaceOnUse"><stop offset="0" stop-color="#ffdcc4"/><stop offset="0.1" stop-color="#f9dac5"/><stop offset="0.24" stop-color="#e9d3c8"/><stop offset="0.39" stop-color="#cfc8cd"/><stop offset="0.55" stop-color="#aab8d5"/><stop offset="0.72" stop-color="#7ba4de"/><stop offset="0.9" stop-color="#428ce9"/><stop offset="1" stop-color="#1f7df0"/></linearGradient><linearGradient id="linear-gradient-78" x1="205.72" y1="436.57" x2="205.72" y2="545" gradientTransform="translate(-193.03 125.91) rotate(-28.76)" xlink:href="#linear-gradient-77"/><linearGradient id="linear-gradient-79" x1="496.47" y1="421.64" x2="572.28" y2="504.6" xlink:href="#linear-gradient-6"/><linearGradient id="linear-gradient-80" x1="699.07" y1="443" x2="755.66" y2="504.92" gradientTransform="matrix(-1, 0, 0, 1, 1430.63, 0)" xlink:href="#linear-gradient-6"/><linearGradient id="linear-gradient-81" x1="701.09" y1="465.71" x2="736.78" y2="504.76" gradientTransform="matrix(-1, 0, 0, 1, 1430.63, 0)" xlink:href="#linear-gradient-6"/><linearGradient id="linear-gradient-82" x1="626.38" y1="402.13" x2="626.38" y2="540.06" xlink:href="#linear-gradient-77"/><linearGradient id="linear-gradient-83" x1="627.73" y1="123.84" x2="732.56" y2="214.26" gradientTransform="matrix(0.97, 0.22, -0.22, 0.97, 45.7, -139.31)" gradientUnits="userSpaceOnUse"><stop offset="0" stop-color="#ffe4cf"/><stop offset="0.13" stop-color="#f9e3d0"/><stop offset="0.29" stop-color="#e9e0d3"/><stop offset="0.47" stop-color="#cfdcd9"/><stop offset="0.67" stop-color="#aad6e0"/><stop offset="0.88" stop-color="#7cceea"/><stop offset="1" stop-color="#5cc9f0"/></linearGradient><linearGradient id="linear-gradient-84" x1="399.98" y1="49.07" x2="504.81" y2="139.49" gradientTransform="matrix(-1, -0.04, -0.04, 1, 630.78, 16.23)" xlink:href="#linear-gradient-83"/><linearGradient id="linear-gradient-85" x1="542.65" y1="29.24" x2="624.27" y2="70.85" gradientTransform="translate(92.91 -262.73) rotate(28.95)" xlink:href="#linear-gradient-83"/></defs><g class="cls-2"><g id="BACKGROUND"><rect class="cls-3" width="750" height="500"/></g><g id="OBJECTS"><g class="cls-4"><ellipse class="cls-5" cx="455.53" cy="300.4" rx="373.22" ry="235.66"/><path class="cls-6" d="M-30,38.91S33.2,21.34,83.56,29.54,141,145.48,141,145.48s2.34-12.89,15.22-8.2,16.4,30.45,16.4,30.45,9.36-21.08,25.76-26.94,35.13,38.65,35.13,38.65A40.89,40.89,0,0,1,260.4,168.9c16.39,0,18.74,34,18.74,34s24.59-12.88,42.16-7S333,281.32,333,281.32s19.91-8.19,26.93,0S365.8,320,365.8,320s18.74-19.91,24.59-12.88,8.2,17.57,8.2,17.57,15.22-28.11,24.59-24.6,14.06,24.6,14.06,24.6,26.93-14.06,43.33-9.37a103.69,103.69,0,0,1,28.1,12.88s-3.51-25.77,9.37-28.11,17.57,15.23,17.57,15.23,15.22-38.65,30.45-37.48,23.42,23.42,23.42,23.42,48-45.67,72.61-32.79,35.13,21.08,35.13,21.08,19.91-42.16,35.13-41,42.16,53.87,42.16,57.39,17.57,37.47,4.69,63.24-18.74,37.47-76.12,44.5-60.9,19.91-159.27,25.76-214.32,11.71-214.32,11.71-130-7-161.61-14.05S20.32,394.92-4.27,383.21-62.83,327-62.83,327l-7-52.7Z"/><path class="cls-6" d="M140.85,144.16c-6.15,1.61-7.48,8.9-7.48,8.9S126.34,45.32,76,37.12c-40.59-6.61-89.54,3.52-107,7.7l1-5.91s63.24-17.57,113.6-9.37C130.64,37.2,139.85,131.86,140.85,144.16Z"/><path class="cls-6" d="M171.86,163.85A68.47,68.47,0,0,0,165,175.31s-3.52-25.76-16.4-30.45a13.23,13.23,0,0,0-7.25-.82c1.07-3.23,4.67-10.46,14.83-6.76C165.93,140.82,170.32,156.47,171.86,163.85Z"/><path class="cls-6" d="M390.4,307.09c3.84,4.61,6.17,10.74,7.32,14.4A123.27,123.27,0,0,0,391,332.24s-2.34-10.54-8.2-17.57-24.59,12.89-24.59,12.89,1.17-30.45-5.86-38.65-26.93,0-26.93,0,5.85-79.64-11.71-85.49-42.16,7-42.16,7-2.35-34-18.74-34A40.89,40.89,0,0,0,225.88,187s-18.74-44.5-35.13-38.64a32.72,32.72,0,0,0-9.29,5.29c4.24-5.18,9.92-10.4,16.87-12.88,16.4-5.85,35.14,38.65,35.14,38.65A40.88,40.88,0,0,1,260.4,168.9c16.4,0,18.74,34,18.74,34s24.59-12.88,42.16-7S333,281.32,333,281.32s19.91-8.19,26.94,0S365.8,320,365.8,320,384.54,300.06,390.4,307.09Z"/><path class="cls-6" d="M501.09,335.75A104,104,0,0,0,473,322.87c-16.4-4.68-43.34,9.37-43.34,9.37s-4.68-21.08-14-24.59c-2.09-.79-4.47,0-6.91,1.71,4.71-5.91,10.22-10.9,14.5-9.3,9.37,3.52,14.05,24.6,14.05,24.6s26.94-14.06,43.33-9.37a106.44,106.44,0,0,1,20.28,8.23A61.88,61.88,0,0,0,501.09,335.75Z"/><path class="cls-7" d="M542.79,397.67,480,435.92s-36-11.63-47.18-12.06c-2.75-.11-9.08-1.64-17.07-3.88-24.36-6.84-64.09-20.34-64.09-20.34l2.23-2.92c9.88-12.93,49.68-64.84,59.55-75.09,11.3-11.73,36.33-7.13,41.26-13.58A65.19,65.19,0,0,1,464,297.84c7-5.93,12.47-6.4,16.86-4.26,6.92,3.35,11.15,13.15,14.41,18.29C502,322.48,542.79,397.67,542.79,397.67Z"/><path class="cls-8" d="M542.79,397.67,480,435.92s-36-11.63-47.18-12.06c-2.75-.11-9.08-1.64-17.07-3.88,3.24-26,11.19-81.25,19.92-78.68,11.39,3.35,24.8,9.72,26.48-1s17.77-5,21.79-17.77c2.42-7.67-.38-20.19-3-28.94,6.92,3.35,11.15,13.15,14.41,18.29C502,322.48,542.79,397.67,542.79,397.67Z"/><path class="cls-6" d="M464,297.84c-2.92,5.39-6.17,10.72-9,13.15-6.54,5.53-28.17,5.53-33.19,8.55S361,397.49,357.94,398c-.63.1-2.11-.38-4.09-1.27,9.88-12.93,49.68-64.84,59.55-75.09,11.3-11.73,36.33-7.13,41.26-13.58A65.19,65.19,0,0,1,464,297.84Z"/><path class="cls-9" d="M-23,180.56s26.33-34.23,71.09-43.88,100.06,86.89,100.06,86.89,10.53-10.54,21.94-8.78,18.43,28.08,18.43,28.08,8.76-37.79,42.12-45.69,49.16,90.46,49.16,90.46,8.78-7.9,16.68-3.52,12.28,16.68,12.28,16.68a34.67,34.67,0,0,1,29.85-7.9c18.43,3.51,13.16,76.36,13.16,76.36s-117.61-11.41-128.14-15.8S149,338.54,129.72,335,56,321,49,318.35,11.23,302.56,2.46,299.92s-36.87-20.18-36.87-20.18Z"/><path class="cls-6" d="M352.44,351.27c-.24-21.32-2.77-48.42-13.83-50.52a34.65,34.65,0,0,0-29.84,7.9s-4.39-12.29-12.29-16.68-16.67,3.52-16.67,3.52S264,197.13,230.64,205s-42.11,45.69-42.11,45.69-7-26.33-18.43-28.08-21.95,8.78-21.95,8.78S92.86,134.87,48.1,144.53-23,188.41-23,188.41l-10.57,91.86-.84-.53L-23,180.56S3.34,146.33,48.1,136.68s100.05,86.89,100.05,86.89,10.54-10.54,21.95-8.78,18.43,28.08,18.43,28.08,8.76-37.79,42.11-45.69,49.17,90.46,49.17,90.46,8.77-7.9,16.67-3.52,12.29,16.68,12.29,16.68a34.65,34.65,0,0,1,29.84-7.9C351.09,295.28,352.7,329.45,352.44,351.27Z"/><path class="cls-10" d="M-23,209.77s26.33-34.23,71.09-43.89,100.06,86.89,100.06,86.89,10.53-10.53,21.94-8.77,18.43,28.08,18.43,28.08,8.76-37.8,42.12-45.7,49.16,90.46,49.16,90.46,8.78-7.9,16.68-3.51S308.76,330,308.76,330a34.67,34.67,0,0,1,29.85-7.9c18.43,3.51,13.16,76.36,13.16,76.36s-117.61-11.41-128.14-15.8-74.6-14.92-93.91-18.43S56,350.19,49,347.56s-37.74-15.8-46.51-18.43-36.87-20.19-36.87-20.19Z"/><path class="cls-8" d="M-23,250.35s26.33-34.23,71.09-43.88,100.06,86.89,100.06,86.89,10.53-10.53,21.94-8.78,18.43,28.09,18.43,28.09,8.76-37.8,42.12-45.7,49.16,90.46,49.16,90.46,8.78-7.9,16.68-3.51,12.28,16.68,12.28,16.68a34.67,34.67,0,0,1,29.85-7.9c18.43,3.51,13.16,76.35,13.16,76.35s-117.61-11.41-128.14-15.79-74.6-14.92-93.91-18.44S56,390.78,49,388.15s-37.74-15.8-46.51-18.43-36.87-20.19-36.87-20.19Z"/><path class="cls-11" d="M813.51,435.78,643,453.82l-54.24,10.39L463,476.9,429.5,449.21s12.13-17.58,26.87-37.94c17.09-23.6,37.69-50.94,47-59,17.31-15,62.31-45,70.39-56.55s18.46-32.31,25.39-38.08c5.39-4.49,29-17.37,46.75-16.86a24.8,24.8,0,0,1,9.59,2,17.15,17.15,0,0,1,3.66,2.19c10.7,8.41,75,89.4,117.13,143.13C797.75,415.48,813.51,435.78,813.51,435.78Z"/><path class="cls-8" d="M776.26,388.09l-1.74,8.05-64.5,44s-96.45,6.63-124.18-28.33-18.08-54.25,8.44-62.09,38-6,38.58-19.89,45.21-9.65,46.42-19.89-18.09-24.72-24.72-46.42c-2.72-8.89-1.49-15.75.91-20.76a17.15,17.15,0,0,1,3.66,2.19C669.83,253.37,734.09,334.36,776.26,388.09Z"/><path class="cls-6" d="M645.88,240.79a12.72,12.72,0,0,1-6.09,4.4c-10.79,3.76-20.66,6.57-25.35,22.07S583,292.61,579.22,300.6s-2.35,13.14-16,22.54S511.14,347.08,506,353.66s-34.74,53.53-34.74,53.53l-14.86,4.08c17.09-23.6,37.69-50.94,47-59,17.31-15,62.31-45,70.39-56.55s18.46-32.31,25.39-38.08C604.52,253.16,628.08,240.28,645.88,240.79Z"/><path class="cls-12" d="M747.58,365.88s-14.3-21.46-48-26.57-49,18.39-49,18.39-36.19-22.78-64.79-22.78S529,382.22,529,382.22s-9.19-23.5-22.47-17.37-17.37,27.59-17.37,27.59-36.78-48-58.23-46-80.71,67.42-80.71,67.42,54.14,36.78,69.47,39.85,83.77,22.47,97.05,22.47,74.58-15.32,84.8-16.34,79.68-21.46,79.68-21.46Z"/><path class="cls-6" d="M747.59,365.88l-1.46,1.6c-4.42-5.38-19-20.46-46.56-24.64-33.72-5.11-49,18.39-49,18.39s-36.18-22.79-64.79-22.79S529,385.75,529,385.75s-9.2-23.5-22.48-17.37S489.11,396,489.11,396s-36.78-48-58.23-46c-19.1,1.83-68.2,53.89-78.71,65.25l-2-1.35s59.26-65.38,80.71-67.42,58.23,46,58.23,46,4.09-21.46,17.37-27.59S529,382.22,529,382.22s28.18-47.3,56.78-47.3,64.79,22.78,64.79,22.78,15.32-23.49,49-18.39S747.59,365.88,747.59,365.88Z"/><path class="cls-10" d="M747.58,389.47s-14.3-21.46-48-26.56-49,18.39-49,18.39-36.19-22.79-64.79-22.79S529,405.82,529,405.82s-9.19-23.5-22.47-17.37S489.11,416,489.11,416s-36.78-48-58.23-46-80.71,67.43-80.71,67.43,54.14,36.77,69.47,39.84,83.77,22.48,97.05,22.48,74.58-15.33,84.8-16.35S681.17,462,681.17,462Z"/><path class="cls-8" d="M747.58,409.59s-14.3-21.45-48-26.56-49,18.39-49,18.39-36.19-22.79-64.79-22.79S529,425.94,529,425.94s-9.19-23.5-22.47-17.37-17.37,27.58-17.37,27.58-36.78-48-58.23-46-80.71,67.43-80.71,67.43,54.14,36.78,69.47,39.84,83.77,22.48,97.05,22.48,74.58-15.33,84.8-16.35,79.68-21.45,79.68-21.45Z"/><path class="cls-13" d="M495.42,452.58s-6.77-44.48-1.45-41.1,8.21,20.79,8.21,20.79,2.9-13.53,6.29-12.08a43.17,43.17,0,0,1,7.25,4.35s1.93-19.34,4.83-21.28,4.36,14.51,4.36,14.51,1.45-5.32,3.38-6.77,6.28,2.42,6.28,2.42-1-11.61,1.94-16,7.73,13.06,7.73,13.06,4.84-2.42,6.29-5.32,4.83.48,4.83.48a31.2,31.2,0,0,1,4.84-10.15c3.38-4.35,10.15,18.37,10.15,18.37l-29,10.64a40.43,40.43,0,0,0-10.15,5.8c-4.83,3.87-12.09,6.28-15.47,8.22S495.42,452.58,495.42,452.58Z"/><path class="cls-14" d="M550.78,541.22c-5.58-.33-25.49-.93-54.09-1.65-37.42-.93-89.7-2.06-144.18-3.06-43.38-.79-88.15-1.5-127.92-1.94-57.94-.64-105.26-.73-122.17.27-21.2,1.25-49,3-74.92,4.63C-13,542-49.16,544.41-49.16,544.41l-6.39-33.51,1.71-12.09,3.47-24.63,33.12-234.53a218,218,0,0,1,30.32-8.29h0a280,280,0,0,1,47.28-5.7A243.81,243.81,0,0,1,103.87,228q9.52,1.37,19.29,3.68c65.17,15.58,95.11,60.09,134.51,81.05a100.67,100.67,0,0,0,15.48,6.71c47.87,16,106.9,16,146.79,41.49a95.74,95.74,0,0,1,8.34,6h0C449,383.53,461,406.69,476.53,425l1.36,1.59c9,10.32,19.25,18.93,33,23.69,17,5.88,32.9,10.16,46.11,15.9,19,8.27,32.44,19.58,35.27,43.14C597.06,549.2,577.91,542.81,550.78,541.22Z"/><path class="cls-15" d="M476.53,425c-5.87,2.08-13.07-1.26-19.23-8.69-1.25-11.39-10.67-23.75-27.85-32-23.15-11.08-83.56-17.12-127.35-20.14-13.35-.92-23.52-4.6-31.2-9.27a59,59,0,0,1-9.72-17.82,40.46,40.46,0,0,0-22-24.13l-.82-.37c-22.48-10.28-57.82.64-66.17-6.43s-.65-39.19-19.92-54c-10.65-8.16-31.69-17.5-48.39-24.22q9.52,1.37,19.29,3.68c65.17,15.58,95.11,60.09,134.51,81.05a100.67,100.67,0,0,0,15.48,6.71c47.87,16,106.9,16,146.79,41.49a95.74,95.74,0,0,1,8.34,6h0C449,383.53,461,406.69,476.53,425Z"/><path class="cls-16" d="M557,466.17c-3.7,20.65-20.86,53.23-23.57,58-1.61,2.83-18.47,9.47-36.74,15.43-67.21-1.67-182.39-4-272.1-5C204,519,181.15,499.29,181.15,499.29S221.43,435.86,278,447c4.31.85,8.49,1.91,12.55,3.14,17.74,5.37,33.24,13.94,47,21.95,24.47,14.25,43.39,26.7,59.62,16.05,27.43-18,51.43-36,72.85-48.85a16,16,0,0,0,7.89-12.71c9,10.32,19.25,18.93,33,23.69C527.88,456.15,543.79,460.43,557,466.17Z"/><path class="cls-16" d="M175.5,419.84c-12.92,23.81-43.51,45.44-81.78,58C45.57,493.68-19.16,483-50.37,474.18l33.12-234.53a218,218,0,0,1,30.32-8.29h0a280,280,0,0,1,47.28-5.7c-12.28,15.49-19.51,37.33-6.93,66.2,29.15,66.85,108.86,48.85,125.15,86.57C184.48,392.09,182.84,406.32,175.5,419.84Z"/><path class="cls-16" d="M352.51,536.51c-43.38-.79-88.15-1.5-127.92-1.94-57.94-.64-105.26-.73-122.17.27-21.2,1.25-49,3-74.92,4.63C-7.57,529.75-32.17,521-32.17,521l-21.67-22.17,3.47-24.63,33.12-234.53a218,218,0,0,1,30.32-8.29C6.44,252.5-2.45,295.49,18.75,336.61c29,56.19,116.78,64.09,141.36,75.5,5.23,2.43,10.29,5.05,15.39,7.73,18.87,9.89,38.1,20.42,67.14,23.88,36.87,4.39,76.38,15.8,93.07,48.29C346.9,513.81,354.54,525.72,352.51,536.51Z"/><path class="cls-17" d="M828.2,355.53l-3,140.4-1.44,67-434-8.89s3.88-5.28,10.73-13.86c28.3-35.44,107.34-127.11,172.94-134.27,81.47-8.89,87.4-25.18,134.8-56.29a72.09,72.09,0,0,1,20.3-9.12c18.07-5.05,37.56-3.68,54.48-.22A198.1,198.1,0,0,1,828.2,355.53Z"/><path class="cls-16" d="M828.2,355.53l-3,140.4c-19.74,28.17-50,59.19-83.26,58.85-58.81-.6-100.82-48.6-99-95.41s82.22-45,94.22-76.82c6.87-18.19-.8-32.86-8.61-42.07C773.86,327.81,828.2,355.53,828.2,355.53Z"/><path class="cls-15" d="M783,340.26a37.38,37.38,0,0,1-17.66.28c-27-5.4-53.41,15.61-68.42,29.41s-23.4,29.41-43.8,38.41-98.42,7.2-142.83,35.4-81.62,81-81.62,81l-28.19,15.38c28.3-35.44,107.34-127.11,172.94-134.27,81.47-8.89,87.4-25.18,134.8-56.29a72.09,72.09,0,0,1,20.3-9.12C746.59,335.43,766.08,336.8,783,340.26Z"/><path class="cls-18" d="M330.33,490.52s16.51-24.33,19.39-34.06-20.63,10.76-20.63,10.76,4-22.78-.37-29-17.56,17.23-17.56,17.23,3.54-21.58-4.32-23.05-11.08,17.53-11.08,17.53-1.25-13.22-6.78-11.16-13.23,33.57-13.23,33.57Z"/><path class="cls-19" d="M195.72,454.66s13.73-20.24,16.13-28.32-17.16,8.94-17.16,8.94,3.3-18.94-.31-24.15-14.61,14.33-14.61,14.33,2.95-17.95-3.59-19.18S167,420.87,167,420.87s-1-11-5.64-9.29-11,27.92-11,27.92Z"/><path class="cls-20" d="M372.74,515.61l-411-1.54-12.31-36.94s3.07-47.71,33.86-63.11c7.6-3.81,19-7.23,32.66-9.68a260.47,260.47,0,0,1,52.15-3.71c33.05.91,68.81,8,96.82,25.71,58.49,36.94,93.82,27,130.76,31.64a47.8,47.8,0,0,1,5.92,1.13c13.84,3.54,27.81,13,39.65,23.27A245.14,245.14,0,0,1,372.74,515.61Z"/><path class="cls-21" d="M372.74,515.61l-411-1.54-12.31-36.94s3.07-47.71,33.86-63.11c7.6-3.81,19-7.23,32.66-9.68,2.21,19.37,10,47.82,36.25,54.46C93,469.1,208.59,477.52,244.63,484.08s53.37,9.83,81,1.4a81.42,81.42,0,0,1,15.64-3.1A245.14,245.14,0,0,1,372.74,515.61Z"/><path class="cls-15" d="M301.62,459.11a68.44,68.44,0,0,0-24.21,1.09c-28.09,6.09-79.12,6.56-95.51-11.23s-36.52-30.43-66-34.18c-15.72-2-35.17-7.85-47.77-14.16,33.05.91,68.81,8,96.82,25.71,58.49,36.94,93.82,27,130.76,31.64A47.8,47.8,0,0,1,301.62,459.11Z"/><path class="cls-22" d="M137.3,299.94s-36.46,100.2-13.58,285.78"/><path class="cls-23" d="M134.69,294.92l-10.11.51s-10.42-28.25-15.82-50.77c-4.14-17.22-5.33-31.08,3.32-26.33s14,19.67,17.35,35.14A277.54,277.54,0,0,1,134.69,294.92Z"/><path class="cls-24" d="M134.69,294.92l-10.11.51s-10.42-28.25-15.82-50.77C114.22,256,127.22,284,130,281.57c1.92-1.66.82-15.77-.58-28.1A277.54,277.54,0,0,1,134.69,294.92Z"/><path class="cls-25" d="M158.19,240c-4.39,18.34-12.94,43.17-17.11,55-1.48,4.21-2.42,6.75-2.42,6.75l-2.5-1.1L131,298.35a93.88,93.88,0,0,1,5.8-52.31,83.21,83.21,0,0,1,13.81-22C162.88,209.91,162.59,221.73,158.19,240Z"/><path class="cls-24" d="M158.19,240c-4.39,18.34-12.94,43.17-17.11,55a68.31,68.31,0,0,1-4.92,5.65L131,298.35a93.88,93.88,0,0,1,5.8-52.31c-.46,9.88-1.3,28.7,2.21,25.53C142.72,268.23,153.52,248.51,158.19,240Z"/><path class="cls-26" d="M144,300.45l-9.78-3.87s5-21.28,16.34-38.48C158.5,246,169.52,235.92,184,236.73c4.27.25,6.9,1.35,8.24,3.15C202,252.8,144,300.45,144,300.45Z"/><path class="cls-24" d="M144,300.45l-9.78-3.87s5-21.28,16.34-38.48c-5.41,13.33-13.45,34-5.87,29.87,8.78-4.82,36.67-35.77,47.57-48.09C202,252.8,144,300.45,144,300.45Z"/><path class="cls-27" d="M212.17,284c-.23,12.62-67,22.76-67,22.76l-6.23-7.6s19.88-18.6,41.61-23.8c8.8-2.11,17.9-2,26.09,2.41C210.54,279.92,212.22,282,212.17,284Z"/><path class="cls-24" d="M212.17,284c-.23,12.62-67,22.76-67,22.76l-6.23-7.6s19.88-18.6,41.61-23.8c-7.06,6.35-24.28,21.66-7.86,19.72C188.27,293.28,205.09,286.94,212.17,284Z"/><path class="cls-28" d="M196.91,313.07c-2.58,20.46-53.42-4.41-53.42-4.41l-1.58-6.38.87-.19c6.9-1.47,52.45-10.55,54.16,7.65A15.28,15.28,0,0,1,196.91,313.07Z"/><path class="cls-24" d="M196.91,313.07c-2.58,20.46-53.42-4.41-53.42-4.41l-1.58-6.38.87-.19C148.8,305,173.05,316,186.5,317,192.45,317.47,195.45,315.57,196.91,313.07Z"/><path class="cls-29" d="M155.1,347a15.83,15.83,0,0,1-6.25,1.91C131.12,350,134,306.12,134,306.12l6.19-4.77a113.09,113.09,0,0,1,14.35,15.7C162.18,327.5,167.73,340.44,155.1,347Z"/><path class="cls-24" d="M148.85,348.87C131.12,350,134,306.12,134,306.12l6.19-4.77a113.09,113.09,0,0,1,14.35,15.7c-5.18-4.25-11.36-8.46-14.17-7.13C135.75,312.1,146,341.18,148.85,348.87Z"/><path class="cls-30" d="M134.93,303.87s-5.7,27.07-17.45,35.56c-4.18,3-9.14,3.67-14.88-.09-6.16-4-7.27-8.64-5.58-13.23,4.69-12.68,30.71-25.26,30.71-25.26Z"/><path class="cls-24" d="M134.93,303.87s-5.7,27.07-17.45,35.56c5.1-9.69,15.68-30.54,13.66-33.25S107.59,318.52,97,326.11c4.69-12.68,30.71-25.26,30.71-25.26Z"/><path class="cls-31" d="M131.14,303.62s-87.09,26.77-69.89.83c.06-.1.14-.19.21-.29,10.7-15.73,32.19-15.31,47.09-12.65a101.27,101.27,0,0,1,16,4.12Z"/><path class="cls-24" d="M131.14,303.62s-87.09,26.77-69.89.83c.06-.1.14-.19.21-.29,4.82,3,14,5.76,30.95,2.91,22.39-3.78,19.36-11.64,16.14-15.56a101.27,101.27,0,0,1,16,4.12Z"/><path class="cls-32" d="M130.52,293.53l-9.87,5.55s-28-18.42-44.7-35C64.25,252.4,58.11,241.65,71,238.72c12.51-2.83,24.52,5.32,34.41,16.14C120.36,271.17,130.52,293.53,130.52,293.53Z"/><path class="cls-24" d="M130.52,293.53l-9.87,5.55s-28-18.42-44.7-35c14.85,8.09,42,22.26,43.52,18.49,1.45-3.55-7.85-18.43-14-27.69C120.36,271.17,130.52,293.53,130.52,293.53Z"/><ellipse class="cls-33" cx="130.65" cy="298.41" rx="10.02" ry="12.33" transform="translate(-176.67 406.45) rotate(-85.72)"/><path class="cls-24" d="M143,299.33c-.41,5.52-6.26,9.58-13,9.07s-12-5.39-11.55-10.91c.25-3.4,2.57-6.26,5.91-7.83a7.54,7.54,0,0,0-2.37,4.87c-.35,4.77,4.12,9,10,9.44,5.24.39,9.84-2.35,11-6.35A8.11,8.11,0,0,1,143,299.33Z"/><path class="cls-34" d="M115.36,473.36c.07-.31,3.56-14.66,9.73-33.13,12.17-36.39,34.74-88.76,62.07-81.17,4.29,1.19,6.91,3.36,8.17,6.3C206.2,390.57,116.68,472.16,115.36,473.36Z"/><path class="cls-35" d="M115.36,473.36c.07-.31,3.56-14.66,9.73-33.13-.83,6.73-.42,10.79,3.77,5.77,8.58-10.3,32.19-53.23,32.62-46.79s-21.89,37.35-8.16,26.18c9.92-8.06,31.05-41.88,42-60C206.2,390.57,116.68,472.16,115.36,473.36Z"/><path class="cls-36" d="M116.11,442.18c0-.23.46-10.55-.09-24.16-1.1-26.82-6.07-66.4-25.91-66.62-3.12,0-5.3.91-6.72,2.64C71.18,368.86,115.45,441.11,116.11,442.18Z"/><path class="cls-35" d="M116.11,442.18c0-.23.46-10.55-.09-24.16-.75,4.68-1.82,7.33-3.66,3.14-3.76-8.59-11.27-42-12.81-37.79s7.44,29.36.39,19.18c-5.1-7.34-12.72-34.18-16.55-48.51C71.18,368.86,115.45,441.11,116.11,442.18Z"/><path class="cls-37" d="M714.64,396.33s-44,39-81.7,134.89"/><path class="cls-38" d="M714.69,393.21l-5-2.41s2.38-16.43,5.68-28.75c2.52-9.43,5.59-16.46,8.53-11.89s1.63,13.22-.83,21.59A152.18,152.18,0,0,1,714.69,393.21Z"/><path class="cls-24" d="M714.69,393.21l-5-2.41s2.38-16.43,5.68-28.75c-.34,6.94-1.39,23.89.6,23.46,1.36-.29,4.54-7.42,7.1-13.76A152.18,152.18,0,0,1,714.69,393.21Z"/><path class="cls-39" d="M740.51,372.79c-7,7.73-17.61,17.52-22.73,22.13-1.83,1.65-2.95,2.63-2.95,2.63l-.92-1.19L712,393.91a51.78,51.78,0,0,1,16.56-23.82,45.79,45.79,0,0,1,12.49-7C750.69,359.44,747.45,365.09,740.51,372.79Z"/><path class="cls-24" d="M740.51,372.79c-7,7.73-17.61,17.52-22.73,22.13a38.72,38.72,0,0,1-3.87,1.44L712,393.91a51.78,51.78,0,0,1,16.56-23.82c-2.82,4.67-8.18,13.57-5.64,13S736,375.68,740.51,372.79Z"/><path class="cls-40" d="M717.76,398.34,714,393.9s8-9,18-14.35c7-3.79,15-5.77,21.83-1.56,2,1.24,3,2.47,3.16,3.69C758.38,390.5,717.76,398.34,717.76,398.34Z"/><path class="cls-24" d="M717.76,398.34,714,393.9s8-9,18-14.35c-6.12,5-15.46,12.94-10.69,12.93,5.52,0,27.16-7.69,35.68-10.8C758.38,390.5,717.76,398.34,717.76,398.34Z"/><path class="cls-41" d="M755.09,408.31c-3.42,6.05-38.46-6.6-38.46-6.6l-1-5.32s14.52-3.78,26.41-.59c4.82,1.29,9.2,3.73,12,8C755.38,405.88,755.65,407.33,755.09,408.31Z"/><path class="cls-24" d="M755.09,408.31c-3.42,6.05-38.46-6.6-38.46-6.6l-1-5.32s14.52-3.78,26.41-.59c-5.09,1.22-17.46,4.12-9,7.49C741.08,406.5,750.9,407.85,755.09,408.31Z"/><path class="cls-42" d="M740.07,418.36c-6.63,9.24-24.73-16.18-24.73-16.18l.91-3.5.48.13c3.73,1.1,28.18,8.68,24.23,17.95A8.85,8.85,0,0,1,740.07,418.36Z"/><path class="cls-24" d="M740.07,418.36c-6.63,9.24-24.73-16.18-24.73-16.18l.91-3.5.48.13c2.15,3,11,14.71,17.25,18.73C736.75,419.32,738.71,419.19,740.07,418.36Z"/><path class="cls-43" d="M710.91,423.79a8.81,8.81,0,0,1-3.54-.71c-8.88-4.12,4-24.63,4-24.63l4.25-.69a62.12,62.12,0,0,1,2.83,11.38C719.45,416.23,718.74,424,710.91,423.79Z"/><path class="cls-24" d="M707.37,423.08c-8.88-4.12,4-24.63,4-24.63l4.25-.69a62.12,62.12,0,0,1,2.83,11.38c-1.39-3.41-3.28-7.08-5-7.17C710.69,401.81,708,418.61,707.37,423.08Z"/><path class="cls-44" d="M712.46,397.61s-9.88,11.62-17.8,12.64c-2.82.36-5.4-.62-7.19-3.95-1.93-3.57-1.25-6.1.78-7.87,5.6-4.92,21.51-4.18,21.51-4.18Z"/><path class="cls-24" d="M712.46,397.61s-9.88,11.62-17.8,12.64c5-3.35,15.62-10.67,15.35-12.52s-14.65-.21-21.76.7c5.6-4.92,21.51-4.18,21.51-4.18Z"/><path class="cls-45" d="M710.69,396.5s-49.23-9.93-34.08-18l.18-.09c9.31-4.81,19.62,1,26.13,6.25a56.07,56.07,0,0,1,6.65,6.19Z"/><path class="cls-24" d="M710.69,396.5s-49.23-9.93-34.08-18l.18-.09c1.53,2.74,5.27,6.48,14.22,9.55,11.85,4.05,12.44-.55,11.91-3.3a56.07,56.07,0,0,1,6.65,6.19Z"/><path class="cls-46" d="M713,391.44l-6.24.1s-8.73-16.29-12.45-28.72c-2.61-8.72-2.76-15.55,4.28-13.57,6.8,1.92,10.48,9,12.43,16.87C714,377.94,713,391.44,713,391.44Z"/><path class="cls-24" d="M713,391.44l-6.24.1s-8.73-16.29-12.45-28.72c5.06,7.83,14.48,21.82,16.22,20.4s1-11,.49-17.1C714,377.94,713,391.44,713,391.44Z"/><ellipse class="cls-47" cx="711.82" cy="393.84" rx="5.52" ry="6.8" transform="translate(-4.54 779.37) rotate(-57.24)"/><path class="cls-24" d="M717.54,397.52c-1.65,2.57-5.55,3-8.71,1s-4.38-5.76-2.73-8.33a5.35,5.35,0,0,1,4.93-2.23,4.14,4.14,0,0,0-2.43,1.73c-1.43,2.22-.37,5.45,2.36,7.2,2.43,1.57,5.38,1.45,7-.18A4.71,4.71,0,0,1,717.54,397.52Z"/><path class="cls-48" d="M658.42,474.59c.12-.14,5.58-6.17,13.43-13.5,15.46-14.43,40.16-33.87,51.4-23a6.32,6.32,0,0,1,2.31,5.2C724.2,458.35,659.38,474.35,658.42,474.59Z"/><path class="cls-35" d="M658.42,474.59c.12-.14,5.58-6.17,13.43-13.5-2.18,3-3,5.12.31,3.79,6.86-2.74,29.58-17.33,28.1-14.1s-20.42,12.34-10.84,10.54c6.93-1.3,26.06-12.13,36.14-18C724.2,458.35,659.38,474.35,658.42,474.59Z"/><path class="cls-49" d="M667,459.67c.07-.1,3-5,6.31-11.72,6.52-13.29,14.51-33.77,5-39.09a4.44,4.44,0,0,0-4-.49C664.49,412.35,667,459,667,459.67Z"/><path class="cls-35" d="M667,459.67c.07-.1,3-5,6.31-11.72-1.6,2.07-2.81,3.07-2.6.56.44-5.15,5.59-23.33,3.73-21.68s-4.11,16.18-4.86,9.4c-.53-4.9,2.83-19.91,4.74-27.86C664.49,412.35,667,459,667,459.67Z"/><path class="cls-50" d="M631.33,394.49s-12.45,45.74,4.55,127.11"/><path class="cls-51" d="M630,392.36l-4.46.6s-5.66-12.13-8.88-21.9c-2.47-7.48-3.51-13.57.49-11.79s7,8.2,9,14.92A123.19,123.19,0,0,1,630,392.36Z"/><path class="cls-24" d="M630,392.36l-4.46.6s-5.66-12.13-8.88-21.9c2.84,4.83,9.63,16.73,10.78,15.56.79-.8-.22-7-1.3-12.43A123.19,123.19,0,0,1,630,392.36Z"/><path class="cls-52" d="M638.36,367.17c-1.26,8.29-4.13,19.6-5.54,25-.5,1.92-.83,3.08-.83,3.08l-1.14-.4-2.36-.81a41.78,41.78,0,0,1,.63-23.39,37.1,37.1,0,0,1,5.31-10.28C639.33,353.66,639.64,358.91,638.36,367.17Z"/><path class="cls-24" d="M638.36,367.17c-1.26,8.29-4.13,19.6-5.54,25-.73,1.08-1.42,2-2,2.68l-2.36-.81a41.78,41.78,0,0,1,.63-23.39c.16,4.39.49,12.76,1.93,11.23S636.61,371.11,638.36,367.17Z"/><path class="cls-53" d="M634.32,394.47l-4.48-1.35a62,62,0,0,1,5.82-17.66c3.06-5.66,7.57-10.53,14-10.7,1.91-.05,3.11.34,3.77,1.09C658.24,371.21,634.32,394.47,634.32,394.47Z"/><path class="cls-24" d="M634.32,394.47l-4.48-1.35a62,62,0,0,1,5.82-17.66c-1.9,6.11-4.7,15.57-1.5,13.45,3.72-2.46,14.93-17.2,19.3-23.06C658.24,371.21,634.32,394.47,634.32,394.47Z"/><path class="cls-54" d="M663.9,384.68c.37,5.6-28.85,12.56-28.85,12.56l-3-3.14s8.12-9,17.55-12.08a16.09,16.09,0,0,1,11.65.1C663,382.91,663.85,383.77,663.9,384.68Z"/><path class="cls-24" d="M663.9,384.68c.37,5.6-28.85,12.56-28.85,12.56l-3-3.14s8.12-9,17.55-12.08c-2.89,3.07-9.95,10.49-2.75,9C653.66,389.65,660.88,386.22,663.9,384.68Z"/><path class="cls-55" d="M658.22,398.1c-.38,9.16-23.83,0-23.83,0l-.94-2.77.38-.12c3-.91,22.85-6.61,24.28,1.39A7,7,0,0,1,658.22,398.1Z"/><path class="cls-24" d="M658.22,398.1c-.38,9.16-23.83,0-23.83,0l-.94-2.77.38-.12c2.78,1.07,13.93,5.05,19.92,5C656.41,400.22,657.67,399.26,658.22,398.1Z"/><path class="cls-56" d="M641,414.66a6.83,6.83,0,0,1-2.7,1.08c-7.81,1.16-8.17-18.39-8.17-18.39l2.56-2.34a49.91,49.91,0,0,1,6.94,6.42C643.37,405.78,646.3,411.31,641,414.66Z"/><path class="cls-24" d="M638.25,415.74c-7.81,1.16-8.17-18.39-8.17-18.39l2.56-2.34a49.91,49.91,0,0,1,6.94,6.42c-2.45-1.69-5.34-3.33-6.54-2.63C631.09,399.93,636.72,412.44,638.25,415.74Z"/><path class="cls-57" d="M630.42,396.32s-1.52,12.2-6.41,16.4c-1.75,1.49-3.92,2-6.6.51-2.88-1.56-3.54-3.56-3-5.65,1.61-5.8,12.67-12.33,12.67-12.33Z"/><path class="cls-24" d="M630.42,396.32s-1.52,12.2-6.41,16.4c1.9-4.48,5.81-14.11,4.82-15.24s-10,6.34-14.38,10.1c1.61-5.8,12.67-12.33,12.67-12.33Z"/><path class="cls-58" d="M628.73,396.35s-37.59,15.08-30.93,2.95l.09-.13c4.15-7.37,13.69-8,20.39-7.35a44.49,44.49,0,0,1,7.21,1.24Z"/><path class="cls-24" d="M628.73,396.35s-37.59,15.08-30.93,2.95l.09-.13c2.24,1.16,6.42,2,13.81.14,9.78-2.5,8.15-5.87,6.58-7.49a44.49,44.49,0,0,1,7.21,1.24Z"/><path class="cls-59" d="M628.09,391.9l-4.17,2.83s-13.09-7.13-21.1-13.86c-5.61-4.74-8.73-9.27-3.11-11.05,5.43-1.72,11.06,1.45,15.84,5.88C622.76,382.37,628.09,391.9,628.09,391.9Z"/><path class="cls-24" d="M628.09,391.9l-4.17,2.83s-13.09-7.13-21.1-13.86c6.88,3,19.42,8.31,20,6.57s-4.15-7.87-7.23-11.74C622.76,382.37,628.09,391.9,628.09,391.9Z"/><ellipse class="cls-60" cx="628.32" cy="394.06" rx="5.48" ry="4.46" transform="translate(-3.4 5.47) rotate(-0.5)"/><path class="cls-24" d="M633.81,394c0,2.46-2.42,4.48-5.45,4.5s-5.5-1.94-5.52-4.41a4.29,4.29,0,0,1,2.34-3.68,3.32,3.32,0,0,0-.87,2.24c0,2.13,2.15,3.84,4.77,3.82,2.33,0,4.26-1.41,4.64-3.22A4.52,4.52,0,0,1,633.81,394Z"/><path class="cls-61" d="M628,472.13c0-.14,1-6.63,3.08-15,4-16.57,12.11-40.6,24.5-38.25a5.11,5.11,0,0,1,3.85,2.49C665.2,432.09,628.56,471.55,628,472.13Z"/><path class="cls-35" d="M628,472.13c0-.14,1-6.63,3.08-15-.11,3,.22,4.8,1.89,2.42,3.42-4.88,12.29-24.77,12.72-21.94s-8.32,17.36-2.65,11.9c4.1-3.93,12.21-19.7,16.39-28.14C665.2,432.09,628.56,471.55,628,472.13Z"/><path class="cls-62" d="M627.2,458.29c0-.1-.19-4.69-.93-10.7-1.48-11.84-5.15-29.2-13.95-28.56a3.55,3.55,0,0,0-2.87,1.42C604.58,427.47,626.87,457.84,627.2,458.29Z"/><path class="cls-35" d="M627.2,458.29c0-.1-.19-4.69-.93-10.7-.16,2.1-.54,3.31-1.51,1.53-2-3.67-6.55-18.21-7.07-16.27s4.38,12.73.88,8.48c-2.53-3.06-6.9-14.67-9.12-20.88C604.58,427.47,626.87,457.84,627.2,458.29Z"/><path class="cls-63" d="M64.47,419s1.88,63.36,55.31,160.84"/><path class="cls-64" d="M61.92,416.84l-5.47,2.5s-12-13.32-19.9-24.56c-6.07-8.61-9.78-16-4-15.28s12.08,7.78,17.31,15.59A165,165,0,0,1,61.92,416.84Z"/><path class="cls-24" d="M61.92,416.84l-5.47,2.5s-12-13.32-19.9-24.56c5.51,5.08,18.83,17.65,19.85,15.71.7-1.34-3-8.89-6.5-15.4A165,165,0,0,1,61.92,416.84Z"/><path class="cls-65" d="M62.83,381.35c1.61,11.09,2.34,26.68,2.63,34.11.11,2.65.14,4.26.14,4.26L64,419.66l-3.34-.13a55.7,55.7,0,0,1-8.29-30.16,49.34,49.34,0,0,1,2.78-15.22C58.8,363.68,61.24,370.27,62.83,381.35Z"/><path class="cls-24" d="M62.83,381.35c1.61,11.09,2.34,26.68,2.63,34.11-.51,1.67-1,3.14-1.47,4.2l-3.34-.13a55.7,55.7,0,0,1-8.29-30.16c1.91,5.55,5.58,16.14,6.83,13.61S62.12,387.06,62.83,381.35Z"/><path class="cls-66" d="M68.28,417.84H62S60.15,405,62.6,393c1.71-8.43,5.59-16.41,13.79-19.16,2.41-.8,4.1-.77,5.24-.07C89.84,378.77,68.28,417.84,68.28,417.84Z"/><path class="cls-24" d="M68.28,417.84H62S60.15,405,62.6,393c-.05,8.56,0,21.75,3.32,17.79,3.8-4.59,12.4-27.81,15.71-37C89.84,378.77,68.28,417.84,68.28,417.84Z"/><path class="cls-67" d="M102.32,393.79c2.65,7-32,27.31-32,27.31l-5.11-2.83S72.08,403.63,82.94,396c4.4-3.1,9.45-5.05,15-4.41C100.52,391.88,101.9,392.66,102.32,393.79Z"/><path class="cls-24" d="M102.32,393.79c2.65,7-32,27.31-32,27.31l-5.11-2.83S72.08,403.63,82.94,396c-2.5,5.06-8.65,17.3,0,12.62C91.15,404.15,99.05,397,102.32,393.79Z"/><path class="cls-68" d="M100.28,413.18c3.07,11.87-30.48,9.31-30.48,9.31l-2.28-3.17L68,419c3.49-2.33,26.65-17.36,31.6-7.68A9.16,9.16,0,0,1,100.28,413.18Z"/><path class="cls-24" d="M100.28,413.18c3.07,11.87-30.48,9.31-30.48,9.31l-2.28-3.17L68,419c4,.29,19.79,1,27.43-1.36C98.78,416.59,100,414.88,100.28,413.18Z"/><path class="cls-69" d="M84.63,441.09a9.42,9.42,0,0,1-3,2.43C72.05,448.05,64,423.18,64,423.18l2.37-4a67.18,67.18,0,0,1,11.38,5.52C84.26,428.79,90.17,434.72,84.63,441.09Z"/><path class="cls-24" d="M81.6,443.52C72.05,448.05,64,423.18,64,423.18l2.37-4a67.18,67.18,0,0,1,11.38,5.52c-3.79-1.2-8.14-2.18-9.39-.82C66.28,426.09,78.35,439.9,81.6,443.52Z"/><path class="cls-70" d="M64,421.73s2.8,16.2-1.82,23.47c-1.65,2.59-4.25,4-8.24,3.23-4.29-.87-5.92-3.18-6-6.08-.2-8,11.4-20.71,11.4-20.71Z"/><path class="cls-24" d="M64,421.73s2.8,16.2-1.82,23.47c.68-6.47,1.94-20.31.23-21.36s-10.29,12-14.46,18.51c-.2-8,11.4-20.71,11.4-20.71Z"/><path class="cls-71" d="M61.87,422.42s-42.22,33.93-38.42,15.82a1.94,1.94,0,0,1,.05-.2C26,427,37.91,422.5,46.73,420.7a60.22,60.22,0,0,1,9.71-1.23Z"/><path class="cls-24" d="M61.87,422.42s-42.22,33.93-38.42,15.82a1.94,1.94,0,0,1,.05-.2c3.33.61,9,.1,17.73-5.2,11.54-7,8.14-10.68,5.5-12.14a60.22,60.22,0,0,1,9.71-1.23Z"/><path class="cls-72" d="M59.31,417l-4.23,5.24s-19.53-4-32.39-9.52c-9-3.87-14.78-8.46-8.29-12.91,6.29-4.32,14.72-2.46,22.56,1.35C48.78,406.87,59.31,417,59.31,417Z"/><path class="cls-24" d="M59.31,417l-4.23,5.24s-19.53-4-32.39-9.52c10,1.21,28.08,3.07,28.1.65S42.41,404.89,37,401.14C48.78,406.87,59.31,417,59.31,417Z"/><ellipse class="cls-73" cx="60.45" cy="419.65" rx="7.33" ry="5.96" transform="matrix(0.95, -0.3, 0.3, 0.95, -122.89, 37.36)"/><path class="cls-24" d="M67.45,417.45c1,3.15-1.35,6.67-5.21,7.88s-7.79-.34-8.78-3.49A5.73,5.73,0,0,1,55,416.22a4.41,4.41,0,0,0-.24,3.21c.85,2.72,4.25,4.07,7.59,3,3-.93,4.91-3.46,4.68-5.92A4.23,4.23,0,0,1,67.45,417.45Z"/><path class="cls-74" d="M90.46,519.65c0-.18-1.25-8.88-1.91-20.44-1.27-22.77-.32-56.66,16.45-58.48,2.63-.28,4.55.34,5.9,1.69C122.44,454,90.93,518.7,90.46,519.65Z"/><path class="cls-35" d="M90.46,519.65c0-.18-1.25-8.88-1.91-20.44,1,3.9,2.14,6.06,3.35,2.36,2.48-7.57,6.09-36.48,7.74-33s-3.88,25.44,1.25,16.25c3.7-6.63,7.94-30,10-42.39C122.44,454,90.93,518.7,90.46,519.65Z"/><path class="cls-75" d="M84,502.26c0-.12-2.06-5.92-5.36-13.32-6.5-14.58-17.95-35.35-28.95-31.11a4.77,4.77,0,0,0-3.13,2.94C43.09,471.64,83.43,501.82,84,502.26Z"/><path class="cls-35" d="M84,502.26c0-.12-2.06-5.92-5.36-13.32.62,2.75.61,4.45-1.33,2.54-4-3.92-15.46-20.74-15.38-18.06S72.51,488,66.38,483.93C62,481,51.84,467.84,46.58,460.77,43.09,471.64,83.43,501.82,84,502.26Z"/><path class="cls-76" d="M181.21,466.24s-34.61,33.47-62,113.33"/><path class="cls-77" d="M181.14,463.69l-4.21-1.79s1.36-13.53,3.61-23.74c1.73-7.81,4-13.67,6.56-10s1.81,10.76.1,17.69A125.93,125.93,0,0,1,181.14,463.69Z"/><path class="cls-24" d="M181.14,463.69l-4.21-1.79s1.36-13.53,3.61-23.74c0,5.69-.27,19.6,1.34,19.18,1.11-.29,3.45-6.24,5.32-11.52A125.93,125.93,0,0,1,181.14,463.69Z"/><path class="cls-78" d="M201.53,446.05c-5.41,6.57-13.78,15-17.81,18.92-1.43,1.42-2.31,2.26-2.31,2.26l-.8-.94L179,464.36a42.37,42.37,0,0,1,12.69-20.09,37.3,37.3,0,0,1,10-6.22C209.38,434.75,206.93,439.49,201.53,446.05Z"/><path class="cls-24" d="M201.53,446.05c-5.41,6.57-13.78,15-17.81,18.92a30.8,30.8,0,0,1-3.11,1.32L179,464.36a42.37,42.37,0,0,1,12.69-20.09c-2.14,3.92-6.2,11.39-4.15,10.8S198,448.57,201.53,446.05Z"/><path class="cls-79" d="M183.83,467.78l-3.2-3.51a62.72,62.72,0,0,1,14.24-12.39c5.61-3.35,12.07-5.26,17.81-2.06,1.68.94,2.53,1.91,2.72,2.91C216.79,459.89,183.83,467.78,183.83,467.78Z"/><path class="cls-24" d="M183.83,467.78l-3.2-3.51a62.72,62.72,0,0,1,14.24-12.39c-4.83,4.34-12.19,11.15-8.29,11,4.52-.21,21.95-7.27,28.82-10.11C216.79,459.89,183.83,467.78,183.83,467.78Z"/><path class="cls-80" d="M214.74,474.58c-2.59,5.08-31.71-4-31.71-4l-1-4.31s11.74-3.62,21.59-1.44c4,.89,7.66,2.72,10.12,6.14C214.89,472.59,215.16,473.77,214.74,474.58Z"/><path class="cls-24" d="M214.74,474.58c-2.59,5.08-31.71-4-31.71-4l-1-4.31s11.74-3.62,21.59-1.44c-4.12,1.18-14.14,4-7.09,6.45C203.21,473.61,211.29,474.36,214.74,474.58Z"/><path class="cls-81" d="M202.81,483.35C197.72,491.15,182,471,182,471l.62-2.9.39.1c3.1.76,23.38,6.08,20.48,13.81A7,7,0,0,1,202.81,483.35Z"/><path class="cls-24" d="M202.81,483.35C197.72,491.15,182,471,182,471l.62-2.9.39.1c1.87,2.37,9.54,11.63,14.8,14.7C200.13,484.26,201.72,484.08,202.81,483.35Z"/><path class="cls-82" d="M179.14,488.84a7.15,7.15,0,0,1-2.92-.45c-7.42-3.05,2.41-20.3,2.41-20.3l3.46-.71a51.5,51.5,0,0,1,2.72,9.21C185.86,482.35,185.55,488.7,179.14,488.84Z"/><path class="cls-24" d="M176.22,488.39c-7.42-3.05,2.41-20.3,2.41-20.3l3.46-.71a51.5,51.5,0,0,1,2.72,9.21c-1.26-2.75-2.94-5.68-4.34-5.7C178.18,470.87,176.6,484.71,176.22,488.39Z"/><path class="cls-83" d="M179.47,467.37s-7.67,9.86-14.11,11c-2.3.4-4.44-.31-6-3-1.7-2.86-1.24-4.95.35-6.47,4.41-4.23,17.46-4.19,17.46-4.19Z"/><path class="cls-24" d="M179.47,467.37s-7.67,9.86-14.11,11c4-2.92,12.4-9.3,12.11-10.8s-12,.36-17.79,1.36c4.41-4.23,17.46-4.19,17.46-4.19Z"/><path class="cls-84" d="M178,466.52s-40.65-6.35-28.54-13.48l.15-.08c7.45-4.27,16.09.15,21.61,4.17a45.53,45.53,0,0,1,5.66,4.83Z"/><path class="cls-24" d="M178,466.52s-40.65-6.35-28.54-13.48l.15-.08c1.35,2.19,4.55,5.11,12,7.3,9.84,2.89,10.16-.89,9.63-3.13a45.53,45.53,0,0,1,5.66,4.83Z"/><path class="cls-85" d="M179.72,462.3l-5.1.3s-7.73-13-11.23-23.05c-2.44-7.05-2.81-12.62,3-11.26,5.64,1.32,8.9,7,10.78,13.36C180,451.21,179.72,462.3,179.72,462.3Z"/><path class="cls-24" d="M179.72,462.3l-5.1.3s-7.73-13-11.23-23.05c4.43,6.22,12.64,17.33,14,16.11s.45-9-.22-14C180,451.21,179.72,462.3,179.72,462.3Z"/><ellipse class="cls-86" cx="178.81" cy="464.31" rx="4.52" ry="5.57" transform="translate(-312.37 384.98) rotate(-59.76)"/><path class="cls-24" d="M183.62,467.11c-1.26,2.16-4.43,2.65-7.09,1.1s-3.79-4.55-2.53-6.71a4.36,4.36,0,0,1,3.95-2A3.38,3.38,0,0,0,176,461c-1.09,1.87-.11,4.47,2.18,5.81,2,1.19,4.46,1,5.72-.4A3.93,3.93,0,0,1,183.62,467.11Z"/><path class="cls-87" d="M138,532.3c.09-.11,4.34-5.25,10.5-11.52,12.13-12.37,31.65-29.17,41.24-20.69a5.17,5.17,0,0,1,2.07,4.18C191.26,516.65,138.79,532.08,138,532.3Z"/><path class="cls-88" d="M144.49,519.79c0-.09,2.27-4.19,4.74-9.82,4.85-11.11,10.66-28.16,2.65-32.17a3.63,3.63,0,0,0-3.25-.25C140.74,481.15,144.44,519.23,144.49,519.79Z"/><path class="cls-35" d="M144.49,519.79c0-.09,2.27-4.19,4.74-9.82-1.23,1.75-2.19,2.61-2.11.55.17-4.23,3.74-19.29,2.27-17.87s-2.78,13.39-3.63,7.86c-.62-4,1.59-16.39,2.87-23C140.74,481.15,144.44,519.23,144.49,519.79Z"/><path class="cls-89" d="M314,393.41v0c-1,1.74-62.68,112.92-122.35,153.45l-3.39-1.4-4.4-1.81-1-.42s35.5-80.85,100.64-130.41A207.31,207.31,0,0,1,314,393.41Z"/><path class="cls-35" d="M314,393.43c-1,1.74-62.68,112.92-122.35,153.45l-3.39-1.4Z"/><path class="cls-6" d="M283.47,412.84c-6.8,6.15-15.77,14.69-26.69,26-24.07,25-64.89,91.57-72.92,104.81l-1-.42S218.33,462.4,283.47,412.84Z"/><path class="cls-90" d="M238,387.31v0c0,1.4-.43,91.25-23.61,136.64l-2.57.28-3.34.38-.78.09s-5.51-62.15,18-115A146.58,146.58,0,0,1,238,387.31Z"/><path class="cls-35" d="M238,387.33c0,1.4-.43,91.25-23.61,136.64l-2.57.28Z"/><path class="cls-6" d="M225.7,409.73c-2.12,6.12-4.77,14.46-7.68,25.19-6.43,23.64-9.06,78.78-9.53,89.71l-.78.09S202.2,462.57,225.7,409.73Z"/><path class="cls-91" d="M575.51,510.87a58.68,58.68,0,0,1-12.57,3.23s-42.31-53.3-44-66.48c-.13-1.07.1-1.75.64-2.06,6.18-3.67,52.45,37.28,62.55,50.41C588,503.55,582.22,508.19,575.51,510.87Z"/><path class="cls-21" d="M575.51,510.87a58.68,58.68,0,0,1-12.57,3.23s-42.31-53.3-44-66.48c-.13-1.07.1-1.75.64-2.06C535.23,462.89,563.16,494.33,575.51,510.87Z"/><path class="cls-92" d="M672.56,509.6a43.54,43.54,0,0,0,9.38,2.41s31.58-39.78,32.82-49.62c.09-.8-.08-1.31-.48-1.54-4.61-2.74-39.15,27.83-46.69,37.63C663.24,504.14,667.55,507.6,672.56,509.6Z"/><path class="cls-21" d="M672.56,509.6a43.54,43.54,0,0,0,9.38,2.41s31.58-39.78,32.82-49.62c.09-.8-.08-1.31-.48-1.54C702.63,473.79,681.78,497.25,672.56,509.6Z"/><path class="cls-93" d="M692.33,507.71a27.68,27.68,0,0,0,5.92,1.52s19.92-25.09,20.69-31.29c.06-.51,0-.83-.3-1-2.91-1.73-24.69,17.54-29.44,23.72C686.45,504.26,689.17,506.45,692.33,507.71Z"/><path class="cls-21" d="M692.33,507.71a27.68,27.68,0,0,0,5.92,1.52s19.92-25.09,20.69-31.29c.06-.51,0-.83-.3-1C711.29,485.12,698.15,499.92,692.33,507.71Z"/><path class="cls-94" d="M683.49,489.22a178.75,178.75,0,0,1-5.81,23.54l-96,3.13S571.48,498,569,479.6c-1.38-10.37-.31-20.89,6.44-28.48,18.73-21.07,32,34.33,32,34.33S616,448,627,444.88c10.59-3,16,32.85,16.37,35a19.12,19.12,0,0,1,8.6-16.28c9.36-6.25,7.8,21.84,7.8,21.84s11.7-15.6,21.07-13.26C684.82,473.2,684.81,480.84,683.49,489.22Z"/><path class="cls-35" d="M683.49,489.22a163.15,163.15,0,0,1-4.39,18.9c-.83,2.84-1.42,4.64-1.42,4.64l-9.73.32-8.2.26-16.33.54H643L609.16,515l-3.51.12-23.95.78a125.74,125.74,0,0,1-9.82-23.38A84.62,84.62,0,0,1,569,479.6a27.54,27.54,0,0,1,6.44-14.19c18.73-21.07,32,34.33,32,34.33S616,462.29,627,459.17c10.59-3,16,32.85,16.37,35a19.12,19.12,0,0,1,8.6-16.28c9.36-6.25,7.8,21.84,7.8,21.84s11.7-15.6,21.07-13.26A4,4,0,0,1,683.49,489.22Z"/><path class="cls-35" d="M605.65,515.11l-23.95.78a125.74,125.74,0,0,1-9.82-23.38,25.28,25.28,0,0,1,3.58-5.23C590.12,470.79,601.43,501.14,605.65,515.11Z"/><path class="cls-35" d="M643,513.89,609.16,515c3-10.9,9.78-31.66,17.8-33.95C636.26,478.38,641.6,505.72,643,513.89Z"/><path class="cls-35" d="M659.75,513.34l-16.33.54a19,19,0,0,1,8.51-14.11C657.85,495.81,659.4,505.61,659.75,513.34Z"/><path class="cls-6" d="M851.82,67.53s-39,17.57-40.5,26-4.58,18.34-17.57,22.93-16.81,0-23.68,8.4-5.35,9.17-11.47,16-34.38,16.81-48.9,20.63S676.85,173,669.21,181.37s-19.1,9.17-35.15,16-52.72,52.72-52.72,52.72,40.5-42,49.67-45.08,26.74-5.35,39.73-14.52,13-12.22,34.38-15.28S760.13,163,767,153.1s-5.35-12.22,16-20.63,19.11-3.05,44.32-13,48.14-41.26,48.9-45.84S851.82,67.53,851.82,67.53Z"/><path class="cls-6" d="M334.63-204.39s19.35,38.12,15.28,45.62-7.92,17.17-.67,28.88,13.1,10.53,13.19,21.39S360.85-98,361.3-88.81s16.26,34.64,25.18,46.72S404.9-12.57,405.59-1.23s9.14,19.11,17.33,34.53S431,107.42,431,107.42s-5.22-58.13-10.45-66.25S403,20.24,398.65,5s-2.46-17.66-17.21-33.45-35.21-44-34.35-56,11.83-6.18.43-26.13-13-14.36-26.4-37.9-11.65-62.32-9.37-66.37S334.63-204.39,334.63-204.39Z"/><path class="cls-95" d="M776.31,62.33c-35.06,51.9-97,83.81-139.2,102.5-33,14.58-139.45,36.48-139.45,36.48,6.19-15.71,40.34-19,40.34-19s1.63-10.77,9.19-17.6a11.36,11.36,0,0,1,6.49-2.77h0c7.06-.8,14.78,3.39,14.78,3.39s0-3,.34-7.52h0c.93-14.14,4.36-43.43,16.9-45.29a8.7,8.7,0,0,1,2.6,0C607.4,115.17,623,136.74,623,136.74s.54-1.5,1.47-3.7h0c2.4-5.67,7.4-16,12.42-17l.28,0c7.07-.94,14.52,7.63,14.52,7.63s1.68-6.45,4.62-15c5.9-17.16,16.95-42.85,29.93-42.15a32.49,32.49,0,0,1,6.25,1C710.05,72,727.2,89.59,727.2,89.59a37.75,37.75,0,0,0,3.9-1.52C745.24,81.77,776.31,62.33,776.31,62.33Z"/><path class="cls-8" d="M731.1,88.07c-6.79,14-22.19,12.31-22-.26.16-8.18-8.32-15.31-16.64-20.34C710.05,72,727.2,89.59,727.2,89.59A37.75,37.75,0,0,0,731.1,88.07Z"/><path class="cls-8" d="M643.7,130.79c.43-6.77-2.9-11.52-6.79-14.73l.28,0c7.07-.94,14.52,7.63,14.52,7.63s1.68-6.45,4.62-15C656.15,129.8,642.85,143.93,643.7,130.79Z"/><path class="cls-8" d="M560.69,175.21a41.22,41.22,0,0,0-7-13.27c7.06-.8,14.78,3.39,14.78,3.39s0-3,.34-7.52C569.88,176.39,563,183.34,560.69,175.21Z"/><path class="cls-8" d="M598.91,137.48c-1.27-11.43-7.25-19.56-13.19-25a8.7,8.7,0,0,1,2.6,0C607.4,115.17,623,136.74,623,136.74s.54-1.5,1.47-3.7C623.67,165.36,601.27,158.61,598.91,137.48Z"/><g class="cls-96"><path class="cls-97" d="M103.5-47.49C123.61,11.83,174.92,59,210.7,88.12c27.92,22.77,124.86,72,124.86,72-1.82-16.78-33.89-29-33.89-29s1.28-10.82-4.21-19.4a11.35,11.35,0,0,0-5.54-4.39h0c-6.59-2.64-15.14-.64-15.14-.64s.75-2.88,1.65-7.34h0c2.84-13.88,7.26-43-4.34-48.15a9.13,9.13,0,0,0-2.5-.69c-19.12-2.46-39.87,14.22-39.87,14.22s-.12-1.59-.44-4h0c-.82-6.11-2.93-17.33-7.51-19.65l-.25-.12c-6.57-2.77-16,3.53-16,3.53s.08-6.67-.49-15.7c-1.17-18.11-5-45.81-17.74-48.56A32.57,32.57,0,0,0,183-20.4c-18.1-.3-39.31,12.17-39.31,12.17a36.22,36.22,0,0,1-3.35-2.5C128.33-20.53,103.5-47.49,103.5-47.49Z"/><path class="cls-8" d="M140.31-10.73C143.18,4.52,158.46,7,161.54-5.18c2-7.93,12.07-12.57,21.43-15.22-18.1-.3-39.31,12.17-39.31,12.17A36.22,36.22,0,0,1,140.31-10.73Z"/><path class="cls-8" d="M213.33,53.55c1.37-6.64,5.83-10.34,10.43-12.41l-.25-.12c-6.57-2.77-16,3.53-16,3.53s.08-6.67-.49-15.7C201.58,49.31,210.68,66.46,213.33,53.55Z"/><path class="cls-8" d="M281.66,118.31a41.48,41.48,0,0,1,10.25-10.94c-6.59-2.64-15.14-.64-15.14-.64s.75-2.88,1.65-7.34C272.49,117,277.3,125.55,281.66,118.31Z"/><path class="cls-8" d="M254.76,71.83c4.25-10.68,12.16-16.95,19.32-20.6a9.13,9.13,0,0,0-2.5-.69c-19.12-2.46-39.87,14.22-39.87,14.22s-.12-1.59-.44-4C223.52,92.19,246.91,91.59,254.76,71.83Z"/></g><path class="cls-98" d="M643.7-8.82C587.09,60.77,474.32,76,474.32,76c8.2-2.36,23.05-18.29,23.05-18.29A53.58,53.58,0,0,1,505.21,33c2-3.13,5.6-4.42,9.95-4.62,12.6-.59,31.07,8,31.07,8s-.06-1-.07-2.52c0,0,0,0,0,0,0-3.19.17-8.56,1.66-11.24a1.79,1.79,0,0,1,.85-.78c3.62-1.62,14.47,5.82,14.47,5.82s.61-2.74,1.79-6.77c2.28-7.68,6.65-20.06,12.93-27.33,2.19-2.53,5.64-3.37,9.65-3.19h0c13.59.7,33.69,13.35,33.69,13.35l3-1.68Z"/><path class="cls-8" d="M624.22,2.08c-5.74,9.88-23.59,15.8-24.79,4.7-.81-7.49-6.67-13-11.9-16.37,13.59.7,33.69,13.35,33.69,13.35Z"/><path class="cls-8" d="M558,36.19c-1-4.44-5.9-10.49-9.35-14.32,3.62-1.62,14.47,5.82,14.47,5.82s.61-2.74,1.79-6.77C565,33.39,559.27,41.75,558,36.19Z"/><path class="cls-8" d="M541.35,49.73c-4.26,6.48-18.74,2.55-18.9-9.44-.07-5.33-3.5-9.21-7.29-11.89,12.6-.59,31.07,8,31.07,8s-.06-1-.07-2.52C547.26,41,544.28,45.28,541.35,49.73Z"/><path class="cls-6" d="M435.94,174.05s-25.26-31.75-40.42-44-28.14-26-33.92-44.75-10.82-42.58-24.53-57-38.26-21.66-41.86-39.7-31.76-32.48-31.76-32.48L238.91-31.64s40.42,13.71,44.75,18.77-1.45,17.32,6.49,20.21,10.11.72,23.1,8.66,20.21,13.71,24.54,26,10.1,42.58,15.15,51.24,5.78,2.17,9.39,11.55,15.87,25.26,23.09,26.7S425.12,171.17,435.94,174.05Z"/></g></g></g></svg>