<svg xmlns="http://www.w3.org/2000/svg" xmlns:xlink="http://www.w3.org/1999/xlink" viewBox="0 0 965.75 417.74"><defs><style>.cls-1{fill:url(#linear-gradient);}.cls-2{fill:url(#linear-gradient-2);}.cls-3{fill:#fff;}</style><linearGradient id="linear-gradient" x1="482.87" x2="482.87" y2="417.74" gradientUnits="userSpaceOnUse"><stop offset="0" stop-color="#0c4e7d"/><stop offset="0.18" stop-color="#0d5380"/><stop offset="0.38" stop-color="#11608a"/><stop offset="0.59" stop-color="#18769b"/><stop offset="0.8" stop-color="#2195b2"/><stop offset="1" stop-color="#2bb9cd"/></linearGradient><linearGradient id="linear-gradient-2" x1="464.86" y1="272.1" x2="465.7" y2="61.3" gradientTransform="matrix(1, 0, 0, -1, 0, 386.64)" gradientUnits="userSpaceOnUse"><stop offset="0" stop-color="#fdffff"/><stop offset="1" stop-color="#b2f0fa"/></linearGradient></defs><g id="Layer_2" data-name="Layer 2"><g id="Layer_1-2" data-name="Layer 1"><path class="cls-1" d="M954.42,318.54c-22.78-4.66-34.07-7.4-41-17.49a8.05,8.05,0,0,1,6.81-12.64h0a11.58,11.58,0,0,0,11.42-9.69c1.65-10,3.26-17.16,5.8-20,2-2.22,6.51-3.82,16.62-5.91a11.85,11.85,0,0,0,9.53-10.24,11.58,11.58,0,0,0-9.2-12.51c-10.34-2.12-14.93-3.74-16.95-6-2.5-2.79-4.11-9.85-5.74-19.61a11.87,11.87,0,0,0-10.39-10,11.59,11.59,0,0,0-12.52,9.63c-1.65,10-3.26,17.16-5.8,20-2,2.24-6.61,3.86-16.95,6-15.28,3.76-15.21-22.17-15.21-22.17a16,16,0,0,0-9.06-15,16.35,16.35,0,0,0-7.19-1.57H829.42a16,16,0,0,0-8,2.15,15.88,15.88,0,0,0-8-2.15H788.19A15.93,15.93,0,0,0,776,197l3-6.74a16,16,0,0,0,5.24-11.82V153.17l32.14-60a16.26,16.26,0,0,0,1.39-12.34,16,16,0,0,0-15.35-11.48H774.25a16,16,0,0,0-14.42,9.07L755.7,87l-4.12-8.58a16,16,0,0,0-14.42-9.07H709a16,16,0,0,0-13.2,7,16,16,0,0,0-13.18-7H648.05a16,16,0,0,0-15.19,11l-20.44,61.91a16.1,16.1,0,0,0-2.22-.17H588.57V85.33a16,16,0,0,0-16-16H547.29a16,16,0,0,0-14.08,8.42,48,48,0,0,0-4.15-2.49,54.41,54.41,0,0,0-25.58-5.93H463.29a16,16,0,0,0-16,16l-11.57,4.33h0a45.1,45.1,0,0,0-19.36-16.37,62.35,62.35,0,0,0-26.17-5.23,64.57,64.57,0,0,0-26,5.06h0a52.55,52.55,0,0,0-9.07,5.11,16,16,0,0,0-14.33-8.91H323.3a15.88,15.88,0,0,0-6.57,1.43,15.88,15.88,0,0,0-6.57-1.43H229.25a15.92,15.92,0,0,0-5,.81,15.81,15.81,0,0,0-5-.81H152.17a16,16,0,0,0-16,16v56.73H120.32V85.33a16,16,0,0,0-16-16H87.13c2.35-.58,5-1.18,8-1.8a11.25,11.25,0,0,0,9.06-9.71A11,11,0,0,0,95.47,46C81,43,74.7,40.66,71.41,37,67.49,32.64,65.34,23.61,63,9.5A11.23,11.23,0,0,0,53.15.05,11,11,0,0,0,41.3,9.18C38.93,23.47,36.79,32.61,32.83,37c-3.26,3.63-9.49,6-23.74,8.9a11.25,11.25,0,0,0-9,9.71A11,11,0,0,0,8.77,67.46c14.48,3,20.77,5.31,24.06,9,3.92,4.36,6.07,13.38,8.41,27.47a11.26,11.26,0,0,0,10.12,9.5A11,11,0,0,0,63,103.66h0v74.76a16,16,0,0,0,16,16H97.23a16,16,0,0,0-5.74,7.9L60.88,295.06a16.47,16.47,0,0,0,.21,11.31A16,16,0,0,0,76,316.42h27.28a16,16,0,0,0,15.31-11.37l1.95-6.45h6.93l1.94,6.45a16,16,0,0,0,15.32,11.37H172a16,16,0,0,0,4.49-.64,16.11,16.11,0,0,0,4.48.64h25.27a16,16,0,0,0,15.91-14.33l5.09,7.4a16,16,0,0,0,13.18,6.93h21.09a16,16,0,0,0,6-1.16,16,16,0,0,0,6,1.16h35.82c11.55,0,22.43-2.26,32.11-7.42H379.3a16,16,0,0,0,13.49,7.42H455.7a16,16,0,0,0,5.11-.84,16,16,0,0,0,5.11.84h66.91a16,16,0,0,0,4.82-.74,15.74,15.74,0,0,0,4.8.74h27.28A16,16,0,0,0,585,305.05l2-6.45h6.93l1.94,6.45a16,16,0,0,0,15.32,11.37h27.27a16,16,0,0,0,4.49-.64,16.11,16.11,0,0,0,4.48.64h25.27a16,16,0,0,0,12.54-6.08,16,16,0,0,0,12.55,6.08h27.46a16.06,16.06,0,0,0,3.86-.47,16,16,0,0,0,3.82.47h25.27a16,16,0,0,0,15.91-14.33l5.09,7.4a16,16,0,0,0,13.18,6.93h21.09a15.89,15.89,0,0,0,11.1-4.49c3.15,4.24-.46,5.8-2.4,6.31l-1.06.22a14.46,14.46,0,0,0-11.59,12.21,14.17,14.17,0,0,0,11.22,15.64c40.62,8.31,44.71,10.5,52.79,59.15a14.51,14.51,0,0,0,13.34,12.26,14.17,14.17,0,0,0,14.7-11.84c8.1-48.91,12.1-51.22,52.49-59.5a14.45,14.45,0,0,0,11.59-12.21A14.16,14.16,0,0,0,954.42,318.54ZM63,103.66Z"/><path class="cls-2" d="M79,178.42V85.33h25.28v72.73H142v20.36Zm73.13,0V85.33h67.09V105.7H177.44v16H215.8v20.36H177.44v16h41.64v20.36Zm77.08-72.72V85.33h80.91V105.7h-28v72.72H257.25V105.7ZM340.76,85.33V96.24a23.47,23.47,0,0,1-1.82,8.91,38.57,38.57,0,0,1-4.54,8.23,38.07,38.07,0,0,1-5.64,6.32l-10.36-5.28a43.29,43.29,0,0,0,3.4-7.59,32.54,32.54,0,0,0,1.5-10.59V85.33Zm62,29.09a9.86,9.86,0,0,0-3.41-7.09q-3-2.53-9.14-2.54a18.37,18.37,0,0,0-6.41.95,7.75,7.75,0,0,0-3.64,2.5,6.22,6.22,0,0,0-1.22,3.64,5.91,5.91,0,0,0,.59,3,7.23,7.23,0,0,0,2.27,2.41,17.42,17.42,0,0,0,4,1.91,42.35,42.35,0,0,0,5.72,1.55l7.64,1.63a57.38,57.38,0,0,1,13.23,4.32,31.8,31.8,0,0,1,9,6.32,22.52,22.52,0,0,1,5.13,8.09,28.55,28.55,0,0,1,1.73,9.82q0,9.18-4.59,15.54a28,28,0,0,1-13,9.69q-8.41,3.31-20.23,3.31a57.08,57.08,0,0,1-21.18-3.59,29.48,29.48,0,0,1-14-11q-4.95-7.5-5-19.18h24a14.18,14.18,0,0,0,2.14,7.18,11.89,11.89,0,0,0,5.36,4.41,21,21,0,0,0,8.32,1.5,20,20,0,0,0,6.77-1,9.12,9.12,0,0,0,4.14-2.78,6.53,6.53,0,0,0,1.45-4,5.73,5.73,0,0,0-1.41-3.73,10.94,10.94,0,0,0-4.36-2.91,46.45,46.45,0,0,0-8.23-2.45l-9.27-2q-12.36-2.69-19.5-9t-7-17.22a25.62,25.62,0,0,1,4.73-15.5,31.53,31.53,0,0,1,13.32-10.41,48.52,48.52,0,0,1,19.59-3.73,46.56,46.56,0,0,1,19.5,3.77,29.2,29.2,0,0,1,12.68,10.64,28.54,28.54,0,0,1,4.55,16Zm60.56,64V85.33h40.19a38.48,38.48,0,0,1,18.13,4.09,29.72,29.72,0,0,1,12.09,11.5A33.78,33.78,0,0,1,538,118.24a32.66,32.66,0,0,1-4.45,17.32,29.24,29.24,0,0,1-12.41,11.27,41.25,41.25,0,0,1-18.59,4h-24V131.15h18.91a17.07,17.07,0,0,0,7.59-1.54,11.4,11.4,0,0,0,4.86-4.5,13.23,13.23,0,0,0,1.73-6.87,12.82,12.82,0,0,0-1.73-6.82,10.81,10.81,0,0,0-4.86-4.36,17.06,17.06,0,0,0-7.59-1.55h-8.91v72.91Zm84,0V85.33h25.28v72.73H610.2v20.36Zm97.31,0H617.33l30.72-93.09H682.6l30.73,93.09H686.05L665.69,111H665Zm-5.09-36.72h51.27v18.91H639.51ZM709,85.33h28.18l18.18,37.82h.73l18.18-37.82h28.18l-34.18,63.82v29.27H743.16V149.15ZM103.23,300.42H76l30.73-93.09h34.55L172,300.42H144.68L124.32,233h-.73Zm-5.1-36.72h51.28v18.9H98.13Zm163.33-56.37v93.09H240.37l-33.63-48.91h-.55v48.91H180.92V207.33h21.45l33.09,48.73h.73V207.33Zm47.78,93.09H273.42V207.33h35.45q14.37,0,24.82,5.59a38.53,38.53,0,0,1,16.18,16q5.73,10.41,5.73,25t-5.68,25a39,39,0,0,1-16.09,16Q323.42,300.41,309.24,300.42ZM298.69,279h9.64a28.06,28.06,0,0,0,11.77-2.23,15,15,0,0,0,7.45-7.68q2.59-5.46,2.6-15.18t-2.64-15.18a15.12,15.12,0,0,0-7.64-7.69,30.17,30.17,0,0,0-12.27-2.22h-8.91Zm94.1,21.45V207.33h25.28v72.73H455.7v20.36Zm73.13,0V207.33H533V227.7H491.19v16h38.36v20.36H491.19v16h41.64v20.36Zm103.81,0H542.45l30.73-93.09h34.55l30.72,93.09H611.18L590.82,233h-.73Zm-5.1-36.72h51.28v18.9H564.63Zm82.79,36.72V207.33H687.6a41.19,41.19,0,0,1,18.14,3.77A28.29,28.29,0,0,1,717.83,222a32.05,32.05,0,0,1,4.32,17q0,10-4.46,16.86a27.36,27.36,0,0,1-12.41,10.37,45.88,45.88,0,0,1-18.59,3.5h-24V250.06H681.6a23.15,23.15,0,0,0,7.59-1.09,9.64,9.64,0,0,0,4.86-3.59,10.87,10.87,0,0,0,1.73-6.41,11.14,11.14,0,0,0-1.73-6.5,9.64,9.64,0,0,0-4.86-3.73,20.81,20.81,0,0,0-7.59-1.23h-8.91v72.91ZM702,257.7l23.28,42.72H697.78L675.05,257.7Zm111.5-50.37v93.09H792.37l-33.63-48.91h-.55v48.91H732.92V207.33h21.45l33.09,48.73h.73V207.33Zm41.41,0-2.36,64H831.78l-2.36-64Zm-12.72,94.55a12.52,12.52,0,0,1-9-3.68,12.19,12.19,0,0,1-3.68-9.05,11.86,11.86,0,0,1,3.68-8.86,12.49,12.49,0,0,1,9-3.69,12.29,12.29,0,0,1,8.81,3.69,11.94,11.94,0,0,1,3.91,8.86A12.22,12.22,0,0,1,853,295.6a13.79,13.79,0,0,1-4.64,4.6A12.07,12.07,0,0,1,842.15,301.88Z"/><ellipse class="cls-3" cx="52.12" cy="56.71" rx="37.51" ry="41.7"/><ellipse class="cls-3" cx="887.57" cy="332.42" rx="64" ry="71.14"/><ellipse class="cls-3" cx="920.25" cy="241.43" rx="31.85" ry="35.41"/></g></g></svg>