<?xml version="1.0" encoding="utf-8"?>
<!-- Generator: Adobe Illustrator 25.0.0, SVG Export Plug-In . SVG Version: 6.00 Build 0)  -->
<svg version="1.1" id="Layer_1" xmlns="http://www.w3.org/2000/svg" xmlns:xlink="http://www.w3.org/1999/xlink" x="0px" y="0px"
	 viewBox="0 0 1470.5 144" style="enable-background:new 0 0 1470.5 144;" xml:space="preserve">
<style type="text/css">
	.st0{fill:url(#SVGID_1_);}
	.st1{fill:url(#SVGID_2_);}
	.st2{fill:url(#SVGID_3_);}
	.st3{fill:url(#SVGID_4_);}
</style>
<linearGradient id="SVGID_1_" gradientUnits="userSpaceOnUse" x1="733.017" y1="9.9442" x2="733.017" y2="137.5803">
	<stop  offset="0" style="stop-color:#0C4E7D"/>
	<stop  offset="0.2067" style="stop-color:#0D5280"/>
	<stop  offset="0.3974" style="stop-color:#105D88"/>
	<stop  offset="0.5818" style="stop-color:#167096"/>
	<stop  offset="0.7623" style="stop-color:#1D8AAA"/>
	<stop  offset="0.9384" style="stop-color:#27ABC3"/>
	<stop  offset="1" style="stop-color:#2BB9CD"/>
</linearGradient>
<path class="st0" d="M1437.6,57.9c-14-2.6-20.7-4.7-23.4-7.4c-2.7-2.7-4.8-9.4-7.4-23.4c-1.4-7.7-8.1-13.2-15.9-13.2
	s-14.5,5.6-15.9,13.2c-2.6,14-4.7,20.7-7.4,23.4c-2,2-6.4,3.7-14.4,5.5c1.6-2.5,2.5-5.4,2.5-8.5V27.2c0-8.8-7.2-16-16-16h-67.1
	c-2.2,0-4.3,0.5-6.3,1.3c-1.9-0.8-4-1.3-6.3-1.3h-67.1c-2.1,0-4.1,0.4-6,1.2c-1.9-0.7-3.9-1.2-6-1.2h-31.5c-6.5,0-12.3,3.9-14.8,9.9
	l-7.4,18l-7.4-18c-2.5-6-8.3-9.9-14.8-9.9h-31.5c-8.8,0-16,7.2-16,16c-3.3,6.9-10.9,6.3-10.9,6.3c-4.5-7.5-10.9-13.1-18.8-16.9
	c-7.8-3.8-16.3-5.4-25.1-5.4h-40.2c-2.1,0-4.2,0.4-6,1.2c-1.9-0.8-3.9-1.2-6-1.2h-25.3c-6.8,0-12.6,4.2-14.9,10.2
	c-2.3-6-8.1-10.2-14.9-10.2h-25.3c-8,0-14.6,5.9-15.8,13.6c-3.2-2.9-6.8-5.4-10.7-7.4l0,0c0,0,0,0,0,0c0,0,0,0,0,0l0,0
	c-9.4-5-19.6-7.4-30.4-7.4c-10.9,0-21.2,2.4-30.5,7.4l0,0c0,0,0,0,0,0c0,0,0,0,0,0l0,0c-0.9,0.5-1.7,0.9-2.5,1.4
	c-2.9-4.7-8-7.6-13.6-7.6h-28.2c-6.1,0-11.8,3.5-14.4,9.1l-3.8,8l-0.6,0l-3.8-8c-2.7-5.5-8.3-9.1-14.4-9.1h-28.2
	c-5.6,0-10.8,3-13.7,7.8c-1.5,2.5-2.3,5.4-2.3,8.3l-2.2,0c0-8.8-7.2-16-16-16h-67.1c-1.7,0-3.3,0.3-4.8,0.7
	c-1.5-0.5-3.1-0.7-4.8-0.7h-80.9c-5.2,0-9.8,2.5-12.7,6.3c-3-3.9-7.6-6.3-12.7-6.3h-34.5c-6.9,0-13,4.4-15.2,11L397.4,50
	c0.1-0.8,0.2-1.6,0.2-2.4V27.2c0-8.8-7.2-16-16-16h-67.1c-6.2,0-11.6,3.6-14.3,8.8c-1.9-1.3-3.8-2.4-5.9-3.4
	c-7.8-3.8-16.3-5.4-25.1-5.4H229c-7.2,0-13.2,4.7-15.3,11.2c-5.2-4.1-11-7.2-17.4-9.3c-6.7-2.2-13.8-3.2-21.2-3.2
	c-10.8,0-21,2.4-30.3,7.4l0,0c0,0,0,0,0,0c0,0,0,0,0,0l0,0c-9.6,5.2-17.1,12.8-22.5,22.4l0,0c0,0,0,0,0,0c0,0,0,0,0,0l0,0
	c-3,5.3-5,11-6.3,17c-10.1-2.1-15.4-4-17.7-6.2c-2.7-2.7-4.8-9.4-7.4-23.4c-1.4-7.7-8.1-13.2-15.9-13.2s-14.5,5.6-15.9,13.2
	c-2.6,14-4.7,20.7-7.4,23.4c-2.7,2.7-9.4,4.8-23.4,7.4c-7.7,1.4-13.2,8.1-13.2,15.9s5.6,14.5,13.2,15.9c14,2.6,20.7,4.7,23.4,7.4
	c2.7,2.7,4.8,9.4,7.4,23.4c1.4,7.7,8.1,13.2,15.9,13.2s14.5-5.6,15.9-13.2c2.6-14,4.7-20.7,7.4-23.4c2.3-2.3,7.5-4.1,17.6-6.2
	c1.3,6,3.3,11.6,6.1,16.8c0,0,0,0,0,0c5.3,9.6,12.8,17.3,22.4,22.5c0,0,0,0,0,0c9.4,5.1,19.7,7.4,30.6,7.4c8.4,0,16.5-1.3,24-4.3
	c5.3-2.1,10.2-4.9,14.5-8.5c1.9,6.6,8.1,11.5,15.3,11.5h25.3c5.1,0,9.6-2.4,12.5-6.1c3,3.8,7.6,6.1,12.5,6.1h27.5
	c1.3,0,2.6-0.2,3.9-0.5c1.2,0.3,2.5,0.5,3.8,0.5h66.9c1.7,0,3.3-0.3,4.8-0.7c1.5,0.5,3.2,0.7,4.8,0.7h27.3c7.1,0,13.3-4.6,15.3-11.4
	l1.9-6.4h6.9l1.9,6.4c2,6.8,8.3,11.4,15.3,11.4H487c4.3,0,8.4-1.7,11.3-4.7c2.9,2.9,6.9,4.7,11.3,4.7h24.9c8.8,0,16-7.2,16-16
	c4-0.3,5.2-0.2,5.5-0.1v0.1c0,8.8,7.2,16,16,16H639c8.8,0,16-7.2,16-16c12.1-7.3,36.6,0,36.6,0c0,8.8,7.2,16,16,16h25.1
	c8.8,0,16-7.2,16-16V95.1l4.5-8.4c1.2,7.5,3.5,14.6,7.1,21.1c0,0,0,0,0,0.1c5.4,9.6,13,17.1,22.6,22.3c0,0,0,0,0.1,0
	c9.4,5,19.7,7.4,30.6,7.4c10.8,0,21.1-2.4,30.4-7.3c0,0,0,0,0,0c7.3-3.9,13.5-9.3,18.4-15.8c5.1,7.6,12.1,13.4,20.4,17.3
	c0,0,0,0,0.1,0c8.5,3.9,17.9,5.7,27.8,5.7c9.8,0,19.2-1.7,27.7-5.7c0,0,0,0,0.1,0c3.4-1.6,6.6-3.5,9.5-5.7c2.3,6,8.1,10.3,14.9,10.3
	h25.3c5.1,0,9.6-2.4,12.5-6.1c3,3.8,7.6,6.1,12.5,6.1h27.5c5.6,0,10.9-3,13.8-7.8c1.5-2.5,2.2-5.3,2.2-8.2h1.2c0,8.8,7.2,16,16,16
	h24.7c4.3,0,8.2-1.7,11.1-4.5c2.8,2.4,6.5,3.8,10.3,3.8h14.9c3.9,0,7.5-1.4,10.3-3.8c2.9,2.8,6.8,4.5,11.1,4.5h24.7
	c2.1,0,4.1-0.4,6-1.2c1.9,0.7,3.9,1.2,6,1.2h66.9c2.3,0,4.4-0.5,6.4-1.3c1.9,0.8,4.1,1.3,6.4,1.3h66.9c8.8,0,16-7.2,16-16V99.9
	c0-3.1-0.9-6.1-2.5-8.5c8.2,1.8,12.6,3.6,14.6,5.6c2.7,2.7,4.8,9.4,7.4,23.4c1.4,7.7,8.1,13.2,15.9,13.2s14.5-5.6,15.9-13.2
	c2.6-14,4.7-20.7,7.4-23.4c2.7-2.7,9.4-4.8,23.4-7.4c7.7-1.4,13.2-8.1,13.2-15.9S1445.3,59.3,1437.6,57.9z"/>
<linearGradient id="SVGID_2_" gradientUnits="userSpaceOnUse" x1="734.9979" y1="113.0411" x2="735.1009" y2="21.3988" gradientTransform="matrix(1 0 0 -1 0 144.5197)">
	<stop  offset="0" style="stop-color:#FDFFFF"/>
	<stop  offset="1" style="stop-color:#B2F0FA"/>
</linearGradient>
<path class="st1" d="M217.5,62.1h-25.6c-0.2-2.1-0.7-4-1.5-5.8c-0.8-1.7-1.8-3.2-3.2-4.5c-1.3-1.3-3-2.2-4.9-2.9
	c-1.9-0.7-4.1-1-6.5-1c-4.2,0-7.8,1-10.8,3.1c-2.9,2.1-5.1,5-6.6,8.9c-1.5,3.8-2.2,8.5-2.2,13.9c0,5.7,0.8,10.5,2.3,14.3
	c1.5,3.8,3.8,6.7,6.7,8.6c2.9,1.9,6.4,2.9,10.5,2.9c2.3,0,4.4-0.3,6.3-0.9c1.8-0.6,3.5-1.5,4.8-2.6s2.5-2.5,3.3-4
	c0.9-1.6,1.5-3.4,1.8-5.4l25.6,0.2c-0.3,3.9-1.4,8-3.3,12c-1.9,4.1-4.6,7.8-8.1,11.3c-3.5,3.4-7.8,6.2-13,8.3
	c-5.2,2.1-11.1,3.1-18,3.1c-8.5,0-16.2-1.8-23-5.5c-6.8-3.7-12.1-9.1-16-16.2c-3.9-7.1-5.9-15.8-5.9-26.1c0-10.4,2-19.1,6-26.2
	c4-7.1,9.4-12.5,16.2-16.1c6.8-3.7,14.4-5.5,22.7-5.5c5.9,0,11.3,0.8,16.2,2.4c4.9,1.6,9.3,4,13,7c3.7,3.1,6.7,6.8,9,11.3
	C215.6,51.2,217,56.3,217.5,62.1z M229,120.3V27.2h40.2c6.9,0,13,1.3,18.1,3.8c5.2,2.5,9.2,6.1,12.1,10.9s4.3,10.4,4.3,17
	c0,6.7-1.5,12.3-4.5,16.9c-2.9,4.6-7.1,8-12.4,10.4c-5.3,2.3-11.5,3.5-18.6,3.5h-24V69.9h18.9c3,0,5.5-0.4,7.6-1.1
	c2.1-0.8,3.7-2,4.9-3.6c1.2-1.6,1.7-3.8,1.7-6.4c0-2.7-0.6-4.8-1.7-6.5c-1.1-1.7-2.7-2.9-4.9-3.7c-2.1-0.8-4.6-1.2-7.6-1.2h-8.9
	v72.9H229z M283.5,77.6l23.3,42.7h-27.5l-22.7-42.7H283.5z M314.5,120.3V27.2h67.1v20.4h-41.8v16h38.4v20.4h-38.4v16h41.6v20.4
	H314.5z M418.3,120.3H391l30.7-93.1h34.5l30.7,93.1h-27.3l-20.4-67.5h-0.7L418.3,120.3z M413.2,83.6h51.3v18.9h-51.3V83.6z
	 M481.7,47.6V27.2h80.9v20.4h-28v72.7h-24.9V47.6H481.7z M572.1,120.3V27.2h67.1v20.4h-41.8v16h38.4v20.4h-38.4v16H639v20.4H572.1z
	 M673.4,27.2h28.2L719.8,65h0.7l18.2-37.8h28.2L732.7,91v29.3h-25.1V91L673.4,27.2z M858.8,73.8c0,10.4-2,19.1-6,26.2
	c-4,7.1-9.5,12.5-16.3,16.1c-6.8,3.6-14.5,5.5-22.9,5.5c-8.5,0-16.2-1.8-23-5.5c-6.8-3.7-12.2-9.1-16.3-16.2c-4-7.1-6-15.8-6-26.1
	c0-10.4,2-19.1,6-26.2c4-7.1,9.5-12.5,16.3-16.1c6.8-3.7,14.5-5.5,23-5.5c8.4,0,16.1,1.8,22.9,5.5c6.8,3.6,12.3,9,16.3,16.1
	C856.8,54.7,858.8,63.4,858.8,73.8z M832.8,73.8c0-5.6-0.7-10.3-2.2-14.1c-1.5-3.8-3.6-6.8-6.5-8.7c-2.8-2-6.4-3-10.5-3
	s-7.7,1-10.6,3c-2.8,2-5,4.9-6.5,8.7c-1.5,3.8-2.2,8.5-2.2,14.1c0,5.6,0.7,10.3,2.2,14.1c1.5,3.8,3.7,6.7,6.5,8.7
	c2.9,2,6.4,3,10.6,3s7.7-1,10.5-3c2.9-2,5-4.9,6.5-8.7C832,84.1,832.8,79.3,832.8,73.8z M925.6,27.2h25.3v59.6
	c0,7.1-1.7,13.2-5.1,18.4c-3.4,5.2-8.1,9.1-14.1,12c-6,2.8-13,4.2-21,4.2c-8,0-15.1-1.4-21.1-4.2c-6-2.8-10.7-6.8-14.1-12
	c-3.3-5.2-5-11.3-5-18.4V27.2h25.3v57.5c0,2.9,0.6,5.5,1.9,7.7c1.3,2.2,3,4,5.3,5.3c2.3,1.3,4.8,1.9,7.7,1.9c2.9,0,5.5-0.6,7.7-1.9
	c2.2-1.3,4-3,5.3-5.3c1.3-2.3,1.9-4.8,1.9-7.7V27.2z M962.8,120.3V27.2h40.2c6.9,0,13,1.3,18.1,3.8c5.2,2.5,9.2,6.1,12.1,10.9
	c2.9,4.7,4.3,10.4,4.3,17c0,6.7-1.5,12.3-4.5,16.9c-2.9,4.6-7.1,8-12.4,10.4c-5.3,2.3-11.5,3.5-18.6,3.5h-24V69.9H997
	c3,0,5.5-0.4,7.6-1.1c2.1-0.8,3.7-2,4.9-3.6c1.2-1.6,1.7-3.8,1.7-6.4c0-2.7-0.6-4.8-1.7-6.5c-1.1-1.7-2.7-2.9-4.9-3.7
	c-2.1-0.8-4.6-1.2-7.6-1.2h-8.9v72.9H962.8z M1017.4,77.6l23.3,42.7h-27.5l-22.7-42.7H1017.4z M1073.8,27.2h31.5l21.6,52.7h1.1
	l21.6-52.7h31.5v93.1h-24.7V66.5h-0.7l-20.7,53.1H1120l-20.7-53.5h-0.7v54.2h-24.7V27.2z M1193.1,120.3V27.2h67.1v20.4h-41.8v16
	h38.4v20.4h-38.4v16h41.6v20.4H1193.1z M1272.7,120.3V27.2h67.1v20.4H1298v16h38.4v20.4H1298v16h41.6v20.4H1272.7z"/>
<linearGradient id="SVGID_3_" gradientUnits="userSpaceOnUse" x1="75.0425" y1="30.0427" x2="75.0425" y2="117.4818">
	<stop  offset="0" style="stop-color:#FDFFFF"/>
	<stop  offset="1" style="stop-color:#B2F0FA"/>
</linearGradient>
<circle class="st2" cx="75" cy="73.8" r="43.7"/>
<linearGradient id="SVGID_4_" gradientUnits="userSpaceOnUse" x1="1390.9916" y1="30.0427" x2="1390.9916" y2="117.4818">
	<stop  offset="0" style="stop-color:#FDFFFF"/>
	<stop  offset="1" style="stop-color:#B2F0FA"/>
</linearGradient>
<circle class="st3" cx="1391" cy="73.8" r="43.7"/>
</svg>
