<svg width="123" height="92" viewBox="0 0 123 92" fill="none" xmlns="http://www.w3.org/2000/svg">
<path d="M116.44 34.8579C116.29 34.5379 116.13 34.2179 115.97 33.9079C115.81 33.5979 115.72 33.3979 115.58 33.1479C108.471 19.4971 96.4929 9.01485 82.02 3.77793L80.88 3.37793C72.8417 0.565871 64.2985 -0.509347 55.8141 0.223253C47.3298 0.955853 39.0973 3.47961 31.66 7.62793C14.71 16.8579 2.52002 34.6779 0.370017 53.8979C0.290017 54.7879 0.220004 55.6979 0.170004 56.6279C0.120004 57.5579 0.0300216 58.7479 2.15835e-05 59.8279C2.15835e-05 60.3479 2.15835e-05 60.8279 2.15835e-05 61.4079C-0.00525224 67.6876 0.955976 73.9307 2.85 79.9179C3.63919 81.7576 4.67175 83.483 5.92 85.0479C7.46171 86.9553 9.34769 88.5563 11.48 89.7679C13.7 90.9979 16.35 91.9779 18.86 91.2979C18.9228 91.2784 18.9784 91.2405 19.0195 91.1892C19.0606 91.1378 19.0855 91.0754 19.0908 91.0098C19.0962 90.9442 19.0819 90.8786 19.0496 90.8212C19.0174 90.7639 18.9688 90.7174 18.91 90.6879C15.2125 88.925 12.3442 85.7949 10.91 81.9579C6.33003 70.6779 10.66 53.1479 16.08 43.9579C16.1089 43.9031 16.1546 43.8589 16.2103 43.8319C16.2661 43.8049 16.3291 43.7965 16.39 43.8079C16.4679 43.8152 16.5404 43.8508 16.5938 43.9079C16.6472 43.965 16.6779 44.0397 16.68 44.1179C16.79 49.3279 16.98 55.5479 20.73 59.3379C20.7864 59.3873 20.858 59.4161 20.9329 59.4194C21.0078 59.4227 21.0816 59.4004 21.1421 59.3561C21.2027 59.3119 21.2464 59.2484 21.266 59.176C21.2856 59.1036 21.2799 59.0267 21.25 58.9579C17.82 52.8379 20.02 44.6279 22.76 38.5679C25.1959 33.4456 28.9338 29.0526 33.6 25.8279C38.1456 22.9339 43.1204 20.7773 48.34 19.4379C51.0024 18.8824 53.7221 18.6507 56.44 18.7479C56.4794 18.7382 56.5206 18.7382 56.56 18.7479C72.81 25.1879 74.23 49.7479 59.56 58.7479C54.44 62.0579 61.4 60.2279 63.45 59.2279C76.77 53.8779 89.83 40.4379 87.02 25.1379C87.0056 25.064 87.0179 24.9873 87.0544 24.9215C87.091 24.8556 87.1496 24.8048 87.22 24.7779C88.07 25.2679 88.91 25.7779 89.73 26.3379C95.18 30.7179 97.79 37.9379 97.18 44.8679C96.8859 49.6762 95.4753 54.3499 93.06 58.5179C93.0315 58.5872 93.0282 58.6643 93.0507 58.7358C93.0732 58.8073 93.12 58.8686 93.1831 58.9091C93.2462 58.9496 93.3215 58.9666 93.3959 58.9573C93.4702 58.9479 93.5389 58.9128 93.59 58.8579C98.36 54.0079 103.46 48.6579 104.17 41.5779C104.176 41.523 104.195 41.4704 104.227 41.425C104.258 41.3795 104.301 41.3427 104.35 41.3179L104.55 41.2279C105.599 42.8379 106.554 44.5073 107.41 46.2279C110.87 56.2279 107.08 68.0679 110.6 78.3879C110.82 78.7979 111.15 79.9579 111.6 81.0379C111.752 81.3822 111.925 81.7162 112.12 82.0379C112.338 82.434 112.642 82.7759 113.01 83.0379C113.065 83.0671 113.127 83.0803 113.188 83.0759C113.25 83.0716 113.31 83.0499 113.36 83.0134C113.41 82.9769 113.449 82.927 113.472 82.8694C113.495 82.8118 113.501 82.7489 113.49 82.6879C113.33 82.0179 113.08 81.2279 112.93 80.5079C112.922 80.4315 112.94 80.3546 112.982 80.2904C113.025 80.2261 113.088 80.1787 113.161 80.1562C113.235 80.1336 113.314 80.1375 113.385 80.167C113.456 80.1965 113.514 80.2499 113.55 80.3179C114.343 82.3214 115.693 84.0563 117.44 85.3179C118.414 86.0082 119.472 86.5695 120.59 86.9879C120.649 87.0117 120.714 87.0171 120.777 87.0035C120.839 86.9899 120.896 86.9579 120.941 86.9117C120.985 86.8654 121.014 86.807 121.024 86.7439C121.035 86.6809 121.027 86.6161 121 86.5579C120.1 84.4679 119.12 82.4779 119.52 80.1279C120.774 76.2245 121.628 72.2039 122.07 68.1279C122.07 67.9279 122.07 67.7179 122.14 67.5179C123.38 56.3109 121.403 44.9825 116.44 34.8579Z" fill="url(#paint0_linear_126_7)"/>
<defs>
<linearGradient id="paint0_linear_126_7" x1="61.25" y1="91.5279" x2="61.25" y2="-0.0120691" gradientUnits="userSpaceOnUse">
    <stop stop-color="#d57f98"/>
    <stop offset="0.14" stop-color="#bc6381"/>
    <stop offset="0.35" stop-color="#a24567"/>
    <stop offset="0.6" stop-color="#94355a"/>
    <stop offset="1" stop-color="#8f2f55"/>
    </linearGradient>
</defs>
</svg>
