<svg width="145" height="186" viewBox="0 0 145 186" fill="none" xmlns="http://www.w3.org/2000/svg">
<path d="M133.117 140.85C139.287 128.71 140.567 115.1 140.877 101.76C142.591 95.5726 143.459 89.1812 143.457 82.7604V71.2204C143.46 58.8246 140.225 46.6431 134.074 35.8811C127.923 25.1191 119.069 16.1497 108.387 9.86037C107.777 9.50037 107.157 9.15037 106.537 8.80037L105.757 8.38037C95.4834 2.84301 83.9881 -0.0376809 72.3172 0.00037216H72.1972C71.2572 0.00037216 70.3072 0.000371858 69.3572 0.0703719L67.9572 0.140372L66.9572 0.220371C65.8772 0.300371 64.7972 0.400371 63.7272 0.530371H63.6572H63.5372C62.5372 0.650371 61.6072 0.780371 60.6472 0.940371C30.2072 5.61037 9.44717 26.4304 3.47717 52.6604C1.84436 58.7119 1.01723 64.9524 1.01718 71.2204V82.7904C1.01692 88.9814 1.82032 95.1462 3.40719 101.13C3.88719 114.79 5.07717 128.4 11.2572 140.92C1.48716 145.81 -2.68283 158.22 1.79717 167.71C3.72717 171.71 7.25717 173.66 11.7972 174.07C15.7972 174.39 22.0272 177.49 20.4872 181.98C18.9772 185.52 14.7672 182.98 15.8972 185.6C24.5472 186.6 31.9772 180.27 34.8972 172.88C37.1072 167.32 36.4472 161.56 34.5872 156C37.3272 156 40.1772 156.05 42.8972 155.75C46.7413 155.277 50.4793 154.165 53.9572 152.46C54.565 152.226 55.225 152.16 55.8672 152.27C56.5338 152.357 57.2339 152.457 57.9672 152.57C60.5478 153.09 63.1551 153.468 65.7772 153.7C66.4872 153.77 67.1972 153.83 67.9072 153.87H68.4072H68.8772C69.9772 153.92 71.0672 153.94 72.1672 153.95H72.2572C74.5949 153.952 76.9313 153.836 79.2572 153.6H79.6172L80.7872 153.46C83.3834 153.144 85.9605 152.686 88.5072 152.09C89.4266 152.078 90.3356 152.287 91.1572 152.7C96.9872 155.7 103.427 156.17 109.957 155.98C104.027 168.37 112.797 187.12 128.547 185.54C129.467 182.82 125.487 185.54 123.927 182C122.277 177 129.387 174.17 133.587 173.86C135.555 173.705 137.443 173.019 139.053 171.876C140.662 170.734 141.932 169.177 142.727 167.37C147.157 157.88 142.707 145.83 133.117 140.85Z" fill="url(#paint0_linear_106_89)"/>
<defs>
<linearGradient id="paint0_linear_106_89" x1="72.2372" y1="185.71" x2="72.2372" y2="0.000376352" gradientUnits="userSpaceOnUse">
    <stop stop-color="#fbf6d0"/>
    <stop offset="0.14" stop-color="#faedb3"/>
    <stop offset="0.35" stop-color="#f8e495"/>
    <stop offset="0.6" stop-color="#f7df84"/>
    <stop offset="1" stop-color="#f7dd7e"/>
    </linearGradient>
</defs>
</svg>
