<svg width="912" height="297" viewBox="0 0 912 297" fill="none" xmlns="http://www.w3.org/2000/svg">
<mask id="path-1-outside-1_229_5" maskUnits="userSpaceOnUse" x="-0.90918" y="-0.818359" width="913" height="298" fill="black">
<rect fill="white" x="-0.90918" y="-0.818359" width="913" height="298"/>
<path d="M106 79.9998H80.3635C80.1817 77.8786 79.6969 75.9544 78.909 74.2271C78.1514 72.4998 77.0908 71.015 75.7272 69.7725C74.3939 68.4998 72.7726 67.5301 70.8635 66.8635C68.9545 66.1665 66.7878 65.818 64.3635 65.818C60.1211 65.818 56.5302 66.8483 53.5908 68.9089C50.6817 70.9695 48.4696 73.9241 46.9545 77.7725C45.4696 81.621 44.7272 86.2422 44.7272 91.6362C44.7272 97.3332 45.4848 102.106 46.9999 105.954C48.5454 109.773 50.7726 112.651 53.6817 114.591C56.5908 116.5 60.0908 117.454 64.1817 117.454C66.5151 117.454 68.606 117.166 70.4545 116.591C72.3029 115.985 73.909 115.121 75.2726 114C76.6363 112.879 77.7423 111.53 78.5908 109.954C79.4696 108.348 80.0605 106.545 80.3635 104.545L106 104.727C105.697 108.666 104.591 112.682 102.682 116.773C100.773 120.833 98.0605 124.591 94.5454 128.045C91.0605 131.47 86.7423 134.227 81.5908 136.318C76.4393 138.409 70.4545 139.454 63.6363 139.454C55.0908 139.454 47.4242 137.621 40.6363 133.954C33.8787 130.288 28.5302 124.894 24.5908 117.773C20.6817 110.651 18.7272 101.939 18.7272 91.6362C18.7272 81.2725 20.7272 72.5453 24.7272 65.4544C28.7272 58.3332 34.1211 52.9544 40.909 49.318C47.6969 45.6513 55.2726 43.818 63.6363 43.818C69.5151 43.818 74.9242 44.621 79.8635 46.2271C84.8029 47.8332 89.1363 50.1816 92.8635 53.2725C96.5908 56.3332 99.5908 60.1059 101.864 64.5907C104.136 69.0756 105.515 74.2119 106 79.9998ZM172.557 45.0907H197.829V104.727C197.829 111.818 196.132 117.954 192.739 123.136C189.375 128.288 184.678 132.273 178.648 135.091C172.617 137.879 165.617 139.273 157.648 139.273C149.617 139.273 142.587 137.879 136.557 135.091C130.526 132.273 125.829 128.288 122.466 123.136C119.132 117.954 117.466 111.818 117.466 104.727V45.0907H142.739V102.545C142.739 105.424 143.375 108 144.648 110.273C145.92 112.515 147.678 114.273 149.92 115.545C152.193 116.818 154.769 117.454 157.648 117.454C160.557 117.454 163.132 116.818 165.375 115.545C167.617 114.273 169.375 112.515 170.648 110.273C171.92 108 172.557 105.424 172.557 102.545V45.0907ZM149.466 36.3635L135.829 15.9998H157.284L166.011 36.3635H149.466ZM290.386 45.0907V138.182H269.295L235.659 89.2725H235.114V138.182H209.841V45.0907H231.295L264.386 93.818H265.114V45.0907H290.386ZM362.795 75.818C362.401 74.2119 361.78 72.8029 360.932 71.5907C360.083 70.3483 359.023 69.3029 357.75 68.4544C356.507 67.5756 355.053 66.9241 353.386 66.4998C351.75 66.0453 349.947 65.818 347.977 65.818C343.735 65.818 340.114 66.8332 337.114 68.8635C334.144 70.8938 331.871 73.818 330.295 77.6362C328.75 81.4544 327.977 86.0604 327.977 91.4544C327.977 96.9089 328.72 101.576 330.204 105.454C331.689 109.333 333.901 112.303 336.841 114.363C339.78 116.424 343.432 117.454 347.795 117.454C351.644 117.454 354.841 116.894 357.386 115.773C359.962 114.651 361.886 113.06 363.159 111C364.432 108.939 365.068 106.515 365.068 103.727L369.432 104.182H348.159V86.1816H389.432V99.0907C389.432 107.576 387.629 114.833 384.023 120.863C380.447 126.863 375.507 131.47 369.204 134.682C362.932 137.863 355.735 139.454 347.614 139.454C338.553 139.454 330.598 137.53 323.75 133.682C316.901 129.833 311.553 124.348 307.704 117.227C303.886 110.106 301.977 101.636 301.977 91.818C301.977 84.121 303.144 77.3029 305.477 71.3635C307.841 65.4241 311.114 60.4089 315.295 56.318C319.477 52.1968 324.311 49.0907 329.795 46.9998C335.28 44.8786 341.159 43.818 347.432 43.818C352.947 43.818 358.068 44.6059 362.795 46.1816C367.553 47.7271 371.75 49.9392 375.386 52.818C379.053 55.6665 382.007 59.0453 384.25 62.9544C386.492 66.8635 387.856 71.1513 388.341 75.818H362.795ZM426.716 138.182V45.0907H451.989V81.4544H485.443V45.0907H510.716V138.182H485.443V101.818H451.989V138.182H426.716ZM612.898 91.6362C612.898 102 610.882 110.742 606.852 117.863C602.822 124.954 597.382 130.333 590.534 134C583.686 137.636 576.049 139.454 567.625 139.454C559.14 139.454 551.473 137.621 544.625 133.954C537.807 130.257 532.382 124.863 528.352 117.773C524.352 110.651 522.352 101.939 522.352 91.6362C522.352 81.2725 524.352 72.5453 528.352 65.4544C532.382 58.3332 537.807 52.9544 544.625 49.318C551.473 45.6513 559.14 43.818 567.625 43.818C576.049 43.818 583.686 45.6513 590.534 49.318C597.382 52.9544 602.822 58.3332 606.852 65.4544C610.882 72.5453 612.898 81.2725 612.898 91.6362ZM586.898 91.6362C586.898 86.0604 586.155 81.3635 584.67 77.5453C583.216 73.6968 581.049 70.7877 578.17 68.818C575.322 66.818 571.807 65.818 567.625 65.818C563.443 65.818 559.913 66.818 557.034 68.818C554.186 70.7877 552.019 73.6968 550.534 77.5453C549.079 81.3635 548.352 86.0604 548.352 91.6362C548.352 97.2119 549.079 101.924 550.534 105.773C552.019 109.591 554.186 112.5 557.034 114.5C559.913 116.47 563.443 117.454 567.625 117.454C571.807 117.454 575.322 116.47 578.17 114.5C581.049 112.5 583.216 109.591 584.67 105.773C586.155 101.924 586.898 97.2119 586.898 91.6362ZM567.625 166.363C564.231 166.363 561.322 165.242 558.898 163C556.473 160.757 555.261 158.06 555.261 154.909C555.261 151.757 556.473 149.06 558.898 146.818C561.322 144.576 564.231 143.454 567.625 143.454C571.049 143.454 573.958 144.576 576.352 146.818C578.776 149.06 579.989 151.757 579.989 154.909C579.989 158.06 578.776 160.757 576.352 163C573.958 165.242 571.049 166.363 567.625 166.363ZM711.5 79.9998H685.864C685.682 77.8786 685.197 75.9544 684.409 74.2271C683.651 72.4998 682.591 71.015 681.227 69.7725C679.894 68.4998 678.273 67.5301 676.364 66.8635C674.454 66.1665 672.288 65.818 669.864 65.818C665.621 65.818 662.03 66.8483 659.091 68.9089C656.182 70.9695 653.97 73.9241 652.454 77.7725C650.97 81.621 650.227 86.2422 650.227 91.6362C650.227 97.3332 650.985 102.106 652.5 105.954C654.045 109.773 656.273 112.651 659.182 114.591C662.091 116.5 665.591 117.454 669.682 117.454C672.015 117.454 674.106 117.166 675.954 116.591C677.803 115.985 679.409 115.121 680.773 114C682.136 112.879 683.242 111.53 684.091 109.954C684.97 108.348 685.561 106.545 685.864 104.545L711.5 104.727C711.197 108.666 710.091 112.682 708.182 116.773C706.273 120.833 703.561 124.591 700.045 128.045C696.561 131.47 692.242 134.227 687.091 136.318C681.939 138.409 675.954 139.454 669.136 139.454C660.591 139.454 652.924 137.621 646.136 133.954C639.379 130.288 634.03 124.894 630.091 117.773C626.182 110.651 624.227 101.939 624.227 91.6362C624.227 81.2725 626.227 72.5453 630.227 65.4544C634.227 58.3332 639.621 52.9544 646.409 49.318C653.197 45.6513 660.773 43.818 669.136 43.818C675.015 43.818 680.424 44.621 685.364 46.2271C690.303 47.8332 694.636 50.1816 698.364 53.2725C702.091 56.3332 705.091 60.1059 707.364 64.5907C709.636 69.0756 711.015 74.2119 711.5 79.9998ZM44.5454 186.091L63.6363 251.727H64.3635L83.4545 186.091H112L81.2726 279.182H46.7272L15.9999 186.091H44.5454ZM129.898 279.182H102.625L133.352 186.091H167.898L198.625 279.182H171.352L150.989 211.727H150.261L129.898 279.182ZM124.807 242.454H176.079V261.363H124.807V242.454ZM142.443 177.363L128.807 157H150.261L158.989 177.363H142.443ZM320 221H294.364C294.182 218.879 293.697 216.954 292.909 215.227C292.151 213.5 291.091 212.015 289.727 210.773C288.394 209.5 286.773 208.53 284.864 207.863C282.954 207.166 280.788 206.818 278.364 206.818C274.121 206.818 270.53 207.848 267.591 209.909C264.682 211.97 262.47 214.924 260.954 218.773C259.47 222.621 258.727 227.242 258.727 232.636C258.727 238.333 259.485 243.106 261 246.954C262.545 250.773 264.773 253.651 267.682 255.591C270.591 257.5 274.091 258.454 278.182 258.454C280.515 258.454 282.606 258.166 284.454 257.591C286.303 256.985 287.909 256.121 289.273 255C290.636 253.879 291.742 252.53 292.591 250.954C293.47 249.348 294.061 247.545 294.364 245.545L320 245.727C319.697 249.666 318.591 253.682 316.682 257.773C314.773 261.833 312.061 265.591 308.545 269.045C305.061 272.47 300.742 275.227 295.591 277.318C290.439 279.409 284.454 280.454 277.636 280.454C269.091 280.454 261.424 278.621 254.636 274.954C247.879 271.288 242.53 265.894 238.591 258.773C234.682 251.651 232.727 242.939 232.727 232.636C232.727 222.273 234.727 213.545 238.727 206.454C242.727 199.333 248.121 193.954 254.909 190.318C261.697 186.651 269.273 184.818 277.636 184.818C283.515 184.818 288.924 185.621 293.864 187.227C298.803 188.833 303.136 191.182 306.864 194.273C310.591 197.333 313.591 201.106 315.864 205.591C318.136 210.076 319.515 215.212 320 221ZM331.466 279.182V186.091H356.739V222.454H390.193V186.091H415.466V279.182H390.193V242.818H356.739V279.182H331.466ZM513.829 183H527.466C527.466 192.273 525.602 199.5 521.875 204.682C518.178 209.863 512.102 212.454 503.648 212.454V201.727C507.829 201.727 510.572 200.091 511.875 196.818C513.178 193.515 513.829 188.909 513.829 183ZM517.648 232.636C517.648 243 515.632 251.742 511.602 258.863C507.572 265.954 502.132 271.333 495.284 275C488.436 278.636 480.799 280.454 472.375 280.454C463.89 280.454 456.223 278.621 449.375 274.954C442.557 271.257 437.132 265.863 433.102 258.773C429.102 251.651 427.102 242.939 427.102 232.636C427.102 222.273 429.102 213.545 433.102 206.454C437.132 199.333 442.557 193.954 449.375 190.318C456.223 186.651 463.89 184.818 472.375 184.818C480.799 184.818 488.436 186.651 495.284 190.318C502.132 193.954 507.572 199.333 511.602 206.454C515.632 213.545 517.648 222.273 517.648 232.636ZM491.648 232.636C491.648 227.06 490.905 222.363 489.42 218.545C487.966 214.697 485.799 211.788 482.92 209.818C480.072 207.818 476.557 206.818 472.375 206.818C468.193 206.818 464.663 207.818 461.784 209.818C458.936 211.788 456.769 214.697 455.284 218.545C453.829 222.363 453.102 227.06 453.102 232.636C453.102 238.212 453.829 242.924 455.284 246.773C456.769 250.591 458.936 253.5 461.784 255.5C464.663 257.47 468.193 258.454 472.375 258.454C476.557 258.454 480.072 257.47 482.92 255.5C485.799 253.5 487.966 250.591 489.42 246.773C490.905 242.924 491.648 238.212 491.648 232.636ZM560.239 186.091V279.182H534.966V186.091H560.239ZM678.261 186.091V279.182H657.17L623.534 230.273H622.989V279.182H597.716V186.091H619.17L652.261 234.818H652.989V186.091H678.261ZM690.216 279.182V186.091H715.489V222.454H748.943V186.091H774.216V279.182H748.943V242.818H715.489V279.182H690.216ZM786.216 279.182V186.091H853.307V206.454H811.489V222.454H849.852V242.818H811.489V258.818H853.125V279.182H786.216ZM811.67 177.363L820.398 157H841.852L828.216 177.363H811.67ZM895.295 186.091L892.932 250.091H872.204L869.841 186.091H895.295ZM882.568 280.636C879.053 280.636 876.038 279.409 873.523 276.954C871.038 274.47 869.811 271.454 869.841 267.909C869.811 264.454 871.038 261.5 873.523 259.045C876.038 256.591 879.053 255.363 882.568 255.363C885.901 255.363 888.841 256.591 891.386 259.045C893.962 261.5 895.265 264.454 895.295 267.909C895.265 270.273 894.644 272.424 893.432 274.363C892.25 276.273 890.704 277.803 888.795 278.954C886.886 280.076 884.811 280.636 882.568 280.636Z"/>
</mask>
<path d="M106 79.9998H80.3635C80.1817 77.8786 79.6969 75.9544 78.909 74.2271C78.1514 72.4998 77.0908 71.015 75.7272 69.7725C74.3939 68.4998 72.7726 67.5301 70.8635 66.8635C68.9545 66.1665 66.7878 65.818 64.3635 65.818C60.1211 65.818 56.5302 66.8483 53.5908 68.9089C50.6817 70.9695 48.4696 73.9241 46.9545 77.7725C45.4696 81.621 44.7272 86.2422 44.7272 91.6362C44.7272 97.3332 45.4848 102.106 46.9999 105.954C48.5454 109.773 50.7726 112.651 53.6817 114.591C56.5908 116.5 60.0908 117.454 64.1817 117.454C66.5151 117.454 68.606 117.166 70.4545 116.591C72.3029 115.985 73.909 115.121 75.2726 114C76.6363 112.879 77.7423 111.53 78.5908 109.954C79.4696 108.348 80.0605 106.545 80.3635 104.545L106 104.727C105.697 108.666 104.591 112.682 102.682 116.773C100.773 120.833 98.0605 124.591 94.5454 128.045C91.0605 131.47 86.7423 134.227 81.5908 136.318C76.4393 138.409 70.4545 139.454 63.6363 139.454C55.0908 139.454 47.4242 137.621 40.6363 133.954C33.8787 130.288 28.5302 124.894 24.5908 117.773C20.6817 110.651 18.7272 101.939 18.7272 91.6362C18.7272 81.2725 20.7272 72.5453 24.7272 65.4544C28.7272 58.3332 34.1211 52.9544 40.909 49.318C47.6969 45.6513 55.2726 43.818 63.6363 43.818C69.5151 43.818 74.9242 44.621 79.8635 46.2271C84.8029 47.8332 89.1363 50.1816 92.8635 53.2725C96.5908 56.3332 99.5908 60.1059 101.864 64.5907C104.136 69.0756 105.515 74.2119 106 79.9998ZM172.557 45.0907H197.829V104.727C197.829 111.818 196.132 117.954 192.739 123.136C189.375 128.288 184.678 132.273 178.648 135.091C172.617 137.879 165.617 139.273 157.648 139.273C149.617 139.273 142.587 137.879 136.557 135.091C130.526 132.273 125.829 128.288 122.466 123.136C119.132 117.954 117.466 111.818 117.466 104.727V45.0907H142.739V102.545C142.739 105.424 143.375 108 144.648 110.273C145.92 112.515 147.678 114.273 149.92 115.545C152.193 116.818 154.769 117.454 157.648 117.454C160.557 117.454 163.132 116.818 165.375 115.545C167.617 114.273 169.375 112.515 170.648 110.273C171.92 108 172.557 105.424 172.557 102.545V45.0907ZM149.466 36.3635L135.829 15.9998H157.284L166.011 36.3635H149.466ZM290.386 45.0907V138.182H269.295L235.659 89.2725H235.114V138.182H209.841V45.0907H231.295L264.386 93.818H265.114V45.0907H290.386ZM362.795 75.818C362.401 74.2119 361.78 72.8029 360.932 71.5907C360.083 70.3483 359.023 69.3029 357.75 68.4544C356.507 67.5756 355.053 66.9241 353.386 66.4998C351.75 66.0453 349.947 65.818 347.977 65.818C343.735 65.818 340.114 66.8332 337.114 68.8635C334.144 70.8938 331.871 73.818 330.295 77.6362C328.75 81.4544 327.977 86.0604 327.977 91.4544C327.977 96.9089 328.72 101.576 330.204 105.454C331.689 109.333 333.901 112.303 336.841 114.363C339.78 116.424 343.432 117.454 347.795 117.454C351.644 117.454 354.841 116.894 357.386 115.773C359.962 114.651 361.886 113.06 363.159 111C364.432 108.939 365.068 106.515 365.068 103.727L369.432 104.182H348.159V86.1816H389.432V99.0907C389.432 107.576 387.629 114.833 384.023 120.863C380.447 126.863 375.507 131.47 369.204 134.682C362.932 137.863 355.735 139.454 347.614 139.454C338.553 139.454 330.598 137.53 323.75 133.682C316.901 129.833 311.553 124.348 307.704 117.227C303.886 110.106 301.977 101.636 301.977 91.818C301.977 84.121 303.144 77.3029 305.477 71.3635C307.841 65.4241 311.114 60.4089 315.295 56.318C319.477 52.1968 324.311 49.0907 329.795 46.9998C335.28 44.8786 341.159 43.818 347.432 43.818C352.947 43.818 358.068 44.6059 362.795 46.1816C367.553 47.7271 371.75 49.9392 375.386 52.818C379.053 55.6665 382.007 59.0453 384.25 62.9544C386.492 66.8635 387.856 71.1513 388.341 75.818H362.795ZM426.716 138.182V45.0907H451.989V81.4544H485.443V45.0907H510.716V138.182H485.443V101.818H451.989V138.182H426.716ZM612.898 91.6362C612.898 102 610.882 110.742 606.852 117.863C602.822 124.954 597.382 130.333 590.534 134C583.686 137.636 576.049 139.454 567.625 139.454C559.14 139.454 551.473 137.621 544.625 133.954C537.807 130.257 532.382 124.863 528.352 117.773C524.352 110.651 522.352 101.939 522.352 91.6362C522.352 81.2725 524.352 72.5453 528.352 65.4544C532.382 58.3332 537.807 52.9544 544.625 49.318C551.473 45.6513 559.14 43.818 567.625 43.818C576.049 43.818 583.686 45.6513 590.534 49.318C597.382 52.9544 602.822 58.3332 606.852 65.4544C610.882 72.5453 612.898 81.2725 612.898 91.6362ZM586.898 91.6362C586.898 86.0604 586.155 81.3635 584.67 77.5453C583.216 73.6968 581.049 70.7877 578.17 68.818C575.322 66.818 571.807 65.818 567.625 65.818C563.443 65.818 559.913 66.818 557.034 68.818C554.186 70.7877 552.019 73.6968 550.534 77.5453C549.079 81.3635 548.352 86.0604 548.352 91.6362C548.352 97.2119 549.079 101.924 550.534 105.773C552.019 109.591 554.186 112.5 557.034 114.5C559.913 116.47 563.443 117.454 567.625 117.454C571.807 117.454 575.322 116.47 578.17 114.5C581.049 112.5 583.216 109.591 584.67 105.773C586.155 101.924 586.898 97.2119 586.898 91.6362ZM567.625 166.363C564.231 166.363 561.322 165.242 558.898 163C556.473 160.757 555.261 158.06 555.261 154.909C555.261 151.757 556.473 149.06 558.898 146.818C561.322 144.576 564.231 143.454 567.625 143.454C571.049 143.454 573.958 144.576 576.352 146.818C578.776 149.06 579.989 151.757 579.989 154.909C579.989 158.06 578.776 160.757 576.352 163C573.958 165.242 571.049 166.363 567.625 166.363ZM711.5 79.9998H685.864C685.682 77.8786 685.197 75.9544 684.409 74.2271C683.651 72.4998 682.591 71.015 681.227 69.7725C679.894 68.4998 678.273 67.5301 676.364 66.8635C674.454 66.1665 672.288 65.818 669.864 65.818C665.621 65.818 662.03 66.8483 659.091 68.9089C656.182 70.9695 653.97 73.9241 652.454 77.7725C650.97 81.621 650.227 86.2422 650.227 91.6362C650.227 97.3332 650.985 102.106 652.5 105.954C654.045 109.773 656.273 112.651 659.182 114.591C662.091 116.5 665.591 117.454 669.682 117.454C672.015 117.454 674.106 117.166 675.954 116.591C677.803 115.985 679.409 115.121 680.773 114C682.136 112.879 683.242 111.53 684.091 109.954C684.97 108.348 685.561 106.545 685.864 104.545L711.5 104.727C711.197 108.666 710.091 112.682 708.182 116.773C706.273 120.833 703.561 124.591 700.045 128.045C696.561 131.47 692.242 134.227 687.091 136.318C681.939 138.409 675.954 139.454 669.136 139.454C660.591 139.454 652.924 137.621 646.136 133.954C639.379 130.288 634.03 124.894 630.091 117.773C626.182 110.651 624.227 101.939 624.227 91.6362C624.227 81.2725 626.227 72.5453 630.227 65.4544C634.227 58.3332 639.621 52.9544 646.409 49.318C653.197 45.6513 660.773 43.818 669.136 43.818C675.015 43.818 680.424 44.621 685.364 46.2271C690.303 47.8332 694.636 50.1816 698.364 53.2725C702.091 56.3332 705.091 60.1059 707.364 64.5907C709.636 69.0756 711.015 74.2119 711.5 79.9998ZM44.5454 186.091L63.6363 251.727H64.3635L83.4545 186.091H112L81.2726 279.182H46.7272L15.9999 186.091H44.5454ZM129.898 279.182H102.625L133.352 186.091H167.898L198.625 279.182H171.352L150.989 211.727H150.261L129.898 279.182ZM124.807 242.454H176.079V261.363H124.807V242.454ZM142.443 177.363L128.807 157H150.261L158.989 177.363H142.443ZM320 221H294.364C294.182 218.879 293.697 216.954 292.909 215.227C292.151 213.5 291.091 212.015 289.727 210.773C288.394 209.5 286.773 208.53 284.864 207.863C282.954 207.166 280.788 206.818 278.364 206.818C274.121 206.818 270.53 207.848 267.591 209.909C264.682 211.97 262.47 214.924 260.954 218.773C259.47 222.621 258.727 227.242 258.727 232.636C258.727 238.333 259.485 243.106 261 246.954C262.545 250.773 264.773 253.651 267.682 255.591C270.591 257.5 274.091 258.454 278.182 258.454C280.515 258.454 282.606 258.166 284.454 257.591C286.303 256.985 287.909 256.121 289.273 255C290.636 253.879 291.742 252.53 292.591 250.954C293.47 249.348 294.061 247.545 294.364 245.545L320 245.727C319.697 249.666 318.591 253.682 316.682 257.773C314.773 261.833 312.061 265.591 308.545 269.045C305.061 272.47 300.742 275.227 295.591 277.318C290.439 279.409 284.454 280.454 277.636 280.454C269.091 280.454 261.424 278.621 254.636 274.954C247.879 271.288 242.53 265.894 238.591 258.773C234.682 251.651 232.727 242.939 232.727 232.636C232.727 222.273 234.727 213.545 238.727 206.454C242.727 199.333 248.121 193.954 254.909 190.318C261.697 186.651 269.273 184.818 277.636 184.818C283.515 184.818 288.924 185.621 293.864 187.227C298.803 188.833 303.136 191.182 306.864 194.273C310.591 197.333 313.591 201.106 315.864 205.591C318.136 210.076 319.515 215.212 320 221ZM331.466 279.182V186.091H356.739V222.454H390.193V186.091H415.466V279.182H390.193V242.818H356.739V279.182H331.466ZM513.829 183H527.466C527.466 192.273 525.602 199.5 521.875 204.682C518.178 209.863 512.102 212.454 503.648 212.454V201.727C507.829 201.727 510.572 200.091 511.875 196.818C513.178 193.515 513.829 188.909 513.829 183ZM517.648 232.636C517.648 243 515.632 251.742 511.602 258.863C507.572 265.954 502.132 271.333 495.284 275C488.436 278.636 480.799 280.454 472.375 280.454C463.89 280.454 456.223 278.621 449.375 274.954C442.557 271.257 437.132 265.863 433.102 258.773C429.102 251.651 427.102 242.939 427.102 232.636C427.102 222.273 429.102 213.545 433.102 206.454C437.132 199.333 442.557 193.954 449.375 190.318C456.223 186.651 463.89 184.818 472.375 184.818C480.799 184.818 488.436 186.651 495.284 190.318C502.132 193.954 507.572 199.333 511.602 206.454C515.632 213.545 517.648 222.273 517.648 232.636ZM491.648 232.636C491.648 227.06 490.905 222.363 489.42 218.545C487.966 214.697 485.799 211.788 482.92 209.818C480.072 207.818 476.557 206.818 472.375 206.818C468.193 206.818 464.663 207.818 461.784 209.818C458.936 211.788 456.769 214.697 455.284 218.545C453.829 222.363 453.102 227.06 453.102 232.636C453.102 238.212 453.829 242.924 455.284 246.773C456.769 250.591 458.936 253.5 461.784 255.5C464.663 257.47 468.193 258.454 472.375 258.454C476.557 258.454 480.072 257.47 482.92 255.5C485.799 253.5 487.966 250.591 489.42 246.773C490.905 242.924 491.648 238.212 491.648 232.636ZM560.239 186.091V279.182H534.966V186.091H560.239ZM678.261 186.091V279.182H657.17L623.534 230.273H622.989V279.182H597.716V186.091H619.17L652.261 234.818H652.989V186.091H678.261ZM690.216 279.182V186.091H715.489V222.454H748.943V186.091H774.216V279.182H748.943V242.818H715.489V279.182H690.216ZM786.216 279.182V186.091H853.307V206.454H811.489V222.454H849.852V242.818H811.489V258.818H853.125V279.182H786.216ZM811.67 177.363L820.398 157H841.852L828.216 177.363H811.67ZM895.295 186.091L892.932 250.091H872.204L869.841 186.091H895.295ZM882.568 280.636C879.053 280.636 876.038 279.409 873.523 276.954C871.038 274.47 869.811 271.454 869.841 267.909C869.811 264.454 871.038 261.5 873.523 259.045C876.038 256.591 879.053 255.363 882.568 255.363C885.901 255.363 888.841 256.591 891.386 259.045C893.962 261.5 895.265 264.454 895.295 267.909C895.265 270.273 894.644 272.424 893.432 274.363C892.25 276.273 890.704 277.803 888.795 278.954C886.886 280.076 884.811 280.636 882.568 280.636Z" fill="url(#paint0_linear_229_5)"/>
<path d="M106 79.9998V95.9998C110.476 95.9998 114.747 94.1252 117.776 90.831C120.806 87.5368 122.318 83.1242 121.944 78.6642L106 79.9998ZM80.3635 79.9998L64.422 81.3662C65.1314 89.6428 72.0567 95.9998 80.3635 95.9998V79.9998ZM78.909 74.2271L64.2564 80.6537C64.2877 80.7251 64.3195 80.7962 64.3519 80.8672L78.909 74.2271ZM75.7272 69.7725L64.6796 81.3462C64.7692 81.4318 64.8598 81.5163 64.9513 81.5997L75.7272 69.7725ZM70.8635 66.8635L65.3765 81.8932C65.447 81.9189 65.5177 81.9442 65.5886 81.9689L70.8635 66.8635ZM53.5908 68.9089L44.4064 55.8076C44.3851 55.8225 44.3638 55.8375 44.3426 55.8525L53.5908 68.9089ZM46.9545 77.7725L32.0667 71.9112C32.0534 71.9452 32.0401 71.9791 32.027 72.0131L46.9545 77.7725ZM46.9999 105.954L32.1122 111.816C32.1308 111.863 32.1497 111.91 32.1688 111.957L46.9999 105.954ZM53.6817 114.591L44.8065 127.904C44.8387 127.925 44.8709 127.946 44.9032 127.967L53.6817 114.591ZM70.4545 116.591L75.2126 131.867C75.2883 131.843 75.3639 131.819 75.4393 131.794L70.4545 116.591ZM75.2726 114L85.4343 126.359L85.4343 126.359L75.2726 114ZM78.5908 109.954L64.5546 102.274C64.5374 102.306 64.5203 102.337 64.5033 102.369L78.5908 109.954ZM80.3635 104.545L80.477 88.5457C72.5232 88.4893 65.7356 94.2841 64.5441 102.148L80.3635 104.545ZM106 104.727L121.953 105.954C122.293 101.53 120.781 97.1638 117.778 93.8976C114.775 90.6314 110.55 88.759 106.113 88.7275L106 104.727ZM102.682 116.773L117.161 123.58C117.168 123.566 117.174 123.553 117.181 123.539L102.682 116.773ZM94.5454 128.045L105.759 139.458L105.76 139.457L94.5454 128.045ZM81.5908 136.318L75.5735 121.493L81.5908 136.318ZM40.6363 133.954L33.0056 148.018C33.0144 148.022 33.0232 148.027 33.0319 148.032L40.6363 133.954ZM24.5908 117.773L10.5651 125.472C10.5734 125.487 10.5818 125.502 10.5903 125.518L24.5908 117.773ZM24.7272 65.4544L38.6628 73.3155C38.6676 73.307 38.6724 73.2986 38.6771 73.2901L24.7272 65.4544ZM40.909 49.318L48.4645 63.4217C48.4808 63.413 48.4971 63.4042 48.5133 63.3954L40.909 49.318ZM79.8635 46.2271L84.811 31.0112H84.811L79.8635 46.2271ZM92.8635 53.2725L82.6502 65.5887C82.67 65.6051 82.6899 65.6216 82.7099 65.6379L92.8635 53.2725ZM101.864 64.5907L87.5915 71.8232L87.5915 71.8232L101.864 64.5907ZM106 79.9998V63.9998H80.3635V79.9998V95.9998H106V79.9998ZM80.3635 79.9998L96.3051 78.6334C95.9857 74.9076 95.1002 71.1694 93.4661 67.587L78.909 74.2271L64.3519 80.8672C64.327 80.8126 64.3316 80.808 64.3485 80.875C64.366 80.9444 64.3993 81.1017 64.422 81.3662L80.3635 79.9998ZM78.909 74.2271L93.5616 67.8005C91.9249 64.0688 89.5605 60.7311 86.503 57.9454L75.7272 69.7725L64.9513 81.5997C64.8073 81.4684 64.6592 81.3048 64.5256 81.1178C64.3927 80.9317 64.3063 80.7676 64.2564 80.6537L78.909 74.2271ZM75.7272 69.7725L86.7748 58.1988C83.6366 55.2033 79.9905 53.1031 76.1385 51.758L70.8635 66.8635L65.5886 81.9689C65.5911 81.9698 65.4806 81.931 65.2982 81.8219C65.1121 81.7106 64.8957 81.5526 64.6796 81.3462L75.7272 69.7725ZM70.8635 66.8635L76.3506 51.8337C72.3808 50.3845 68.3078 49.818 64.3635 49.818V65.818V81.818C65.2678 81.818 65.5281 81.9485 65.3765 81.8932L70.8635 66.8635ZM64.3635 65.818V49.818C57.4473 49.818 50.4984 51.5368 44.4064 55.8076L53.5908 68.9089L62.7753 82.0103C62.7332 82.0398 62.7416 82.016 62.9012 81.9702C63.0829 81.9181 63.5365 81.818 64.3635 81.818V65.818ZM53.5908 68.9089L44.3426 55.8525C38.5073 59.9858 34.535 65.6417 32.0667 71.9112L46.9545 77.7725L61.8422 83.6339C62.1382 82.882 62.4044 82.4646 62.5578 82.2598C62.7007 82.0689 62.792 81.9986 62.8391 81.9653L53.5908 68.9089ZM46.9545 77.7725L32.027 72.0131C29.6523 78.168 28.7272 84.8472 28.7272 91.6362H44.7272H60.7272C60.7272 87.6373 61.2869 85.0741 61.8819 83.532L46.9545 77.7725ZM44.7272 91.6362H28.7272C28.7272 98.6337 29.6416 105.54 32.1122 111.816L46.9999 105.954L61.8877 100.093C61.328 98.6714 60.7272 96.0326 60.7272 91.6362H44.7272ZM46.9999 105.954L32.1688 111.957C34.7004 118.212 38.7738 123.882 44.8065 127.904L53.6817 114.591L62.5569 101.278C62.6033 101.309 62.581 101.312 62.4842 101.186C62.3745 101.045 62.1258 100.679 61.8311 99.9513L46.9999 105.954ZM53.6817 114.591L44.9032 127.967C50.8512 131.871 57.5303 133.454 64.1817 133.454V117.454V101.454C63.3803 101.454 62.9146 101.361 62.6984 101.302C62.5894 101.273 62.5278 101.247 62.5014 101.235C62.4757 101.224 62.465 101.217 62.4602 101.214L53.6817 114.591ZM64.1817 117.454V133.454C67.8089 133.454 71.5456 133.009 75.2126 131.867L70.4545 116.591L65.6963 101.315C65.6664 101.324 65.2212 101.454 64.1817 101.454V117.454ZM70.4545 116.591L75.4393 131.794C78.9826 130.633 82.3876 128.864 85.4343 126.359L75.2726 114L65.111 101.641C65.2581 101.52 65.3853 101.441 65.4677 101.397C65.5476 101.354 65.5577 101.358 65.4697 101.387L70.4545 116.591ZM75.2726 114L85.4343 126.359C88.4269 123.898 90.8578 120.921 92.6784 117.54L78.5908 109.954L64.5033 102.369C64.5547 102.273 64.6368 102.143 64.754 102.001C64.8715 101.857 64.9958 101.736 65.1109 101.641L75.2726 114ZM78.5908 109.954L92.627 117.635C94.4943 114.222 95.6287 110.6 96.183 106.942L80.3635 104.545L64.5441 102.148C64.5169 102.328 64.4903 102.41 64.4888 102.415C64.4878 102.418 64.4919 102.405 64.5032 102.379C64.5144 102.353 64.5313 102.317 64.5546 102.274L78.5908 109.954ZM80.3635 104.545L80.2501 120.545L105.886 120.727L106 104.727L106.113 88.7275L80.477 88.5457L80.3635 104.545ZM106 104.727L90.047 103.5C89.9111 105.268 89.3928 107.414 88.1828 110.006L102.682 116.773L117.181 123.539C119.789 117.95 121.483 112.065 121.953 105.954L106 104.727ZM102.682 116.773L88.2022 109.965C87.1755 112.149 85.6261 114.378 83.3305 116.634L94.5454 128.045L105.76 139.457C110.495 134.804 114.37 129.518 117.161 123.58L102.682 116.773ZM94.5454 128.045L83.3313 116.633C81.5307 118.402 79.0521 120.081 75.5735 121.493L81.5908 136.318L87.6082 151.143C94.4326 148.373 100.59 144.537 105.759 139.458L94.5454 128.045ZM81.5908 136.318L75.5735 121.493C72.7126 122.654 68.845 123.454 63.6363 123.454V139.454V155.454C72.064 155.454 80.166 154.164 87.6082 151.143L81.5908 136.318ZM63.6363 139.454V123.454C57.4545 123.454 52.4489 122.15 48.2406 119.877L40.6363 133.954L33.0319 148.032C42.3994 153.092 52.7272 155.454 63.6363 155.454V139.454ZM40.6363 133.954L48.267 119.891C44.3517 117.767 41.1441 114.642 38.5914 110.028L24.5908 117.773L10.5903 125.518C15.9163 135.145 23.4057 142.809 33.0056 148.018L40.6363 133.954ZM24.5908 117.773L38.6166 110.073C36.305 105.862 34.7272 99.9547 34.7272 91.6362H18.7272H2.72718C2.72718 103.924 5.05849 115.44 10.5651 125.472L24.5908 117.773ZM18.7272 91.6362H34.7272C34.7272 83.2899 36.3372 77.4382 38.6628 73.3155L24.7272 65.4544L10.7915 57.5932C5.11716 67.6523 2.72718 79.2551 2.72718 91.6362H18.7272ZM24.7272 65.4544L38.6771 73.2901C41.2804 68.6555 44.5268 65.5312 48.4645 63.4217L40.909 49.318L33.3535 35.2143C23.7154 40.3776 16.174 48.0108 10.7772 57.6186L24.7272 65.4544ZM40.909 49.318L48.5133 63.3954C52.7717 61.0952 57.6987 59.818 63.6363 59.818V43.818V27.818C52.8466 27.818 42.6221 30.2075 33.3047 35.2406L40.909 49.318ZM63.6363 43.818V59.818C68.0532 59.818 71.7696 60.4199 74.9161 61.4429L79.8635 46.2271L84.811 31.0112C78.0788 28.8222 70.9769 27.818 63.6363 27.818V43.818ZM79.8635 46.2271L74.9161 61.4429C78.0736 62.4696 80.5894 63.8797 82.6502 65.5887L92.8635 53.2725L103.077 40.9564C97.6832 36.4836 91.5323 33.1967 84.811 31.0112L79.8635 46.2271ZM92.8635 53.2725L82.7099 65.6379C84.6506 67.2315 86.2775 69.2303 87.5915 71.8232L101.864 64.5907L116.136 57.3583C112.904 50.9815 108.531 45.4348 103.017 40.9072L92.8635 53.2725ZM101.864 64.5907L87.5915 71.8232C88.799 74.2059 89.7166 77.2873 90.0558 81.3355L106 79.9998L121.944 78.6642C121.313 71.1366 119.474 63.9452 116.136 57.3583L101.864 64.5907ZM172.557 45.0907V29.0907C163.72 29.0907 156.557 36.2542 156.557 45.0907H172.557ZM197.829 45.0907H213.829C213.829 36.2542 206.666 29.0907 197.829 29.0907V45.0907ZM192.739 123.136L179.354 114.37C179.35 114.376 179.346 114.382 179.341 114.389L192.739 123.136ZM178.648 135.091L185.362 149.614C185.382 149.605 185.402 149.595 185.422 149.586L178.648 135.091ZM136.557 135.091L129.783 149.586C129.803 149.595 129.823 149.605 129.843 149.614L136.557 135.091ZM122.466 123.136L109.01 131.792C109.029 131.823 109.049 131.853 109.069 131.884L122.466 123.136ZM117.466 45.0907V29.0907C108.629 29.0907 101.466 36.2542 101.466 45.0907H117.466ZM142.739 45.0907H158.739C158.739 36.2542 151.575 29.0907 142.739 29.0907V45.0907ZM144.648 110.273L130.688 118.09C130.703 118.117 130.718 118.144 130.733 118.17L144.648 110.273ZM149.92 115.545L142.023 129.46C142.049 129.475 142.076 129.49 142.103 129.505L149.92 115.545ZM165.375 115.545L173.273 129.46H173.273L165.375 115.545ZM170.648 110.273L184.563 118.17C184.578 118.144 184.593 118.117 184.608 118.09L170.648 110.273ZM149.466 36.3635L136.171 45.266C139.141 49.7014 144.128 52.3635 149.466 52.3635V36.3635ZM135.829 15.9998V-0.000183105C129.923 -0.000183105 124.497 3.25401 121.715 8.4646C118.933 13.6752 119.248 19.9945 122.535 24.9024L135.829 15.9998ZM157.284 15.9998L171.99 9.69711C169.469 3.81416 163.684 -0.000183105 157.284 -0.000183105V15.9998ZM166.011 36.3635V52.3635C171.39 52.3635 176.408 49.6613 179.369 45.1713C182.329 40.6813 182.836 35.0042 180.718 30.0608L166.011 36.3635ZM172.557 45.0907V61.0907H197.829V45.0907V29.0907H172.557V45.0907ZM197.829 45.0907H181.829V104.727H197.829H213.829V45.0907H197.829ZM197.829 104.727H181.829C181.829 109.167 180.804 112.155 179.354 114.37L192.739 123.136L206.123 131.903C211.461 123.753 213.829 114.469 213.829 104.727H197.829ZM192.739 123.136L179.341 114.389C177.74 116.841 175.434 118.932 171.874 120.596L178.648 135.091L185.422 149.586C193.922 145.613 201.009 139.735 206.136 131.884L192.739 123.136ZM178.648 135.091L171.933 120.568C168.386 122.208 163.754 123.273 157.648 123.273V139.273V155.273C167.48 155.273 176.849 153.549 185.362 149.614L178.648 135.091ZM157.648 139.273V123.273C151.461 123.273 146.804 122.201 143.271 120.568L136.557 135.091L129.843 149.614C138.37 153.556 147.774 155.273 157.648 155.273V139.273ZM136.557 135.091L143.331 120.596C139.771 118.932 137.464 116.841 135.863 114.389L122.466 123.136L109.069 131.884C114.195 139.735 121.282 145.613 129.783 149.586L136.557 135.091ZM122.466 123.136L135.922 114.48C134.489 112.252 133.466 109.223 133.466 104.727H117.466H101.466C101.466 114.413 103.776 123.657 109.01 131.792L122.466 123.136ZM117.466 104.727H133.466V45.0907H117.466H101.466V104.727H117.466ZM117.466 45.0907V61.0907H142.739V45.0907V29.0907H117.466V45.0907ZM142.739 45.0907H126.739V102.545H142.739H158.739V45.0907H142.739ZM142.739 102.545H126.739C126.739 107.867 127.94 113.185 130.688 118.09L144.648 110.273L158.608 102.455C158.643 102.517 158.674 102.583 158.7 102.649C158.726 102.715 158.741 102.767 158.749 102.799C158.757 102.83 158.754 102.83 158.75 102.793C158.746 102.756 158.739 102.675 158.739 102.545H142.739ZM144.648 110.273L130.733 118.17C133.431 122.925 137.268 126.762 142.023 129.46L149.92 115.545L157.818 101.63C157.9 101.677 158.059 101.784 158.234 101.959C158.409 102.134 158.516 102.293 158.563 102.375L144.648 110.273ZM149.92 115.545L142.103 129.505C147.008 132.253 152.326 133.454 157.648 133.454V117.454V101.454C157.518 101.454 157.437 101.447 157.399 101.443C157.363 101.439 157.363 101.436 157.394 101.444C157.426 101.452 157.478 101.467 157.544 101.493C157.61 101.519 157.676 101.55 157.738 101.585L149.92 115.545ZM157.648 117.454V133.454C162.964 133.454 168.326 132.268 173.273 129.46L165.375 115.545L157.477 101.63C157.565 101.581 157.653 101.539 157.737 101.506C157.82 101.473 157.885 101.454 157.924 101.444C158.006 101.424 157.932 101.454 157.648 101.454V117.454ZM165.375 115.545L173.273 129.46C178.027 126.762 181.864 122.925 184.563 118.17L170.648 110.273L156.733 102.375C156.779 102.293 156.886 102.134 157.061 101.959C157.236 101.784 157.395 101.677 157.477 101.63L165.375 115.545ZM170.648 110.273L184.608 118.09C187.355 113.185 188.557 107.867 188.557 102.545H172.557H156.557C156.557 102.675 156.55 102.756 156.545 102.793C156.541 102.83 156.539 102.83 156.546 102.799C156.554 102.767 156.57 102.715 156.595 102.649C156.621 102.583 156.653 102.517 156.688 102.455L170.648 110.273ZM172.557 102.545H188.557V45.0907H172.557H156.557V102.545H172.557ZM149.466 36.3635L162.76 27.4609L149.124 7.09724L135.829 15.9998L122.535 24.9024L136.171 45.266L149.466 36.3635ZM135.829 15.9998V31.9998H157.284V15.9998V-0.000183105H135.829V15.9998ZM157.284 15.9998L142.578 22.3025L151.305 42.6662L166.011 36.3635L180.718 30.0608L171.99 9.69711L157.284 15.9998ZM166.011 36.3635V20.3635H149.466V36.3635V52.3635H166.011V36.3635ZM290.386 45.0907H306.386C306.386 36.2542 299.223 29.0907 290.386 29.0907V45.0907ZM290.386 138.182V154.182C299.223 154.182 306.386 147.018 306.386 138.182H290.386ZM269.295 138.182L256.112 147.248C259.097 151.589 264.028 154.182 269.295 154.182V138.182ZM235.659 89.2726L248.842 80.206C245.857 75.8655 240.927 73.2726 235.659 73.2726V89.2726ZM235.114 89.2726V73.2726C226.277 73.2726 219.114 80.436 219.114 89.2726H235.114ZM235.114 138.182V154.182C243.95 154.182 251.114 147.018 251.114 138.182H235.114ZM209.841 138.182H193.841C193.841 147.018 201.004 154.182 209.841 154.182V138.182ZM209.841 45.0907V29.0907C201.004 29.0907 193.841 36.2542 193.841 45.0907H209.841ZM231.295 45.0907L244.532 36.1019C241.553 31.7164 236.597 29.0907 231.295 29.0907V45.0907ZM264.386 93.818L251.15 102.807C254.128 107.192 259.085 109.818 264.386 109.818V93.818ZM265.114 93.818V109.818C273.95 109.818 281.114 102.655 281.114 93.818H265.114ZM265.114 45.0907V29.0907C256.277 29.0907 249.114 36.2542 249.114 45.0907H265.114ZM290.386 45.0907H274.386V138.182H290.386H306.386V45.0907H290.386ZM290.386 138.182V122.182H269.295V138.182V154.182H290.386V138.182ZM269.295 138.182L282.479 129.115L248.842 80.206L235.659 89.2726L222.476 98.3391L256.112 147.248L269.295 138.182ZM235.659 89.2726V73.2726H235.114V89.2726V105.273H235.659V89.2726ZM235.114 89.2726H219.114V138.182H235.114H251.114V89.2726H235.114ZM235.114 138.182V122.182H209.841V138.182V154.182H235.114V138.182ZM209.841 138.182H225.841V45.0907H209.841H193.841V138.182H209.841ZM209.841 45.0907V61.0907H231.295V45.0907V29.0907H209.841V45.0907ZM231.295 45.0907L218.059 54.0796L251.15 102.807L264.386 93.818L277.623 84.8292L244.532 36.1019L231.295 45.0907ZM264.386 93.818V109.818H265.114V93.818V77.818H264.386V93.818ZM265.114 93.818H281.114V45.0907H265.114H249.114V93.818H265.114ZM265.114 45.0907V61.0907H290.386V45.0907V29.0907H265.114V45.0907ZM362.795 75.818L347.256 79.6295C349.011 86.7858 355.427 91.818 362.795 91.818V75.818ZM360.932 71.5907L347.719 80.6141C347.754 80.665 347.789 80.7157 347.824 80.7661L360.932 71.5907ZM357.75 68.4544L348.51 81.517C348.631 81.6021 348.752 81.6855 348.875 81.7672L357.75 68.4544ZM353.386 66.4998L349.104 81.9161C349.215 81.9471 349.327 81.9768 349.439 82.0054L353.386 66.4998ZM337.114 68.8635L328.146 55.6128C328.125 55.6269 328.104 55.641 328.083 55.6552L337.114 68.8635ZM330.295 77.6362L315.505 71.5324C315.492 71.5659 315.478 71.5995 315.464 71.6331L330.295 77.6362ZM330.204 105.454L315.262 111.175L315.262 111.175L330.204 105.454ZM336.841 114.363L327.656 127.465L327.656 127.465L336.841 114.363ZM357.386 115.773L351 101.102C350.979 101.111 350.958 101.121 350.937 101.13L357.386 115.773ZM363.159 111L349.546 102.592V102.592L363.159 111ZM365.068 103.727L366.726 87.8132C362.218 87.3437 357.723 88.8077 354.357 91.8417C350.99 94.8758 349.068 99.1951 349.068 103.727H365.068ZM369.432 104.182V120.182C377.946 120.182 384.969 113.514 385.41 105.012C385.852 96.5091 379.558 89.1499 371.089 88.2677L369.432 104.182ZM348.159 104.182H332.159C332.159 113.018 339.322 120.182 348.159 120.182V104.182ZM348.159 86.1816V70.1816C339.322 70.1816 332.159 77.3451 332.159 86.1816H348.159ZM389.432 86.1816H405.432C405.432 77.3451 398.268 70.1816 389.432 70.1816V86.1816ZM384.023 120.863L370.291 112.652C370.286 112.659 370.282 112.666 370.278 112.672L384.023 120.863ZM369.204 134.682L376.442 148.951C376.451 148.946 376.46 148.942 376.469 148.937L369.204 134.682ZM323.75 133.682L315.912 147.63V147.63L323.75 133.682ZM307.704 117.227L293.603 124.788C293.612 124.803 293.62 124.819 293.628 124.834L307.704 117.227ZM305.477 71.3635L290.611 65.4474C290.602 65.4692 290.594 65.4911 290.585 65.513L305.477 71.3635ZM315.295 56.318L326.484 67.7553C326.498 67.7416 326.512 67.7278 326.526 67.714L315.295 56.318ZM329.795 46.9998L335.495 61.9503C335.519 61.9412 335.543 61.932 335.567 61.9227L329.795 46.9998ZM362.795 46.1816L357.736 61.3606C357.774 61.3735 357.813 61.3863 357.852 61.3989L362.795 46.1816ZM375.386 52.818L365.455 65.3627C365.493 65.3931 365.532 65.4233 365.57 65.4533L375.386 52.818ZM384.25 62.9544L398.129 54.993V54.993L384.25 62.9544ZM388.341 75.818V91.818C392.872 91.818 397.191 89.8967 400.225 86.5312C403.259 83.1657 404.723 78.6715 404.255 74.1646L388.341 75.818ZM362.795 75.818L378.335 72.0065C377.524 68.7028 376.149 65.4294 374.039 62.4153L360.932 71.5907L347.824 80.7661C347.411 80.1763 347.278 79.7211 347.256 79.6295L362.795 75.818ZM360.932 71.5907L374.145 62.5673C372.119 59.6014 369.576 57.109 366.625 55.1416L357.75 68.4544L348.875 81.7672C348.469 81.4967 348.047 81.0952 347.719 80.6141L360.932 71.5907ZM357.75 68.4544L366.989 55.3917C363.953 53.244 360.654 51.8395 357.333 50.9943L353.386 66.4998L349.439 82.0054C349.452 82.0087 349.062 81.9072 348.51 81.517L357.75 68.4544ZM353.386 66.4998L357.669 51.0835C354.436 50.1857 351.169 49.818 347.977 49.818V65.818V81.818C348.725 81.818 349.064 81.9049 349.104 81.9161L353.386 66.4998ZM347.977 65.818V49.818C341.098 49.818 334.222 51.5005 328.146 55.6128L337.114 68.8635L346.081 82.1142C346.104 82.099 346.179 82.0469 346.398 81.9855C346.637 81.9186 347.132 81.818 347.977 81.818V65.818ZM337.114 68.8635L328.083 55.6552C322.178 59.6924 318.088 65.274 315.505 71.5324L330.295 77.6362L345.085 83.74C345.654 82.362 346.109 82.0952 346.144 82.0717L337.114 68.8635ZM330.295 77.6362L315.464 71.6331C312.948 77.8488 311.977 84.6077 311.977 91.4544H327.977H343.977C343.977 87.5131 344.552 85.0599 345.127 83.6393L330.295 77.6362ZM327.977 91.4544H311.977C311.977 98.2845 312.897 104.997 315.262 111.175L330.204 105.454L345.147 99.7342C344.542 98.1543 343.977 95.5334 343.977 91.4544H327.977ZM330.204 105.454L315.262 111.175C317.703 117.552 321.713 123.298 327.656 127.465L336.841 114.363L346.025 101.262C345.996 101.242 345.928 101.193 345.809 101.033C345.678 100.857 345.428 100.467 345.147 99.7342L330.204 105.454ZM336.841 114.363L327.656 127.465C333.822 131.787 340.865 133.454 347.795 133.454V117.454V101.454C346.867 101.454 346.348 101.345 346.129 101.283C345.935 101.228 345.94 101.202 346.025 101.262L336.841 114.363ZM347.795 117.454V133.454C353.067 133.454 358.637 132.705 363.836 130.415L357.386 115.773L350.937 101.13C351.045 101.082 350.221 101.454 347.795 101.454V117.454ZM357.386 115.773L363.772 130.443C368.846 128.234 373.523 124.668 376.772 119.408L363.159 111L349.546 102.592C349.856 102.091 350.225 101.69 350.566 101.407C350.892 101.138 351.084 101.066 351 101.102L357.386 115.773ZM363.159 111L376.772 119.408C379.829 114.457 381.068 109.027 381.068 103.727H365.068H349.068C349.068 103.902 349.049 103.827 349.115 103.574C349.185 103.307 349.321 102.956 349.546 102.592L363.159 111ZM365.068 103.727L363.41 119.641L367.774 120.096L369.432 104.182L371.089 88.2677L366.726 87.8132L365.068 103.727ZM369.432 104.182V88.1816H348.159V104.182V120.182H369.432V104.182ZM348.159 104.182H364.159V86.1816H348.159H332.159V104.182H348.159ZM348.159 86.1816V102.182H389.432V86.1816V70.1816H348.159V86.1816ZM389.432 86.1816H373.432V99.0907H389.432H405.432V86.1816H389.432ZM389.432 99.0907H373.432C373.432 105.285 372.131 109.573 370.291 112.652L384.023 120.863L397.755 129.075C403.126 120.093 405.432 109.866 405.432 99.0907H389.432ZM384.023 120.863L370.278 112.672C368.268 116.045 365.591 118.565 361.94 120.426L369.204 134.682L376.469 148.937C385.424 144.374 392.626 137.682 397.767 129.055L384.023 120.863ZM369.204 134.682L361.966 120.412C358.26 122.292 353.609 123.454 347.614 123.454V139.454V155.454C357.86 155.454 367.603 153.435 376.442 148.951L369.204 134.682ZM347.614 139.454V123.454C340.873 123.454 335.698 122.042 331.588 119.733L323.75 133.682L315.912 147.63C325.499 153.018 336.233 155.454 347.614 155.454V139.454ZM323.75 133.682L331.588 119.733C327.46 117.413 324.237 114.166 321.78 109.62L307.704 117.227L293.628 124.834C298.869 134.531 306.343 142.253 315.912 147.63L323.75 133.682ZM307.704 117.227L321.805 109.667C319.475 105.32 317.977 99.5603 317.977 91.818H301.977H285.977C285.977 103.712 288.298 114.892 293.603 124.788L307.704 117.227ZM301.977 91.818H317.977C317.977 85.7211 318.902 80.9487 320.369 77.2139L305.477 71.3635L290.585 65.513C287.386 73.657 285.977 82.5209 285.977 91.818H301.977ZM305.477 71.3635L320.343 77.2795C321.958 73.2228 324.043 70.143 326.484 67.7553L315.295 56.318L304.107 44.8807C298.184 50.6749 293.724 57.6253 290.611 65.4474L305.477 71.3635ZM315.295 56.318L326.526 67.714C329.131 65.1474 332.08 63.2519 335.495 61.9503L329.795 46.9998L324.096 32.0493C316.541 34.9296 309.824 39.2462 304.065 44.922L315.295 56.318ZM329.795 46.9998L335.567 61.9227C339.091 60.5598 343 59.818 347.432 59.818V43.818V27.818C339.318 27.818 331.47 29.1974 324.024 32.0769L329.795 46.9998ZM347.432 43.818V59.818C351.409 59.818 354.804 60.3834 357.736 61.3606L362.795 46.1816L367.855 31.0027C361.332 28.8283 354.484 27.818 347.432 27.818V43.818ZM362.795 46.1816L357.852 61.3989C360.944 62.4033 363.423 63.7537 365.455 65.3627L375.386 52.818L385.318 40.2733C380.077 36.1247 374.162 33.0509 367.739 30.9644L362.795 46.1816ZM375.386 52.818L365.57 65.4533C367.642 67.0628 369.197 68.8694 370.371 70.9158L384.25 62.9544L398.129 54.993C394.818 49.2211 390.464 44.2702 385.202 40.1827L375.386 52.818ZM384.25 62.9544L370.371 70.9157C371.456 72.8075 372.163 74.9331 372.426 77.4714L388.341 75.818L404.255 74.1646C403.549 67.3696 401.528 60.9194 398.129 54.993L384.25 62.9544ZM388.341 75.818V59.818H362.795V75.818V91.818H388.341V75.818ZM426.716 138.182H410.716C410.716 147.018 417.879 154.182 426.716 154.182V138.182ZM426.716 45.0907V29.0907C417.879 29.0907 410.716 36.2542 410.716 45.0907H426.716ZM451.989 45.0907H467.989C467.989 36.2542 460.825 29.0907 451.989 29.0907V45.0907ZM451.989 81.4544H435.989C435.989 90.2909 443.152 97.4544 451.989 97.4544V81.4544ZM485.443 81.4544V97.4544C494.28 97.4544 501.443 90.2909 501.443 81.4544H485.443ZM485.443 45.0907V29.0907C476.607 29.0907 469.443 36.2542 469.443 45.0907H485.443ZM510.716 45.0907H526.716C526.716 36.2542 519.552 29.0907 510.716 29.0907V45.0907ZM510.716 138.182V154.182C519.552 154.182 526.716 147.018 526.716 138.182H510.716ZM485.443 138.182H469.443C469.443 147.018 476.607 154.182 485.443 154.182V138.182ZM485.443 101.818H501.443C501.443 92.9814 494.28 85.818 485.443 85.818V101.818ZM451.989 101.818V85.818C443.152 85.818 435.989 92.9814 435.989 101.818H451.989ZM451.989 138.182V154.182C460.825 154.182 467.989 147.018 467.989 138.182H451.989ZM426.716 138.182H442.716V45.0907H426.716H410.716V138.182H426.716ZM426.716 45.0907V61.0907H451.989V45.0907V29.0907H426.716V45.0907ZM451.989 45.0907H435.989V81.4544H451.989H467.989V45.0907H451.989ZM451.989 81.4544V97.4544H485.443V81.4544V65.4544H451.989V81.4544ZM485.443 81.4544H501.443V45.0907H485.443H469.443V81.4544H485.443ZM485.443 45.0907V61.0907H510.716V45.0907V29.0907H485.443V45.0907ZM510.716 45.0907H494.716V138.182H510.716H526.716V45.0907H510.716ZM510.716 138.182V122.182H485.443V138.182V154.182H510.716V138.182ZM485.443 138.182H501.443V101.818H485.443H469.443V138.182H485.443ZM485.443 101.818V85.818H451.989V101.818V117.818H485.443V101.818ZM451.989 101.818H435.989V138.182H451.989H467.989V101.818H451.989ZM451.989 138.182V122.182H426.716V138.182V154.182H451.989V138.182ZM606.852 117.863L620.762 125.77C620.767 125.761 620.772 125.753 620.777 125.744L606.852 117.863ZM590.534 134L598.037 148.131C598.054 148.123 598.07 148.114 598.086 148.105L590.534 134ZM544.625 133.954L536.998 148.02C537.023 148.033 537.048 148.047 537.073 148.06L544.625 133.954ZM528.352 117.773L514.402 125.608C514.415 125.632 514.429 125.655 514.442 125.679L528.352 117.773ZM528.352 65.4544L514.428 57.5736C514.424 57.5802 514.42 57.5867 514.417 57.5932L528.352 65.4544ZM544.625 49.318L552.154 63.4356C552.162 63.4316 552.169 63.4276 552.177 63.4235L544.625 49.318ZM590.534 49.318L582.982 63.4235C582.998 63.4322 583.014 63.4409 583.031 63.4495L590.534 49.318ZM606.852 65.4544L592.928 73.3351C592.932 73.3436 592.937 73.3521 592.942 73.3606L606.852 65.4544ZM584.67 77.5453L569.704 83.202C569.722 83.2495 569.74 83.297 569.758 83.3444L584.67 77.5453ZM578.17 68.818L568.976 81.9126C569.029 81.9497 569.082 81.9865 569.135 82.0229L578.17 68.818ZM557.034 68.818L566.134 81.9781C566.144 81.9715 566.153 81.9648 566.163 81.9581L557.034 68.818ZM550.534 77.5453L535.607 71.7859C535.598 71.807 535.59 71.8282 535.582 71.8493L550.534 77.5453ZM550.534 105.773L535.567 111.429C535.585 111.477 535.604 111.524 535.622 111.572L550.534 105.773ZM557.034 114.5L547.84 127.594C547.893 127.632 547.946 127.668 547.999 127.705L557.034 114.5ZM578.17 114.5L587.27 127.66C587.28 127.653 587.29 127.647 587.299 127.64L578.17 114.5ZM584.67 105.773L569.743 100.013C569.735 100.034 569.727 100.055 569.719 100.077L584.67 105.773ZM558.898 163L569.762 151.254V151.254L558.898 163ZM558.898 146.818L569.762 158.564V158.564L558.898 146.818ZM576.352 146.818L565.414 158.495C565.438 158.518 565.463 158.541 565.487 158.564L576.352 146.818ZM576.352 163L565.487 151.254C565.463 151.277 565.438 151.3 565.414 151.323L576.352 163ZM612.898 91.6362H596.898C596.898 99.9609 595.281 105.825 592.928 109.983L606.852 117.863L620.777 125.744C626.484 115.66 628.898 104.039 628.898 91.6362H612.898ZM606.852 117.863L592.942 109.957C590.326 114.561 587.032 117.726 582.982 119.894L590.534 134L598.086 148.105C607.732 142.941 615.318 135.348 620.762 125.77L606.852 117.863ZM590.534 134L583.031 119.868C578.689 122.174 573.664 123.454 567.625 123.454V139.454V155.454C578.434 155.454 588.682 153.099 598.037 148.131L590.534 134ZM567.625 139.454V123.454C561.526 123.454 556.493 122.16 552.177 119.849L544.625 133.954L537.073 148.06C546.454 153.083 556.754 155.454 567.625 155.454V139.454ZM544.625 133.954L552.251 119.889C548.201 117.693 544.895 114.498 542.262 109.866L528.352 117.773L514.442 125.679C519.87 135.229 527.413 142.822 536.998 148.02L544.625 133.954ZM528.352 117.773L542.302 109.937C539.954 105.756 538.352 99.8999 538.352 91.6362H522.352H506.352C506.352 103.979 508.751 115.547 514.402 125.608L528.352 117.773ZM522.352 91.6362H538.352C538.352 83.2899 539.962 77.4382 542.288 73.3155L528.352 65.4544L514.417 57.5932C508.742 67.6523 506.352 79.2551 506.352 91.6362H522.352ZM528.352 65.4544L542.277 73.3351C544.903 68.6947 548.177 65.5566 552.154 63.4356L544.625 49.318L537.096 35.2004C527.436 40.3521 519.862 47.9716 514.428 57.5736L528.352 65.4544ZM544.625 49.318L552.177 63.4235C556.493 61.1129 561.526 59.818 567.625 59.818V43.818V27.818C556.754 27.818 546.454 30.1898 537.073 35.2125L544.625 49.318ZM567.625 43.818V59.818C573.642 59.818 578.649 61.1039 582.982 63.4235L590.534 49.318L598.086 35.2125C588.722 30.1987 578.456 27.818 567.625 27.818V43.818ZM590.534 49.318L583.031 63.4495C587.035 65.5758 590.312 68.7128 592.928 73.3351L606.852 65.4544L620.777 57.5736C615.332 47.9535 607.73 40.333 598.037 35.1865L590.534 49.318ZM606.852 65.4544L592.942 73.3606C595.28 77.4735 596.898 83.3082 596.898 91.6362H612.898H628.898C628.898 79.2369 626.485 67.6171 620.762 57.5482L606.852 65.4544ZM586.898 91.6362H602.898C602.898 84.7466 601.995 77.9489 599.582 71.7461L584.67 77.5453L569.758 83.3444C570.316 84.778 570.898 87.3742 570.898 91.6362H586.898ZM584.67 77.5453L599.637 71.8886C597.238 65.5401 593.246 59.7459 587.205 55.6131L578.17 68.818L569.135 82.0229C569.059 81.9704 569.052 81.9398 569.122 82.0343C569.206 82.1467 569.434 82.4875 569.704 83.202L584.67 77.5453ZM578.17 68.818L587.364 55.7234C581.318 51.4779 574.421 49.818 567.625 49.818V65.818V81.818C568.444 81.818 568.874 81.9159 569.02 81.9574C569.142 81.9921 569.09 81.9923 568.976 81.9126L578.17 68.818ZM567.625 65.818V49.818C560.823 49.818 553.948 51.4799 547.905 55.6779L557.034 68.818L566.163 81.9581C566.082 82.0147 566.059 82.0026 566.201 81.9623C566.366 81.9157 566.807 81.818 567.625 81.818V65.818ZM557.034 68.818L547.934 55.6579C541.973 59.7799 538.022 65.5253 535.607 71.7859L550.534 77.5453L565.461 83.3047C565.751 82.5535 565.998 82.1771 566.105 82.0343C566.198 81.909 566.208 81.9268 566.134 81.9781L557.034 68.818ZM550.534 77.5453L535.582 71.8493C533.232 78.0173 532.352 84.7766 532.352 91.6362H548.352H564.352C564.352 87.3443 564.926 84.7096 565.486 83.2412L550.534 77.5453ZM548.352 91.6362H532.352C532.352 98.5021 533.234 105.256 535.567 111.429L550.534 105.773L565.501 100.116C564.925 98.5916 564.352 95.9218 564.352 91.6362H548.352ZM550.534 105.773L535.622 111.572C538.044 117.801 541.977 123.478 547.84 127.594L557.034 114.5L566.228 101.405C566.255 101.424 566.214 101.408 566.105 101.261C565.983 101.098 565.733 100.712 565.446 99.9734L550.534 105.773ZM557.034 114.5L547.999 127.705C554.031 131.832 560.871 133.454 567.625 133.454V117.454V101.454C566.787 101.454 566.325 101.356 566.14 101.304C565.977 101.259 565.989 101.24 566.069 101.295L557.034 114.5ZM567.625 117.454V133.454C574.372 133.454 581.234 131.834 587.27 127.66L578.17 114.5L569.07 101.34C569.182 101.262 569.224 101.269 569.081 101.309C568.915 101.355 568.464 101.454 567.625 101.454V117.454ZM578.17 114.5L587.299 127.64C593.241 123.512 597.216 117.786 599.622 111.468L584.67 105.773L569.719 100.077C569.451 100.778 569.221 101.128 569.122 101.261C569.035 101.378 569.012 101.38 569.041 101.36L578.17 114.5ZM584.67 105.773L599.598 111.532C601.993 105.325 602.898 98.5321 602.898 91.6362H586.898H570.898C570.898 95.8918 570.318 98.5236 569.743 100.013L584.67 105.773ZM567.625 166.363V150.363C567.721 150.363 568.114 150.386 568.652 150.593C569.197 150.803 569.577 151.083 569.762 151.254L558.898 163L548.033 174.745C553.504 179.806 560.327 182.363 567.625 182.363V166.363ZM558.898 163L569.762 151.254C569.945 151.423 570.391 151.906 570.764 152.736C571.145 153.584 571.261 154.375 571.261 154.909H555.261H539.261C539.261 162.755 542.511 169.638 548.033 174.745L558.898 163ZM555.261 154.909H571.261C571.261 155.443 571.145 156.234 570.764 157.082C570.391 157.912 569.945 158.395 569.762 158.564L558.898 146.818L548.033 135.072C542.511 140.18 539.261 147.063 539.261 154.909H555.261ZM558.898 146.818L569.762 158.564C569.577 158.735 569.197 159.015 568.652 159.225C568.114 159.432 567.721 159.454 567.625 159.454V143.454V127.454C560.327 127.454 553.504 130.012 548.033 135.072L558.898 146.818ZM567.625 143.454V159.454C567.563 159.454 567.175 159.438 566.621 159.225C566.055 159.007 565.64 158.707 565.414 158.495L576.352 146.818L587.29 135.141C581.791 129.989 574.915 127.454 567.625 127.454V143.454ZM576.352 146.818L565.487 158.564C565.305 158.395 564.859 157.912 564.486 157.082C564.105 156.234 563.989 155.443 563.989 154.909H579.989H595.989C595.989 147.063 592.738 140.18 587.217 135.072L576.352 146.818ZM579.989 154.909H563.989C563.989 154.375 564.105 153.584 564.486 152.736C564.859 151.906 565.305 151.423 565.487 151.254L576.352 163L587.217 174.745C592.738 169.638 595.989 162.755 595.989 154.909H579.989ZM576.352 163L565.414 151.323C565.64 151.111 566.055 150.811 566.621 150.593C567.175 150.38 567.563 150.363 567.625 150.363V166.363V182.363C574.915 182.363 581.791 179.829 587.29 174.677L576.352 163ZM711.5 79.9998V95.9998C715.976 95.9998 720.247 94.1252 723.276 90.831C726.306 87.5368 727.818 83.1242 727.444 78.6642L711.5 79.9998ZM685.864 79.9998L669.922 81.3662C670.631 89.6428 677.557 95.9998 685.864 95.9998V79.9998ZM684.409 74.2271L669.756 80.6537C669.788 80.7251 669.82 80.7962 669.852 80.8672L684.409 74.2271ZM681.227 69.7725L670.18 81.3462C670.269 81.4318 670.36 81.5163 670.451 81.5997L681.227 69.7725ZM676.364 66.8635L670.877 81.8932C670.947 81.9189 671.018 81.9442 671.089 81.9689L676.364 66.8635ZM659.091 68.9089L649.906 55.8076C649.885 55.8225 649.864 55.8375 649.843 55.8525L659.091 68.9089ZM652.454 77.7725L637.567 71.9112C637.553 71.9452 637.54 71.9791 637.527 72.0131L652.454 77.7725ZM652.5 105.954L637.612 111.816C637.631 111.863 637.65 111.91 637.669 111.957L652.5 105.954ZM659.182 114.591L650.307 127.904C650.339 127.925 650.371 127.946 650.403 127.967L659.182 114.591ZM675.954 116.591L680.713 131.867C680.788 131.843 680.864 131.819 680.939 131.794L675.954 116.591ZM680.773 114L690.934 126.359V126.359L680.773 114ZM684.091 109.954L670.055 102.274C670.037 102.306 670.02 102.337 670.003 102.369L684.091 109.954ZM685.864 104.545L685.977 88.5457C678.023 88.4893 671.236 94.2841 670.044 102.148L685.864 104.545ZM711.5 104.727L727.453 105.954C727.793 101.53 726.281 97.1638 723.278 93.8976C720.275 90.6314 716.05 88.759 711.613 88.7275L711.5 104.727ZM708.182 116.773L722.661 123.58C722.668 123.566 722.674 123.553 722.681 123.539L708.182 116.773ZM700.045 128.045L711.259 139.458L711.26 139.457L700.045 128.045ZM687.091 136.318L681.073 121.493L687.091 136.318ZM646.136 133.954L638.506 148.018C638.514 148.022 638.523 148.027 638.532 148.032L646.136 133.954ZM630.091 117.773L616.065 125.472C616.073 125.487 616.082 125.502 616.09 125.518L630.091 117.773ZM630.227 65.4544L644.163 73.3155C644.168 73.307 644.172 73.2986 644.177 73.2901L630.227 65.4544ZM646.409 49.318L653.965 63.4217C653.981 63.413 653.997 63.4042 654.013 63.3954L646.409 49.318ZM685.364 46.2271L690.311 31.0112V31.0112L685.364 46.2271ZM698.364 53.2725L688.15 65.5887C688.17 65.6051 688.19 65.6216 688.21 65.6379L698.364 53.2725ZM707.364 64.5907L693.091 71.8232V71.8232L707.364 64.5907ZM711.5 79.9998V63.9998H685.864V79.9998V95.9998H711.5V79.9998ZM685.864 79.9998L701.805 78.6334C701.486 74.9076 700.6 71.1694 698.966 67.587L684.409 74.2271L669.852 80.8672C669.827 80.8126 669.832 80.808 669.849 80.875C669.866 80.9444 669.899 81.1017 669.922 81.3662L685.864 79.9998ZM684.409 74.2271L699.062 67.8005C697.425 64.0688 695.061 60.7311 692.003 57.9454L681.227 69.7725L670.451 81.5997C670.307 81.4684 670.159 81.3048 670.026 81.1178C669.893 80.9317 669.806 80.7676 669.756 80.6537L684.409 74.2271ZM681.227 69.7725L692.275 58.1988C689.137 55.2033 685.49 53.1031 681.638 51.758L676.364 66.8635L671.089 81.9689C671.091 81.9698 670.981 81.931 670.798 81.8219C670.612 81.7106 670.396 81.5526 670.18 81.3462L681.227 69.7725ZM676.364 66.8635L681.851 51.8337C677.881 50.3845 673.808 49.818 669.864 49.818V65.818V81.818C670.768 81.818 671.028 81.9485 670.877 81.8932L676.364 66.8635ZM669.864 65.818V49.818C662.947 49.818 655.998 51.5368 649.906 55.8076L659.091 68.9089L668.275 82.0103C668.233 82.0398 668.242 82.016 668.401 81.9702C668.583 81.9181 669.036 81.818 669.864 81.818V65.818ZM659.091 68.9089L649.843 55.8525C644.007 59.9858 640.035 65.6417 637.567 71.9112L652.454 77.7725L667.342 83.6339C667.638 82.882 667.904 82.4646 668.058 82.2598C668.201 82.0689 668.292 81.9986 668.339 81.9653L659.091 68.9089ZM652.454 77.7725L637.527 72.0131C635.152 78.168 634.227 84.8472 634.227 91.6362H650.227H666.227C666.227 87.6373 666.787 85.0741 667.382 83.532L652.454 77.7725ZM650.227 91.6362H634.227C634.227 98.6337 635.142 105.54 637.612 111.816L652.5 105.954L667.388 100.093C666.828 98.6714 666.227 96.0326 666.227 91.6362H650.227ZM652.5 105.954L637.669 111.957C640.2 118.212 644.274 123.882 650.307 127.904L659.182 114.591L668.057 101.278C668.103 101.309 668.081 101.312 667.984 101.186C667.874 101.045 667.626 100.679 667.331 99.9513L652.5 105.954ZM659.182 114.591L650.403 127.967C656.351 131.871 663.03 133.454 669.682 133.454V117.454V101.454C668.88 101.454 668.415 101.361 668.198 101.302C668.089 101.273 668.028 101.247 668.001 101.235C667.976 101.224 667.965 101.217 667.96 101.214L659.182 114.591ZM669.682 117.454V133.454C673.309 133.454 677.046 133.009 680.713 131.867L675.954 116.591L671.196 101.315C671.166 101.324 670.721 101.454 669.682 101.454V117.454ZM675.954 116.591L680.939 131.794C684.483 130.633 687.888 128.864 690.934 126.359L680.773 114L670.611 101.641C670.758 101.52 670.885 101.441 670.968 101.397C671.048 101.354 671.058 101.358 670.97 101.387L675.954 116.591ZM680.773 114L690.934 126.359C693.927 123.898 696.358 120.921 698.178 117.54L684.091 109.954L670.003 102.369C670.055 102.273 670.137 102.143 670.254 102.001C670.371 101.857 670.496 101.736 670.611 101.641L680.773 114ZM684.091 109.954L698.127 117.635C699.994 114.222 701.129 110.6 701.683 106.942L685.864 104.545L670.044 102.148C670.017 102.328 669.99 102.41 669.989 102.415C669.988 102.418 669.992 102.405 670.003 102.379C670.014 102.353 670.031 102.317 670.055 102.274L684.091 109.954ZM685.864 104.545L685.75 120.545L711.386 120.727L711.5 104.727L711.613 88.7275L685.977 88.5457L685.864 104.545ZM711.5 104.727L695.547 103.5C695.411 105.268 694.893 107.414 693.683 110.006L708.182 116.773L722.681 123.539C725.289 117.95 726.983 112.065 727.453 105.954L711.5 104.727ZM708.182 116.773L693.702 109.965C692.676 112.149 691.126 114.378 688.83 116.634L700.045 128.045L711.26 139.457C715.995 134.804 719.87 129.518 722.661 123.58L708.182 116.773ZM700.045 128.045L688.831 116.633C687.031 118.402 684.552 120.081 681.073 121.493L687.091 136.318L693.108 151.143C699.933 148.373 706.09 144.537 711.259 139.458L700.045 128.045ZM687.091 136.318L681.073 121.493C678.213 122.654 674.345 123.454 669.136 123.454V139.454V155.454C677.564 155.454 685.666 154.164 693.108 151.143L687.091 136.318ZM669.136 139.454V123.454C662.954 123.454 657.949 122.15 653.741 119.877L646.136 133.954L638.532 148.032C647.899 153.092 658.227 155.454 669.136 155.454V139.454ZM646.136 133.954L653.767 119.891C649.852 117.767 646.644 114.642 644.091 110.028L630.091 117.773L616.09 125.518C621.416 135.145 628.906 142.809 638.506 148.018L646.136 133.954ZM630.091 117.773L644.117 110.073C641.805 105.862 640.227 99.9547 640.227 91.6362H624.227H608.227C608.227 103.924 610.558 115.44 616.065 125.472L630.091 117.773ZM624.227 91.6362H640.227C640.227 83.2899 641.837 77.4382 644.163 73.3155L630.227 65.4544L616.292 57.5932C610.617 67.6523 608.227 79.2551 608.227 91.6362H624.227ZM630.227 65.4544L644.177 73.2901C646.78 68.6555 650.027 65.5312 653.965 63.4217L646.409 49.318L638.853 35.2143C629.215 40.3776 621.674 48.0108 616.277 57.6186L630.227 65.4544ZM646.409 49.318L654.013 63.3954C658.272 61.0952 663.199 59.818 669.136 59.818V43.818V27.818C658.347 27.818 648.122 30.2075 638.805 35.2406L646.409 49.318ZM669.136 43.818V59.818C673.553 59.818 677.27 60.4199 680.416 61.4429L685.364 46.2271L690.311 31.0112C683.579 28.8222 676.477 27.818 669.136 27.818V43.818ZM685.364 46.2271L680.416 61.4429C683.574 62.4696 686.089 63.8797 688.15 65.5887L698.364 53.2725L708.577 40.9564C703.183 36.4836 697.032 33.1967 690.311 31.0112L685.364 46.2271ZM698.364 53.2725L688.21 65.6379C690.151 67.2315 691.778 69.2303 693.091 71.8232L707.364 64.5907L721.636 57.3583C718.404 50.9815 714.031 45.4348 708.517 40.9072L698.364 53.2725ZM707.364 64.5907L693.091 71.8232C694.299 74.2059 695.217 77.2873 695.556 81.3355L711.5 79.9998L727.444 78.6642C726.813 71.1366 724.974 63.9452 721.636 57.3583L707.364 64.5907ZM44.5454 186.091L59.9087 181.622C57.9214 174.79 51.6609 170.091 44.5454 170.091V186.091ZM63.6363 251.727L48.2729 256.196C50.2602 263.028 56.5208 267.727 63.6363 267.727V251.727ZM64.3635 251.727V267.727C71.4791 267.727 77.7396 263.028 79.7269 256.196L64.3635 251.727ZM83.4545 186.091V170.091C76.3389 170.091 70.0784 174.79 68.0911 181.622L83.4545 186.091ZM112 186.091L127.194 191.106C128.803 186.23 127.975 180.878 124.966 176.716C121.958 172.555 117.135 170.091 112 170.091V186.091ZM81.2726 279.182V295.182C88.1768 295.182 94.3023 290.753 96.4663 284.197L81.2726 279.182ZM46.7272 279.182L31.5335 284.197C33.6975 290.753 39.823 295.182 46.7272 295.182V279.182ZM15.9999 186.091V170.091C10.8651 170.091 6.04226 172.555 3.03377 176.716C0.02528 180.878 -0.803274 186.23 0.806206 191.106L15.9999 186.091ZM44.5454 186.091L29.182 190.559L48.2729 256.196L63.6363 251.727L78.9996 247.259L59.9087 181.622L44.5454 186.091ZM63.6363 251.727V267.727H64.3635V251.727V235.727H63.6363V251.727ZM64.3635 251.727L79.7269 256.196L98.8178 190.559L83.4545 186.091L68.0911 181.622L49.0002 247.259L64.3635 251.727ZM83.4545 186.091V202.091H112V186.091V170.091H83.4545V186.091ZM112 186.091L96.8062 181.076L66.0789 274.167L81.2726 279.182L96.4663 284.197L127.194 191.106L112 186.091ZM81.2726 279.182V263.182H46.7272V279.182V295.182H81.2726V279.182ZM46.7272 279.182L61.9209 274.167L31.1936 181.076L15.9999 186.091L0.806206 191.106L31.5335 284.197L46.7272 279.182ZM15.9999 186.091V202.091H44.5454V186.091V170.091H15.9999V186.091ZM129.898 279.182V295.182C136.953 295.182 143.176 290.56 145.215 283.806L129.898 279.182ZM102.625 279.182L87.4312 274.167C85.8217 279.043 86.6503 284.395 89.6588 288.556C92.6673 292.717 97.4901 295.182 102.625 295.182V279.182ZM133.352 186.091V170.091C126.448 170.091 120.323 174.519 118.158 181.076L133.352 186.091ZM167.898 186.091L183.091 181.076C180.927 174.519 174.802 170.091 167.898 170.091V186.091ZM198.625 279.182V295.182C203.76 295.182 208.583 292.717 211.591 288.556C214.6 284.395 215.428 279.043 213.819 274.167L198.625 279.182ZM171.352 279.182L156.035 283.806C158.074 290.56 164.297 295.182 171.352 295.182V279.182ZM150.989 211.727L166.306 207.103C164.267 200.349 158.044 195.727 150.989 195.727V211.727ZM150.261 211.727V195.727C143.206 195.727 136.983 200.349 134.944 207.103L150.261 211.727ZM124.807 242.454V226.454C115.97 226.454 108.807 233.618 108.807 242.454H124.807ZM176.079 242.454H192.079C192.079 233.618 184.916 226.454 176.079 226.454V242.454ZM176.079 261.363V277.363C184.916 277.363 192.079 270.2 192.079 261.363H176.079ZM124.807 261.363H108.807C108.807 270.2 115.97 277.363 124.807 277.363V261.363ZM142.443 177.363L129.149 186.266C132.119 190.701 137.105 193.363 142.443 193.363V177.363ZM128.807 157V141C122.9 141 117.474 144.254 114.692 149.465C111.91 154.675 112.226 160.995 115.512 165.902L128.807 157ZM150.261 157L164.968 150.697C162.446 144.814 156.662 141 150.261 141V157ZM158.989 177.363V193.363C164.367 193.363 169.385 190.661 172.346 186.171C175.307 181.681 175.813 176.004 173.695 171.061L158.989 177.363ZM129.898 279.182V263.182H102.625V279.182V295.182H129.898V279.182ZM102.625 279.182L117.819 284.197L148.546 191.106L133.352 186.091L118.158 181.076L87.4312 274.167L102.625 279.182ZM133.352 186.091V202.091H167.898V186.091V170.091H133.352V186.091ZM167.898 186.091L152.704 191.106L183.431 284.197L198.625 279.182L213.819 274.167L183.091 181.076L167.898 186.091ZM198.625 279.182V263.182H171.352V279.182V295.182H198.625V279.182ZM171.352 279.182L186.669 274.558L166.306 207.103L150.989 211.727L135.671 216.351L156.035 283.806L171.352 279.182ZM150.989 211.727V195.727H150.261V211.727V227.727H150.989V211.727ZM150.261 211.727L134.944 207.103L114.58 274.558L129.898 279.182L145.215 283.806L165.579 216.351L150.261 211.727ZM124.807 242.454V258.454H176.079V242.454V226.454H124.807V242.454ZM176.079 242.454H160.079V261.363H176.079H192.079V242.454H176.079ZM176.079 261.363V245.363H124.807V261.363V277.363H176.079V261.363ZM124.807 261.363H140.807V242.454H124.807H108.807V261.363H124.807ZM142.443 177.363L155.738 168.461L142.101 148.097L128.807 157L115.512 165.902L129.149 186.266L142.443 177.363ZM128.807 157V173H150.261V157V141H128.807V157ZM150.261 157L135.555 163.303L144.282 183.666L158.989 177.363L173.695 171.061L164.968 150.697L150.261 157ZM158.989 177.363V161.363H142.443V177.363V193.363H158.989V177.363ZM320 221V237C324.476 237 328.747 235.125 331.776 231.831C334.806 228.537 336.318 224.124 335.944 219.664L320 221ZM294.364 221L278.422 222.366C279.131 230.643 286.057 237 294.364 237V221ZM292.909 215.227L278.256 221.654C278.288 221.725 278.32 221.796 278.352 221.867L292.909 215.227ZM289.727 210.773L278.68 222.346C278.769 222.432 278.86 222.516 278.951 222.6L289.727 210.773ZM284.864 207.863L279.376 222.893C279.447 222.919 279.518 222.944 279.589 222.969L284.864 207.863ZM267.591 209.909L258.406 196.808C258.385 196.822 258.364 196.837 258.343 196.853L267.591 209.909ZM260.954 218.773L246.067 212.911C246.053 212.945 246.04 212.979 246.027 213.013L260.954 218.773ZM261 246.954L246.112 252.816C246.131 252.863 246.15 252.91 246.169 252.957L261 246.954ZM267.682 255.591L258.807 268.904C258.839 268.925 258.871 268.946 258.903 268.967L267.682 255.591ZM284.454 257.591L289.213 272.867C289.288 272.843 289.364 272.819 289.439 272.794L284.454 257.591ZM289.273 255L299.434 267.359V267.359L289.273 255ZM292.591 250.954L278.555 243.274C278.537 243.306 278.52 243.337 278.503 243.369L292.591 250.954ZM294.364 245.545L294.477 229.546C286.523 229.489 279.736 235.284 278.544 243.148L294.364 245.545ZM320 245.727L335.953 246.954C336.293 242.53 334.781 238.164 331.778 234.898C328.775 231.631 324.55 229.759 320.113 229.727L320 245.727ZM316.682 257.773L331.161 264.58C331.168 264.566 331.174 264.553 331.181 264.539L316.682 257.773ZM308.545 269.045L319.759 280.458L319.76 280.457L308.545 269.045ZM295.591 277.318L289.573 262.493L295.591 277.318ZM254.636 274.954L247.006 289.018C247.014 289.022 247.023 289.027 247.032 289.032L254.636 274.954ZM238.591 258.773L224.565 266.472C224.573 266.487 224.582 266.502 224.59 266.518L238.591 258.773ZM238.727 206.454L252.663 214.316C252.668 214.307 252.672 214.299 252.677 214.29L238.727 206.454ZM254.909 190.318L262.465 204.422C262.481 204.413 262.497 204.404 262.513 204.395L254.909 190.318ZM293.864 187.227L298.811 172.011V172.011L293.864 187.227ZM306.864 194.273L296.65 206.589C296.67 206.605 296.69 206.622 296.71 206.638L306.864 194.273ZM315.864 205.591L301.591 212.823V212.823L315.864 205.591ZM320 221V205H294.364V221V237H320V221ZM294.364 221L310.305 219.633C309.986 215.908 309.1 212.169 307.466 208.587L292.909 215.227L278.352 221.867C278.327 221.813 278.332 221.808 278.348 221.875C278.366 221.944 278.399 222.102 278.422 222.366L294.364 221ZM292.909 215.227L307.562 208.801C305.925 205.069 303.561 201.731 300.503 198.945L289.727 210.773L278.951 222.6C278.807 222.468 278.659 222.305 278.526 222.118C278.393 221.932 278.306 221.768 278.256 221.654L292.909 215.227ZM289.727 210.773L300.775 199.199C297.637 196.203 293.99 194.103 290.138 192.758L284.864 207.863L279.589 222.969C279.591 222.97 279.481 222.931 279.298 222.822C279.112 222.711 278.896 222.553 278.68 222.346L289.727 210.773ZM284.864 207.863L290.351 192.834C286.381 191.384 282.308 190.818 278.364 190.818V206.818V222.818C279.268 222.818 279.528 222.949 279.376 222.893L284.864 207.863ZM278.364 206.818V190.818C271.447 190.818 264.498 192.537 258.406 196.808L267.591 209.909L276.775 223.01C276.733 223.04 276.742 223.016 276.901 222.97C277.083 222.918 277.536 222.818 278.364 222.818V206.818ZM267.591 209.909L258.343 196.853C252.507 200.986 248.535 206.642 246.067 212.911L260.954 218.773L275.842 224.634C276.138 223.882 276.404 223.465 276.558 223.26C276.701 223.069 276.792 222.999 276.839 222.965L267.591 209.909ZM260.954 218.773L246.027 213.013C243.652 219.168 242.727 225.847 242.727 232.636H258.727H274.727C274.727 228.637 275.287 226.074 275.882 224.532L260.954 218.773ZM258.727 232.636H242.727C242.727 239.634 243.642 246.54 246.112 252.816L261 246.954L275.888 241.093C275.328 239.671 274.727 237.033 274.727 232.636H258.727ZM261 246.954L246.169 252.957C248.7 259.212 252.774 264.882 258.807 268.904L267.682 255.591L276.557 242.278C276.603 242.309 276.581 242.312 276.484 242.186C276.374 242.045 276.126 241.679 275.831 240.951L261 246.954ZM267.682 255.591L258.903 268.967C264.851 272.871 271.53 274.454 278.182 274.454V258.454V242.454C277.38 242.454 276.915 242.361 276.698 242.302C276.589 242.273 276.528 242.247 276.501 242.235C276.476 242.224 276.465 242.217 276.46 242.214L267.682 255.591ZM278.182 258.454V274.454C281.809 274.454 285.546 274.009 289.213 272.867L284.454 257.591L279.696 242.315C279.666 242.324 279.221 242.454 278.182 242.454V258.454ZM284.454 257.591L289.439 272.794C292.983 271.633 296.388 269.864 299.434 267.359L289.273 255L279.111 242.641C279.258 242.52 279.385 242.441 279.468 242.397C279.548 242.354 279.558 242.358 279.47 242.387L284.454 257.591ZM289.273 255L299.434 267.359C302.427 264.898 304.858 261.921 306.678 258.54L292.591 250.954L278.503 243.369C278.555 243.273 278.637 243.143 278.754 243.001C278.871 242.857 278.996 242.736 279.111 242.641L289.273 255ZM292.591 250.954L306.627 258.635C308.494 255.222 309.629 251.6 310.183 247.942L294.364 245.545L278.544 243.148C278.517 243.328 278.49 243.41 278.489 243.415C278.488 243.418 278.492 243.405 278.503 243.379C278.514 243.353 278.531 243.317 278.555 243.274L292.591 250.954ZM294.364 245.545L294.25 261.545L319.886 261.727L320 245.727L320.113 229.727L294.477 229.546L294.364 245.545ZM320 245.727L304.047 244.5C303.911 246.268 303.393 248.414 302.183 251.006L316.682 257.773L331.181 264.539C333.789 258.95 335.483 253.065 335.953 246.954L320 245.727ZM316.682 257.773L302.202 250.965C301.176 253.149 299.626 255.378 297.33 257.634L308.545 269.045L319.76 280.457C324.495 275.804 328.37 270.518 331.161 264.58L316.682 257.773ZM308.545 269.045L297.331 257.633C295.531 259.402 293.052 261.081 289.573 262.493L295.591 277.318L301.608 292.143C308.433 289.373 314.59 285.537 319.759 280.458L308.545 269.045ZM295.591 277.318L289.573 262.493C286.713 263.654 282.845 264.454 277.636 264.454V280.454V296.454C286.064 296.454 294.166 295.164 301.608 292.143L295.591 277.318ZM277.636 280.454V264.454C271.454 264.454 266.449 263.15 262.241 260.877L254.636 274.954L247.032 289.032C256.399 294.092 266.727 296.454 277.636 296.454V280.454ZM254.636 274.954L262.267 260.891C258.352 258.767 255.144 255.642 252.591 251.028L238.591 258.773L224.59 266.518C229.916 276.145 237.406 283.809 247.006 289.018L254.636 274.954ZM238.591 258.773L252.617 251.073C250.305 246.862 248.727 240.955 248.727 232.636H232.727H216.727C216.727 244.924 219.058 256.44 224.565 266.472L238.591 258.773ZM232.727 232.636H248.727C248.727 224.29 250.337 218.438 252.663 214.316L238.727 206.454L224.792 198.593C219.117 208.652 216.727 220.255 216.727 232.636H232.727ZM238.727 206.454L252.677 214.29C255.28 209.656 258.527 206.531 262.465 204.422L254.909 190.318L247.353 176.214C237.715 181.378 230.174 189.011 224.777 198.619L238.727 206.454ZM254.909 190.318L262.513 204.395C266.772 202.095 271.699 200.818 277.636 200.818V184.818V168.818C266.847 168.818 256.622 171.208 247.305 176.241L254.909 190.318ZM277.636 184.818V200.818C282.053 200.818 285.77 201.42 288.916 202.443L293.864 187.227L298.811 172.011C292.079 169.822 284.977 168.818 277.636 168.818V184.818ZM293.864 187.227L288.916 202.443C292.074 203.47 294.589 204.88 296.65 206.589L306.864 194.273L317.077 181.956C311.683 177.484 305.532 174.197 298.811 172.011L293.864 187.227ZM306.864 194.273L296.71 206.638C298.651 208.232 300.278 210.23 301.591 212.823L315.864 205.591L330.136 198.358C326.904 191.981 322.531 186.435 317.017 181.907L306.864 194.273ZM315.864 205.591L301.591 212.823C302.799 215.206 303.717 218.287 304.056 222.335L320 221L335.944 219.664C335.313 212.137 333.474 204.945 330.136 198.358L315.864 205.591ZM331.466 279.182H315.466C315.466 288.018 322.629 295.182 331.466 295.182V279.182ZM331.466 186.091V170.091C322.629 170.091 315.466 177.254 315.466 186.091H331.466ZM356.739 186.091H372.739C372.739 177.254 365.575 170.091 356.739 170.091V186.091ZM356.739 222.454H340.739C340.739 231.291 347.902 238.454 356.739 238.454V222.454ZM390.193 222.454V238.454C399.03 238.454 406.193 231.291 406.193 222.454H390.193ZM390.193 186.091V170.091C381.357 170.091 374.193 177.254 374.193 186.091H390.193ZM415.466 186.091H431.466C431.466 177.254 424.302 170.091 415.466 170.091V186.091ZM415.466 279.182V295.182C424.302 295.182 431.466 288.018 431.466 279.182H415.466ZM390.193 279.182H374.193C374.193 288.018 381.357 295.182 390.193 295.182V279.182ZM390.193 242.818H406.193C406.193 233.981 399.03 226.818 390.193 226.818V242.818ZM356.739 242.818V226.818C347.902 226.818 340.739 233.981 340.739 242.818H356.739ZM356.739 279.182V295.182C365.575 295.182 372.739 288.018 372.739 279.182H356.739ZM331.466 279.182H347.466V186.091H331.466H315.466V279.182H331.466ZM331.466 186.091V202.091H356.739V186.091V170.091H331.466V186.091ZM356.739 186.091H340.739V222.454H356.739H372.739V186.091H356.739ZM356.739 222.454V238.454H390.193V222.454V206.454H356.739V222.454ZM390.193 222.454H406.193V186.091H390.193H374.193V222.454H390.193ZM390.193 186.091V202.091H415.466V186.091V170.091H390.193V186.091ZM415.466 186.091H399.466V279.182H415.466H431.466V186.091H415.466ZM415.466 279.182V263.182H390.193V279.182V295.182H415.466V279.182ZM390.193 279.182H406.193V242.818H390.193H374.193V279.182H390.193ZM390.193 242.818V226.818H356.739V242.818V258.818H390.193V242.818ZM356.739 242.818H340.739V279.182H356.739H372.739V242.818H356.739ZM356.739 279.182V263.182H331.466V279.182V295.182H356.739V279.182ZM513.829 183V167C504.993 167 497.829 174.163 497.829 183H513.829ZM527.466 183H543.466C543.466 174.163 536.302 167 527.466 167V183ZM521.875 204.682L508.886 195.339C508.874 195.355 508.862 195.372 508.85 195.389L521.875 204.682ZM503.648 212.454H487.648C487.648 221.291 494.811 228.454 503.648 228.454V212.454ZM503.648 201.727V185.727C494.811 185.727 487.648 192.891 487.648 201.727H503.648ZM511.875 196.818L526.74 202.737C526.746 202.721 526.752 202.705 526.759 202.69L511.875 196.818ZM511.602 258.863L525.512 266.77C525.517 266.761 525.522 266.753 525.527 266.744L511.602 258.863ZM495.284 275L502.787 289.131C502.804 289.123 502.82 289.114 502.836 289.105L495.284 275ZM449.375 274.954L441.748 289.02C441.773 289.033 441.798 289.047 441.823 289.06L449.375 274.954ZM433.102 258.773L419.152 266.608C419.165 266.632 419.179 266.655 419.192 266.679L433.102 258.773ZM433.102 206.454L419.178 198.574C419.174 198.58 419.17 198.587 419.167 198.593L433.102 206.454ZM449.375 190.318L456.904 204.436C456.912 204.432 456.919 204.428 456.927 204.424L449.375 190.318ZM495.284 190.318L487.732 204.424C487.748 204.432 487.764 204.441 487.781 204.449L495.284 190.318ZM511.602 206.454L497.678 214.335C497.682 214.344 497.687 214.352 497.692 214.361L511.602 206.454ZM489.42 218.545L474.454 224.202C474.472 224.25 474.49 224.297 474.508 224.344L489.42 218.545ZM482.92 209.818L473.726 222.913C473.779 222.95 473.832 222.986 473.885 223.023L482.92 209.818ZM461.784 209.818L470.884 222.978C470.894 222.971 470.903 222.965 470.913 222.958L461.784 209.818ZM455.284 218.545L440.357 212.786C440.348 212.807 440.34 212.828 440.332 212.849L455.284 218.545ZM455.284 246.773L440.317 252.429C440.335 252.477 440.353 252.524 440.372 252.572L455.284 246.773ZM461.784 255.5L452.59 268.594C452.643 268.632 452.696 268.668 452.749 268.705L461.784 255.5ZM482.92 255.5L492.02 268.66C492.03 268.653 492.04 268.647 492.049 268.64L482.92 255.5ZM489.42 246.773L474.493 241.013C474.485 241.034 474.477 241.055 474.469 241.077L489.42 246.773ZM513.829 183V199H527.466V183V167H513.829V183ZM527.466 183H511.466C511.466 190.373 509.95 193.86 508.886 195.339L521.875 204.682L534.864 214.025C541.254 205.14 543.466 194.172 543.466 183H527.466ZM521.875 204.682L508.85 195.389C508.776 195.493 508.709 195.606 508.269 195.794C507.687 196.042 506.298 196.454 503.648 196.454V212.454V228.454C515.413 228.454 527.262 224.68 534.9 213.974L521.875 204.682ZM503.648 212.454H519.648V201.727H503.648H487.648V212.454H503.648ZM503.648 201.727V217.727C507.754 217.727 512.535 216.928 517.039 214.24C521.746 211.431 524.929 207.286 526.74 202.737L511.875 196.818L497.01 190.9C497.518 189.623 498.678 187.932 500.642 186.76C502.405 185.708 503.724 185.727 503.648 185.727V201.727ZM511.875 196.818L526.759 202.69C529.13 196.68 529.829 189.763 529.829 183H513.829H497.829C497.829 188.055 497.226 190.35 496.991 190.946L511.875 196.818ZM517.648 232.636H501.648C501.648 240.961 500.031 246.825 497.678 250.983L511.602 258.863L525.527 266.744C531.234 256.66 533.648 245.039 533.648 232.636H517.648ZM511.602 258.863L497.692 250.957C495.076 255.561 491.783 258.726 487.732 260.894L495.284 275L502.836 289.105C512.482 283.941 520.068 276.348 525.512 266.77L511.602 258.863ZM495.284 275L487.781 260.868C483.439 263.174 478.414 264.454 472.375 264.454V280.454V296.454C483.184 296.454 493.432 294.099 502.787 289.131L495.284 275ZM472.375 280.454V264.454C466.276 264.454 461.243 263.16 456.927 260.849L449.375 274.954L441.823 289.06C451.204 294.083 461.504 296.454 472.375 296.454V280.454ZM449.375 274.954L457.001 260.889C452.951 258.693 449.645 255.498 447.012 250.866L433.102 258.773L419.192 266.679C424.62 276.229 432.163 283.822 441.748 289.02L449.375 274.954ZM433.102 258.773L447.052 250.937C444.704 246.756 443.102 240.9 443.102 232.636H427.102H411.102C411.102 244.979 413.501 256.547 419.152 266.608L433.102 258.773ZM427.102 232.636H443.102C443.102 224.29 444.712 218.438 447.038 214.316L433.102 206.454L419.167 198.593C413.492 208.652 411.102 220.255 411.102 232.636H427.102ZM433.102 206.454L447.027 214.335C449.653 209.695 452.928 206.557 456.904 204.436L449.375 190.318L441.845 176.2C432.186 181.352 424.612 188.972 419.178 198.574L433.102 206.454ZM449.375 190.318L456.927 204.424C461.243 202.113 466.276 200.818 472.375 200.818V184.818V168.818C461.504 168.818 451.204 171.19 441.823 176.212L449.375 190.318ZM472.375 184.818V200.818C478.392 200.818 483.399 202.104 487.732 204.424L495.284 190.318L502.836 176.212C493.472 171.199 483.206 168.818 472.375 168.818V184.818ZM495.284 190.318L487.781 204.449C491.785 206.576 495.062 209.713 497.678 214.335L511.602 206.454L525.527 198.574C520.082 188.954 512.48 181.333 502.787 176.187L495.284 190.318ZM511.602 206.454L497.692 214.361C500.03 218.473 501.648 224.308 501.648 232.636H517.648H533.648C533.648 220.237 531.235 208.617 525.512 198.548L511.602 206.454ZM491.648 232.636H507.648C507.648 225.747 506.745 218.949 504.332 212.746L489.42 218.545L474.508 224.344C475.066 225.778 475.648 228.374 475.648 232.636H491.648ZM489.42 218.545L504.387 212.889C501.988 206.54 497.996 200.746 491.955 196.613L482.92 209.818L473.885 223.023C473.809 222.97 473.802 222.94 473.872 223.034C473.956 223.147 474.184 223.487 474.454 224.202L489.42 218.545ZM482.92 209.818L492.114 196.723C486.068 192.478 479.171 190.818 472.375 190.818V206.818V222.818C473.194 222.818 473.624 222.916 473.77 222.957C473.892 222.992 473.84 222.992 473.726 222.913L482.92 209.818ZM472.375 206.818V190.818C465.573 190.818 458.698 192.48 452.655 196.678L461.784 209.818L470.913 222.958C470.832 223.015 470.809 223.003 470.951 222.962C471.116 222.916 471.557 222.818 472.375 222.818V206.818ZM461.784 209.818L452.684 196.658C446.723 200.78 442.772 206.525 440.357 212.786L455.284 218.545L470.211 224.305C470.501 223.554 470.748 223.177 470.855 223.034C470.948 222.909 470.958 222.927 470.884 222.978L461.784 209.818ZM455.284 218.545L440.332 212.849C437.983 219.017 437.102 225.777 437.102 232.636H453.102H469.102C469.102 228.344 469.676 225.71 470.236 224.241L455.284 218.545ZM453.102 232.636H437.102C437.102 239.502 437.984 246.256 440.317 252.429L455.284 246.773L470.251 241.116C469.675 239.592 469.102 236.922 469.102 232.636H453.102ZM455.284 246.773L440.372 252.572C442.794 258.801 446.727 264.478 452.59 268.594L461.784 255.5L470.978 242.405C471.005 242.424 470.964 242.408 470.855 242.261C470.733 242.098 470.483 241.712 470.196 240.973L455.284 246.773ZM461.784 255.5L452.749 268.705C458.781 272.832 465.621 274.454 472.375 274.454V258.454V242.454C471.537 242.454 471.075 242.356 470.89 242.304C470.727 242.259 470.739 242.24 470.819 242.295L461.784 255.5ZM472.375 258.454V274.454C479.122 274.454 485.984 272.834 492.02 268.66L482.92 255.5L473.82 242.34C473.932 242.262 473.974 242.269 473.831 242.309C473.665 242.355 473.214 242.454 472.375 242.454V258.454ZM482.92 255.5L492.049 268.64C497.991 264.512 501.966 258.786 504.372 252.468L489.42 246.773L474.469 241.077C474.201 241.778 473.971 242.128 473.872 242.261C473.785 242.378 473.762 242.38 473.791 242.36L482.92 255.5ZM489.42 246.773L504.348 252.532C506.743 246.325 507.648 239.532 507.648 232.636H491.648H475.648C475.648 236.892 475.068 239.524 474.493 241.013L489.42 246.773ZM560.239 186.091H576.239C576.239 177.254 569.075 170.091 560.239 170.091V186.091ZM560.239 279.182V295.182C569.075 295.182 576.239 288.018 576.239 279.182H560.239ZM534.966 279.182H518.966C518.966 288.018 526.129 295.182 534.966 295.182V279.182ZM534.966 186.091V170.091C526.129 170.091 518.966 177.254 518.966 186.091H534.966ZM560.239 186.091H544.239V279.182H560.239H576.239V186.091H560.239ZM560.239 279.182V263.182H534.966V279.182V295.182H560.239V279.182ZM534.966 279.182H550.966V186.091H534.966H518.966V279.182H534.966ZM534.966 186.091V202.091H560.239V186.091V170.091H534.966V186.091ZM678.261 186.091H694.261C694.261 177.254 687.098 170.091 678.261 170.091V186.091ZM678.261 279.182V295.182C687.098 295.182 694.261 288.018 694.261 279.182H678.261ZM657.17 279.182L643.987 288.248C646.972 292.589 651.903 295.182 657.17 295.182V279.182ZM623.534 230.273L636.717 221.206C633.732 216.866 628.802 214.273 623.534 214.273V230.273ZM622.989 230.273V214.273C614.152 214.273 606.989 221.436 606.989 230.273H622.989ZM622.989 279.182V295.182C631.825 295.182 638.989 288.018 638.989 279.182H622.989ZM597.716 279.182H581.716C581.716 288.018 588.879 295.182 597.716 295.182V279.182ZM597.716 186.091V170.091C588.879 170.091 581.716 177.254 581.716 186.091H597.716ZM619.17 186.091L632.407 177.102C629.428 172.716 624.471 170.091 619.17 170.091V186.091ZM652.261 234.818L639.025 243.807C642.003 248.192 646.96 250.818 652.261 250.818V234.818ZM652.989 234.818V250.818C661.825 250.818 668.989 243.655 668.989 234.818H652.989ZM652.989 186.091V170.091C644.152 170.091 636.989 177.254 636.989 186.091H652.989ZM678.261 186.091H662.261V279.182H678.261H694.261V186.091H678.261ZM678.261 279.182V263.182H657.17V279.182V295.182H678.261V279.182ZM657.17 279.182L670.354 270.115L636.717 221.206L623.534 230.273L610.351 239.339L643.987 288.248L657.17 279.182ZM623.534 230.273V214.273H622.989V230.273V246.273H623.534V230.273ZM622.989 230.273H606.989V279.182H622.989H638.989V230.273H622.989ZM622.989 279.182V263.182H597.716V279.182V295.182H622.989V279.182ZM597.716 279.182H613.716V186.091H597.716H581.716V279.182H597.716ZM597.716 186.091V202.091H619.17V186.091V170.091H597.716V186.091ZM619.17 186.091L605.934 195.08L639.025 243.807L652.261 234.818L665.498 225.829L632.407 177.102L619.17 186.091ZM652.261 234.818V250.818H652.989V234.818V218.818H652.261V234.818ZM652.989 234.818H668.989V186.091H652.989H636.989V234.818H652.989ZM652.989 186.091V202.091H678.261V186.091V170.091H652.989V186.091ZM690.216 279.182H674.216C674.216 288.018 681.379 295.182 690.216 295.182V279.182ZM690.216 186.091V170.091C681.379 170.091 674.216 177.254 674.216 186.091H690.216ZM715.489 186.091H731.489C731.489 177.254 724.325 170.091 715.489 170.091V186.091ZM715.489 222.454H699.489C699.489 231.291 706.652 238.454 715.489 238.454V222.454ZM748.943 222.454V238.454C757.78 238.454 764.943 231.291 764.943 222.454H748.943ZM748.943 186.091V170.091C740.107 170.091 732.943 177.254 732.943 186.091H748.943ZM774.216 186.091H790.216C790.216 177.254 783.052 170.091 774.216 170.091V186.091ZM774.216 279.182V295.182C783.052 295.182 790.216 288.018 790.216 279.182H774.216ZM748.943 279.182H732.943C732.943 288.018 740.107 295.182 748.943 295.182V279.182ZM748.943 242.818H764.943C764.943 233.981 757.78 226.818 748.943 226.818V242.818ZM715.489 242.818V226.818C706.652 226.818 699.489 233.981 699.489 242.818H715.489ZM715.489 279.182V295.182C724.325 295.182 731.489 288.018 731.489 279.182H715.489ZM690.216 279.182H706.216V186.091H690.216H674.216V279.182H690.216ZM690.216 186.091V202.091H715.489V186.091V170.091H690.216V186.091ZM715.489 186.091H699.489V222.454H715.489H731.489V186.091H715.489ZM715.489 222.454V238.454H748.943V222.454V206.454H715.489V222.454ZM748.943 222.454H764.943V186.091H748.943H732.943V222.454H748.943ZM748.943 186.091V202.091H774.216V186.091V170.091H748.943V186.091ZM774.216 186.091H758.216V279.182H774.216H790.216V186.091H774.216ZM774.216 279.182V263.182H748.943V279.182V295.182H774.216V279.182ZM748.943 279.182H764.943V242.818H748.943H732.943V279.182H748.943ZM748.943 242.818V226.818H715.489V242.818V258.818H748.943V242.818ZM715.489 242.818H699.489V279.182H715.489H731.489V242.818H715.489ZM715.489 279.182V263.182H690.216V279.182V295.182H715.489V279.182ZM786.216 279.182H770.216C770.216 288.018 777.379 295.182 786.216 295.182V279.182ZM786.216 186.091V170.091C777.379 170.091 770.216 177.254 770.216 186.091H786.216ZM853.307 186.091H869.307C869.307 177.254 862.143 170.091 853.307 170.091V186.091ZM853.307 206.454V222.454C862.143 222.454 869.307 215.291 869.307 206.454H853.307ZM811.489 206.454V190.454C802.652 190.454 795.489 197.618 795.489 206.454H811.489ZM811.489 222.454H795.489C795.489 231.291 802.652 238.454 811.489 238.454V222.454ZM849.852 222.454H865.852C865.852 213.618 858.689 206.454 849.852 206.454V222.454ZM849.852 242.818V258.818C858.689 258.818 865.852 251.655 865.852 242.818H849.852ZM811.489 242.818V226.818C802.652 226.818 795.489 233.981 795.489 242.818H811.489ZM811.489 258.818H795.489C795.489 267.655 802.652 274.818 811.489 274.818V258.818ZM853.125 258.818H869.125C869.125 249.981 861.961 242.818 853.125 242.818V258.818ZM853.125 279.182V295.182C861.961 295.182 869.125 288.018 869.125 279.182H853.125ZM811.67 177.363L796.964 171.061C794.845 176.004 795.352 181.681 798.313 186.171C801.274 190.661 806.292 193.363 811.67 193.363V177.363ZM820.398 157V141C813.997 141 808.213 144.814 805.691 150.697L820.398 157ZM841.852 157L855.147 165.902C858.433 160.995 858.748 154.675 855.967 149.465C853.185 144.254 847.759 141 841.852 141V157ZM828.216 177.363V193.363C833.554 193.363 838.54 190.701 841.51 186.266L828.216 177.363ZM786.216 279.182H802.216V186.091H786.216H770.216V279.182H786.216ZM786.216 186.091V202.091H853.307V186.091V170.091H786.216V186.091ZM853.307 186.091H837.307V206.454H853.307H869.307V186.091H853.307ZM853.307 206.454V190.454H811.489V206.454V222.454H853.307V206.454ZM811.489 206.454H795.489V222.454H811.489H827.489V206.454H811.489ZM811.489 222.454V238.454H849.852V222.454V206.454H811.489V222.454ZM849.852 222.454H833.852V242.818H849.852H865.852V222.454H849.852ZM849.852 242.818V226.818H811.489V242.818V258.818H849.852V242.818ZM811.489 242.818H795.489V258.818H811.489H827.489V242.818H811.489ZM811.489 258.818V274.818H853.125V258.818V242.818H811.489V258.818ZM853.125 258.818H837.125V279.182H853.125H869.125V258.818H853.125ZM853.125 279.182V263.182H786.216V279.182V295.182H853.125V279.182ZM811.67 177.363L826.377 183.666L835.104 163.303L820.398 157L805.691 150.697L796.964 171.061L811.67 177.363ZM820.398 157V173H841.852V157V141H820.398V157ZM841.852 157L828.558 148.097L814.921 168.461L828.216 177.363L841.51 186.266L855.147 165.902L841.852 157ZM828.216 177.363V161.363H811.67V177.363V193.363H828.216V177.363ZM895.295 186.091L911.284 186.681C911.445 182.338 909.832 178.117 906.816 174.988C903.8 171.859 899.641 170.091 895.295 170.091V186.091ZM892.932 250.091V266.091C901.539 266.091 908.603 259.282 908.921 250.681L892.932 250.091ZM872.204 250.091L856.215 250.681C856.533 259.282 863.598 266.091 872.204 266.091V250.091ZM869.841 186.091V170.091C865.495 170.091 861.336 171.859 858.32 174.988C855.304 178.117 853.691 182.338 853.852 186.681L869.841 186.091ZM873.523 276.954L862.209 288.268C862.255 288.314 862.301 288.36 862.348 288.405L873.523 276.954ZM869.841 267.909L885.84 268.046C885.841 267.953 885.841 267.861 885.84 267.769L869.841 267.909ZM873.523 259.045L862.348 247.594C862.325 247.617 862.302 247.64 862.279 247.662L873.523 259.045ZM891.386 259.045L880.28 270.563C880.303 270.585 880.326 270.606 880.348 270.628L891.386 259.045ZM895.295 267.909L911.294 268.114C911.296 267.999 911.296 267.884 911.295 267.769L895.295 267.909ZM893.432 274.363L879.864 265.883C879.852 265.903 879.84 265.922 879.828 265.942L893.432 274.363ZM888.795 278.954L896.898 292.751C896.952 292.719 897.006 292.687 897.059 292.655L888.795 278.954ZM895.295 186.091L879.306 185.5L876.943 249.5L892.932 250.091L908.921 250.681L911.284 186.681L895.295 186.091ZM892.932 250.091V234.091H872.204V250.091V266.091H892.932V250.091ZM872.204 250.091L888.194 249.5L885.83 185.5L869.841 186.091L853.852 186.681L856.215 250.681L872.204 250.091ZM869.841 186.091V202.091H895.295V186.091V170.091H869.841V186.091ZM882.568 280.636V264.636C882.712 264.636 883.146 264.67 883.702 264.896C884.259 265.123 884.593 265.402 884.698 265.504L873.523 276.954L862.348 288.405C867.852 293.777 874.878 296.636 882.568 296.636V280.636ZM873.523 276.954L884.836 265.641C884.982 265.786 885.305 266.175 885.558 266.797C885.81 267.416 885.842 267.894 885.84 268.046L869.841 267.909L853.841 267.772C853.775 275.565 856.659 282.719 862.209 288.268L873.523 276.954ZM869.841 267.909L885.84 267.769C885.842 268.021 885.791 268.574 885.515 269.24C885.239 269.902 884.899 270.298 884.767 270.428L873.523 259.045L862.279 247.662C856.754 253.119 853.773 260.215 853.841 268.049L869.841 267.909ZM873.523 259.045L884.698 270.496C884.593 270.598 884.259 270.877 883.702 271.103C883.146 271.33 882.712 271.363 882.568 271.363V255.363V239.363C874.878 239.363 867.852 242.223 862.348 247.594L873.523 259.045ZM882.568 255.363V271.363C882.219 271.363 881.682 271.288 881.108 271.049C880.844 270.939 880.635 270.819 880.486 270.719C880.339 270.62 880.273 270.556 880.28 270.563L891.386 259.045L902.492 247.528C897.165 242.391 890.314 239.363 882.568 239.363V255.363ZM891.386 259.045L880.348 270.628C880.266 270.549 879.938 270.199 879.656 269.558C879.369 268.908 879.299 268.344 879.296 268.049L895.295 267.909L911.295 267.769C911.225 259.842 908.028 252.803 902.424 247.462L891.386 259.045ZM895.295 267.909L879.297 267.704C879.299 267.532 879.326 267.232 879.435 266.857C879.544 266.478 879.701 266.144 879.864 265.883L893.432 274.363L907 282.843C909.818 278.334 911.228 273.303 911.294 268.114L895.295 267.909ZM893.432 274.363L879.828 265.942C879.878 265.86 879.977 265.724 880.128 265.574C880.28 265.423 880.427 265.317 880.531 265.254L888.795 278.954L897.059 292.655C901.158 290.183 904.528 286.837 907.036 282.785L893.432 274.363ZM888.795 278.954L880.693 265.158C880.932 265.017 881.254 264.872 881.635 264.769C882.015 264.667 882.341 264.636 882.568 264.636V280.636V296.636C887.621 296.636 892.499 295.334 896.898 292.751L888.795 278.954Z" fill="url(#paint1_linear_229_5)" mask="url(#path-1-outside-1_229_5)"/>
<defs>
<linearGradient id="paint0_linear_229_5" x1="619.638" y1="70.7136" x2="620.327" y2="307.435" gradientUnits="userSpaceOnUse">
<stop stop-color="#FDFFFF"/>
<stop offset="1" stop-color="#B2F0FA"/>
</linearGradient>
<linearGradient id="paint1_linear_229_5" x1="629.049" y1="87.9754" x2="629.049" y2="346.612" gradientUnits="userSpaceOnUse">
<stop stop-color="#0C4E7D"/>
<stop offset="1" stop-color="#2BB9CD"/>
</linearGradient>
</defs>
</svg>
