<svg xmlns="http://www.w3.org/2000/svg" xmlns:xlink="http://www.w3.org/1999/xlink" viewBox="0 0 614.01 297.21"><defs><style>.cls-1{fill:url(#linear-gradient);}.cls-2{fill:url(#linear-gradient-2);}.cls-3{fill:url(#linear-gradient-3);}.cls-4{fill:url(#linear-gradient-4);}.cls-5{fill:url(#linear-gradient-5);}.cls-6{fill:url(#linear-gradient-6);}.cls-7{fill:url(#linear-gradient-7);}</style><linearGradient id="linear-gradient" x1="223.69" y1="106.66" x2="223.69" y2="1.01" gradientUnits="userSpaceOnUse"><stop offset="0" stop-color="#282828"/><stop offset="0.14" stop-color="#1a1a1a"/><stop offset="0.35" stop-color="#0b0b0b"/><stop offset="0.6" stop-color="#030303"/><stop offset="1"/></linearGradient><linearGradient id="linear-gradient-2" x1="385.85" y1="91.97" x2="385.85" y2="3.18" xlink:href="#linear-gradient"/><linearGradient id="linear-gradient-3" x1="552.73" y1="91.54" x2="552.73" y2="0" xlink:href="#linear-gradient"/><linearGradient id="linear-gradient-4" x1="61.25" y1="297.21" x2="61.25" y2="167.2" xlink:href="#linear-gradient"/><linearGradient id="linear-gradient-5" x1="218.8" y1="253.98" x2="218.8" y2="167.44" xlink:href="#linear-gradient"/><linearGradient id="linear-gradient-6" x1="380.34" y1="258.21" x2="380.34" y2="169.92" xlink:href="#linear-gradient"/><linearGradient id="linear-gradient-7" x1="550.15" y1="254.81" x2="550.15" y2="167.7" xlink:href="#linear-gradient"/></defs><g id="Layer_2" data-name="Layer 2"><g id="Layer_1-2" data-name="Layer 1"><path class="cls-1" d="M284.89,64.33c0-.68.06-1.37.06-2.06A61.26,61.26,0,0,0,223.7,1l-.49,0A56.61,56.61,0,0,0,205.56,3.6c-23.75,6.63-42,29.09-43,53.8,0,.83,0,1.66,0,2.51s-.06,1.57-.06,2.36c0,.25,0,.5,0,.76-.18,13.42-.23,28,8.86,38.49,4.88,5.69,16.09,7.74,20.42.47-2.55-.32-4.77-1-6.23-3.27a27.38,27.38,0,0,1-4.89-12.86c2.34,4.46,5.32,9.2,10.71,9.93-20.6-20.9-7.29-58.63,15.31-72.79l.11.15c-2.62,3.5-5.67,7.07-6.55,11.43-2.14,9.82-.62,21,12,19.91-17.4-3-4.25-32.94,9.42-35.78.67,0,1.35-.05,2-.05s1.31,0,2,.05c.19,0,.39.08.58.14,8.47,2.75,13.8,10.73,16.1,19,1.92,6.83,1.59,15.79-7.24,16.6l0,.25c11,.2,13.43-6.53,12.6-16.27.06-5.17-3.24-9.22-5.48-13.7,20.76,15,34.52,50.76,13.59,70.93,4.94-.07,8.62-5,10.59-9.15-1.36,7.56-3.47,14.89-12.22,15.82a15.32,15.32,0,0,0,22.87-1.64c5.16-6.83,5.94-15.59,7.16-23.76A66.71,66.71,0,0,0,284.89,64.33Z"/><path class="cls-2" d="M388.68,3.18c-1.17,0-2.33,0-3.49.1C367,4,348.88,13,336.54,32a64,64,0,0,0-9.11,41.1c.14,2.35.83,4.62-.11,7-1.37,3.55-2.78,7-5.56,9.74,14.52,5.86,28.63-.69,36.66-13.57A2.31,2.31,0,0,1,360.7,75c7.69.42,15-3.45,21.48-7.22,14.74-9,26.1-24.25,27.46-42,17.11,7.58,28.62,24.44,30.57,42.78.1,1.32.17,2.64.17,4a51.91,51.91,0,0,1-1.44,12.17L445,88.47A61.28,61.28,0,0,0,388.68,3.18Z"/><path class="cls-3" d="M607.92,34.87c-.15-.32-.31-.64-.47-.95s-.25-.51-.39-.76A61.39,61.39,0,0,0,573.5,3.79l-1.14-.4a60.22,60.22,0,0,0-49.22,4.25C506.19,16.87,494,34.69,491.85,53.91c-.08.89-.15,1.8-.2,2.73s-.14,2.12-.17,3.2c0,.52,0,1,0,1.58a61.2,61.2,0,0,0,2.85,18.51h0a22.37,22.37,0,0,0,3.07,5.13,19.6,19.6,0,0,0,5.56,4.72c2.22,1.23,4.87,2.21,7.38,1.53a.33.33,0,0,0,.05-.61,15.8,15.8,0,0,1-8-8.73c-4.58-11.28-.25-28.81,5.17-38a.29.29,0,0,1,.31-.15.32.32,0,0,1,.29.31c.11,5.21.3,11.43,4.05,15.22a.33.33,0,0,0,.52-.38c-3.43-6.12-1.23-14.33,1.51-20.39a32.4,32.4,0,0,1,10.84-12.74,51.09,51.09,0,0,1,14.74-6.39h0a33.75,33.75,0,0,1,8.1-.69.25.25,0,0,1,.12,0c16.25,6.44,17.67,31,3,40-5.12,3.31,1.84,1.48,3.89.48h0c13.32-5.35,26.38-18.79,23.57-34.09a.32.32,0,0,1,.2-.36h0c.85.49,1.69,1,2.51,1.56h0c5.45,4.38,8.06,11.6,7.45,18.53a31,31,0,0,1-4.12,13.65h0a.32.32,0,0,0,.53.34c4.77-4.85,9.87-10.2,10.58-17.28a.33.33,0,0,1,.18-.26l.2-.09a49.66,49.66,0,0,1,2.86,5c3.46,10-.33,21.84,3.19,32.16,0,0,0,0,0,0,.22.41.55,1.57,1,2.65h0a8.69,8.69,0,0,0,.52,1,3,3,0,0,0,.89,1,.33.33,0,0,0,.48-.35c-.16-.67-.41-1.46-.56-2.18a.33.33,0,0,1,.62-.19,11.3,11.3,0,0,0,3.89,5,13.83,13.83,0,0,0,3.15,1.67.32.32,0,0,0,.41-.43c-.9-2.09-1.88-4.08-1.48-6.43a60.6,60.6,0,0,0,2.55-12c0-.2,0-.41.07-.61A59.37,59.37,0,0,0,607.92,34.87Z"/><path class="cls-4" d="M122.5,228.45c0-.07,0-.14,0-.21A55.6,55.6,0,0,0,119,208.13a61.27,61.27,0,0,0-56.32-40.9l-1,0h-.42l-.83,0c-.64,0-1.29,0-1.93.05-.36,0-.72,0-1.07.06l-1.78.13-1.6.17-1,.13A61.05,61.05,0,0,0,16.74,186.4l-.32.33-1,1.08A58.35,58.35,0,0,0,2.76,210.22v0c-.14.45-.27.91-.39,1.37A60.88,60.88,0,0,0,.07,225.81c0,.62,0,1.24,0,1.87,0,.26,0,.51,0,.77v.06a60.13,60.13,0,0,0,.72,9.75c3.68,20.26,9.49,40.3,18.25,58.95l.39-.21c-3.58-29.6-8.42-64.61,10-90.35C37,196.1,47.89,185.43,61.71,185.2c20.71,1.43,35.89,23.19,41.54,41.52,5.93,22.91,3.35,47.11.23,70.28l.42.16c4.48-8.42,7.09-17.76,10.31-26.73A171.85,171.85,0,0,0,121.76,238,61,61,0,0,0,122.5,228.45Z"/><path class="cls-5" d="M275.15,252.73A61,61,0,0,0,280,230.16c1.1,2.84,1.86,6.12,3.37,8.47a3.12,3.12,0,0,0,.29-1,78.41,78.41,0,0,0-8.91-33.83,61.25,61.25,0,0,0-109.94-4.09,72.88,72.88,0,0,0-9.07,23.17c-.84,5.17-2.3,10.56-1.67,15.77,1.62-2,2.07-5.73,3.32-8.31.1,1.18.23,2.36.38,3.52a61.22,61.22,0,0,0,3.84,16.79c.3.94.61,1.88.94,2.81,1.57,3.09,12.47-9.32,13.13-11.42.94,1.27.65,9.18,2.64,7.75,11.17-14.15,20.83-29.82,27.33-46.67a126.13,126.13,0,0,0,12.4,43,.78.78,0,0,0,1.39,0,126.37,126.37,0,0,0,12.36-42.91,184.73,184.73,0,0,0,22.26,40c6.28,8,5.87,10,7.59-1.39a49.33,49.33,0,0,0,4.86,6.35c1.07.65,7.26,7.81,8.34,5.19"/><path class="cls-6" d="M441.16,223.94a61.25,61.25,0,0,0-122,5.92c-.94,9.93-.23,20.11,2.37,28l.39,0c1.36-1.41,2.2-2.22,2.72-2.85,1.17-1.42.66-1.91.73-6.22l.14,0c.37,1.4.74,2.79,1.13,4.28,1.4-1.21,2.45-2.11,3.24-2.81,4.26-3.77.83-1.73,2.33-11.87.43,3,.83,5.73,1.25,8.65,1.82-1.48,3.36-2.89,5.08-4.06a4.59,4.59,0,0,0,2-4.08c.94-3.79,1.5-7.71,2.71-11.43l.26.07a42.73,42.73,0,0,0,.34,11.18,2.45,2.45,0,0,0,1.67-2.44,41.29,41.29,0,0,1,.8-6.54c2.14-11.66,6.93-22.68,12.85-32.9l.22.08a131.18,131.18,0,0,0-7.83,36.31c6.74-5.29,6-2.82,6.65-11.31,1.41-10.86,4.22-22.06,11.09-30.82l.32.26a84.88,84.88,0,0,0-7.76,36.72c3-.66,5.73-1.3,8.5-1.88.49-.11.67-.28.74-.77,1-6.77,1.64-13.59,2.88-20.32l.21,0v20.4h14.53c.31-2.78.62-5.65.93-8.52l.26,0c1.86,11.08-2.05,8.31,9.51,11a90.74,90.74,0,0,0-7.66-36.9c6.91,7.71,9.29,18.54,11,28.49,1.13,9.12-1.08,7.9,6.86,13.57.19-1.91-.35-3.28-.61-5.07l-1.57-10.4c-1.52-7.16-2.87-14.28-5.56-21.06a109.84,109.84,0,0,1,11,24.49,71.66,71.66,0,0,1,2.83,15.22,2.32,2.32,0,0,0,1.61,2.24,54.48,54.48,0,0,0,.53-11.4c1.77,4.62,1.91,10,3.51,14.54,1.95,1.79,4.08,3.37,6.36,5.2.42-2.92.8-5.67,1.23-8.64,1.53,9.69-1.82,8.09,2,11.6.84.77,2,1.77,3.65,3.19l.86-1.14a9.35,9.35,0,0,0,.44,2.38c.16.18.32.37.49.55.89,1,1.84,2.06,2.89,3.21,2.37-4.22,2.54-8.64,2.72-13.31C441.75,237.94,442.41,230.81,441.16,223.94Z"/><path class="cls-7" d="M590.07,182.49a59.75,59.75,0,0,0-6.88-5.14h0c-1.11-.71-2.24-1.39-3.4-2l-.67-.37-1-.55-1-.49-.35-.17c-.22-.11-.45-.22-.68-.31a60.08,60.08,0,0,0-15.35-4.82c-.79-.14-1.58-.27-2.38-.37a60.85,60.85,0,0,0-8.15-.54h0a60.85,60.85,0,0,0-8.15.54c-.8.1-1.59.23-2.38.37a60.08,60.08,0,0,0-15.35,4.82c-.23.09-.46.2-.68.31l-.35.17-1,.49-1,.55-.67.37c-1.16.63-2.29,1.31-3.4,2h0a59.75,59.75,0,0,0-6.88,5.14,58.7,58.7,0,0,0-22,49.68c1,4.24-.09,11.64,3.3,14.71a.83.83,0,0,0,0,.15,9.58,9.58,0,0,0,1.9,1.09,1.69,1.69,0,0,0,.75,0l.4.07a3,3,0,0,1,.62.39,1.14,1.14,0,0,1,.16.15,3.25,3.25,0,0,1,.68,2.14,3.28,3.28,0,0,0-.1.69l.12-.08c0,1.57.07,3.1,2.41,3.29l.11-.24c-1.68-1.47-.86-3,0-4.61l.09-.06.25-.56a7.47,7.47,0,0,0,.59-1.3h0v0a1.55,1.55,0,0,0-.37-1.78c-.78-.84-2.21-1.4-2.29-2.64.43-5-.28-17.37,3.15-20.34l.15.14c1.07,1.17-.38,3.53-1.26,6a6.59,6.59,0,0,0-.43,3.92,4.63,4.63,0,0,0,3,2.85c-4-5.19,4.47-8.5,3.38-13.42-.86-1.43-3.09-1.93-3.18-3.88a51.3,51.3,0,0,1,8.38-14.54c.95,3.65,5,3.86,7.23,6.24.26,5.35-11.18,13.3-1.91,18.16-4.84-11.43,12.58-11.48,14.72-20.05,1.22-5.22-5.35-8.87-2.81-14.13a12.33,12.33,0,0,1,6.06-6.42c1.16-.41,2.34-.76,3.54-1.07l1.17-.29c.63-.16,1.25-.29,1.89-.41a50.29,50.29,0,0,1,9.33-1l.81,0h0l.81,0a50.29,50.29,0,0,1,9.33,1c.64.12,1.26.25,1.89.41l1.17.29c1.2.31,2.38.66,3.54,1.07a12.33,12.33,0,0,1,6.06,6.42c2.54,5.26-4,8.91-2.81,14.13,2.14,8.57,19.56,8.62,14.72,20.05,9.27-4.86-2.17-12.81-1.91-18.16,2.22-2.38,6.28-2.59,7.23-6.24a51.3,51.3,0,0,1,8.38,14.54c-.09,2-2.32,2.45-3.18,3.88-1.09,4.92,7.4,8.23,3.38,13.42a4.63,4.63,0,0,0,3-2.85,6.59,6.59,0,0,0-.43-3.92c-.88-2.47-2.33-4.83-1.26-6l.15-.14c3.43,3,2.72,15.3,3.15,20.34-.08,1.24-1.51,1.8-2.29,2.64a1.55,1.55,0,0,0-.37,1.78v0h0a7.47,7.47,0,0,0,.59,1.3l.25.56.09.06c.88,1.59,1.7,3.14,0,4.61l.11.24c2.34-.19,2.38-1.72,2.41-3.29l.12.08a3.28,3.28,0,0,0-.1-.69,3.25,3.25,0,0,1,.68-2.14,1.14,1.14,0,0,1,.16-.15,3,3,0,0,1,.62-.39l.4-.07a1.69,1.69,0,0,0,.75,0,9.58,9.58,0,0,0,1.9-1.09.83.83,0,0,0,0-.15c3.39-3.07,2.29-10.47,3.3-14.71A58.7,58.7,0,0,0,590.07,182.49Z"/></g></g></svg>