<svg xmlns="http://www.w3.org/2000/svg" viewBox="0 0 834.19 709.33"><defs><style>.cls-1{fill:#fffffe;}.cls-2{fill:#f48108;}.cls-3{fill:#f6a422;}.cls-4{fill:#f7a424;}.cls-5{fill:none;}.cls-6{fill:#e4510d;}.cls-7{fill:#d2d4d9;}</style></defs><g id="Layer_2" data-name="Layer 2"><g id="Layer_1-2" data-name="Layer 1"><path class="cls-1" d="M274.27,93.57l-98.76,64-98.76,64-8-120.5L64,29A26.87,26.87,0,0,1,103.7,3.3l63.83,33.79Z"/><path class="cls-2" d="M236.32,117.93l-62.11,40.26L112.1,198.45l-5-75.79-3-45.32a16.89,16.89,0,0,1,25-16.18L169.19,82.4Z"/><path class="cls-3" d="M559.91,93.57l98.76,64,98.76,64,8-120.5L770.19,29A26.87,26.87,0,0,0,730.49,3.3L666.65,37.09Z"/><path class="cls-2" d="M597.86,117.93,660,158.19l62.11,40.26,5-75.79,3-45.32a16.89,16.89,0,0,0-25-16.18L665,82.4Z"/><path class="cls-1" d="M417.09,25.38h0A409.06,409.06,0,0,1,826.16,434.44V709.33a0,0,0,0,1,0,0H8a0,0,0,0,1,0,0V434.44A409.06,409.06,0,0,1,417.09,25.38Z"/><path class="cls-4" d="M738.05,180.81a196,196,0,0,1-129,48.15c-108.65,0-196.74-88.08-196.74-196.73q0-3.42.12-6.82,2.31,0,4.62,0a409.19,409.19,0,0,1,321,155.43Z"/><path class="cls-2" d="M321.56,136.53h0a5.17,5.17,0,0,1-5.11-4.28,24.77,24.77,0,0,0-48.79,0,5.19,5.19,0,0,1-5.11,4.28h0a5.18,5.18,0,0,1-5.14-6,35.16,35.16,0,0,1,69.28,0A5.17,5.17,0,0,1,321.56,136.53Z"/><path class="cls-2" d="M571,136.53h0a5.18,5.18,0,0,1-5.11-4.28,24.77,24.77,0,0,0-48.79,0,5.17,5.17,0,0,1-5.11,4.28h0a5.17,5.17,0,0,1-5.13-6,35.16,35.16,0,0,1,69.28,0A5.18,5.18,0,0,1,571,136.53Z"/><line class="cls-5" x1="327.21" y1="136.53" x2="316.82" y2="136.53"/><line class="cls-5" x1="267.29" y1="136.53" x2="256.9" y2="136.53"/><path class="cls-2" d="M434.47,148.9H399.72A7.47,7.47,0,0,0,394,161.16l6.45,7.75L411.35,182a7.68,7.68,0,0,0,.85.86v24.68h9.48V183.14a8.73,8.73,0,0,0,1.16-1.12l10.92-13.11,6.45-7.75A7.47,7.47,0,0,0,434.47,148.9Z"/><path class="cls-6" d="M650.06,316.1a171.7,171.7,0,0,1-103.7,157.58q-6.83,2.94-14,5.3c-1,.33-2,.65-3,1s-2.06.63-3.1.93h0c-1,.3-2.07.58-3.1.86s-2.1.56-3.15.82c-1.6.4-3.2.77-4.82,1.12l-2.62.55-.58.12c-.93.18-1.86.36-2.79.52s-2,.36-3,.52c-.5.09-1,.17-1.52.24l-3,.44-1.27.16c-1.87.24-3.74.44-5.62.62l-1.6.14-1.21.1-2.41.17-2.73.15c-.84,0-1.68.08-2.52.1-1,0-2.05.06-3.08.08l-2.68,0H355.63q-1.49,0-3,0l-1.53,0q-5.47-.14-10.86-.62l-2.17-.21c-1.44-.14-2.87-.31-4.3-.49l-1.67-.22c-.87-.12-1.74-.24-2.61-.38l-1.77-.28c-.82-.13-1.65-.27-2.47-.42s-1.41-.25-2.11-.39l-1.93-.38-2.25-.48-1.74-.39-1.91-.44-2.56-.64-2-.54q-4.08-1.11-8.1-2.41l-1.48-.49c-1-.35-2.1-.71-3.14-1.09s-1.81-.65-2.7-1l-1.5-.57q-2.73-1-5.41-2.2l-.58-.25A171.54,171.54,0,0,1,184.13,316.1,119.17,119.17,0,0,1,303.36,196.86H530.83A119.2,119.2,0,0,1,650.06,316.1Z"/><path class="cls-2" d="M546.36,473.69a171,171,0,0,1-67.82,13.93H355.63a171,171,0,0,1-67.81-13.93,82.91,82.91,0,0,1,129.27-37.12,82.91,82.91,0,0,1,129.27,37.12Z"/><path class="cls-1" d="M308.73,196.86l-9.06,22.27-7.82,19.24a8.78,8.78,0,0,1-14.47,2.44l-13.7-15.6L249.89,209.5a118.62,118.62,0,0,1,53.47-12.64Z"/><path class="cls-1" d="M584.52,209.62l-14,15.95-13.7,15.6a8.78,8.78,0,0,1-14.47-2.44l-7.82-19.23-9.21-22.64h5.52A118.53,118.53,0,0,1,584.52,209.62Z"/><path class="cls-4" d="M227,634.81a41.76,41.76,0,0,1-4.94,2C223.73,636.15,225.37,635.49,227,634.81Z"/><path class="cls-4" d="M250.85,596.3a43.28,43.28,0,0,1-.29,5,41,41,0,0,1-.89,5,42.7,42.7,0,0,1-22.9,28.43l-.22.1c-1.64.68-3.28,1.34-4.94,2l-.06,0A269.07,269.07,0,0,1,8.93,629,15.63,15.63,0,0,1,0,614.91V526.63A4.71,4.71,0,0,1,7.76,523a179.54,179.54,0,0,0,177.05,32.54v-.07a17.76,17.76,0,0,1,12.81-17.19,17.92,17.92,0,0,1,23,17.18,42.61,42.61,0,0,1,21.14,14.45,42.55,42.55,0,0,1,9.13,26.37Z"/><path class="cls-2" d="M245.32,575.29c-6.4-.95-17.82-1-27.36,8.15a2.5,2.5,0,1,1-3.46-3.62,36.17,36.17,0,0,1,27.22-9.89A42.16,42.16,0,0,1,245.32,575.29Z"/><path class="cls-2" d="M250.56,601.29a41,41,0,0,1-.89,5,30.74,30.74,0,0,0-22.2-.08,2.49,2.49,0,0,1-1.86,0,2.51,2.51,0,0,1,.08-4.65A35.47,35.47,0,0,1,250.56,601.29Z"/><path class="cls-4" d="M607.18,634.81a41.76,41.76,0,0,0,4.94,2C610.46,636.15,608.82,635.49,607.18,634.81Z"/><path class="cls-4" d="M583.34,596.3a43.28,43.28,0,0,0,.29,5,41,41,0,0,0,.89,5,42.7,42.7,0,0,0,22.9,28.43l.22.1c1.64.68,3.28,1.34,4.94,2l.06,0A269.07,269.07,0,0,0,825.26,629a15.63,15.63,0,0,0,8.93-14.09V526.63a4.71,4.71,0,0,0-7.76-3.61,179.54,179.54,0,0,1-177,32.54v-.07a17.76,17.76,0,0,0-12.81-17.19,17.92,17.92,0,0,0-23,17.18,42.61,42.61,0,0,0-21.14,14.45,42.55,42.55,0,0,0-9.13,26.37Z"/><path class="cls-2" d="M588.87,575.29c6.4-.95,17.82-1,27.36,8.15a2.5,2.5,0,0,0,3.46-3.62,36.17,36.17,0,0,0-27.22-9.89A42.16,42.16,0,0,0,588.87,575.29Z"/><path class="cls-2" d="M583.63,601.29a41,41,0,0,0,.89,5,30.74,30.74,0,0,1,22.2-.08,2.49,2.49,0,0,0,1.86,0,2.51,2.51,0,0,0-.08-4.65A35.47,35.47,0,0,0,583.63,601.29Z"/><rect class="cls-1" x="254.59" y="287.36" width="325" height="111.9" rx="11.62"/><rect class="cls-7" x="254.59" y="339.47" width="325" height="6"/></g></g></svg>