<svg width="130" height="87" viewBox="0 0 130 87" fill="none" xmlns="http://www.w3.org/2000/svg">
<path d="M121.233 85.3052C124.272 78.1592 125.918 70.4987 126.083 62.7352C127.183 65.5752 127.943 68.8552 129.453 71.2052C129.605 70.8905 129.703 70.5524 129.743 70.2052C129.359 58.4014 126.313 46.837 120.833 36.3752C116.179 25.9021 108.679 16.945 99.1875 10.5221C89.6955 4.0993 78.5919 0.468454 67.139 0.0423819C55.6861 -0.38369 44.3434 2.4121 34.4004 8.11192C24.4575 13.8117 16.3132 22.1869 10.8934 32.2852C6.56426 39.4315 3.49623 47.2691 1.82341 55.4552C0.983412 60.6252 -0.476586 66.0152 0.153414 71.2252C1.77341 69.2252 2.22341 65.4952 3.47341 62.9152C3.57341 64.0952 3.70341 65.2752 3.85341 66.4352C4.3358 72.1849 5.62859 77.8375 7.69341 83.2252C7.99341 84.1652 8.30341 85.1052 8.63341 86.0352C10.2034 89.1252 21.1034 76.7152 21.7634 74.6152C22.7034 75.8852 22.4134 83.7952 24.4034 82.3652C35.5734 68.2152 45.2334 52.5452 51.7334 35.6952C53.2706 50.6531 57.47 65.2156 64.1334 78.6952C64.1987 78.8234 64.2982 78.931 64.4208 79.0062C64.5435 79.0814 64.6845 79.1211 64.8284 79.1211C64.9723 79.1211 65.1133 79.0814 65.236 79.0062C65.3586 78.931 65.4581 78.8234 65.5234 78.6952C72.1579 65.239 76.3433 50.7089 77.8834 35.7852C83.6163 49.9899 91.0937 63.4264 100.143 75.7852C106.423 83.7852 106.013 85.7852 107.733 74.3952C109.179 76.6399 110.804 78.7636 112.593 80.7452C113.663 81.3952 119.853 88.5552 120.933 85.9352" fill="url(#paint0_linear_126_9)"/>
<defs>
<linearGradient id="paint0_linear_126_9" x1="64.8834" y1="86.5552" x2="64.8834" y2="0.0152265" gradientUnits="userSpaceOnUse">
    <stop stop-color="#ee8363"/>
    <stop offset="0.14" stop-color="#e87051"/>
    <stop offset="0.35" stop-color="#e25d3e"/>
    <stop offset="0.6" stop-color="#de5234"/>
    <stop offset="1" stop-color="#dd4e30"/>
    </linearGradient>
</defs>
</svg>
