<svg xmlns="http://www.w3.org/2000/svg" xmlns:xlink="http://www.w3.org/1999/xlink" viewBox="0 0 481.49 307.77"><defs><style>.cls-1{fill:url(#linear-gradient);}.cls-2{fill:url(#linear-gradient-2);}.cls-3{fill:url(#linear-gradient-3);}.cls-4{fill:#c10505;}.cls-5{fill:url(#linear-gradient-4);}.cls-6{fill:url(#linear-gradient-5);}.cls-7{fill:url(#linear-gradient-6);}.cls-8{fill:url(#linear-gradient-7);}.cls-9{fill:url(#linear-gradient-8);}.cls-10{fill:url(#linear-gradient-9);}.cls-11{fill:url(#linear-gradient-10);}.cls-12{fill:url(#linear-gradient-11);}.cls-13{fill:url(#linear-gradient-12);}.cls-14{fill:url(#linear-gradient-13);}.cls-15{fill:url(#linear-gradient-14);}.cls-16{fill:url(#linear-gradient-15);}.cls-17{fill:url(#linear-gradient-16);}.cls-18{fill:url(#linear-gradient-17);}.cls-19{fill:url(#linear-gradient-18);}.cls-20{fill:url(#linear-gradient-19);}.cls-21{fill:url(#linear-gradient-20);}.cls-22{fill:url(#linear-gradient-21);}.cls-23{fill:url(#linear-gradient-22);}.cls-24{fill:url(#linear-gradient-23);}.cls-25{fill:url(#linear-gradient-24);}.cls-26{fill:url(#linear-gradient-25);}.cls-27{fill:url(#linear-gradient-26);}.cls-28{fill:url(#linear-gradient-27);}.cls-29{fill:url(#linear-gradient-28);}.cls-30{fill:url(#linear-gradient-29);}.cls-31{fill:url(#linear-gradient-30);}.cls-32{fill:url(#linear-gradient-31);}.cls-33{fill:url(#linear-gradient-32);}.cls-34{fill:url(#linear-gradient-33);}.cls-35{fill:url(#linear-gradient-34);}.cls-36{fill:url(#linear-gradient-35);}.cls-37{fill:url(#linear-gradient-36);}.cls-38{fill:url(#linear-gradient-37);}.cls-39{fill:url(#linear-gradient-38);}.cls-40{fill:url(#linear-gradient-39);}.cls-41{fill:url(#linear-gradient-40);}.cls-42{fill:url(#linear-gradient-41);}.cls-43{fill:url(#linear-gradient-42);}.cls-44{fill:url(#linear-gradient-43);}.cls-45{fill:url(#linear-gradient-44);}.cls-46{fill:url(#linear-gradient-45);}.cls-47{fill:url(#linear-gradient-46);}.cls-48{fill:url(#linear-gradient-47);}.cls-49{fill:url(#linear-gradient-48);}.cls-50{fill:url(#linear-gradient-49);}</style><linearGradient id="linear-gradient" x1="401.96" y1="172.96" x2="401.96" y2="230.33" gradientUnits="userSpaceOnUse"><stop offset="0.36" stop-color="#f7f7f7"/><stop offset="0.71" stop-color="#f5f6f6"/><stop offset="0.84" stop-color="#eef2f4"/><stop offset="0.93" stop-color="#e3ebf0"/><stop offset="1" stop-color="#d3e2ea"/></linearGradient><linearGradient id="linear-gradient-2" x1="402.1" y1="168.09" x2="402.1" y2="177.52" gradientUnits="userSpaceOnUse"><stop offset="0.48" stop-color="#f7f7f7"/><stop offset="0.76" stop-color="#e5edf1"/><stop offset="1" stop-color="#d3e2ea"/></linearGradient><linearGradient id="linear-gradient-3" x1="465.26" y1="257.69" x2="465.26" y2="279.15" gradientUnits="userSpaceOnUse"><stop offset="0" stop-color="#c10505"/><stop offset="0.35" stop-color="#c60505"/><stop offset="0.77" stop-color="#d50606"/><stop offset="1" stop-color="#e00707"/></linearGradient><linearGradient id="linear-gradient-4" x1="455.52" y1="182.52" x2="455.52" y2="269.84" gradientUnits="userSpaceOnUse"><stop offset="0" stop-color="#ff4d4d"/><stop offset="0.21" stop-color="#f53636"/><stop offset="0.51" stop-color="#e91c1c"/><stop offset="0.79" stop-color="#e20d0d"/><stop offset="1" stop-color="#e00707"/></linearGradient><linearGradient id="linear-gradient-5" x1="545.15" y1="257.58" x2="545.15" y2="279.03" gradientTransform="matrix(-1, 0, 0, 1, 883.81, 0)" xlink:href="#linear-gradient-3"/><linearGradient id="linear-gradient-6" x1="535.41" y1="182.52" x2="535.41" y2="269.84" gradientTransform="matrix(-1, 0, 0, 1, 883.81, 0)" xlink:href="#linear-gradient-4"/><linearGradient id="linear-gradient-7" x1="401.89" y1="174.13" x2="401.89" y2="297.27" gradientUnits="userSpaceOnUse"><stop offset="0" stop-color="#ff4d4d"/><stop offset="0.21" stop-color="#fc4646"/><stop offset="0.52" stop-color="#f33232"/><stop offset="0.9" stop-color="#e41111"/><stop offset="1" stop-color="#e00707"/></linearGradient><linearGradient id="linear-gradient-8" x1="401.88" y1="288.4" x2="401.88" y2="307.77" gradientUnits="userSpaceOnUse"><stop offset="0" stop-color="#c10505"/><stop offset="0.37" stop-color="#c50505"/><stop offset="0.71" stop-color="#d00606"/><stop offset="1" stop-color="#e00707"/></linearGradient><linearGradient id="linear-gradient-9" x1="401.96" y1="173.75" x2="401.96" y2="238.73" gradientUnits="userSpaceOnUse"><stop offset="0" stop-color="#c10505"/><stop offset="0.51" stop-color="#cf0606"/><stop offset="1" stop-color="#e00707"/></linearGradient><linearGradient id="linear-gradient-10" x1="401.96" y1="4.87" x2="401.96" y2="62.24" xlink:href="#linear-gradient"/><linearGradient id="linear-gradient-11" x1="402.1" y1="0" x2="402.1" y2="9.43" xlink:href="#linear-gradient-2"/><linearGradient id="linear-gradient-12" x1="465.26" y1="89.6" x2="465.26" y2="111.06" xlink:href="#linear-gradient-3"/><linearGradient id="linear-gradient-13" x1="455.52" y1="14.43" x2="455.52" y2="101.75" xlink:href="#linear-gradient-4"/><linearGradient id="linear-gradient-14" x1="545.15" y1="89.49" x2="545.15" y2="110.94" gradientTransform="matrix(-1, 0, 0, 1, 883.81, 0)" xlink:href="#linear-gradient-3"/><linearGradient id="linear-gradient-15" x1="535.41" y1="14.43" x2="535.41" y2="101.75" gradientTransform="matrix(-1, 0, 0, 1, 883.81, 0)" xlink:href="#linear-gradient-4"/><linearGradient id="linear-gradient-16" x1="401.96" y1="6.05" x2="401.96" y2="129.3" xlink:href="#linear-gradient-7"/><linearGradient id="linear-gradient-17" x1="401.94" y1="120.31" x2="401.94" y2="139.68" xlink:href="#linear-gradient-8"/><linearGradient id="linear-gradient-18" x1="401.96" y1="5.66" x2="401.96" y2="70.64" xlink:href="#linear-gradient-9"/><linearGradient id="linear-gradient-19" x1="46.47" y1="6.02" x2="46.47" y2="7.61" gradientUnits="userSpaceOnUse"><stop offset="0" stop-color="#ff4d4d"/><stop offset="0.48" stop-color="#fe4b4b"/><stop offset="0.66" stop-color="#fb4444"/><stop offset="0.78" stop-color="#f63939"/><stop offset="0.88" stop-color="#ee2828"/><stop offset="0.97" stop-color="#e51212"/><stop offset="1" stop-color="#e00707"/></linearGradient><linearGradient id="linear-gradient-20" x1="63.84" y1="6.02" x2="63.84" y2="129.21" gradientUnits="userSpaceOnUse"><stop offset="0.48" stop-color="#f7f7f7"/><stop offset="0.66" stop-color="#f0f3f4"/><stop offset="0.92" stop-color="#dbe7ed"/><stop offset="1" stop-color="#d3e2ea"/></linearGradient><linearGradient id="linear-gradient-21" x1="63.78" y1="6.02" x2="63.78" y2="27.98" gradientUnits="userSpaceOnUse"><stop offset="0.5" stop-color="#f7f7f7"/><stop offset="0.7" stop-color="#ecf1f3"/><stop offset="1" stop-color="#d3e2ea"/></linearGradient><linearGradient id="linear-gradient-22" x1="13.15" y1="12.72" x2="13.15" y2="71.27" gradientUnits="userSpaceOnUse"><stop offset="0" stop-color="#ff4d4d"/><stop offset="0.26" stop-color="#fd4a4a"/><stop offset="0.49" stop-color="#f93f3f"/><stop offset="0.71" stop-color="#f12d2d"/><stop offset="0.91" stop-color="#e61414"/><stop offset="1" stop-color="#e00707"/></linearGradient><linearGradient id="linear-gradient-23" x1="31.28" y1="3.76" x2="31.28" y2="135.92" gradientUnits="userSpaceOnUse"><stop offset="0" stop-color="#ff4d4d"/><stop offset="0.21" stop-color="#fc4646"/><stop offset="0.51" stop-color="#f43434"/><stop offset="0.85" stop-color="#e71616"/><stop offset="1" stop-color="#e00707"/></linearGradient><linearGradient id="linear-gradient-24" x1="43.47" y1="12.72" x2="43.47" y2="71.27" gradientTransform="matrix(-1, 0, 0, 1, 157.57, 0)" xlink:href="#linear-gradient-22"/><linearGradient id="linear-gradient-25" x1="61.6" y1="3.76" x2="61.6" y2="135.92" gradientTransform="matrix(-1, 0, 0, 1, 157.57, 0)" xlink:href="#linear-gradient-23"/><linearGradient id="linear-gradient-26" x1="46.47" y1="174.15" x2="46.47" y2="175.74" xlink:href="#linear-gradient-19"/><linearGradient id="linear-gradient-27" x1="63.84" y1="174.15" x2="63.84" y2="297.34" xlink:href="#linear-gradient-20"/><linearGradient id="linear-gradient-28" x1="63.78" y1="174.15" x2="63.78" y2="196.11" xlink:href="#linear-gradient-21"/><linearGradient id="linear-gradient-29" x1="13.15" y1="180.85" x2="13.15" y2="239.4" xlink:href="#linear-gradient-22"/><linearGradient id="linear-gradient-30" x1="43.47" y1="180.85" x2="43.47" y2="239.4" gradientTransform="matrix(-1, 0, 0, 1, 157.57, 0)" xlink:href="#linear-gradient-22"/><linearGradient id="linear-gradient-31" x1="31.52" y1="171.85" x2="31.52" y2="304.01" xlink:href="#linear-gradient-19"/><linearGradient id="linear-gradient-32" x1="-372.84" y1="171.85" x2="-372.84" y2="304.01" gradientTransform="matrix(-1, 0, 0, 1, -277.2, 0)" xlink:href="#linear-gradient-19"/><linearGradient id="linear-gradient-33" x1="225.51" y1="25.97" x2="225.51" y2="16.83" gradientUnits="userSpaceOnUse"><stop offset="0.36" stop-color="#f7f7f7"/><stop offset="1" stop-color="#d3e2ea"/></linearGradient><linearGradient id="linear-gradient-34" x1="169.96" y1="16.8" x2="169.96" y2="95.57" xlink:href="#linear-gradient-33"/><linearGradient id="linear-gradient-35" x1="4.18" y1="16.8" x2="4.18" y2="95.57" gradientTransform="matrix(-1, 0, 0, 1, 285.12, 0)" xlink:href="#linear-gradient-33"/><linearGradient id="linear-gradient-36" x1="187.73" y1="56.53" x2="176.04" y2="56.53" gradientUnits="userSpaceOnUse"><stop offset="0" stop-color="#c10505"/><stop offset="0.08" stop-color="#c90606"/><stop offset="0.26" stop-color="#d60606"/><stop offset="0.5" stop-color="#de0707"/><stop offset="1" stop-color="#e00707"/></linearGradient><linearGradient id="linear-gradient-37" x1="45.22" y1="56.53" x2="33.53" y2="56.53" gradientTransform="matrix(-1, 0, 0, 1, 308.39, 0)" xlink:href="#linear-gradient-36"/><linearGradient id="linear-gradient-38" x1="225.45" y1="5.46" x2="225.45" y2="128.52" xlink:href="#linear-gradient-19"/><linearGradient id="linear-gradient-39" x1="225.14" y1="119.22" x2="225.14" y2="138.59" xlink:href="#linear-gradient-8"/><linearGradient id="linear-gradient-40" x1="225.45" y1="5.46" x2="225.45" y2="35.07" gradientUnits="userSpaceOnUse"><stop offset="0" stop-color="#c10505"/><stop offset="0.59" stop-color="#d70606"/><stop offset="1" stop-color="#e00707"/></linearGradient><linearGradient id="linear-gradient-41" x1="225.47" y1="1.09" x2="225.47" y2="29.37" gradientUnits="userSpaceOnUse"><stop offset="0.36" stop-color="#f7f7f7"/><stop offset="0.57" stop-color="#f2f4f5"/><stop offset="0.8" stop-color="#e5ecf0"/><stop offset="1" stop-color="#d3e2ea"/></linearGradient><linearGradient id="linear-gradient-42" x1="225.51" y1="199.06" x2="225.51" y2="189.92" xlink:href="#linear-gradient-33"/><linearGradient id="linear-gradient-43" x1="169.96" y1="189.89" x2="169.96" y2="268.65" xlink:href="#linear-gradient-33"/><linearGradient id="linear-gradient-44" x1="4.18" y1="189.89" x2="4.18" y2="268.65" gradientTransform="matrix(-1, 0, 0, 1, 285.12, 0)" xlink:href="#linear-gradient-33"/><linearGradient id="linear-gradient-45" x1="189.14" y1="228.7" x2="176.04" y2="228.7" xlink:href="#linear-gradient-36"/><linearGradient id="linear-gradient-46" x1="47.75" y1="228.7" x2="34.65" y2="228.7" gradientTransform="matrix(-1, 0, 0, 1, 309.55, 0)" xlink:href="#linear-gradient-36"/><linearGradient id="linear-gradient-47" x1="225.45" y1="178.43" x2="225.45" y2="301.68" xlink:href="#linear-gradient-19"/><linearGradient id="linear-gradient-48" x1="225.45" y1="178.31" x2="225.45" y2="207.92" xlink:href="#linear-gradient-40"/><linearGradient id="linear-gradient-49" x1="225.47" y1="174.18" x2="225.47" y2="202.46" xlink:href="#linear-gradient-41"/></defs><g id="Layer_2" data-name="Layer 2"><g id="Layer_1-2" data-name="Layer 1"><path class="cls-1" d="M426.51,175.27,419,225.49l-17,4.83h-.05l-17-4.83-7.53-50.22s6,.7,9.49-2.31c5.33,3.76,15.64,7.93,30.41.23C420.81,175.94,426.51,175.27,426.51,175.27Z"/><path class="cls-2" d="M417.3,173.19c-14.77,7.7-25.08,3.53-30.41-.23a7,7,0,0,0,2.36-4.87,31.67,31.67,0,0,0,25.41,0A7,7,0,0,0,417.3,173.19Z"/><path class="cls-3" d="M481.36,266.14h0c-.21,1.29-1.29,2.72-2.93,4.15-.26.23-.54.46-.84.7a36.12,36.12,0,0,1-5.63,3.54l-.91.46a49.3,49.3,0,0,1-5.64,2.34l-1,.32a31.64,31.64,0,0,1-6.33,1.4c-.35,0-.69.06-1,.07a7.93,7.93,0,0,1-4.45-.82v0c-1.7-.89-2.33-3.51-3.62-8.79a14.56,14.56,0,0,0,5.23.16c.33,0,.67-.08,1-.13a41.24,41.24,0,0,0,6.28-1.58l.95-.32a54.16,54.16,0,0,0,5.65-2.33c.31-.14.61-.28.91-.44a46,46,0,0,0,5.7-3.32c.29-.2.58-.4.86-.62a19.39,19.39,0,0,0,3.56-3.23C480.93,261.89,481.85,265,481.36,266.14Z"/><path class="cls-4" d="M458.13,279.06c-.35,0-.69.06-1,.07l-2.85-9.47c.33,0,.67-.08,1-.13Z"/><path class="cls-4" d="M465.42,277.34l-1,.32L461.55,268l.95-.32Z"/><path class="cls-4" d="M472,274.54l-.91.46-2.91-9.7c.31-.14.61-.28.91-.44Z"/><path class="cls-4" d="M478.44,270.3c-.26.23-.54.46-.84.7l-2.84-9.46c.29-.2.58-.4.86-.62Z"/><path class="cls-5" d="M480.74,254.78s0,0,0,0c-1.2,7.3-26.24,18.38-33.23,14.07v0c-3.42-1.8-3.11-9.62-9.52-29.09-5.71-18.7-15.8-52.08,3.1-57.24l0,.11c3.7,1.72,5.13,4.32,9.6,10.82a0,0,0,0,0,0,0C454.2,199,483.24,249,480.74,254.78Z"/><path class="cls-6" d="M322.55,266s0,0,0,0c.21,1.29,1.29,2.72,2.93,4.15.26.23.54.46.84.7a36.12,36.12,0,0,0,5.63,3.54l.91.46a49.3,49.3,0,0,0,5.64,2.34l1,.32a31.64,31.64,0,0,0,6.33,1.4c.35,0,.69.06,1,.07a7.93,7.93,0,0,0,4.45-.82v0c1.7-.89,2.33-3.51,3.62-8.79a14.56,14.56,0,0,1-5.23.16c-.33,0-.67-.08-1-.13a41.24,41.24,0,0,1-6.28-1.58l-.95-.32a54.16,54.16,0,0,1-5.65-2.33c-.31-.14-.61-.28-.91-.44a46,46,0,0,1-5.7-3.32c-.29-.2-.58-.4-.86-.62a19.39,19.39,0,0,1-3.56-3.23C323,261.78,322.06,264.89,322.55,266Z"/><path class="cls-4" d="M345.78,279c.35,0,.69.06,1,.07l2.85-9.47c-.33,0-.67-.08-1-.13Z"/><path class="cls-4" d="M338.49,277.23l1,.32,2.91-9.71-.95-.32Z"/><path class="cls-4" d="M331.94,274.43l.91.46,2.91-9.7c-.31-.14-.61-.28-.91-.44Z"/><path class="cls-4" d="M325.47,270.19c.26.23.54.46.84.7l2.84-9.46c-.29-.2-.58-.4-.86-.62Z"/><path class="cls-7" d="M323.17,254.78s0,0,0,0c1.2,7.3,26.25,18.38,33.23,14.07v0c3.42-1.8,3.11-9.62,9.52-29.09,5.71-18.7,15.8-52.08-3.1-57.24l0,.11c-3.7,1.72-5.13,4.32-9.59,10.82a0,0,0,0,1,0,0C349.71,199,320.67,249,323.17,254.78Z"/><path class="cls-8" d="M438.83,290.93c-9.14,3.21-19.82,6.56-36.94,6.33-17.11.23-27.8-3.12-36.93-6.33-10.7-3.76-9.06-5.2-8-10.5s2.51-9.73,5.3-31.4.54-65.63.47-66.46,2.17-4.44,9.68-6.57c.61-.18,1.33-.34,2.12-.51l.58-.12,1.11-.22c2-.36,4.35-.71,6.78-1l.06,0a1.44,1.44,0,0,1,.69,1.06c.27,1.95.62,4.25,1.1,6.79.09.49.19,1,.29,1.52.41,2.07.89,4.28,1.46,6.59.12.49.25,1,.38,1.5.6,2.32,1.29,4.72,2.08,7.15.16.49.33,1,.5,1.48.84,2.47,1.79,5,2.86,7.45.2.47.41,1,.63,1.42,1,2.18,2.06,4.33,3.25,6.43q.38.69.78,1.35,1.25,2.11,2.64,4.11c.32.46.64.9,1,1.34l.13.17a1.41,1.41,0,0,0,.35.34,1.53,1.53,0,0,0,1.57.13,1.63,1.63,0,0,0,.56-.46l0-.06c.33-.44.65-.88,1-1.33.94-1.34,1.83-2.73,2.68-4.15.26-.45.52-.9.77-1.35,1.2-2.1,2.28-4.26,3.27-6.45.21-.47.42-.94.62-1.42,1.08-2.48,2-5,2.88-7.46.16-.49.33-1,.49-1.47.79-2.44,1.49-4.84,2.09-7.16.13-.51.26-1,.38-1.51.57-2.31,1.06-4.53,1.47-6.61.1-.51.2-1,.29-1.51.48-2.59.84-4.92,1.11-6.89a1.62,1.62,0,0,1,.56-1c2.39.31,4.69.65,6.66,1l.22,0c.74.14,1.44.29,2.07.43s1.06.25,1.52.38c7.51,2.13,9.75,5.74,9.68,6.57s-2.32,44.78.47,66.46,4.24,26.1,5.3,31.4S449.52,287.17,438.83,290.93Z"/><path class="cls-9" d="M438.76,301.22l-.95.34-.19.07c-3.48,1.22-7.18,2.47-11.41,3.51l-1,.24a89,89,0,0,1-15,2.18l-1,.06c-2.32.12-4.78.17-7.4.14-3.08,0-5.94,0-8.62-.22l-1-.07a87.92,87.92,0,0,1-14.15-2.19l-1-.24c-4.05-1-7.62-2.23-11-3.41l-1.47-.53-1-.36c-7.66-3-6.26-4.58-5.32-9.27.2-1,.42-2,.66-3.06a40.32,40.32,0,0,0,5.89,2.47l.37.13,1,.33a111.86,111.86,0,0,0,12.21,3.58l1,.22A92.7,92.7,0,0,0,393,297l1,.06c2.46.13,5.06.19,7.83.15,2.31,0,4.5,0,6.59-.09l1-.05a94.45,94.45,0,0,0,14.39-1.84l1-.21a107.34,107.34,0,0,0,11.35-3.23c.33-.11.65-.22,1-.34l1.66-.57a39.06,39.06,0,0,0,5.89-2.48c.24,1.08.46,2.06.66,3.07C446.35,296.4,447.84,297.88,438.76,301.22Z"/><path class="cls-4" d="M366.27,291.34l-1.61,9.76-1-.36,1.6-9.73Z"/><path class="cls-4" d="M379.46,295.14l-1.37,10.14-1-.24,1.37-10.12Z"/><path class="cls-4" d="M394,297.06l-.79,10.48-1-.07L393,297Z"/><path class="cls-4" d="M438.76,301.22l-.95.34-1.62-9.77c.33-.11.65-.22,1-.34Z"/><path class="cls-4" d="M426.21,305.14l-1,.24-1.38-10.15,1-.21Z"/><path class="cls-4" d="M410.27,307.56l-1,.06-.81-10.5,1-.05Z"/><path class="cls-10" d="M429.87,175.65a1,1,0,0,1,0,.24c-.23,2.28-.59,5.11-1.17,8.38-.09.49-.18,1-.29,1.52-.44,2.33-1,4.85-1.69,7.52q-.18.75-.39,1.5c-.68,2.49-1.47,5.08-2.4,7.76-.17.49-.34,1-.52,1.46-1,2.67-2.07,5.41-3.33,8.19-.21.47-.43.94-.65,1.41-1.18,2.49-2.48,5-3.92,7.52l-.78,1.34c-1.44,2.42-3,4.84-4.72,7.23-.32.44-.64.89-1,1.33a92.41,92.41,0,0,1-5.9,7.19,1.27,1.27,0,0,1-.42.31,1.53,1.53,0,0,1-1.57-.06,2.11,2.11,0,0,1-.23-.19,83.24,83.24,0,0,1-6.23-6.93l-1-1.28q-2.75-3.57-5-7.22c-.28-.44-.54-.88-.81-1.32-1.5-2.51-2.84-5.05-4.05-7.56-.22-.47-.44-.94-.65-1.41-1.28-2.79-2.38-5.56-3.33-8.26-.18-.49-.34-1-.5-1.46-.91-2.71-1.67-5.34-2.3-7.86-.13-.51-.25-1-.37-1.51-.64-2.69-1.13-5.25-1.51-7.61l-.24-1.53c-.43-2.92-.69-5.5-.85-7.65a1.52,1.52,0,0,1,.46-1.19l0,0a1.54,1.54,0,0,1,.68-.36c.64-.15,1.24-.28,1.81-.38h0c1.55-.32,3.27-.59,5.05-.81a1.47,1.47,0,0,1,.93.2l.06,0a1.44,1.44,0,0,1,.69,1.06c.27,1.95.62,4.25,1.1,6.79.09.49.19,1,.29,1.52.41,2.07.89,4.28,1.46,6.59.12.49.25,1,.38,1.5.6,2.32,1.29,4.72,2.08,7.15.16.49.33,1,.5,1.48.84,2.47,1.79,5,2.86,7.45.2.47.41,1,.63,1.42,1,2.18,2.06,4.33,3.25,6.43q.38.69.78,1.35,1.25,2.11,2.64,4.11c.32.46.64.9,1,1.34l.13.17a1.41,1.41,0,0,0,.35.34,1.53,1.53,0,0,0,1.57.13,1.63,1.63,0,0,0,.56-.46l0-.06c.33-.44.65-.88,1-1.33.94-1.34,1.83-2.73,2.68-4.15.26-.45.52-.9.77-1.35,1.2-2.1,2.28-4.26,3.27-6.45.21-.47.42-.94.62-1.42,1.08-2.48,2-5,2.88-7.46.16-.49.33-1,.49-1.47.79-2.44,1.49-4.84,2.09-7.16.13-.51.26-1,.38-1.51.57-2.31,1.06-4.53,1.47-6.61.1-.51.2-1,.29-1.51.48-2.59.84-4.92,1.11-6.89a1.63,1.63,0,0,1,1.83-1.39l6.94,1.14a.91.91,0,0,1,.74.71A0,0,0,0,1,429.87,175.65Z"/><path class="cls-4" d="M385.14,183.53l-10,2.35-.24-1.53,10-2.34C384.94,182.5,385,183,385.14,183.53Z"/><path class="cls-4" d="M387,191.62,377,195c-.13-.51-.25-1-.37-1.51l10-3.37C386.72,190.61,386.85,191.11,387,191.62Z"/><path class="cls-4" d="M389.56,200.25l-9.74,4.07c-.18-.49-.34-1-.5-1.46l9.74-4.09C389.22,199.26,389.39,199.76,389.56,200.25Z"/><path class="cls-4" d="M393.05,209.12,383.8,214c-.22-.47-.44-.94-.65-1.41l9.27-4.88C392.62,208.17,392.83,208.65,393.05,209.12Z"/><path class="cls-4" d="M397.08,216.9l-8.42,6c-.28-.44-.54-.88-.81-1.32l8.45-6Q396.68,216.24,397.08,216.9Z"/><path class="cls-4" d="M400.68,222.35l-6,9-1-1.28,6.06-9.08C400,221.47,400.36,221.91,400.68,222.35Z"/><path class="cls-4" d="M402.73,223l0,15.56a1.53,1.53,0,0,1-1.57-.06l0-15.63A1.53,1.53,0,0,0,402.73,223Z"/><path class="cls-4" d="M428.7,184.27c-.09.49-.18,1-.29,1.52L419,183.56c.1-.51.2-1,.29-1.51Z"/><path class="cls-4" d="M426.72,193.31q-.18.75-.39,1.5l-9.23-3.13c.13-.51.26-1,.38-1.51Z"/><path class="cls-4" d="M423.93,202.57c-.17.49-.34,1-.52,1.46l-8.89-3.72c.16-.49.33-1,.49-1.47Z"/><path class="cls-4" d="M420.08,212.22c-.21.47-.43.94-.65,1.41L411,209.19c.21-.47.42-.94.62-1.42Z"/><path class="cls-4" d="M415.51,221.15l-.78,1.34L407,217c.26-.45.52-.9.77-1.35Z"/><path class="cls-4" d="M410,229.72c-.32.44-.64.89-1,1.33l-5.7-8.58c.33-.44.65-.88,1-1.33Z"/><path class="cls-11" d="M426.51,7.18,419,57.4l-17,4.83h-.05l-17-4.83L377.4,7.18s6,.7,9.49-2.31c5.33,3.76,15.64,7.93,30.41.23C420.81,7.85,426.51,7.18,426.51,7.18Z"/><path class="cls-12" d="M417.3,5.1c-14.77,7.7-25.08,3.53-30.41-.23A7,7,0,0,0,389.25,0,33.72,33.72,0,0,0,402,2.66,33.81,33.81,0,0,0,414.66,0,7,7,0,0,0,417.3,5.1Z"/><path class="cls-13" d="M481.36,98.05s0,0,0,0c-.21,1.29-1.29,2.72-2.93,4.15-.26.23-.54.46-.84.7a36.12,36.12,0,0,1-5.63,3.54l-.91.46a49.3,49.3,0,0,1-5.64,2.34l-1,.32a31.64,31.64,0,0,1-6.33,1.4c-.35,0-.69.06-1,.07a7.93,7.93,0,0,1-4.45-.82s0,0,0,0c-1.7-.89-2.33-3.51-3.62-8.79a14.56,14.56,0,0,0,5.23.16c.33,0,.67-.08,1-.13a41.24,41.24,0,0,0,6.28-1.58l.95-.32a54.16,54.16,0,0,0,5.65-2.33c.31-.14.61-.28.91-.44a46,46,0,0,0,5.7-3.32c.29-.2.58-.4.86-.62a19.39,19.39,0,0,0,3.56-3.23C480.93,93.8,481.85,96.91,481.36,98.05Z"/><path class="cls-4" d="M458.13,111c-.35,0-.69.06-1,.07l-2.85-9.47c.33,0,.67-.08,1-.13Z"/><path class="cls-4" d="M465.42,109.25l-1,.32-2.91-9.71.95-.32Z"/><path class="cls-4" d="M472,106.45l-.91.46-2.91-9.7c.31-.14.61-.28.91-.44Z"/><path class="cls-4" d="M478.44,102.21c-.26.23-.54.46-.84.7l-2.84-9.46c.29-.2.58-.4.86-.62Z"/><path class="cls-14" d="M480.74,86.69s0,0,0,0c-1.2,7.3-26.24,18.38-33.23,14.07,0,0,0,0,0,0-3.42-1.8-3.11-9.62-9.52-29.09-5.71-18.7-15.8-52.08,3.1-57.24l0,.11c3.7,1.72,5.13,4.32,9.6,10.82a0,0,0,0,0,0,0C454.2,31,483.24,80.92,480.74,86.69Z"/><path class="cls-15" d="M322.55,97.94s0,0,0,0c.21,1.29,1.29,2.72,2.93,4.15.26.23.54.46.84.7a36.12,36.12,0,0,0,5.63,3.54l.91.46a49.3,49.3,0,0,0,5.64,2.34l1,.32a31.64,31.64,0,0,0,6.33,1.4c.35,0,.69.06,1,.07a7.93,7.93,0,0,0,4.45-.82s0,0,0,0c1.7-.89,2.33-3.51,3.62-8.79a14.56,14.56,0,0,1-5.23.16c-.33,0-.67-.08-1-.13a41.24,41.24,0,0,1-6.28-1.58l-.95-.32a54.16,54.16,0,0,1-5.65-2.33c-.31-.14-.61-.28-.91-.44a46,46,0,0,1-5.7-3.32c-.29-.2-.58-.4-.86-.62a19.39,19.39,0,0,1-3.56-3.23C323,93.69,322.06,96.8,322.55,97.94Z"/><path class="cls-4" d="M345.78,110.86c.35,0,.69.06,1,.07l2.85-9.47c-.33,0-.67-.08-1-.13Z"/><path class="cls-4" d="M338.49,109.14l1,.32,2.91-9.71-.95-.32Z"/><path class="cls-4" d="M331.94,106.34l.91.46,2.91-9.7c-.31-.14-.61-.28-.91-.44Z"/><path class="cls-4" d="M325.47,102.1c.26.23.54.46.84.7l2.84-9.46c-.29-.2-.58-.4-.86-.62Z"/><path class="cls-16" d="M323.17,86.69s0,0,0,0c1.2,7.3,26.25,18.38,33.23,14.07,0,0,0,0,0,0,3.42-1.8,3.11-9.62,9.52-29.09,5.71-18.7,15.8-52.08-3.1-57.24l0,.11c-3.7,1.72-5.13,4.32-9.59,10.82a0,0,0,0,1,0,0C349.71,31,320.67,80.92,323.17,86.69Z"/><path class="cls-17" d="M444.86,120.72a17.59,17.59,0,0,1-4.09,1.78c-1.13.47-2.29.91-3.48,1.31-.32.13-.64.24-1,.34a88.53,88.53,0,0,1-11.39,3q-.49.11-1,.18a115.4,115.4,0,0,1-14.4,1.76l-1,.05a126.45,126.45,0,0,1-14.44,0l-1-.07a109.08,109.08,0,0,1-13.6-1.73c-.33,0-.66-.11-1-.18a81.92,81.92,0,0,1-12-3.34l-.25-.06-1-.27a20.65,20.65,0,0,1-6.27-2.69c-5-3.45-4-8.62-1.86-16.62.12-1,.28-2.5.46-4.47,1.62-17.27,5.25-68.74,5.08-85.06V14.5c1.26-3.79,7.2-6,11.8-7.08.58-.13,1.13-.24,1.65-.34h0a60.46,60.46,0,0,1,6.9-1,1.44,1.44,0,0,1,.69,1.06c.27,2,.62,4.25,1.1,6.79.09.49.19,1,.29,1.52.41,2.07.89,4.28,1.46,6.59.12.49.25,1,.38,1.5.6,2.32,1.29,4.72,2.08,7.15.16.49.33,1,.5,1.48.84,2.47,1.79,5,2.86,7.45.2.47.41,1,.63,1.42,1,2.18,2.06,4.33,3.25,6.43q.38.69.78,1.35,1.25,2.11,2.64,4.11c.32.46.64.9,1,1.34l.13.17a1.41,1.41,0,0,0,.35.34,1.53,1.53,0,0,0,1.57.13,1.63,1.63,0,0,0,.56-.46l0-.06c.33-.44.65-.88,1-1.33.94-1.34,1.83-2.73,2.68-4.15.26-.45.52-.9.77-1.35,1.2-2.1,2.28-4.26,3.27-6.45.21-.47.42-.94.62-1.42,1.08-2.48,2-5,2.88-7.46.16-.49.33-1,.49-1.47.79-2.44,1.49-4.84,2.09-7.16.13-.51.26-1,.38-1.51.57-2.31,1.06-4.53,1.47-6.61.1-.51.2-1,.29-1.51.48-2.59.84-4.92,1.11-6.89a1.62,1.62,0,0,1,.56-1c2.26.31,4.53.6,6.73,1a.88.88,0,0,1,.16,0c.65.13,1.35.28,2.07.46,4.49,1.1,9.92,3.24,11.21,6.88,0,0,0,0,0,.06-.19,16.26,3.43,67.45,5,85,.19,2.05.35,3.64.48,4.66C447.92,111.25,450.92,117,444.86,120.72Z"/><path class="cls-18" d="M438.83,133.13l-.95.34-.19.07c-3.48,1.22-7.18,2.47-11.41,3.51l-1,.24a89,89,0,0,1-15,2.18l-1,.06c-2.32.12-4.78.17-7.4.14-3.08,0-5.94,0-8.62-.22l-1-.07a87.92,87.92,0,0,1-14.15-2.19l-1-.24c-4.05-1-7.62-2.23-11-3.41l-1.47-.53-1-.36c-7.66-3-6.26-4.58-5.32-9.27.2-1,.42-2,.66-3.06a40.32,40.32,0,0,0,5.89,2.47l.37.13,1,.33a111.86,111.86,0,0,0,12.21,3.58l1,.22a92.7,92.7,0,0,0,13.58,1.86l1,.06c2.46.13,5.06.19,7.83.15,2.31,0,4.5,0,6.59-.09l1-.05a94.45,94.45,0,0,0,14.39-1.84l1-.21a107.34,107.34,0,0,0,11.35-3.23c.33-.11.65-.22,1-.34l1.66-.57a39.06,39.06,0,0,0,5.89-2.48c.24,1.08.46,2.06.66,3.07C446.42,128.31,447.91,129.79,438.83,133.13Z"/><path class="cls-4" d="M366.34,123.25,364.73,133l-1-.36,1.6-9.73Z"/><path class="cls-4" d="M379.53,127.05l-1.37,10.14-1-.24,1.37-10.12Z"/><path class="cls-4" d="M394.11,129l-.79,10.48-1-.07.8-10.47Z"/><path class="cls-4" d="M438.83,133.13l-.95.34-1.62-9.77c.33-.11.65-.22,1-.34Z"/><path class="cls-4" d="M426.28,137.05l-1,.24-1.38-10.15,1-.21Z"/><path class="cls-4" d="M410.34,139.47l-1,.06-.81-10.5,1-.05Z"/><path class="cls-19" d="M429.87,7.56a1,1,0,0,1,0,.24c-.23,2.28-.59,5.11-1.17,8.38-.09.49-.18,1-.29,1.52-.44,2.33-1,4.85-1.69,7.52q-.18.75-.39,1.5c-.68,2.49-1.47,5.08-2.4,7.76-.17.49-.34,1-.52,1.46-1,2.67-2.07,5.41-3.33,8.19-.21.47-.43.94-.65,1.41-1.18,2.49-2.48,5-3.92,7.52l-.78,1.34c-1.44,2.42-3,4.84-4.72,7.23-.32.44-.64.89-1,1.33a92.41,92.41,0,0,1-5.9,7.19,1.27,1.27,0,0,1-.42.31,1.53,1.53,0,0,1-1.57-.06,2.11,2.11,0,0,1-.23-.19,83.24,83.24,0,0,1-6.23-6.93l-1-1.28q-2.75-3.57-5-7.22c-.28-.44-.54-.88-.81-1.32-1.5-2.51-2.84-5.05-4.05-7.56-.22-.47-.44-.94-.65-1.41-1.28-2.79-2.38-5.56-3.33-8.26-.18-.49-.34-1-.5-1.46-.91-2.71-1.67-5.34-2.3-7.86-.13-.51-.25-1-.37-1.51-.64-2.69-1.13-5.25-1.51-7.61l-.24-1.53c-.43-2.92-.69-5.5-.85-7.65a1.52,1.52,0,0,1,.46-1.19,1.5,1.5,0,0,1,.7-.38c.64-.15,1.24-.28,1.81-.38h0c1.55-.32,3.27-.59,5.05-.81a1.52,1.52,0,0,1,1,.23,1.44,1.44,0,0,1,.69,1.06c.27,2,.62,4.25,1.1,6.79.09.49.19,1,.29,1.52.41,2.07.89,4.28,1.46,6.59.12.49.25,1,.38,1.5.6,2.32,1.29,4.72,2.08,7.15.16.49.33,1,.5,1.48.84,2.47,1.79,5,2.86,7.45.2.47.41,1,.63,1.42,1,2.18,2.06,4.33,3.25,6.43q.38.69.78,1.35,1.25,2.11,2.64,4.11c.32.46.64.9,1,1.34l.13.17a1.41,1.41,0,0,0,.35.34,1.53,1.53,0,0,0,1.57.13,1.63,1.63,0,0,0,.56-.46l0-.06c.33-.44.65-.88,1-1.33.94-1.34,1.83-2.73,2.68-4.15.26-.45.52-.9.77-1.35,1.2-2.1,2.28-4.26,3.27-6.45.21-.47.42-.94.62-1.42,1.08-2.48,2-5,2.88-7.46.16-.49.33-1,.49-1.47.79-2.44,1.49-4.84,2.09-7.16.13-.51.26-1,.38-1.51.57-2.31,1.06-4.53,1.47-6.61.1-.51.2-1,.29-1.51.48-2.59.84-4.92,1.11-6.89a1.63,1.63,0,0,1,1.83-1.39l6.94,1.14A.91.91,0,0,1,429.87,7.56Z"/><path class="cls-4" d="M385.14,15.44l-10,2.35-.24-1.53,10-2.34C384.94,14.41,385,14.92,385.14,15.44Z"/><path class="cls-4" d="M387,23.53l-10,3.38c-.13-.51-.25-1-.37-1.51l10-3.37C386.72,22.52,386.85,23,387,23.53Z"/><path class="cls-4" d="M389.56,32.16l-9.74,4.07c-.18-.49-.34-1-.5-1.46l9.74-4.09C389.22,31.17,389.39,31.67,389.56,32.16Z"/><path class="cls-4" d="M393.05,41,383.8,45.9c-.22-.47-.44-.94-.65-1.41l9.27-4.88C392.62,40.08,392.83,40.56,393.05,41Z"/><path class="cls-4" d="M397.08,48.81l-8.42,6c-.28-.44-.54-.88-.81-1.32l8.45-6Q396.68,48.15,397.08,48.81Z"/><path class="cls-4" d="M400.68,54.26l-6,9-1-1.28,6.06-9.08C400,53.38,400.36,53.82,400.68,54.26Z"/><path class="cls-4" d="M402.73,54.9l0,15.56a1.53,1.53,0,0,1-1.57-.06l0-15.63A1.53,1.53,0,0,0,402.73,54.9Z"/><path class="cls-4" d="M428.7,16.18c-.09.49-.18,1-.29,1.52L419,15.47c.1-.51.2-1,.29-1.51Z"/><path class="cls-4" d="M426.72,25.22q-.18.75-.39,1.5l-9.23-3.13c.13-.51.26-1,.38-1.51Z"/><path class="cls-4" d="M423.93,34.48c-.17.49-.34,1-.52,1.46l-8.89-3.72c.16-.49.33-1,.49-1.47Z"/><path class="cls-4" d="M420.08,44.13c-.21.47-.43.94-.65,1.41L411,41.1c.21-.47.42-.94.62-1.42Z"/><path class="cls-4" d="M415.51,53.06l-.78,1.34L407,48.9c.26-.45.52-.9.77-1.35Z"/><path class="cls-4" d="M410,61.63c-.32.44-.64.89-1,1.33l-5.7-8.58c.33-.44.65-.88,1-1.33Z"/><path class="cls-20" d="M46.65,7.43q-.24-.69-.42-1.41h0q.21.83.48,1.59A1.34,1.34,0,0,1,46.65,7.43Z"/><path class="cls-21" d="M84.62,125.6l.16,2a141.57,141.57,0,0,1-41.87.18C44.23,95.39,45.74,48.58,46.58,22h0c.16-5.36.3-9.9.41-13.34A16.69,16.69,0,0,0,54.42,17l.1.06,0,0a6.36,6.36,0,0,0,.58.3h0a18.52,18.52,0,0,0,17.27-.57l.18-.1.6-.38h0a16.47,16.47,0,0,0,5.29-5.6v0l.18-.31c.12-.21.23-.42.34-.64s.13-.26.18-.4A18,18,0,0,0,80.4,6h.12l0,.45c.11,3.44.25,8,.41,13.34,0,.42,0,.84,0,1.27C81.84,47.9,83.32,93.76,84.62,125.6Z"/><path class="cls-22" d="M81,21.09A26.17,26.17,0,0,1,63.3,28h0a26.14,26.14,0,0,1-16.68-6h0c.16-5.36.3-9.9.41-13.34h0a17.86,17.86,0,0,0,7.53,8.46,17.87,17.87,0,0,0,18.68-.73h0a18,18,0,0,0,5.29-5.62,18.17,18.17,0,0,0,2-4.71h.07C80.66,9.92,80.81,15.48,81,21.09Z"/><path class="cls-23" d="M25,13s-.84-1.47-3.44,2.1S4.55,40.48,0,51.18c0,0,3.54,14.38,26.3,20.09Z"/><path class="cls-24" d="M18.68,102.17a1.13,1.13,0,0,1,0-.12c.5-4,1.58-17,2.66-32.23,1.49-21.21,3-46.57,2.87-57.16v-.11c-.62-1.76,7.15-6.86,13.43-7.41h0c2.49-.46,5.47-.88,8.51-1.25a0,0,0,0,1,0,0l1-.13L47.1,6.48c-.11,3.44-.25,8-.41,13.34C45.85,46.43,44.34,93.25,43,125.6l-.86,10.32c-22.24-1.84-26.83-12-26.83-12"/><path class="cls-25" d="M102.25,13s.84-1.47,3.45,2.1,17,25.36,21.56,36.06c0,0-3.55,14.38-26.31,20.09Z"/><path class="cls-26" d="M108.58,102.17a1.13,1.13,0,0,0,0-.12c-.5-4-1.58-17-2.66-32.23-1.49-21.21-3-46.57-2.87-57.16v-.11c.62-1.76-7.15-6.86-13.43-7.41h0c-2.49-.46-5.47-.88-8.51-1.25a0,0,0,0,0,0,0l-1-.13.13,2.72c.11,3.44.25,8,.41,13.34.84,26.61,2.35,73.43,3.67,105.78l.86,10.32c22.24-1.84,26.83-12,26.83-12"/><path class="cls-27" d="M46.65,175.56q-.24-.69-.42-1.41h0q.21.82.48,1.59A1.34,1.34,0,0,1,46.65,175.56Z"/><path class="cls-28" d="M84.62,293.73l.16,2a141.57,141.57,0,0,1-41.87.18c1.32-32.35,2.83-79.16,3.67-105.77h0c.16-5.36.3-9.9.41-13.34a16.69,16.69,0,0,0,7.43,8.4l.1.06,0,0a6.36,6.36,0,0,0,.58.3h0A18.52,18.52,0,0,0,72.42,185l.18-.1.6-.38h0a16.47,16.47,0,0,0,5.29-5.6v0l.18-.31c.12-.21.23-.42.34-.64s.13-.26.18-.4a18,18,0,0,0,1.19-3.36h.12l0,.45c.11,3.44.25,8,.41,13.34,0,.42,0,.84,0,1.27C81.84,216,83.32,261.89,84.62,293.73Z"/><path class="cls-29" d="M81,189.22A26.17,26.17,0,0,1,63.3,196.1h0a26.14,26.14,0,0,1-16.68-6h0c.16-5.36.3-9.9.41-13.34h0a17.69,17.69,0,0,0,26.21,7.73h0a18,18,0,0,0,5.29-5.62,18.17,18.17,0,0,0,2-4.71h.07C80.66,178.05,80.81,183.61,81,189.22Z"/><path class="cls-30" d="M25,181.15s-.84-1.47-3.44,2.1S4.55,208.61,0,219.31c0,0,3.54,14.38,26.3,20.09Z"/><path class="cls-31" d="M102.25,181.15s.84-1.47,3.45,2.1,17,25.36,21.56,36.06c0,0-3.55,14.38-26.31,20.09Z"/><path class="cls-32" d="M47.21,171.85C45.6,209.74,45.08,261.26,42.14,304c-18.25-1.51-24.62-8.65-26.31-11.16C19.44,272.79,19.74,278.12,24,247c2.6-20.17.83-59.65.51-65.68a2.94,2.94,0,0,1,.38-1.67c2.08-3.59,8.52-5.78,12.77-6.39h0c2.49-.45,5.5-.9,8.52-1.24Z"/><path class="cls-33" d="M80,171.85C81.56,209.74,82.08,261.26,85,304c18.25-1.51,24.62-8.65,26.31-11.16-3.61-20.06-3.91-14.73-8.15-45.88-2.6-20.17-.83-59.65-.51-65.68a3,3,0,0,0-.38-1.67c-2.08-3.59-8.53-5.78-12.77-6.39h0C87,172.77,84,172.32,81,172Z"/><polygon class="cls-34" points="226.62 16.83 223.7 16.83 219.97 20.56 225.39 25.97 231.05 20.31 226.62 16.83"/><path class="cls-35" d="M183.66,16.8s-9.86,9.52-30,41.16c0,0,8.48,37.38,32.68,37.61Z"/><path class="cls-36" d="M267.24,16.8s9.86,9.52,30,41.16c0,0-8.49,37.38-32.68,37.61Z"/><path class="cls-37" d="M187.73,12.33l-.3,9,0,1.24-.33,9.78,0,1.12L186.73,42l0,1.11-.24,7.26,0,1.09-.28,8.34,0,.49,0,.59-.28,8.47,0,1.09-.25,7.43,0,1.06-.73,21.77c-1.69.27-3.23-8.43-4.53-20.1,0-.33-.07-.67-.11-1-.23-2.13-.45-4.35-.66-6.63,0-.34-.07-.68-.1-1-.26-2.74-.5-5.55-.72-8.38l-.09-1c-.2-2.58-.39-5.16-.58-7.71,0-.35-.05-.69-.07-1-.16-2.26-.31-4.49-.46-6.65l-.06-1c-.18-2.76-.34-5.39-.49-7.82q0-.55-.06-1.08c-.16-2.65-.29-5-.4-7.08,0-.41,0-.8-.07-1.18-.2-3.85-.31-6.18-.31-6.18C183.49,13.82,187.73,12.33,187.73,12.33Z"/><path class="cls-4" d="M187.43,21.32l0,1.24-11,7.57c0-.41,0-.8-.07-1.18Z"/><path class="cls-4" d="M187.06,32.34l0,1.12-10.14,4.83q0-.55-.06-1.08Z"/><path class="cls-4" d="M186.73,42l0,1.11-9.26,4-.06-1Z"/><path class="cls-4" d="M186.45,50.4l0,1.09L178,54.85c0-.35-.05-.69-.07-1Z"/><path class="cls-4" d="M186.13,59.83l0,.49,0,.59-7.46,2.67-.09-1Z"/><path class="cls-4" d="M185.81,69.38l0,1.09L179.45,73c0-.34-.07-.68-.1-1Z"/><path class="cls-4" d="M185.52,77.9l0,1.06-5.26,1.67c0-.33-.07-.67-.11-1Z"/><path class="cls-38" d="M263.17,12.33l.3,9,0,1.24.33,9.78,0,1.12.29,8.57,0,1.11.24,7.26,0,1.09.28,8.34,0,.49,0,.59.28,8.47,0,1.09.25,7.43,0,1.06.73,21.77c1.69.27,3.23-8.43,4.53-20.1,0-.33.07-.67.11-1,.23-2.13.45-4.35.66-6.63,0-.34.07-.68.1-1,.26-2.74.5-5.55.72-8.38l.09-1c.2-2.58.39-5.16.58-7.71,0-.35.05-.69.07-1,.16-2.26.31-4.49.46-6.65l.06-1c.18-2.76.34-5.39.49-7.82l.06-1.08c.16-2.65.29-5,.4-7.08,0-.41,0-.8.07-1.18.2-3.85.31-6.18.31-6.18C267.41,13.82,263.17,12.33,263.17,12.33Z"/><path class="cls-4" d="M263.47,21.32l0,1.24,11,7.57c0-.41,0-.8.07-1.18Z"/><path class="cls-4" d="M263.84,32.34l0,1.12L274,38.29l.06-1.08Z"/><path class="cls-4" d="M264.17,42l0,1.11,9.26,4,.06-1Z"/><path class="cls-4" d="M264.45,50.4l0,1.09,8.45,3.36c0-.35.05-.69.07-1Z"/><path class="cls-4" d="M264.77,59.83l0,.49,0,.59,7.46,2.67.09-1Z"/><path class="cls-4" d="M265.09,69.38l0,1.09L271.45,73c0-.34.07-.68.1-1Z"/><path class="cls-4" d="M265.38,77.9l0,1.06,5.26,1.67c0-.33.07-.67.11-1Z"/><path class="cls-39" d="M268.19,120.18a18.36,18.36,0,0,1-3.93,1.68,36.13,36.13,0,0,0-3.48,1.26l-.21.08c-.31.14-.63.27-.95.39a62.83,62.83,0,0,1-11.4,3.06l-1,.17a122.88,122.88,0,0,1-14.46,1.52l-1,0c-4.8.2-9.71.17-14.48-.1l-1,0a118.44,118.44,0,0,1-13.64-1.6l-1-.18a57.29,57.29,0,0,1-11.54-3.34l-.68-.28q-.48-.2-1-.36c-.61-.22-1.22-.43-1.85-.62a17.18,17.18,0,0,1-4.44-2c-5.57-3.73-2.67-9.38-1.41-16.36C182,94,186.5,32.05,186.3,14c-.55-1.58,5.61-5.83,11.42-7.1a18.32,18.32,0,0,1,2-.31h0c2.2-.41,4.79-.78,7.47-1.12a45,45,0,0,0,3.6,5.66l0,.06q.66.88,1.32,1.68l.05.06c6.51,7.76,12.87,9.21,13.27,9.29.39-.08,6.75-1.52,13.27-9.29l.05-.06a15.77,15.77,0,0,0,1.32-1.68l0-.06a44.89,44.89,0,0,0,3.59-5.65c2.66.33,5.22.71,7.4,1.11h0a14.55,14.55,0,0,1,2,.31c5.8,1.25,12,5.6,11.42,7.1-.21,18.15,4.32,79.83,5.53,89.5C271.42,110.69,274.45,116.46,268.19,120.18Z"/><path class="cls-40" d="M262,132l-.95.34-.19.07c-3.48,1.22-7.18,2.47-11.41,3.51l-1,.24a89,89,0,0,1-15,2.18l-1,.06c-2.32.12-4.78.17-7.4.14-3.08,0-5.94,0-8.62-.22l-1-.07a87.92,87.92,0,0,1-14.15-2.19l-1-.24c-4-1-7.62-2.23-11-3.41l-1.47-.53-1-.36c-7.66-3-6.26-4.58-5.32-9.27.2-1,.42-2,.66-3.06a40.32,40.32,0,0,0,5.89,2.47l.37.13,1,.33a111.86,111.86,0,0,0,12.21,3.58l1,.22a92.7,92.7,0,0,0,13.58,1.86l1,.06c2.46.13,5.06.19,7.83.15,2.31,0,4.5,0,6.59-.09l1,0a94.45,94.45,0,0,0,14.39-1.84l1-.21a107.34,107.34,0,0,0,11.35-3.23c.33-.11.65-.22,1-.34l1.66-.57a39.06,39.06,0,0,0,5.89-2.48c.24,1.08.46,2.06.66,3.07C269.62,127.22,271.11,128.7,262,132Z"/><path class="cls-4" d="M189.54,122.16l-1.61,9.76-1-.36,1.6-9.73Z"/><path class="cls-4" d="M202.73,126l-1.37,10.14-1-.24,1.37-10.12Z"/><path class="cls-4" d="M217.31,127.88l-.79,10.48-1-.07.8-10.47Z"/><path class="cls-4" d="M262,132l-.95.34-1.62-9.77c.33-.11.65-.22,1-.34Z"/><path class="cls-4" d="M249.48,136l-1,.24-1.38-10.15,1-.21Z"/><path class="cls-4" d="M233.54,138.38l-1,.06-.81-10.5,1,0Z"/><path class="cls-41" d="M253.18,6.88v0a40.76,40.76,0,0,1-2.84,6.78c-.15.28-.3.58-.47.87a44.31,44.31,0,0,1-6.23,8.65c-.22.24-.45.49-.69.73a42.67,42.67,0,0,1-8.2,6.64c-.28.19-.57.36-.86.54A46.69,46.69,0,0,1,226,34.84l-.52.2v0h-.08l-.4-.15a46.42,46.42,0,0,1-8-3.8l-.86-.53a43.39,43.39,0,0,1-8.2-6.65l-.69-.73A44.77,44.77,0,0,1,201,14.56c-.17-.3-.32-.59-.47-.88a40.74,40.74,0,0,1-2.84-6.77v0a15.82,15.82,0,0,1,1.88-.28h0c2.22-.41,4.83-.79,7.54-1.13h.07c.66,1.23,1.34,2.37,2,3.42.19.28.37.56.56.83.33.49.67,1,1,1.41l0,.06q.66.88,1.32,1.68l.05.06c.65.78,1.31,1.5,1.95,2.15.24.25.47.48.71.7a29.4,29.4,0,0,0,5.79,4.4c.3.18.6.34.88.48a18.47,18.47,0,0,0,3.5,1.45l.44.11a4.45,4.45,0,0,0,.56-.15,18.37,18.37,0,0,0,3.32-1.36l.88-.48a30.46,30.46,0,0,0,5.81-4.41c.23-.22.47-.46.71-.71.66-.66,1.32-1.38,2-2.18l.05-.06a15.77,15.77,0,0,0,1.32-1.68l0-.06q.5-.66,1-1.38c.19-.27.37-.55.56-.83.69-1.06,1.37-2.21,2-3.44,0,0,0,0,0,0,2.71.34,5.32.72,7.54,1.13h0A15.82,15.82,0,0,1,253.18,6.88Z"/><path class="cls-4" d="M209.79,9.72,201,14.56c-.17-.3-.32-.59-.47-.88l8.67-4.79C209.42,9.17,209.6,9.45,209.79,9.72Z"/><path class="cls-4" d="M214.87,15.78l-6.93,8.16-.69-.73,6.91-8.13C214.4,15.33,214.63,15.56,214.87,15.78Z"/><path class="cls-4" d="M221.54,20.66,217,31.12l-.86-.53,4.52-10.41C221,20.36,221.26,20.52,221.54,20.66Z"/><path class="cls-4" d="M226,22.07V34.84l-.52.2v0h-.08l-.4-.15V22.11l.44.11A4.45,4.45,0,0,0,226,22.07Z"/><path class="cls-4" d="M250.33,13.69c-.15.28-.3.58-.47.87l-8.71-4.81c.19-.27.37-.55.56-.83Z"/><path class="cls-4" d="M243.63,23.21c-.22.24-.45.49-.69.73l-6.89-8.12c.23-.22.47-.46.71-.71Z"/><path class="cls-4" d="M234.74,30.58c-.28.19-.57.36-.86.54l-4.52-10.41.88-.48Z"/><path class="cls-42" d="M243.68,3.2c-3.41-.85-4.79-1.6-5.34-2a.42.42,0,0,0-.63.14A54.67,54.67,0,0,1,225.6,16.23a.41.41,0,0,0-.13.23.37.37,0,0,0-.14-.23,54.91,54.91,0,0,1-12.1-14.91.42.42,0,0,0-.63-.14c-.55.42-1.93,1.17-5.34,2a.4.4,0,0,0-.32.4c.05,2.25.43,15.63,2,25.43a.42.42,0,0,0,.68.25c2.58-1.93,13.25-10,15.71-12.46a.13.13,0,1,1,.2,0C228,19.3,238.7,27.35,241.28,29.28A.42.42,0,0,0,242,29c1.61-9.8,2-23.18,2-25.43A.4.4,0,0,0,243.68,3.2Z"/><polygon class="cls-43" points="226.62 189.92 223.7 189.92 219.97 193.65 225.39 199.06 231.05 193.4 226.62 189.92"/><path class="cls-44" d="M183.66,189.89s-9.86,9.52-30,41.16c0,0,8.48,37.37,32.68,37.6Z"/><path class="cls-45" d="M267.24,189.89s9.86,9.52,30,41.16c0,0-8.49,37.37-32.68,37.6Z"/><path class="cls-46" d="M189.14,184.49l-.3,9,0,1.24-.33,9.78,0,1.12-.29,8.57,0,1.11-.24,7.26,0,1.1-.28,8.33,0,.49,0,.6-.28,8.46,0,1.1-.25,7.42,0,1.06-.73,21.78c-1.69.26-4.64-7.52-5.94-19.19,0-.33-.07-.67-.11-1-.23-2.13-.45-4.35-.66-6.63,0-.34-.07-.68-.1-1-.26-2.74-.5-5.55-.72-8.38l-.09-1c-.2-2.58-.39-5.16-.58-7.71,0-.35-.05-.69-.07-1-.16-2.26-.31-4.49-.46-6.65l-.06-1.05c-.18-2.76-.34-5.39-.49-7.82q0-.56-.06-1.08c-.16-2.65-.29-5-.4-7.08,0-.41,0-.8-.07-1.18-.2-3.85-.31-6.18-.31-6.18C183.49,186.9,189.14,184.49,189.14,184.49Z"/><path class="cls-4" d="M188.84,193.48l0,1.24-12.38,8.49c0-.41,0-.8-.07-1.18Z"/><path class="cls-4" d="M188.47,204.5l0,1.12-11.55,5.75q0-.56-.06-1.08Z"/><path class="cls-4" d="M188.14,214.19l0,1.11-10.67,4.94-.06-1.05Z"/><path class="cls-4" d="M187.86,222.56l0,1.1L178,227.93c0-.35-.05-.69-.07-1Z"/><path class="cls-4" d="M187.54,232l0,.49,0,.6-8.87,3.58-.09-1Z"/><path class="cls-4" d="M187.22,241.54l0,1.1-7.73,3.43c0-.34-.07-.68-.1-1Z"/><path class="cls-4" d="M186.93,250.06l0,1.06-6.67,2.59c0-.33-.07-.67-.11-1Z"/><path class="cls-47" d="M261.79,184.49l.3,9,0,1.24.33,9.78,0,1.12.29,8.57,0,1.11.24,7.26,0,1.1.28,8.33,0,.49,0,.6.28,8.46,0,1.1.25,7.42,0,1.06.73,21.78c1.69.26,4.64-7.52,5.94-19.19,0-.33.07-.67.11-1,.23-2.13.45-4.35.66-6.63,0-.34.07-.68.1-1,.26-2.74.5-5.55.72-8.38l.09-1c.2-2.58.39-5.16.58-7.71,0-.35,0-.69.07-1,.16-2.26.31-4.49.46-6.65l.06-1.05c.18-2.76.34-5.39.49-7.82q0-.56.06-1.08c.16-2.65.29-5,.4-7.08,0-.41.05-.8.07-1.18.2-3.85.31-6.18.31-6.18C267.44,186.9,261.79,184.49,261.79,184.49Z"/><path class="cls-4" d="M262.09,193.48l0,1.24,12.38,8.49c0-.41.05-.8.07-1.18Z"/><path class="cls-4" d="M262.46,204.5l0,1.12,11.55,5.75q0-.56.06-1.08Z"/><path class="cls-4" d="M262.79,214.19l0,1.11,10.67,4.94.06-1.05Z"/><path class="cls-4" d="M263.07,222.56l0,1.1,9.86,4.27c0-.35,0-.69.07-1Z"/><path class="cls-4" d="M263.39,232l0,.49,0,.6,8.87,3.58.09-1Z"/><path class="cls-4" d="M263.71,241.54l0,1.1,7.73,3.43c0-.34.07-.68.1-1Z"/><path class="cls-4" d="M264,250.06l0,1.06,6.67,2.59c0-.33.07-.67.11-1Z"/><path class="cls-48" d="M262.39,295.34c-9.14,3.21-19.83,6.56-36.94,6.33-17.11.23-27.8-3.12-36.94-6.33-10.69-3.76-9-5.2-8-10.5s2.5-9.73,5.3-31.4.54-65.63.47-66.46,2.16-4.44,9.68-6.57c.53-.15,1.14-.3,1.82-.45s1.28-.27,2-.4c2.2-.4,4.8-.78,7.49-1.13.64,1.19,1.3,2.29,2,3.31.19.28.37.56.56.83.33.49.67,1,1,1.41l0,.06q.66.89,1.32,1.68l.05.06c.65.78,1.31,1.5,1.95,2.15.24.25.47.48.71.7a29.4,29.4,0,0,0,5.79,4.4c.3.18.6.34.88.48a18.47,18.47,0,0,0,3.5,1.45c.24.07.39.1.44.11a4.45,4.45,0,0,0,.56-.15,18.37,18.37,0,0,0,3.32-1.36l.88-.48a30.46,30.46,0,0,0,5.81-4.41l.71-.71c.66-.66,1.32-1.38,2-2.18l.05-.06a15.77,15.77,0,0,0,1.32-1.68l0-.06q.5-.66,1-1.38c.19-.27.37-.55.56-.83q1-1.54,2-3.33c2.67.35,5.24.72,7.43,1.12.71.13,1.38.27,2,.4s1.28.3,1.81.45c7.52,2.13,9.76,5.74,9.68,6.57s-2.32,44.78.47,66.46,4.24,26.1,5.3,31.4S273.08,291.58,262.39,295.34Z"/><path class="cls-49" d="M253.19,179.73s0,0,0,0l-.06.2a41.31,41.31,0,0,1-2.78,6.58c-.15.28-.3.58-.47.87a44.31,44.31,0,0,1-6.23,8.65c-.22.24-.45.49-.69.73a42.67,42.67,0,0,1-8.2,6.64c-.28.19-.57.36-.86.54a46.69,46.69,0,0,1-7.84,3.72l-.52.2v0h-.08l-.4-.15a46.42,46.42,0,0,1-8-3.8l-.86-.53a43.39,43.39,0,0,1-8.2-6.65l-.69-.73a44.77,44.77,0,0,1-6.22-8.65c-.17-.3-.32-.59-.47-.88a41.29,41.29,0,0,1-2.78-6.57l-.06-.2s0,0,0,0a15.82,15.82,0,0,1,1.88-.28h0c2.22-.41,4.83-.79,7.54-1.13h.07l.06.11c.64,1.19,1.3,2.29,2,3.31.19.28.37.56.56.83.33.49.67,1,1,1.41l0,.06q.66.89,1.32,1.68l.05.06c.65.78,1.31,1.5,1.95,2.15.24.25.47.48.71.7a29.4,29.4,0,0,0,5.79,4.4c.3.18.6.34.88.48a18.47,18.47,0,0,0,3.5,1.45c.24.07.39.1.44.11a4.45,4.45,0,0,0,.56-.15,18.37,18.37,0,0,0,3.32-1.36l.88-.48a30.46,30.46,0,0,0,5.81-4.41l.71-.71c.66-.66,1.32-1.38,2-2.18l.05-.06a15.77,15.77,0,0,0,1.32-1.68l0-.06q.5-.66,1-1.38c.19-.27.37-.55.56-.83q1-1.54,2-3.33l.06-.11s0,0,0,0c2.71.34,5.32.72,7.54,1.13h0A15.82,15.82,0,0,1,253.19,179.73Z"/><path class="cls-4" d="M209.8,182.57,201,187.41c-.17-.3-.32-.59-.47-.88l8.67-4.79C209.43,182,209.61,182.3,209.8,182.57Z"/><path class="cls-4" d="M214.88,188.63,208,196.79l-.69-.73,6.91-8.13C214.41,188.18,214.64,188.41,214.88,188.63Z"/><path class="cls-4" d="M221.55,193.51,217,204l-.86-.53L220.67,193C221,193.21,221.27,193.37,221.55,193.51Z"/><path class="cls-4" d="M226.05,194.92v12.77l-.52.2v0h-.08l-.4-.15V195c.24.07.39.1.44.11A4.45,4.45,0,0,0,226.05,194.92Z"/><path class="cls-4" d="M250.34,186.54c-.15.28-.3.58-.47.87l-8.71-4.81c.19-.27.37-.55.56-.83Z"/><path class="cls-4" d="M243.64,196.06c-.22.24-.45.49-.69.73l-6.89-8.12.71-.71Z"/><path class="cls-4" d="M234.75,203.43c-.28.19-.57.36-.86.54l-4.52-10.41.88-.48Z"/><path class="cls-50" d="M243.68,176.29c-3.41-.86-4.79-1.6-5.34-2a.43.43,0,0,0-.63.13,54.32,54.32,0,0,1-12.11,14.91.47.47,0,0,0-.13.24.43.43,0,0,0-.14-.24,54.55,54.55,0,0,1-12.1-14.91.43.43,0,0,0-.63-.13c-.55.42-1.93,1.16-5.34,2a.4.4,0,0,0-.32.4c.05,2.25.43,15.63,2,25.43a.43.43,0,0,0,.68.25c2.58-1.93,13.25-10,15.71-12.47a.12.12,0,1,1,.2,0c2.46,2.49,13.13,10.54,15.71,12.47a.43.43,0,0,0,.68-.25c1.61-9.8,2-23.18,2-25.43A.4.4,0,0,0,243.68,176.29Z"/></g></g></svg>