<svg id="Layer_1" data-name="Layer 1" xmlns="http://www.w3.org/2000/svg" xmlns:xlink="http://www.w3.org/1999/xlink" viewBox="0 0 271.35 271.35"><defs><style>.cls-1{fill:url(#linear-gradient);}.cls-2{fill:url(#linear-gradient-2);}</style><linearGradient id="linear-gradient" x1="42.36" y1="135.68" x2="228.99" y2="135.68" gradientUnits="userSpaceOnUse"><stop offset="0" stop-color="#0e7ae5"/><stop offset="0.16" stop-color="#1477e6"/><stop offset="0.37" stop-color="#236eea"/><stop offset="0.61" stop-color="#3d5ef0"/><stop offset="0.85" stop-color="#6149f8"/><stop offset="1" stop-color="#7a3bfe"/></linearGradient><linearGradient id="linear-gradient-2" x1="111.04" y1="173.34" x2="160.31" y2="173.34" xlink:href="#linear-gradient"/></defs><path class="cls-1" d="M227.29,195.21,165.38,70.56a34.26,34.26,0,0,0-59.58.3L44.07,195.18A15.66,15.66,0,1,0,72,209.39l61.11-123a2.8,2.8,0,0,1,2.57-1.6h0a2.8,2.8,0,0,1,2.59,1.61l61.1,123.07a15.66,15.66,0,0,0,27.92-14.21Z"/><path class="cls-2" d="M153.69,155.33c-26.25-20.18-56.21,9.77-36,36C143.93,211.52,173.86,181.57,153.69,155.33Z"/></svg>