<svg id="Layer_1" data-name="Layer 1" xmlns="http://www.w3.org/2000/svg" xmlns:xlink="http://www.w3.org/1999/xlink" viewBox="0 0 625.52 271.35"><defs><style>.cls-1{fill:#fff;}.cls-2{fill:url(#linear-gradient);}.cls-3{fill:url(#linear-gradient-2);}</style><linearGradient id="linear-gradient" x1="79.78" y1="135.68" x2="231.59" y2="135.68" gradientUnits="userSpaceOnUse"><stop offset="0" stop-color="#8d51fd"/><stop offset="1" stop-color="#0f78f7"/><stop offset="1" stop-color="#7a3bfe"/></linearGradient><linearGradient id="linear-gradient-2" x1="135.65" y1="166.31" x2="175.72" y2="166.31" gradientUnits="userSpaceOnUse"><stop offset="0" stop-color="#8d51fd"/><stop offset="0.23" stop-color="#615ffb"/><stop offset="0.45" stop-color="#3d6af9"/><stop offset="0.66" stop-color="#2472f8"/><stop offset="0.85" stop-color="#1476f7"/><stop offset="1" stop-color="#0f78f7"/></linearGradient></defs><path class="cls-1" d="M268.76,199.23a11.52,11.52,0,0,1-19.68-8.16V109.48a11.52,11.52,0,1,1,23,0v81.59A11.09,11.09,0,0,1,268.76,199.23Z"/><path class="cls-1" d="M299.35,131.92a56.07,56.07,0,0,1,8.76-16.8A47.83,47.83,0,0,1,322,102.76,35.76,35.76,0,0,1,340.51,98H414a11.52,11.52,0,1,1,0,23H345.55q-7.92,0-13,2.64a21.43,21.43,0,0,0-7.92,6.84,25.82,25.82,0,0,0-4,9,55.71,55.71,0,0,0-1.32,9.12v42.47a11.52,11.52,0,1,1-23,0V150.28A59.18,59.18,0,0,1,299.35,131.92Zm117.33,10.2a11.51,11.51,0,0,1-8.15,19.67H348.19a11.52,11.52,0,1,1,0-23h60.34A11.1,11.1,0,0,1,416.68,142.12Z"/><path class="cls-2" d="M230.21,184.1,179.85,82.71a27.87,27.87,0,0,0-48.46.24L81.18,184.08a12.73,12.73,0,1,0,22.7,11.55L153.59,95.54a2.29,2.29,0,0,1,2.1-1.3h0a2.28,2.28,0,0,1,2.1,1.31L207.5,195.66a12.63,12.63,0,0,0,7.42,6.33,12.46,12.46,0,0,0,4,.63,12.75,12.75,0,0,0,11.34-18.52Z"/><path class="cls-3" d="M155.69,146.28a20,20,0,1,0,20,20A20.05,20.05,0,0,0,155.69,146.28Z"/><path class="cls-1" d="M544.6,187.36,505.68,109a22,22,0,0,0-38.29.21l-38.81,78.15a10.32,10.32,0,1,0,18.4,9.36l38.42-77.35a1.33,1.33,0,0,1,2.39,0l38.42,77.38a10.36,10.36,0,0,0,9.22,5.63,10.2,10.2,0,0,0,4.67-1.13A10.34,10.34,0,0,0,544.6,187.36Z"/><circle class="cls-1" cx="486.59" cy="175.22" r="14.22"/></svg>