<svg width="123" height="106" viewBox="0 0 123 106" fill="none" xmlns="http://www.w3.org/2000/svg">
<path d="M122.434 63.3341C122.434 62.6541 122.494 61.9641 122.494 61.2741C122.495 53.2293 120.912 45.263 117.835 37.8301C114.757 30.3972 110.246 23.6432 104.558 17.9538C98.8707 12.2643 92.1182 7.75084 84.6863 4.67103C77.2544 1.59121 69.2886 0.00537287 61.2438 0.00405976H60.7538C54.7701 -0.0676058 48.8128 0.809956 43.1038 2.60406C19.3538 9.23406 1.10383 31.6941 0.103833 56.4041C0.103833 57.2341 0.103833 58.0641 0.103833 58.9141C0.103833 59.7641 0.0438354 60.4841 0.0438354 61.2741C0.0438354 61.5241 0.0438354 61.7741 0.0438354 62.0341C-0.136165 75.4541 -0.186164 90.0341 8.90384 100.524C13.7838 106.214 24.9938 108.264 29.3238 100.994C26.7738 100.674 24.5538 99.9941 23.0938 97.7241C20.3958 93.9235 18.7127 89.4971 18.2038 84.8641C20.5438 89.3241 23.5238 94.0641 28.9138 94.7941C8.31383 73.8941 21.6238 36.1641 44.2238 22.0041L44.3338 22.1541C41.7138 25.6541 38.6638 29.2241 37.7838 33.5841C35.6438 43.4041 37.1638 54.5841 49.7838 53.4941C32.3838 50.4941 45.5338 20.5541 59.2038 17.7141C59.8738 17.7141 60.5538 17.6641 61.2038 17.6641C61.8538 17.6641 62.5138 17.6641 63.2038 17.7141C63.3938 17.7141 63.5938 17.7941 63.7838 17.8541C72.2538 20.6041 77.5838 28.5841 79.8838 36.8541C81.8038 43.6841 81.4738 52.6441 72.6438 53.4541V53.7041C83.6438 53.9041 86.0738 47.1741 85.2438 37.4341C85.3038 32.2641 82.0038 28.2141 79.7638 23.7341C100.524 38.7341 114.284 74.4941 93.3538 94.6641C98.2938 94.5941 101.974 89.6641 103.944 85.5141C102.584 93.0741 100.474 100.404 91.7238 101.334C93.2736 102.849 95.127 104.017 97.1618 104.763C99.1965 105.508 101.366 105.814 103.528 105.659C105.689 105.504 107.793 104.892 109.701 103.864C111.608 102.836 113.276 101.414 114.594 99.6941C119.754 92.8641 120.534 84.1041 121.754 75.9341C122.378 71.765 122.606 67.5461 122.434 63.3341Z" fill="url(#paint0_linear_126_5)"/>
<defs>
<linearGradient id="paint0_linear_126_5" x1="61.2338" y1="105.664" x2="61.2338" y2="0.0140554" gradientUnits="userSpaceOnUse">
    <stop stop-color="#fbd0e1"/>
    <stop offset="0.14" stop-color="#fbc1d1"/>
    <stop offset="0.35" stop-color="#fcb0c0"/>
    <stop offset="0.6" stop-color="#fca7b7"/>
    <stop offset="1" stop-color="#fca4b4"/>
    </linearGradient>
</defs>
</svg>
