<svg width="124" height="88" viewBox="0 0 124 88" fill="none" xmlns="http://www.w3.org/2000/svg">
<path d="M122.396 53.6264C120.475 38.3102 112.841 24.2842 101.023 14.3546C89.2041 4.42494 74.072 -0.676086 58.6539 0.0720713C43.2358 0.820229 28.6687 7.36239 17.867 18.3897C7.06532 29.417 0.825612 44.1162 0.396256 59.5464C-0.543744 69.4764 0.166251 79.6564 2.76625 87.5464H3.15627C4.51627 86.1364 5.35627 85.3264 5.87627 84.6964C7.04627 83.2764 6.53625 82.7864 6.60625 78.4764H6.74626C7.11626 79.8764 7.48627 81.2664 7.87627 82.7564C9.27627 81.5464 10.3263 80.6464 11.1163 79.9464C15.3763 76.1764 11.9462 78.2164 13.4462 68.0764C13.8762 71.0764 14.2762 73.8064 14.6962 76.7264C16.5162 75.2464 18.0563 73.8364 19.7763 72.6664C20.435 72.2184 20.9659 71.6067 21.3165 70.8913C21.6672 70.1759 21.8256 69.3816 21.7763 68.5864C22.7163 64.7964 23.2763 60.8764 24.4863 57.1564L24.7463 57.2264C24.3692 60.9519 24.4836 64.7108 25.0863 68.4064C25.5924 68.2371 26.0294 67.9072 26.3308 67.4668C26.6323 67.0263 26.7816 66.4995 26.7562 65.9664C26.8483 63.7686 27.1158 61.5817 27.5563 59.4264C29.6963 47.7664 34.4863 36.7464 40.4063 26.5264L40.6263 26.6064C36.3072 38.2771 33.6708 50.503 32.7962 62.9164C39.5362 57.6264 38.7962 60.0964 39.4462 51.6064C40.8562 40.7464 43.6662 29.5464 50.5362 20.7864L50.8562 21.0464C45.562 32.5541 42.9105 45.1007 43.0962 57.7664C46.0962 57.1064 48.8262 56.4664 51.5962 55.8864C52.0862 55.7764 52.2663 55.6064 52.3363 55.1164C53.3363 48.3464 53.9763 41.5264 55.2163 34.7964H55.4263V55.1964H69.9563C70.2663 52.4164 70.5762 49.5464 70.8862 46.6764H71.1463C73.0063 57.7564 69.0963 54.9864 80.6563 57.6764C80.7135 44.9759 78.1039 32.4048 72.9963 20.7764C79.9063 28.4864 82.2863 39.3164 83.9963 49.2664C85.1263 58.3864 82.9162 57.1664 90.8562 62.8364C91.0462 60.9264 90.5063 59.5564 90.2463 57.7664L88.6763 47.3664C87.1563 40.2064 85.8063 33.0864 83.1163 26.3064C87.7705 33.9893 91.4648 42.214 94.1163 50.7964C95.6064 55.7527 96.5553 60.8558 96.9462 66.0164C96.9396 66.513 97.0923 66.9985 97.3822 67.4017C97.672 67.8049 98.0835 68.1045 98.5563 68.2564C99.1315 64.4855 99.3092 60.6645 99.0863 56.8564C100.856 61.4764 100.996 66.8564 102.596 71.3964C104.546 73.1864 106.676 74.7664 108.956 76.5964C109.376 73.6764 109.756 70.9264 110.186 67.9564C111.716 77.6464 108.366 76.0464 112.186 79.5564C113.026 80.3264 114.186 81.3264 115.836 82.7464L116.696 81.6064C116.739 82.4155 116.887 83.2155 117.136 83.9864C117.296 84.1664 117.456 84.3564 117.626 84.5364C118.516 85.5364 119.466 86.5964 120.516 87.7464C122.886 83.5264 123.056 79.1064 123.236 74.4364C122.986 67.6264 123.646 60.4964 122.396 53.6264Z" fill="url(#paint0_linear_126_10)"/>
<defs>
<linearGradient id="paint0_linear_126_10" x1="61.5763" y1="87.8964" x2="61.5763" y2="-0.393567" gradientUnits="userSpaceOnUse">
    <stop stop-color="#fdfeff"/>
    <stop offset="0.14" stop-color="#f0f2f5"/>
    <stop offset="0.35" stop-color="#e2e5ea"/>
    <stop offset="0.6" stop-color="#dbdee4"/>
    <stop offset="1" stop-color="#d8dbe2"/>
    </linearGradient>
</defs>
</svg>
