<svg width="129" height="89" viewBox="0 0 129 89" fill="none" xmlns="http://www.w3.org/2000/svg">
<path d="M66.92 0C65.75 0 64.59 -9.68575e-08 63.43 0.0999999C45.24 0.82 27.12 9.82 14.78 28.82C7.19555 41.1007 3.9851 55.5847 5.66998 69.92C5.80998 72.27 6.5 74.54 5.56 76.92C4.19 80.47 2.78 83.92 0 86.66C14.52 92.52 28.63 85.97 36.66 73.09C36.8677 72.6731 37.1966 72.3288 37.6035 72.1022C38.0103 71.8755 38.4762 71.7772 38.94 71.82C46.63 72.24 53.94 68.37 60.42 64.6C75.16 55.6 86.52 40.35 87.88 22.6C104.99 30.18 116.5 47.04 118.45 65.38C118.55 66.7 118.62 68.02 118.62 69.38C118.622 73.4793 118.139 77.5644 117.18 81.55L123.24 85.29C127.207 75.9757 128.804 65.8237 127.889 55.7414C126.974 45.6591 123.575 35.9605 117.996 27.5124C112.418 19.0643 104.833 12.1299 95.9203 7.32897C87.0073 2.52799 77.0437 0.00998916 66.92 0Z" fill="url(#paint0_linear_126_6)"/>
<defs>
<linearGradient id="paint0_linear_126_6" x1="64.09" y1="88.79" x2="64.09" y2="0" gradientUnits="userSpaceOnUse">
    <stop stop-color="#be605e"/>
    <stop offset="0.14" stop-color="#ac4c4b"/>
    <stop offset="0.35" stop-color="#983736"/>
    <stop offset="0.6" stop-color="#8e2c2b"/>
    <stop offset="1" stop-color="#8a2827"/>
    </linearGradient>
</defs>
</svg>
