<svg width="162" height="310" viewBox="0 0 162 310" fill="none" xmlns="http://www.w3.org/2000/svg">
<path d="M119.57 11.7625L80.92 12.0625L41.58 11.7625C41.58 11.7625 14.07 174.413 0 208.653C0 208.653 35.53 223.783 80.92 225.133C126.31 223.783 161.12 208.653 161.12 208.653C147.09 174.413 119.57 11.7625 119.57 11.7625Z" fill="url(#paint0_linear_139_39)"/>
<path d="M36.0501 234.873C36.0501 234.873 29.5101 232.803 29.4001 236.873C29.2901 240.943 28.0201 280.873 26.3001 284.793C24.5801 288.713 11.6301 294.993 18.3001 305.203C24.9701 315.413 61.3001 307.033 62.0901 300.153C62.8801 293.273 67.3701 256.593 67.2501 246.733C67.1301 236.873 69.3101 232.733 65.3001 232.973C61.2901 233.213 36.0501 234.873 36.0501 234.873Z" fill="url(#paint1_linear_139_39)"/>
<path d="M124.92 234.873C124.92 234.873 131.45 232.803 131.57 236.873C131.69 240.943 132.94 280.873 134.66 284.793C136.38 288.713 149.34 294.993 142.66 305.203C135.98 315.413 99.6601 307.033 98.8601 300.153C98.0601 293.273 93.5901 256.593 93.7001 246.733C93.8101 236.873 91.6401 232.733 95.6501 232.973C99.6601 233.213 124.92 234.873 124.92 234.873Z" fill="url(#paint2_linear_139_39)"/>
<path d="M40.06 128.093C40.06 128.093 19.12 220.093 31.06 235.253C31.06 235.253 43.29 239.383 66.68 234.183C66.68 234.183 75.68 214.183 77.38 162.483C79.08 110.783 40.06 128.093 40.06 128.093Z" fill="url(#paint3_linear_139_39)"/>
<path d="M120.98 128.093C120.98 128.093 141.92 220.093 129.98 235.253C129.98 235.253 117.75 239.383 94.3601 234.183C94.3601 234.183 85.3601 214.183 83.6601 162.483C81.9601 110.783 120.98 128.093 120.98 128.093Z" fill="url(#paint4_linear_139_39)"/>
<path d="M3.44003 96.4525C3.67003 97.7425 4.78003 99.1425 6.44003 100.543C6.71003 100.773 6.99004 100.993 7.30004 101.223C9.08895 102.541 10.9972 103.689 13 104.653L13.92 105.093C15.7656 105.949 17.6625 106.691 19.6 107.313L20.6 107.613C22.6712 108.252 24.8023 108.677 26.96 108.883C27.31 108.883 27.65 108.883 27.96 108.883C29.4935 109.012 31.0316 108.696 32.39 107.973C34.07 107.043 34.65 104.413 35.83 99.1025C34.1175 99.5088 32.3453 99.6003 30.6 99.3725C30.27 99.3725 29.93 99.3025 29.6 99.2625C27.4614 98.9483 25.3513 98.4634 23.29 97.8125L22.29 97.5125C20.3532 96.8837 18.4535 96.1459 16.6 95.3025C16.28 95.1725 15.98 95.0325 15.68 94.8825C13.6837 93.9531 11.7556 92.8838 9.91003 91.6825C9.62003 91.4825 9.32003 91.2925 9.04003 91.0725C7.71543 90.1895 6.50609 89.1448 5.44003 87.9625C3.78003 92.1925 2.92003 95.3225 3.44003 96.4525Z" fill="url(#paint5_linear_139_39)"/>
<path d="M2.9901 89.4325C4.3501 97.1325 29.6301 108.342 36.5201 103.632C39.9001 101.632 39.4201 93.3925 45.4101 72.6325C50.7001 52.7225 60.0601 17.1825 41.0601 12.1125V12.2325C37.3901 14.1225 36.0601 16.9125 31.7001 23.8825C28.3101 29.8825 0.3601 83.3725 2.9901 89.4325Z" fill="url(#paint6_linear_139_39)"/>
<path d="M157.75 96.4525C157.52 97.7425 156.41 99.1425 154.75 100.543C154.48 100.773 154.2 100.993 153.89 101.223C152.1 102.539 150.191 103.687 148.19 104.653L147.27 105.093C145.424 105.948 143.527 106.689 141.59 107.313L140.59 107.613C138.519 108.252 136.388 108.677 134.23 108.883C133.88 108.883 133.54 108.883 133.23 108.883C131.697 109.012 130.158 108.696 128.8 107.973C127.12 107.043 126.54 104.413 125.36 99.1025C127.073 99.5088 128.845 99.6003 130.59 99.3725C130.92 99.3725 131.26 99.3025 131.59 99.2625C133.729 98.9483 135.839 98.4634 137.9 97.8125L138.9 97.5125C140.837 96.8837 142.737 96.1459 144.59 95.3025C144.91 95.1725 145.21 95.0325 145.51 94.8825C147.506 93.9531 149.434 92.8838 151.28 91.6825C151.57 91.4825 151.87 91.2925 152.15 91.0725C153.473 90.1869 154.682 89.1424 155.75 87.9625C157.41 92.1925 158.27 95.3225 157.75 96.4525Z" fill="url(#paint7_linear_139_39)"/>
<path d="M158.2 89.4325C156.84 97.1325 131.56 108.342 124.67 103.632C121.29 101.632 121.77 93.3925 115.78 72.6325C110.49 52.7225 101.13 17.1825 120.13 12.1125V12.2325C123.8 14.1225 125.13 16.9125 129.49 23.8825C132.92 29.8825 160.83 83.3725 158.2 89.4325Z" fill="url(#paint8_linear_139_39)"/>
<path d="M45.56 8.70255C45.56 8.70255 42.77 8.24255 36.85 11.7625C36.85 11.7625 33.71 52.7626 38.59 68.7626L45.56 8.70255Z" fill="url(#paint9_linear_139_39)"/>
<path d="M114.73 8.70255C114.73 8.70255 117.52 8.24255 123.45 11.7625C123.45 11.7625 126.58 52.7626 121.7 68.7626L114.73 8.70255Z" fill="url(#paint10_linear_139_39)"/>
<path d="M119.03 19.1725C118.25 7.40248 115.61 7.10248 115.61 7.10248L100.67 7.86248L80.29 17.9625L59.92 7.86248L44.98 7.10248C44.98 7.10248 42.33 7.40248 41.56 19.1725C40.79 30.9425 35.49 77.1125 41.24 100.042H119.34C125.09 77.1125 119.81 30.9625 119.03 19.1725Z" fill="url(#paint11_linear_139_39)"/>
<path d="M100.17 13.8226L80.22 24.0326V24.0926H80.17H80.11V24.0326L60.16 13.8226C60.16 13.8226 64.34 6.87259 65.47 2.02259C70.5028 2.90455 75.1523 5.28502 78.8101 8.85259L80.17 23.4726L81.29 11.3526L81.6 7.98259C81.6535 7.89475 81.7137 7.81117 81.78 7.73259C85.65 2.10259 94.67 0.962585 94.67 0.962585C95.36 5.80259 100.17 13.8226 100.17 13.8226Z" fill="url(#paint12_linear_139_39)"/>
<path d="M78.8101 8.85252C75.1523 5.28496 70.5029 2.90448 65.4701 2.02252C65.5501 1.66252 65.6101 1.31252 65.6601 1.02252C65.6601 1.02252 74.9501 2.17252 78.7301 8.02252L78.8101 8.85252Z" fill="url(#paint13_linear_139_39)"/>
<path d="M81.51 8.78259C85.1691 5.21867 89.8184 2.84175 94.85 1.96259C94.77 1.60259 94.71 1.25259 94.66 0.962585C94.66 0.962585 85.37 2.11259 81.59 7.96259L81.51 8.78259Z" fill="url(#paint14_linear_139_39)"/>
<path d="M39.75 103.713C39.75 103.713 32.1801 135.353 28.0601 157.593C28.0601 157.593 71.1601 196.343 132.62 157.593L121.38 103.023L39.75 103.713Z" fill="url(#paint15_linear_139_39)"/>
<path d="M123.59 96.3525C123.47 95.9805 123.22 95.6642 122.886 95.4621C122.551 95.2599 122.155 95.1855 121.77 95.2525C107.807 97.365 93.7022 98.4048 79.58 98.3625C65.9647 98.4329 52.3663 97.3928 38.92 95.2525C38.535 95.1855 38.1388 95.2599 37.8043 95.4621C37.4698 95.6642 37.2197 95.9805 37.1 96.3525C36.1687 99.0311 35.8642 101.888 36.2101 104.703C36.2622 105.017 36.4057 105.308 36.6227 105.541C36.8397 105.774 37.1205 105.938 37.4301 106.013C51.6201 109.383 67.2 110.443 79.6 110.353C92.01 110.443 109.09 109.353 123.28 106.013C123.59 105.938 123.87 105.774 124.087 105.541C124.304 105.308 124.448 105.017 124.5 104.703C124.839 101.886 124.528 99.0296 123.59 96.3525Z" fill="url(#paint16_linear_139_39)"/>
<path d="M85.51 97.4025H75.02C74.5178 97.4052 74.0371 97.6065 73.683 97.9625C73.3288 98.3186 73.13 98.8003 73.13 99.3025V109.793C73.13 110.294 73.3291 110.775 73.6836 111.129C74.038 111.483 74.5188 111.683 75.02 111.683H85.51C86.0113 111.683 86.492 111.483 86.8464 111.129C87.2009 110.775 87.4 110.294 87.4 109.793V99.3025C87.4013 99.0535 87.3534 98.8066 87.259 98.5762C87.1646 98.3457 87.0256 98.1362 86.85 97.9596C86.6744 97.7831 86.4656 97.6429 86.2356 97.5473C86.0056 97.4517 85.7591 97.4025 85.51 97.4025ZM85.15 108.133C85.1474 108.476 85.0093 108.804 84.7657 109.045C84.5222 109.287 84.1931 109.423 83.85 109.423H76.68C76.337 109.423 76.0078 109.287 75.7643 109.045C75.5208 108.804 75.3826 108.476 75.38 108.133V100.963C75.3826 100.619 75.5208 100.291 75.7643 100.05C76.0078 99.8081 76.337 99.6725 76.68 99.6725H83.85C84.1931 99.6725 84.5222 99.8081 84.7657 100.05C85.0093 100.291 85.1474 100.619 85.15 100.963V108.133Z" fill="url(#paint17_linear_139_39)"/>
<path d="M118.09 9.16257C114.09 8.58257 101.14 8.60257 80.3701 24.0926C59.5901 8.60257 46.6101 8.58257 42.5901 9.16257C42.4683 9.17468 42.3456 9.15217 42.236 9.09762C42.1265 9.04308 42.0345 8.95872 41.9708 8.85425C41.9071 8.74978 41.8742 8.62944 41.8758 8.50708C41.8774 8.38472 41.9136 8.2653 41.9801 8.16257C45.0301 3.99257 50.7201 3.62257 53.6401 3.73257C63.4646 7.26572 72.5262 12.6381 80.3401 19.5626C88.1477 12.625 97.2059 7.23887 107.03 3.69257C109.95 3.58257 115.64 3.95257 118.69 8.12257C118.768 8.22453 118.814 8.34736 118.823 8.47556C118.831 8.60376 118.801 8.73157 118.737 8.84286C118.673 8.95414 118.577 9.0439 118.462 9.1008C118.347 9.15771 118.217 9.1792 118.09 9.16257Z" fill="url(#paint18_linear_139_39)"/>
<path d="M107.19 3.64258L107.04 3.69258C97.219 7.22687 88.161 12.5992 80.35 19.5226C72.5361 12.5982 63.4746 7.22573 53.65 3.69258L53.49 3.64258C52.62 0.312579 54.18 -0.447421 56.93 0.222579C61.54 1.35258 69.48 6.53258 74.84 10.2926C77.79 12.3626 79.94 14.0126 80.33 14.2926C80.72 13.9826 82.87 12.2926 85.82 10.2926C91.17 6.52258 99.12 1.35258 103.73 0.222579C106.5 -0.447421 108.06 0.312579 107.19 3.64258Z" fill="url(#paint19_linear_139_39)"/>
<defs>
<linearGradient id="paint0_linear_139_39" x1="80.59" y1="11.7625" x2="80.59" y2="225.133" gradientUnits="userSpaceOnUse">
<stop stop-color="#C10505"/>
<stop offset="0.37" stop-color="#C50505"/>
<stop offset="0.71" stop-color="#D00606"/>
<stop offset="1" stop-color="#E00707"/>
</linearGradient>
<linearGradient id="paint1_linear_139_39" x1="42.0601" y1="232.913" x2="42.0601" y2="309.903" gradientUnits="userSpaceOnUse">
<stop stop-color="#824121"/>
<stop offset="0.22" stop-color="#7D3F1F"/>
<stop offset="0.48" stop-color="#6F391A"/>
<stop offset="0.75" stop-color="#592E11"/>
<stop offset="1" stop-color="#3D2207"/>
</linearGradient>
<linearGradient id="paint2_linear_139_39" x1="118.95" y1="232.913" x2="118.95" y2="309.903" gradientUnits="userSpaceOnUse">
<stop stop-color="#824121"/>
<stop offset="0.22" stop-color="#7D3F1F"/>
<stop offset="0.48" stop-color="#6F391A"/>
<stop offset="0.75" stop-color="#592E11"/>
<stop offset="1" stop-color="#3D2207"/>
</linearGradient>
<linearGradient id="paint3_linear_139_39" x1="52.39" y1="125.323" x2="52.39" y2="236.803" gradientUnits="userSpaceOnUse">
<stop stop-color="#F7F7F7"/>
<stop offset="0.5" stop-color="#F5F6F6"/>
<stop offset="0.72" stop-color="#EEF2F4"/>
<stop offset="0.89" stop-color="#E1EAEF"/>
<stop offset="1" stop-color="#D3E2EA"/>
</linearGradient>
<linearGradient id="paint4_linear_139_39" x1="108.64" y1="125.323" x2="108.64" y2="236.803" gradientUnits="userSpaceOnUse">
<stop stop-color="#F7F7F7"/>
<stop offset="0.5" stop-color="#F5F6F6"/>
<stop offset="0.72" stop-color="#EEF2F4"/>
<stop offset="0.89" stop-color="#E1EAEF"/>
<stop offset="1" stop-color="#D3E2EA"/>
</linearGradient>
<linearGradient id="paint5_linear_139_39" x1="19.193" y1="87.0593" x2="19.1826" y2="108.048" gradientUnits="userSpaceOnUse">
<stop stop-color="#D6E4EB"/>
<stop offset="0.43" stop-color="#D4E2EA"/>
<stop offset="0.62" stop-color="#CDDDE4"/>
<stop offset="0.76" stop-color="#C0D3DB"/>
<stop offset="0.88" stop-color="#AEC5CF"/>
<stop offset="0.98" stop-color="#97B3BE"/>
<stop offset="1" stop-color="#91AEBA"/>
</linearGradient>
<linearGradient id="paint6_linear_139_39" x1="27.1221" y1="11.3725" x2="26.82" y2="104.171" gradientUnits="userSpaceOnUse">
<stop stop-color="#F7F7F7"/>
<stop offset="0.55" stop-color="#F5F6F6"/>
<stop offset="0.75" stop-color="#EEF2F4"/>
<stop offset="0.89" stop-color="#E3EBF0"/>
<stop offset="1" stop-color="#D3E2EA"/>
</linearGradient>
<linearGradient id="paint7_linear_139_39" x1="141.635" y1="87.8698" x2="141.643" y2="108.854" gradientUnits="userSpaceOnUse">
<stop stop-color="#D6E4EB"/>
<stop offset="0.43" stop-color="#D4E2EA"/>
<stop offset="0.62" stop-color="#CDDDE4"/>
<stop offset="0.76" stop-color="#C0D3DB"/>
<stop offset="0.88" stop-color="#AEC5CF"/>
<stop offset="0.98" stop-color="#97B3BE"/>
<stop offset="1" stop-color="#91AEBA"/>
</linearGradient>
<linearGradient id="paint8_linear_139_39" x1="134.088" y1="11.3063" x2="134.379" y2="104.105" gradientUnits="userSpaceOnUse">
<stop stop-color="#F7F7F7"/>
<stop offset="0.55" stop-color="#F5F6F6"/>
<stop offset="0.75" stop-color="#EEF2F4"/>
<stop offset="0.89" stop-color="#E3EBF0"/>
<stop offset="1" stop-color="#D3E2EA"/>
</linearGradient>
<linearGradient id="paint9_linear_139_39" x1="40.71" y1="8.68255" x2="40.71" y2="68.7826" gradientUnits="userSpaceOnUse">
<stop stop-color="#FFF4D4"/>
<stop offset="1" stop-color="#FFD066"/>
</linearGradient>
<linearGradient id="paint10_linear_139_39" x1="119.59" y1="8.68255" x2="119.59" y2="68.7826" gradientUnits="userSpaceOnUse">
<stop stop-color="#FFF4D4"/>
<stop offset="1" stop-color="#FFD066"/>
</linearGradient>
<linearGradient id="paint11_linear_139_39" x1="80.29" y1="7.10248" x2="80.29" y2="100.042" gradientUnits="userSpaceOnUse">
<stop stop-color="#003A8E"/>
<stop offset="0.51" stop-color="#00398C"/>
<stop offset="0.72" stop-color="#003585"/>
<stop offset="0.87" stop-color="#002D79"/>
<stop offset="0.99" stop-color="#002368"/>
<stop offset="1" stop-color="#002266"/>
</linearGradient>
<linearGradient id="paint12_linear_139_39" x1="80.16" y1="0.982585" x2="80.16" y2="24.0926" gradientUnits="userSpaceOnUse">
<stop stop-color="#003A8E"/>
<stop offset="0.51" stop-color="#00398C"/>
<stop offset="0.72" stop-color="#003585"/>
<stop offset="0.87" stop-color="#002D79"/>
<stop offset="0.99" stop-color="#002368"/>
<stop offset="1" stop-color="#002266"/>
</linearGradient>
<linearGradient id="paint13_linear_139_39" x1="72.1401" y1="8.85252" x2="72.1401" y2="0.982522" gradientUnits="userSpaceOnUse">
<stop stop-color="#FFF4D4"/>
<stop offset="1" stop-color="#FFD066"/>
</linearGradient>
<linearGradient id="paint14_linear_139_39" x1="88.18" y1="8.78259" x2="88.18" y2="0.912585" gradientUnits="userSpaceOnUse">
<stop stop-color="#FFF4D4"/>
<stop offset="1" stop-color="#FFD066"/>
</linearGradient>
<linearGradient id="paint15_linear_139_39" x1="80.3401" y1="174.823" x2="80.3401" y2="103.023" gradientUnits="userSpaceOnUse">
<stop stop-color="#003A8E"/>
<stop offset="0.51" stop-color="#00398C"/>
<stop offset="0.72" stop-color="#003585"/>
<stop offset="0.87" stop-color="#002D79"/>
<stop offset="0.99" stop-color="#002368"/>
<stop offset="1" stop-color="#002266"/>
</linearGradient>
<linearGradient id="paint16_linear_139_39" x1="80.34" y1="95.2225" x2="80.34" y2="110.353" gradientUnits="userSpaceOnUse">
<stop stop-color="#824121"/>
<stop offset="0.22" stop-color="#7D3F1F"/>
<stop offset="0.48" stop-color="#6F391A"/>
<stop offset="0.75" stop-color="#592E11"/>
<stop offset="1" stop-color="#3D2207"/>
</linearGradient>
<linearGradient id="paint17_linear_139_39" x1="80.27" y1="97.4025" x2="80.27" y2="111.683" gradientUnits="userSpaceOnUse">
<stop stop-color="#D6E4EB"/>
<stop offset="0.26" stop-color="#D2E1E8"/>
<stop offset="0.49" stop-color="#C8D9E1"/>
<stop offset="0.71" stop-color="#B5CAD4"/>
<stop offset="0.93" stop-color="#9CB6C2"/>
<stop offset="1" stop-color="#91AEBA"/>
</linearGradient>
<linearGradient id="paint18_linear_139_39" x1="80.3401" y1="3.67257" x2="80.3401" y2="24.0926" gradientUnits="userSpaceOnUse">
<stop stop-color="#FF4D4D"/>
<stop offset="0.26" stop-color="#F23030"/>
<stop offset="0.52" stop-color="#E81919"/>
<stop offset="0.78" stop-color="#E20C0C"/>
<stop offset="1" stop-color="#E00707"/>
</linearGradient>
<linearGradient id="paint19_linear_139_39" x1="80.33" y1="19.5226" x2="80.33" y2="-0.00742166" gradientUnits="userSpaceOnUse">
<stop stop-color="#C10505"/>
<stop offset="0.37" stop-color="#C50505"/>
<stop offset="0.71" stop-color="#D00606"/>
<stop offset="1" stop-color="#E00707"/>
</linearGradient>
</defs>
</svg>
