<svg width="240" height="322" viewBox="0 0 240 322" fill="none" xmlns="http://www.w3.org/2000/svg">
<path d="M81.32 92.6846C81.32 92.6846 34.24 151.975 0 284.975C0 284.975 92.33 368.135 239.08 284.975C239.08 284.975 199.03 136.975 159.29 93.5846L81.32 92.6846Z" fill="url(#paint0_linear_139_38)"/>
<path opacity="0.74" d="M217.18 175.205C217.606 175.866 217.824 176.64 217.804 177.426C217.785 178.213 217.529 178.975 217.07 179.615L216.98 179.745C214.56 183.077 211.275 185.684 207.481 187.284C203.686 188.884 199.526 189.415 195.451 188.821C191.376 188.227 187.541 186.529 184.361 183.912C181.181 181.296 178.777 177.859 177.41 173.975C173.111 176.349 168.216 177.425 163.318 177.074C158.42 176.723 153.729 174.959 149.813 171.995C145.897 169.032 142.925 164.997 141.256 160.378C139.587 155.76 139.293 150.757 140.41 145.975C138.849 146.402 137.238 146.618 135.62 146.615C132.111 146.619 128.676 145.609 125.728 143.707C122.779 141.806 120.443 139.093 119 135.895C117.557 139.097 115.221 141.816 112.271 143.723C109.321 145.63 105.883 146.644 102.37 146.645C100.752 146.648 99.1406 146.432 97.5799 146.005C98.6922 150.786 98.3951 155.787 96.7248 160.403C95.0544 165.019 92.0823 169.052 88.1679 172.014C84.2536 174.976 79.5648 176.74 74.6687 177.094C69.7726 177.447 64.879 176.374 60.5799 174.005C59.2596 177.737 56.9816 181.056 53.9741 183.631C50.9667 186.206 47.3355 187.945 43.4444 188.674C39.5532 189.403 35.5387 189.097 31.8031 187.786C28.0676 186.475 24.7421 184.205 22.1599 181.205C21.6351 180.582 21.3166 179.812 21.2485 179C21.1804 178.189 21.3661 177.376 21.7799 176.675C25.9999 169.545 33.3699 156.825 40.9999 143.975C50.1599 128.555 59.6299 112.925 64.0999 106.525C74.1999 92.0746 78.9999 95.0546 78.9999 95.0546L118.54 96.6346L158.09 95.0546C158.09 95.0546 162.9 92.0546 172.99 106.515C177.52 113.005 187.61 128.655 197.35 143.935C205.25 156.285 212.89 168.395 217.18 175.205Z" fill="url(#paint1_linear_139_38)"/>
<path d="M83.52 77.0645L83.13 70.2345L54.2 59.5345L48.91 64.8745C48.0065 65.7769 47.4688 66.9817 47.4007 68.2569C47.3325 69.532 47.7387 70.7873 48.541 71.7808C49.3432 72.7743 50.4848 73.4357 51.7457 73.6377C53.0066 73.8396 54.2976 73.5678 55.37 72.8745C55.37 72.8745 55.37 72.9445 55.37 72.9745C55.3691 74.0054 55.677 75.0129 56.254 75.8671C56.8309 76.7214 57.6506 77.3832 58.6072 77.7674C59.5638 78.1515 60.6135 78.2404 61.621 78.0224C62.6286 77.8044 63.5477 77.2897 64.26 76.5445C64.288 77.6158 64.65 78.6515 65.2955 79.5069C65.9411 80.3623 66.8378 80.9945 67.8603 81.3151C68.8829 81.6358 69.98 81.6288 70.9984 81.2952C72.0168 80.9616 72.9054 80.318 73.54 79.4545C73.9675 80.6551 74.8232 81.6554 75.943 82.2636C77.0629 82.8718 78.3679 83.045 79.6076 82.75C80.8473 82.4549 81.9343 81.7124 82.6601 80.665C83.3859 79.6175 83.6992 78.3389 83.54 77.0745L83.52 77.0645Z" fill="url(#paint2_linear_139_38)"/>
<path d="M154.72 77.0645L155.11 70.2345L184 59.5345L189.29 64.8745C190.194 65.7769 190.731 66.9817 190.799 68.2569C190.867 69.532 190.461 70.7873 189.659 71.7808C188.857 72.7743 187.715 73.4357 186.454 73.6377C185.193 73.8396 183.902 73.5678 182.83 72.8745C182.83 72.8745 182.83 72.9445 182.83 72.9745C182.817 73.992 182.503 74.9828 181.928 75.8224C181.354 76.662 180.544 77.313 179.6 77.6935C178.656 78.0739 177.621 78.1669 176.625 77.9607C175.628 77.7545 174.715 77.2583 174 76.5345C173.972 77.6058 173.61 78.6415 172.964 79.4969C172.319 80.3523 171.422 80.9845 170.4 81.3051C169.377 81.6258 168.28 81.6188 167.262 81.2852C166.243 80.9516 165.355 80.308 164.72 79.4445C164.293 80.6451 163.437 81.6454 162.317 82.2536C161.197 82.8618 159.892 83.035 158.652 82.74C157.413 82.4449 156.326 81.7024 155.6 80.655C154.874 79.6075 154.561 78.3289 154.72 77.0645Z" fill="url(#paint3_linear_139_38)"/>
<path d="M148.34 14.3746C148.34 14.3746 158.55 -7.62542 180.27 15.5146C201.99 38.6546 201 60.7346 162.93 70.4546C124.86 80.1746 148.34 14.3746 148.34 14.3746Z" fill="url(#paint4_linear_139_38)"/>
<path d="M89.9 14.3745C89.9 14.3745 79.69 -7.66548 58 15.5145C36.31 38.6945 37.23 60.7345 75.31 70.4545C113.39 80.1745 89.9 14.3745 89.9 14.3745Z" fill="url(#paint5_linear_139_38)"/>
<path d="M79.57 80.7846C79.9144 85.7533 79.4689 90.7453 78.25 95.5746C78.25 95.5746 125.25 120.815 159.9 95.4346C159.9 95.4346 156.34 84.8146 157.9 79.4346C126.57 94.8646 79.57 80.7846 79.57 80.7846Z" fill="url(#paint6_linear_139_38)"/>
<path d="M159.79 42.4345C159.65 32.0445 159.45 22.2345 159.45 17.6245C159.45 6.44452 157.24 5.97452 155 4.17452C152.76 2.37452 136.3 3.03452 136.3 3.03452L131.7 14.0345L118.26 18.7445L104.81 14.0345L100.22 3.03452C100.22 3.03452 83.7 2.39452 81.49 4.17452C79.28 5.95452 77.07 6.44452 77.07 17.6245C77.07 22.1945 76.87 31.8845 76.73 42.1945C76.52 57.0445 76.43 73.1945 77.23 77.1045C77.97 80.7145 78.56 82.4545 79.72 83.6645C80.72 84.6645 82.04 85.3145 84.22 86.3345C85.5164 86.9195 86.8532 87.4108 88.22 87.8045C94.6959 89.6903 101.277 91.1929 107.93 92.3045L108.43 92.3845L111.24 92.8445H111.48C111.84 92.8445 112.21 92.8445 112.57 92.9045C114.39 93.0145 116.23 93.0845 118.1 93.0845C120.58 93.0845 123.003 92.9845 125.37 92.7845C132.659 92.2634 139.84 90.7356 146.71 88.2445C148.819 87.464 150.882 86.5659 152.89 85.5545H152.94C154.522 84.7658 155.906 83.6322 156.991 82.2372C158.076 80.8423 158.835 79.2215 159.21 77.4945L159.3 77.0645C160.09 73.2045 160 57.2245 159.79 42.4345Z" fill="url(#paint7_linear_139_38)"/>
<path d="M134.92 12.3746C134.713 12.385 134.506 12.385 134.3 12.3746C137.88 18.3746 129.46 24.8446 124.69 19.8546C123.85 26.4546 113.76 26.6746 112.63 20.1446C107.7 24.6246 99.8499 18.1446 103.31 12.3746C94.6199 13.2846 94.5699 -0.805438 103.31 0.0445619C102.5 21.5746 135.19 21.5646 134.38 0.0445619C142.64 -0.865438 143.25 12.4646 134.92 12.3746Z" fill="url(#paint8_linear_139_38)"/>
<path d="M138.34 89.9746C138.34 89.9746 113.86 77.8646 112.44 88.3346C111.02 98.8046 109.44 116.665 118.52 114.405C127.6 112.145 139.52 106.095 141.66 102.125C143.8 98.1546 138.34 89.9746 138.34 89.9746Z" fill="url(#paint9_linear_139_38)"/>
<path d="M148.58 88.5846C148.58 88.5846 148.22 87.0046 150.75 84.2646C153.28 81.5246 165.33 66.0146 170.07 75.8646C174.81 85.7146 176.73 97.8646 172.29 99.7246C167.85 101.585 149.59 106.215 149.44 101.625C149.29 97.0346 148.58 88.5846 148.58 88.5846Z" fill="url(#paint10_linear_139_38)"/>
<path d="M149.69 88.1046C149.69 88.1046 153.69 100.275 150.49 102.305C147.29 104.335 138.22 106.935 137.26 103.645C136.3 100.355 132.94 87.8146 137.06 87.5546C141.18 87.2946 141.91 87.7646 144.19 86.4946C146.47 85.2246 149 85.2546 149.69 88.1046Z" fill="url(#paint11_linear_139_38)"/>
<defs>
<linearGradient id="paint0_linear_139_38" x1="119.54" y1="321.955" x2="119.54" y2="92.6846" gradientUnits="userSpaceOnUse">
<stop stop-color="#FFA6C2"/>
<stop offset="0.17" stop-color="#FF9DB9"/>
<stop offset="0.47" stop-color="#FF83A0"/>
<stop offset="0.84" stop-color="#FF5A78"/>
<stop offset="1" stop-color="#FF4564"/>
</linearGradient>
<linearGradient id="paint1_linear_139_38" x1="119.54" y1="189.065" x2="119.54" y2="94.8046" gradientUnits="userSpaceOnUse">
<stop offset="0.04" stop-color="#FFF4D4"/>
<stop offset="0.47" stop-color="#FFF3D2"/>
<stop offset="0.62" stop-color="#FFF1CB"/>
<stop offset="0.73" stop-color="#FFEDC0"/>
<stop offset="0.81" stop-color="#FFE8AF"/>
<stop offset="0.89" stop-color="#FFE199"/>
<stop offset="0.95" stop-color="#FFD87E"/>
<stop offset="1" stop-color="#FFD066"/>
</linearGradient>
<linearGradient id="paint2_linear_139_38" x1="65.48" y1="59.5345" x2="65.48" y2="82.8745" gradientUnits="userSpaceOnUse">
<stop stop-color="#FFF4D4"/>
<stop offset="0.18" stop-color="#FFF3CF"/>
<stop offset="0.37" stop-color="#FFEEC2"/>
<stop offset="0.58" stop-color="#FFE7AC"/>
<stop offset="0.79" stop-color="#FFDD8D"/>
<stop offset="1" stop-color="#FFD066"/>
</linearGradient>
<linearGradient id="paint3_linear_139_38" x1="172.76" y1="59.5345" x2="172.76" y2="82.8745" gradientUnits="userSpaceOnUse">
<stop stop-color="#FFF4D4"/>
<stop offset="0.18" stop-color="#FFF3CF"/>
<stop offset="0.37" stop-color="#FFEEC2"/>
<stop offset="0.58" stop-color="#FFE7AC"/>
<stop offset="0.79" stop-color="#FFDD8D"/>
<stop offset="1" stop-color="#FFD066"/>
</linearGradient>
<linearGradient id="paint4_linear_139_38" x1="167.86" y1="4.91458" x2="167.86" y2="71.4346" gradientUnits="userSpaceOnUse">
<stop stop-color="#FFA6C2"/>
<stop offset="0.17" stop-color="#FFA0BC"/>
<stop offset="0.4" stop-color="#FF8EAB"/>
<stop offset="0.68" stop-color="#FF718F"/>
<stop offset="0.97" stop-color="#FF4968"/>
<stop offset="1" stop-color="#FF4564"/>
</linearGradient>
<linearGradient id="paint5_linear_139_38" x1="70.38" y1="4.91452" x2="70.38" y2="71.4345" gradientUnits="userSpaceOnUse">
<stop stop-color="#FFA6C2"/>
<stop offset="0.17" stop-color="#FFA0BC"/>
<stop offset="0.4" stop-color="#FF8EAB"/>
<stop offset="0.68" stop-color="#FF718F"/>
<stop offset="0.97" stop-color="#FF4968"/>
<stop offset="1" stop-color="#FF4564"/>
</linearGradient>
<linearGradient id="paint6_linear_139_38" x1="78.25" y1="93.1046" x2="159.9" y2="93.1046" gradientUnits="userSpaceOnUse">
<stop stop-color="#FFF4D4"/>
<stop offset="0.12" stop-color="#FFEAB5"/>
<stop offset="0.26" stop-color="#FFE199"/>
<stop offset="0.4" stop-color="#FFD982"/>
<stop offset="0.57" stop-color="#FFD472"/>
<stop offset="0.75" stop-color="#FFD169"/>
<stop offset="1" stop-color="#FFD066"/>
</linearGradient>
<linearGradient id="paint7_linear_139_38" x1="118.26" y1="2.92452" x2="118.26" y2="93.1445" gradientUnits="userSpaceOnUse">
<stop stop-color="#FFA6C2"/>
<stop offset="0.37" stop-color="#FFA4C0"/>
<stop offset="0.55" stop-color="#FF9CB9"/>
<stop offset="0.68" stop-color="#FF8FAC"/>
<stop offset="0.8" stop-color="#FF7D9A"/>
<stop offset="0.9" stop-color="#FF6583"/>
<stop offset="0.99" stop-color="#FF4867"/>
<stop offset="1" stop-color="#FF4564"/>
</linearGradient>
<linearGradient id="paint8_linear_139_38" x1="118.82" y1="-0.0254381" x2="118.82" y2="24.8946" gradientUnits="userSpaceOnUse">
<stop stop-color="#FFF4D4"/>
<stop offset="0.18" stop-color="#FFF3CF"/>
<stop offset="0.37" stop-color="#FFEEC2"/>
<stop offset="0.58" stop-color="#FFE7AC"/>
<stop offset="0.79" stop-color="#FFDD8D"/>
<stop offset="1" stop-color="#FFD066"/>
</linearGradient>
<linearGradient id="paint9_linear_139_38" x1="115.21" y1="85.937" x2="132.528" y2="111.07" gradientUnits="userSpaceOnUse">
<stop stop-color="#FFF4D4"/>
<stop offset="0.16" stop-color="#FFF2CE"/>
<stop offset="0.37" stop-color="#FFEDBE"/>
<stop offset="0.61" stop-color="#FFE4A3"/>
<stop offset="0.86" stop-color="#FFD87E"/>
<stop offset="1" stop-color="#FFD066"/>
</linearGradient>
<linearGradient id="paint10_linear_139_38" x1="170.919" y1="75.301" x2="156.094" y2="106.488" gradientUnits="userSpaceOnUse">
<stop stop-color="#FFF4D4"/>
<stop offset="0.18" stop-color="#FFF3D0"/>
<stop offset="0.37" stop-color="#FFEEC3"/>
<stop offset="0.58" stop-color="#FFE7AD"/>
<stop offset="0.78" stop-color="#FFDD8E"/>
<stop offset="0.99" stop-color="#FFD168"/>
<stop offset="1" stop-color="#FFD066"/>
</linearGradient>
<linearGradient id="paint11_linear_139_38" x1="143.379" y1="87.065" x2="144.898" y2="106.045" gradientUnits="userSpaceOnUse">
<stop stop-color="#FFF4D4"/>
<stop offset="0.16" stop-color="#FFF2CD"/>
<stop offset="0.38" stop-color="#FFECBA"/>
<stop offset="0.65" stop-color="#FFE19B"/>
<stop offset="0.94" stop-color="#FFD370"/>
<stop offset="1" stop-color="#FFD066"/>
</linearGradient>
</defs>
</svg>
