<svg width="144" height="128" viewBox="0 0 144 128" fill="none" xmlns="http://www.w3.org/2000/svg">
<path d="M72.9599 15.7156H70.0399L66.3099 19.4456L71.7299 24.8556L77.3899 19.1956L72.9599 15.7156Z" fill="url(#paint0_linear_126_278)"/>
<path d="M30 15.6855C30 15.6855 20.14 25.2056 0 56.8456C0 56.8456 8.47999 94.2155 32.68 94.4455L30 15.6855Z" fill="url(#paint1_linear_126_278)"/>
<path d="M113.58 15.6855C113.58 15.6855 123.44 25.2056 143.58 56.8456C143.58 56.8456 135.09 94.2155 110.9 94.4455L113.58 15.6855Z" fill="url(#paint2_linear_126_278)"/>
<path d="M35.48 10.2855L35.18 19.2855V20.5255L34.85 30.3055V31.4255L34.56 39.9955V41.1055L34.32 48.3655V49.4655L34.04 57.7955V58.2855V58.8855L33.76 67.3455V68.4455L33.51 75.8655V76.9255L32.78 98.7055C31.09 98.9655 28.14 91.1855 26.84 79.5155C26.84 79.1855 26.77 78.8455 26.73 78.5155C26.5 76.3855 26.28 74.1655 26.07 71.8855C26.07 71.5455 26 71.2055 25.97 70.8855C25.71 68.1455 25.47 65.3355 25.25 62.5055L25.16 61.5055C24.96 58.9255 24.77 56.3455 24.58 53.7955C24.58 53.4455 24.53 53.1055 24.51 52.7955C24.35 50.5355 24.2 48.3055 24.05 46.1455L23.99 45.0955C23.81 42.3355 23.65 39.7055 23.5 37.2755C23.5 36.9022 23.48 36.5422 23.44 36.1955C23.28 33.5455 23.15 31.1955 23.04 29.1155C23.04 28.7055 23.04 28.3155 22.97 27.9355C22.77 24.0855 22.66 21.7555 22.66 21.7555C29.83 12.6955 35.48 10.2855 35.48 10.2855Z" fill="url(#paint3_linear_126_278)"/>
<path d="M35.18 19.2755V20.5155L22.8 29.0055C22.8 28.5955 22.8 28.2055 22.73 27.8255L35.18 19.2755Z" fill="#C10505"/>
<path d="M34.81 30.2955V31.4155L23.2599 37.1655C23.2599 36.7922 23.24 36.4322 23.2 36.0855L34.81 30.2955Z" fill="#C10505"/>
<path d="M34.48 39.9855V41.0955L23.81 46.0355L23.75 44.9855L34.48 39.9855Z" fill="#C10505"/>
<path d="M34.1999 48.3556V49.4556L24.3399 53.7256C24.3399 53.3756 24.2899 53.0356 24.2699 52.7256L34.1999 48.3556Z" fill="#C10505"/>
<path d="M33.8799 57.7955V58.2855V58.8855L25.0099 62.4655L24.9199 61.4655L33.8799 57.7955Z" fill="#C10505"/>
<path d="M33.56 67.3356V68.4356L25.83 71.8656C25.83 71.5256 25.76 71.1856 25.73 70.8656L33.56 67.3356Z" fill="#C10505"/>
<path d="M33.27 75.8556V76.9156L26.6 79.5056C26.6 79.1756 26.53 78.8356 26.49 78.5056L33.27 75.8556Z" fill="#C10505"/>
<path d="M108.13 10.2855L108.43 19.2855V20.5255L108.76 30.3055V31.4255L109.05 39.9955V41.1055L109.29 48.3655V49.4655L109.57 57.7955V58.2855V58.8855L109.85 67.3455V68.4455L110.1 75.8655V76.9255L110.83 98.7055C112.52 98.9655 115.47 91.1855 116.77 79.5155C116.77 79.1855 116.84 78.8455 116.88 78.5155C117.11 76.3855 117.33 74.1655 117.54 71.8855C117.54 71.5455 117.61 71.2055 117.64 70.8855C117.9 68.1455 118.14 65.3355 118.36 62.5055L118.45 61.5055C118.65 58.9255 118.84 56.3455 119.03 53.7955C119.03 53.4455 119.03 53.1055 119.1 52.7955C119.26 50.5355 119.41 48.3055 119.56 46.1455L119.62 45.0955C119.8 42.3355 119.96 39.7055 120.11 37.2755C120.11 36.9022 120.13 36.5422 120.17 36.1955C120.33 33.5455 120.46 31.1955 120.57 29.1155C120.57 28.7055 120.62 28.3155 120.64 27.9355C120.84 24.0855 120.95 21.7555 120.95 21.7555C113.78 12.6955 108.13 10.2855 108.13 10.2855Z" fill="url(#paint4_linear_126_278)"/>
<path d="M108.43 19.2755V20.5155L120.81 29.0055C120.81 28.5955 120.86 28.2055 120.88 27.8255L108.43 19.2755Z" fill="#C10505"/>
<path d="M108.8 30.2955V31.4155L120.35 37.1655C120.35 36.7922 120.37 36.4322 120.41 36.0855L108.8 30.2955Z" fill="#C10505"/>
<path d="M109.13 39.9855V41.0955L119.8 46.0355L119.86 44.9855L109.13 39.9855Z" fill="#C10505"/>
<path d="M109.41 48.3556V49.4556L119.27 53.7256C119.27 53.3756 119.27 53.0356 119.34 52.7256L109.41 48.3556Z" fill="#C10505"/>
<path d="M109.73 57.7955V58.2855V58.8855L118.6 62.4655L118.69 61.4655L109.73 57.7955Z" fill="#C10505"/>
<path d="M110.05 67.3356V68.4356L117.78 71.8656C117.78 71.5256 117.85 71.1856 117.88 70.8656L110.05 67.3356Z" fill="#C10505"/>
<path d="M110.34 75.8556V76.9156L117.01 79.5056C117.01 79.1756 117.08 78.8356 117.12 78.5056L110.34 75.8556Z" fill="#C10505"/>
<path d="M108.73 121.135C99.59 124.345 88.8999 127.695 71.7899 127.465C54.6799 127.695 43.9899 124.345 34.8499 121.135C24.1599 117.375 25.8499 115.935 26.8499 110.635C27.8499 105.335 29.3499 100.905 32.1499 79.2355C34.9499 57.5655 32.6899 13.6055 32.6199 12.7755C32.5499 11.9455 34.78 8.33547 42.3 6.20547C42.83 6.05547 43.4399 5.90548 44.1199 5.75548C44.7999 5.60548 45.3999 5.48547 46.1199 5.35547C48.3199 4.95547 50.92 4.57546 53.61 4.22546C54.25 5.41546 54.91 6.51548 55.61 7.53548C55.8 7.81548 55.9799 8.09548 56.1699 8.36548C56.4999 8.85548 56.8399 9.36547 57.1699 9.77547V9.83546C57.6099 10.4288 58.0499 10.9888 58.4899 11.5155L58.5399 11.5755C59.1899 12.3555 59.8499 13.0755 60.4899 13.7255C60.7299 13.9755 60.9599 14.2055 61.1999 14.4255C62.9404 16.1261 64.8853 17.6041 66.9899 18.8255C67.2899 19.0055 67.5899 19.1655 67.8699 19.3055C68.9838 19.9075 70.1567 20.3934 71.3699 20.7555C71.6099 20.8255 71.7599 20.8555 71.8099 20.8655C71.9997 20.8277 72.1867 20.7776 72.3699 20.7155C73.5183 20.3715 74.6303 19.916 75.69 19.3555L76.5699 18.8755C78.6763 17.6435 80.6269 16.1629 82.3799 14.4655L83.0899 13.7555C83.7499 13.0955 84.4099 12.3755 85.0899 11.5755L85.1399 11.5155C85.6174 10.986 86.0584 10.4247 86.4599 9.83546V9.77547C86.7933 9.33547 87.1266 8.87548 87.4599 8.39548C87.6499 8.12548 87.8299 7.84548 88.0199 7.56548C88.6866 6.53881 89.3533 5.42881 90.0199 4.23547C92.6899 4.58547 95.26 4.95547 97.45 5.35547C98.16 5.48547 98.83 5.62548 99.45 5.75548C100.07 5.88548 100.73 6.05547 101.26 6.20547C108.78 8.33547 111.02 11.9455 110.94 12.7755C110.86 13.6055 108.62 57.5555 111.41 79.2355C114.2 100.915 115.65 105.335 116.71 110.635C117.77 115.935 119.42 117.375 108.73 121.135Z" fill="url(#paint5_linear_126_278)"/>
<path d="M99.53 5.52557L99.47 5.72557C98.7351 7.99506 97.8049 10.1966 96.69 12.3056C96.54 12.5856 96.39 12.8856 96.22 13.1756C94.499 16.2991 92.4072 19.2035 89.99 21.8256C89.77 22.0656 89.54 22.3156 89.3 22.5556C86.8519 25.0996 84.0975 27.33 81.1 29.1956C80.82 29.3856 80.53 29.5556 80.24 29.7356C77.7478 31.2163 75.1231 32.4617 72.4 33.4556L71.88 33.6556H71.8L71.4 33.5056C68.6183 32.4968 65.9395 31.2243 63.4 29.7056L62.54 29.1756C59.5462 27.301 56.7925 25.0678 54.34 22.5256L53.65 21.7956C51.2397 19.1701 49.1516 16.2662 47.43 13.1456C47.26 12.8456 47.11 12.5556 46.96 12.2656C45.8455 10.1599 44.9154 7.96167 44.18 5.69557L44.12 5.49557C44.7405 5.36465 45.3683 5.27114 46 5.21558C48.22 4.80558 50.83 4.42557 53.54 4.08557H53.61L53.67 4.19557C54.31 5.38557 54.97 6.48558 55.67 7.50558C55.86 7.78558 56.04 8.06557 56.23 8.33557C56.56 8.82557 56.9 9.33557 57.23 9.74557V9.80557C57.67 10.3989 58.11 10.9589 58.55 11.4856L58.6 11.5456C59.25 12.3256 59.91 13.0456 60.55 13.6956C60.79 13.9456 61.02 14.1756 61.26 14.3956C63.0005 16.0962 64.9453 17.5742 67.05 18.7956C67.35 18.9756 67.65 19.1356 67.93 19.2756C69.0439 19.8776 70.2167 20.3635 71.43 20.7256C71.67 20.7956 71.82 20.8256 71.87 20.8356C72.0597 20.7978 72.2468 20.7477 72.43 20.6856C73.5784 20.3417 74.6904 19.8862 75.75 19.3256L76.63 18.8456C78.7363 17.6136 80.687 16.133 82.44 14.4356L83.15 13.7256C83.81 13.0656 84.47 12.3456 85.15 11.5456L85.2 11.4856C85.6775 10.9561 86.1185 10.3948 86.52 9.80557V9.74557C86.8533 9.30557 87.1867 8.84559 87.52 8.36559C87.71 8.09559 87.89 7.81558 88.08 7.53558C88.7467 6.50892 89.4133 5.39892 90.08 4.20558L90.14 4.09558C92.85 4.43558 95.46 4.81557 97.68 5.22557C98.302 5.28892 98.9198 5.3891 99.53 5.52557Z" fill="url(#paint6_linear_126_278)"/>
<path d="M56.14 8.36552L47.34 13.2055C47.17 12.9055 47.02 12.6155 46.87 12.3255L55.54 7.53552C55.77 7.79552 55.95 8.09552 56.14 8.36552Z" fill="#C10505"/>
<path d="M61.22 14.4255L54.34 22.5855L53.65 21.8555L60.56 13.7255C60.75 13.9755 60.98 14.2055 61.22 14.4255Z" fill="#C10505"/>
<path d="M67.89 19.3055L63.34 29.7955L62.48 29.2655L67.01 18.7955C67.34 19.0055 67.61 19.1655 67.89 19.3055Z" fill="#C10505"/>
<path d="M72.39 20.7156V33.4856L71.87 33.6856H71.79L71.39 33.5356V20.7956C71.63 20.8656 71.78 20.8956 71.83 20.9056C72.0207 20.8547 72.2078 20.7913 72.39 20.7156Z" fill="#C10505"/>
<path d="M96.68 12.3355C96.53 12.6155 96.38 12.9156 96.21 13.2056L87.5 8.39555C87.69 8.12555 87.87 7.84555 88.06 7.56555L96.68 12.3355Z" fill="#C10505"/>
<path d="M89.98 21.8555C89.76 22.0955 89.53 22.3455 89.29 22.5855L82.4 14.4655L83.11 13.7555L89.98 21.8555Z" fill="#C10505"/>
<path d="M81.09 29.2255C80.81 29.4155 80.52 29.5855 80.23 29.7655L75.71 19.3555L76.59 18.8755L81.09 29.2255Z" fill="#C10505"/>
<path d="M90.02 2.08548C86.61 1.22548 85.23 0.485485 84.68 0.085485C84.6313 0.0491085 84.5754 0.0234819 84.5161 0.0102745C84.4568 -0.00293303 84.3953 -0.00341385 84.3358 0.00887065C84.2762 0.0211551 84.22 0.0459171 84.1707 0.081533C84.1215 0.117149 84.0803 0.162807 84.05 0.21549C80.9311 5.86541 76.8303 10.9143 71.94 15.1255C71.8739 15.1909 71.8286 15.2744 71.81 15.3655C71.7912 15.2722 71.7419 15.1878 71.67 15.1255C66.7868 10.9101 62.69 5.86186 59.57 0.21549C59.5397 0.162807 59.4985 0.117149 59.4493 0.081533C59.4 0.0459171 59.3437 0.0211551 59.2842 0.00887065C59.2247 -0.00341385 59.1632 -0.00293303 59.1039 0.0102745C59.0446 0.0234819 58.9887 0.0491085 58.94 0.085485C58.39 0.505485 57.01 1.24549 53.6 2.08548C53.5083 2.10419 53.426 2.15446 53.3676 2.22754C53.3091 2.30063 53.2781 2.39192 53.28 2.48549C53.33 4.73549 53.71 18.1155 55.28 27.9155C55.2955 27.986 55.3285 28.0514 55.376 28.1058C55.4234 28.1602 55.4838 28.2017 55.5515 28.2266C55.6193 28.2515 55.6922 28.259 55.7636 28.2483C55.835 28.2376 55.9025 28.2091 55.96 28.1655C58.54 26.2355 69.21 18.1655 71.67 15.6955C71.658 15.6774 71.6511 15.6564 71.6501 15.6347C71.6491 15.6131 71.654 15.5915 71.6643 15.5724C71.6745 15.5533 71.6898 15.5373 71.7084 15.5262C71.727 15.515 71.7483 15.5092 71.77 15.5092C71.7917 15.5092 71.813 15.515 71.8316 15.5262C71.8502 15.5373 71.8655 15.5533 71.8757 15.5724C71.886 15.5915 71.8909 15.6131 71.8899 15.6347C71.8888 15.6564 71.882 15.6774 71.87 15.6955C74.33 18.1855 85 26.2355 87.58 28.1655C87.6375 28.2091 87.705 28.2376 87.7764 28.2483C87.8478 28.259 87.9207 28.2515 87.9884 28.2266C88.0562 28.2017 88.1165 28.1602 88.164 28.1058C88.2115 28.0514 88.2445 27.986 88.26 27.9155C89.87 18.1155 90.26 4.73549 90.26 2.48549C90.2668 2.40209 90.2474 2.31863 90.2043 2.24688C90.1613 2.17512 90.0968 2.11868 90.02 2.08548Z" fill="url(#paint7_linear_126_278)"/>
<defs>
<linearGradient id="paint0_linear_126_278" x1="71.8499" y1="24.8556" x2="71.8499" y2="15.7156" gradientUnits="userSpaceOnUse">
<stop offset="0.36" stop-color="#F7F7F7"/>
<stop offset="1" stop-color="#D3E2EA"/>
</linearGradient>
<linearGradient id="paint1_linear_126_278" x1="16.3" y1="15.6855" x2="16.3" y2="94.4455" gradientUnits="userSpaceOnUse">
<stop offset="0.36" stop-color="#F7F7F7"/>
<stop offset="1" stop-color="#D3E2EA"/>
</linearGradient>
<linearGradient id="paint2_linear_126_278" x1="127.28" y1="15.6855" x2="127.28" y2="94.4455" gradientUnits="userSpaceOnUse">
<stop offset="0.36" stop-color="#F7F7F7"/>
<stop offset="1" stop-color="#D3E2EA"/>
</linearGradient>
<linearGradient id="paint3_linear_126_278" x1="35.48" y1="54.4955" x2="22.38" y2="54.4955" gradientUnits="userSpaceOnUse">
<stop stop-color="#C10505"/>
<stop offset="0.08" stop-color="#C90606"/>
<stop offset="0.26" stop-color="#D60606"/>
<stop offset="0.5" stop-color="#DE0707"/>
<stop offset="1" stop-color="#E00707"/>
</linearGradient>
<linearGradient id="paint4_linear_126_278" x1="108.14" y1="54.4955" x2="121.24" y2="54.4955" gradientUnits="userSpaceOnUse">
<stop stop-color="#C10505"/>
<stop offset="0.08" stop-color="#C90606"/>
<stop offset="0.26" stop-color="#D60606"/>
<stop offset="0.5" stop-color="#DE0707"/>
<stop offset="1" stop-color="#E00707"/>
</linearGradient>
<linearGradient id="paint5_linear_126_278" x1="71.7899" y1="4.22546" x2="71.7899" y2="127.475" gradientUnits="userSpaceOnUse">
<stop stop-color="#FF4D4D"/>
<stop offset="0.48" stop-color="#FE4B4B"/>
<stop offset="0.66" stop-color="#FB4444"/>
<stop offset="0.78" stop-color="#F63939"/>
<stop offset="0.88" stop-color="#EE2828"/>
<stop offset="0.97" stop-color="#E51212"/>
<stop offset="1" stop-color="#E00707"/>
</linearGradient>
<linearGradient id="paint6_linear_126_278" x1="71.79" y1="4.10557" x2="71.79" y2="33.7156" gradientUnits="userSpaceOnUse">
<stop stop-color="#C10505"/>
<stop offset="0.59" stop-color="#D70606"/>
<stop offset="1" stop-color="#E00707"/>
</linearGradient>
<linearGradient id="paint7_linear_126_278" x1="71.81" y1="-0.0245058" x2="71.81" y2="28.2555" gradientUnits="userSpaceOnUse">
<stop offset="0.36" stop-color="#F7F7F7"/>
<stop offset="0.57" stop-color="#F2F4F5"/>
<stop offset="0.8" stop-color="#E5ECF0"/>
<stop offset="1" stop-color="#D3E2EA"/>
</linearGradient>
</defs>
</svg>
