<svg width="124" height="88" viewBox="0 0 124 88" fill="none" xmlns="http://www.w3.org/2000/svg">
<path d="M101.841 14.7601C99.6742 12.8839 97.3749 11.1662 94.9612 9.62007C93.8512 8.91007 92.7212 8.23007 91.5612 7.62007L90.8912 7.25006L89.8912 6.70006L88.8912 6.21007L88.5412 6.04007C88.3212 5.93007 88.0913 5.82007 87.8613 5.73007C82.9838 3.44247 77.8208 1.82126 72.5112 0.910065C71.7212 0.770065 70.9312 0.64007 70.1312 0.54007C67.4297 0.177739 64.7069 -0.00267625 61.9812 6.12042e-05C59.2556 -0.00267625 56.5327 0.177739 53.8312 0.54007C53.0312 0.64007 52.2412 0.770065 51.4512 0.910065C46.1416 1.82126 40.9787 3.44247 36.1012 5.73007C35.8712 5.82007 35.6412 5.93007 35.4212 6.04007L35.0712 6.21007L34.0712 6.70006L33.0712 7.25006L32.4012 7.62007C31.2412 8.25007 30.1112 8.93007 29.0012 9.62007C26.5876 11.1662 24.2883 12.8839 22.1212 14.7601C14.7223 20.6552 8.85779 28.2514 5.02724 36.9014C1.19668 45.5515 -0.486435 54.9993 0.121231 64.4401C1.12123 68.6801 0.031219 76.0801 3.42122 79.1501C3.41669 79.2 3.41669 79.2502 3.42122 79.3001C4.01079 79.7348 4.64829 80.1006 5.32121 80.3901C5.56806 80.4462 5.82437 80.4462 6.07121 80.3901L6.47124 80.4601C6.69306 80.5643 6.90127 80.6952 7.09123 80.8501C7.14926 80.8948 7.20285 80.945 7.25124 81.0001C7.72495 81.6099 7.96601 82.3686 7.93123 83.1401C7.87348 83.3659 7.83995 83.5972 7.83122 83.8301L7.95122 83.7501C7.95122 85.3201 8.02122 86.8501 10.3612 87.0401L10.4712 86.8001C8.79124 85.3301 9.61124 83.8001 10.4712 82.1901L10.5612 82.1301L10.8112 81.5701C11.049 81.1566 11.2465 80.7212 11.4012 80.2701C11.5349 79.9722 11.571 79.6397 11.5046 79.3201C11.4382 79.0005 11.2725 78.71 11.0312 78.4901C10.2512 77.6501 8.82123 77.0901 8.74123 75.8501C9.17123 70.8501 8.46122 58.4801 11.8912 55.5101L12.0412 55.6501C13.1112 56.8201 11.6612 59.1801 10.7812 61.6501C10.2411 62.8822 10.0911 64.2501 10.3512 65.5701C10.596 66.2452 10.9944 66.8542 11.5151 67.3489C12.0358 67.8435 12.6644 68.2102 13.3512 68.4201C9.35121 63.2301 17.8212 59.9201 16.7312 55.0001C15.8712 53.5701 13.6412 53.0701 13.5512 51.1201C15.5275 45.8463 18.3587 40.9339 21.9312 36.5801C22.8812 40.2301 26.9312 40.4401 29.1612 42.8201C29.4212 48.1701 17.9812 56.1201 27.2512 60.9801C22.4112 49.5501 39.8312 49.5001 41.9712 40.9301C43.1912 35.7101 36.6212 32.0601 39.1612 26.8001C40.3196 23.9855 42.4781 21.6988 45.2212 20.3801C46.3812 19.9701 47.5612 19.6201 48.7612 19.3101L49.9312 19.0201C50.5612 18.8601 51.1812 18.7301 51.8212 18.6101C54.8933 17.9867 58.0169 17.6519 61.1512 17.6101H61.9612H62.7712C65.9056 17.6519 69.0292 17.9867 72.1012 18.6101C72.7412 18.7301 73.3612 18.8601 73.9912 19.0201L75.1612 19.3101C76.3612 19.6201 77.5412 19.9701 78.7012 20.3801C81.4444 21.6988 83.6028 23.9855 84.7612 26.8001C87.3012 32.0601 80.7612 35.7101 81.9512 40.9301C84.0912 49.5001 101.511 49.5501 96.6712 60.9801C105.941 56.1201 94.5012 48.1701 94.7612 42.8201C96.9812 40.4401 101.041 40.2301 101.991 36.5801C105.564 40.9339 108.395 45.8463 110.371 51.1201C110.281 53.1201 108.051 53.5701 107.191 55.0001C106.101 59.9201 114.591 63.2301 110.571 68.4201C111.258 68.2102 111.887 67.8435 112.407 67.3489C112.928 66.8542 113.326 66.2452 113.571 65.5701C113.831 64.2501 113.681 62.8822 113.141 61.6501C112.261 59.1801 110.811 56.8201 111.881 55.6501L112.031 55.5101C115.461 58.5101 114.751 70.8101 115.181 75.8501C115.101 77.0901 113.671 77.6501 112.891 78.4901C112.65 78.71 112.484 79.0005 112.418 79.3201C112.351 79.6397 112.388 79.9722 112.521 80.2701C112.676 80.7212 112.874 81.1566 113.111 81.5701L113.361 82.1301L113.451 82.1901C114.331 83.7801 115.151 85.3301 113.451 86.8001L113.561 87.0401C115.901 86.8501 115.941 85.3201 115.971 83.7501L116.091 83.8301C116.083 83.5972 116.049 83.3659 115.991 83.1401C115.956 82.3686 116.198 81.6099 116.671 81.0001C116.72 80.945 116.773 80.8948 116.831 80.8501C117.021 80.6952 117.229 80.5643 117.451 80.4601L117.851 80.3901C118.098 80.4462 118.354 80.4462 118.601 80.3901C119.274 80.1006 119.912 79.7348 120.501 79.3001C120.506 79.2502 120.506 79.2 120.501 79.1501C123.891 76.0801 122.791 68.6801 123.801 64.4401C124.414 55.0027 122.737 45.5571 118.913 36.9073C115.09 28.2574 109.233 20.6594 101.841 14.7601Z" fill="url(#paint0_linear_126_11)"/>
<defs>
<linearGradient id="paint0_linear_126_11" x1="61.9212" y1="87.0801" x2="61.9212" y2="-0.0299386" gradientUnits="userSpaceOnUse">
    <stop stop-color="#3b767a"/>
    <stop offset="0.14" stop-color="#326a6e"/>
    <stop offset="0.35" stop-color="#295d61"/>
    <stop offset="0.6" stop-color="#24565b"/>
    <stop offset="1" stop-color="#225358"/>
    </linearGradient>
</defs>
</svg>
