<svg width="1162" height="128" viewBox="0 0 1162 128" fill="none" xmlns="http://www.w3.org/2000/svg">
<mask id="path-1-outside-1_201_739" maskUnits="userSpaceOnUse" x="-0.63623" y="-0.636475" width="1163" height="129" fill="black">
<rect fill="white" x="-0.63623" y="-0.636475" width="1163" height="129"/>
<path d="M103.273 52.1817H77.6365C77.4547 50.0605 76.9698 48.1362 76.182 46.409C75.4244 44.6817 74.3638 43.1969 73.0001 41.9544C71.6668 40.6817 70.0456 39.712 68.1365 39.0453C66.2274 38.3484 64.0607 37.9999 61.6365 37.9999C57.3941 37.9999 53.8032 39.0302 50.8638 41.0908C47.9547 43.1514 45.7426 46.1059 44.2274 49.9544C42.7426 53.8029 42.0001 58.4241 42.0001 63.8181C42.0001 69.515 42.7577 74.2878 44.2729 78.1363C45.8183 81.9544 48.0456 84.8332 50.9547 86.7726C53.8638 88.6817 57.3638 89.6363 61.4547 89.6363C63.788 89.6363 65.8789 89.3484 67.7274 88.7726C69.5759 88.1666 71.182 87.3029 72.5456 86.1817C73.9092 85.0605 75.0153 83.712 75.8638 82.1363C76.7426 80.5302 77.3335 78.7272 77.6365 76.7272L103.273 76.909C102.97 80.8484 101.864 84.8635 99.9547 88.9544C98.0456 93.015 95.3335 96.7726 91.8183 100.227C88.3335 103.651 84.0153 106.409 78.8638 108.5C73.7123 110.591 67.7274 111.636 60.9092 111.636C52.3638 111.636 44.6971 109.803 37.9092 106.136C31.1516 102.47 25.8032 97.0756 21.8638 89.9544C17.9547 82.8332 16.0001 74.1211 16.0001 63.8181C16.0001 53.4544 18.0001 44.7272 22.0001 37.6363C26.0001 30.515 31.3941 25.1362 38.182 21.4999C44.9698 17.8332 52.5456 15.9999 60.9092 15.9999C66.788 15.9999 72.1971 16.8029 77.1365 18.409C82.0759 20.015 86.4092 22.3635 90.1365 25.4544C93.8638 28.515 96.8638 32.2878 99.1365 36.7726C101.409 41.2575 102.788 46.3938 103.273 52.1817ZM114.739 110.364V17.2726H154.921C161.83 17.2726 167.875 18.5302 173.057 21.0453C178.239 23.5605 182.269 27.1817 185.148 31.909C188.027 36.6363 189.466 42.3029 189.466 48.909C189.466 55.5756 187.981 61.1969 185.011 65.7726C182.072 70.3484 177.936 73.8029 172.602 76.1363C167.299 78.4696 161.102 79.6363 154.011 79.6363H130.011V59.9999H148.921C151.89 59.9999 154.421 59.6363 156.511 58.909C158.633 58.1514 160.254 56.9544 161.375 55.3181C162.527 53.6817 163.102 51.5453 163.102 48.909C163.102 46.2423 162.527 44.0756 161.375 42.409C160.254 40.712 158.633 39.4696 156.511 38.6817C154.421 37.8635 151.89 37.4544 148.921 37.4544H140.011V110.364H114.739ZM169.284 67.6362L192.557 110.364H165.102L142.375 67.6362H169.284ZM200.239 110.364V17.2726H267.33V37.6363H225.511V53.6362H263.875V73.9999H225.511V89.9999H267.148V110.364H200.239ZM304.046 110.364H276.773L307.5 17.2726H342.046L372.773 110.364H345.5L325.136 42.909H324.409L304.046 110.364ZM298.955 73.6363H350.227V92.5453H298.955V73.6363ZM367.443 37.6363V17.2726H448.352V37.6363H420.352V110.364H395.443V37.6363H367.443ZM457.864 110.364V17.2726H524.955V37.6363H483.136V53.6362H521.5V73.9999H483.136V89.9999H524.773V110.364H457.864ZM559.171 17.2726H587.352L605.534 55.0908H606.261L624.443 17.2726H652.625L618.443 81.0908V110.364H593.352V81.0908L559.171 17.2726ZM744.546 63.8181C744.546 74.1817 742.53 82.9241 738.5 90.0453C734.47 97.1363 729.03 102.515 722.182 106.182C715.333 109.818 707.697 111.636 699.273 111.636C690.788 111.636 683.121 109.803 676.273 106.136C669.455 102.439 664.03 97.0453 660 89.9544C656 82.8332 654 74.1211 654 63.8181C654 53.4544 656 44.7272 660 37.6363C664.03 30.515 669.455 25.1362 676.273 21.4999C683.121 17.8332 690.788 15.9999 699.273 15.9999C707.697 15.9999 715.333 17.8332 722.182 21.4999C729.03 25.1362 734.47 30.515 738.5 37.6363C742.53 44.7272 744.546 53.4544 744.546 63.8181ZM718.546 63.8181C718.546 58.2423 717.803 53.5453 716.318 49.7272C714.864 45.8787 712.697 42.9696 709.818 40.9999C706.97 38.9999 703.455 37.9999 699.273 37.9999C695.091 37.9999 691.561 38.9999 688.682 40.9999C685.833 42.9696 683.667 45.8787 682.182 49.7272C680.727 53.5453 680 58.2423 680 63.8181C680 69.3938 680.727 74.1059 682.182 77.9544C683.667 81.7726 685.833 84.6817 688.682 86.6817C691.561 88.6514 695.091 89.6363 699.273 89.6363C703.455 89.6363 706.97 88.6514 709.818 86.6817C712.697 84.6817 714.864 81.7726 716.318 77.9544C717.803 74.1059 718.546 69.3938 718.546 63.8181ZM811.33 17.2726H836.602V76.909C836.602 83.9999 834.905 90.1363 831.511 95.3181C828.148 100.47 823.451 104.454 817.421 107.273C811.39 110.06 804.39 111.454 796.421 111.454C788.39 111.454 781.36 110.06 775.33 107.273C769.299 104.454 764.602 100.47 761.239 95.3181C757.905 90.1363 756.239 83.9999 756.239 76.909V17.2726H781.511V74.7272C781.511 77.6059 782.148 80.1817 783.421 82.4544C784.693 84.6969 786.451 86.4544 788.693 87.7272C790.966 88.9999 793.542 89.6363 796.421 89.6363C799.33 89.6363 801.905 88.9999 804.148 87.7272C806.39 86.4544 808.148 84.6969 809.421 82.4544C810.693 80.1817 811.33 77.6059 811.33 74.7272V17.2726ZM848.614 110.364V17.2726H888.796C895.705 17.2726 901.75 18.5302 906.932 21.0453C912.114 23.5605 916.144 27.1817 919.023 31.909C921.902 36.6363 923.341 42.3029 923.341 48.909C923.341 55.5756 921.856 61.1969 918.886 65.7726C915.947 70.3484 911.811 73.8029 906.477 76.1363C901.174 78.4696 894.977 79.6363 887.886 79.6363H863.886V59.9999H882.796C885.765 59.9999 888.296 59.6363 890.386 58.909C892.508 58.1514 894.129 56.9544 895.25 55.3181C896.402 53.6817 896.977 51.5453 896.977 48.909C896.977 46.2423 896.402 44.0756 895.25 42.409C894.129 40.712 892.508 39.4696 890.386 38.6817C888.296 37.8635 885.765 37.4544 882.796 37.4544H873.886V110.364H848.614ZM903.159 67.6362L926.432 110.364H898.977L876.25 67.6362H903.159ZM959.614 17.2726H991.068L1012.7 69.9999H1013.8L1035.43 17.2726H1066.89V110.364H1042.16V56.5453H1041.43L1020.7 109.636H1005.8L985.068 56.1817H984.341V110.364H959.614V17.2726ZM1078.86 110.364V17.2726H1145.95V37.6363H1104.14V53.6362H1142.5V73.9999H1104.14V89.9999H1145.77V110.364H1078.86Z"/>
</mask>
<path d="M103.273 52.1817H77.6365C77.4547 50.0605 76.9698 48.1362 76.182 46.409C75.4244 44.6817 74.3638 43.1969 73.0001 41.9544C71.6668 40.6817 70.0456 39.712 68.1365 39.0453C66.2274 38.3484 64.0607 37.9999 61.6365 37.9999C57.3941 37.9999 53.8032 39.0302 50.8638 41.0908C47.9547 43.1514 45.7426 46.1059 44.2274 49.9544C42.7426 53.8029 42.0001 58.4241 42.0001 63.8181C42.0001 69.515 42.7577 74.2878 44.2729 78.1363C45.8183 81.9544 48.0456 84.8332 50.9547 86.7726C53.8638 88.6817 57.3638 89.6363 61.4547 89.6363C63.788 89.6363 65.8789 89.3484 67.7274 88.7726C69.5759 88.1666 71.182 87.3029 72.5456 86.1817C73.9092 85.0605 75.0153 83.712 75.8638 82.1363C76.7426 80.5302 77.3335 78.7272 77.6365 76.7272L103.273 76.909C102.97 80.8484 101.864 84.8635 99.9547 88.9544C98.0456 93.015 95.3335 96.7726 91.8183 100.227C88.3335 103.651 84.0153 106.409 78.8638 108.5C73.7123 110.591 67.7274 111.636 60.9092 111.636C52.3638 111.636 44.6971 109.803 37.9092 106.136C31.1516 102.47 25.8032 97.0756 21.8638 89.9544C17.9547 82.8332 16.0001 74.1211 16.0001 63.8181C16.0001 53.4544 18.0001 44.7272 22.0001 37.6363C26.0001 30.515 31.3941 25.1362 38.182 21.4999C44.9698 17.8332 52.5456 15.9999 60.9092 15.9999C66.788 15.9999 72.1971 16.8029 77.1365 18.409C82.0759 20.015 86.4092 22.3635 90.1365 25.4544C93.8638 28.515 96.8638 32.2878 99.1365 36.7726C101.409 41.2575 102.788 46.3938 103.273 52.1817ZM114.739 110.364V17.2726H154.921C161.83 17.2726 167.875 18.5302 173.057 21.0453C178.239 23.5605 182.269 27.1817 185.148 31.909C188.027 36.6363 189.466 42.3029 189.466 48.909C189.466 55.5756 187.981 61.1969 185.011 65.7726C182.072 70.3484 177.936 73.8029 172.602 76.1363C167.299 78.4696 161.102 79.6363 154.011 79.6363H130.011V59.9999H148.921C151.89 59.9999 154.421 59.6363 156.511 58.909C158.633 58.1514 160.254 56.9544 161.375 55.3181C162.527 53.6817 163.102 51.5453 163.102 48.909C163.102 46.2423 162.527 44.0756 161.375 42.409C160.254 40.712 158.633 39.4696 156.511 38.6817C154.421 37.8635 151.89 37.4544 148.921 37.4544H140.011V110.364H114.739ZM169.284 67.6362L192.557 110.364H165.102L142.375 67.6362H169.284ZM200.239 110.364V17.2726H267.33V37.6363H225.511V53.6362H263.875V73.9999H225.511V89.9999H267.148V110.364H200.239ZM304.046 110.364H276.773L307.5 17.2726H342.046L372.773 110.364H345.5L325.136 42.909H324.409L304.046 110.364ZM298.955 73.6363H350.227V92.5453H298.955V73.6363ZM367.443 37.6363V17.2726H448.352V37.6363H420.352V110.364H395.443V37.6363H367.443ZM457.864 110.364V17.2726H524.955V37.6363H483.136V53.6362H521.5V73.9999H483.136V89.9999H524.773V110.364H457.864ZM559.171 17.2726H587.352L605.534 55.0908H606.261L624.443 17.2726H652.625L618.443 81.0908V110.364H593.352V81.0908L559.171 17.2726ZM744.546 63.8181C744.546 74.1817 742.53 82.9241 738.5 90.0453C734.47 97.1363 729.03 102.515 722.182 106.182C715.333 109.818 707.697 111.636 699.273 111.636C690.788 111.636 683.121 109.803 676.273 106.136C669.455 102.439 664.03 97.0453 660 89.9544C656 82.8332 654 74.1211 654 63.8181C654 53.4544 656 44.7272 660 37.6363C664.03 30.515 669.455 25.1362 676.273 21.4999C683.121 17.8332 690.788 15.9999 699.273 15.9999C707.697 15.9999 715.333 17.8332 722.182 21.4999C729.03 25.1362 734.47 30.515 738.5 37.6363C742.53 44.7272 744.546 53.4544 744.546 63.8181ZM718.546 63.8181C718.546 58.2423 717.803 53.5453 716.318 49.7272C714.864 45.8787 712.697 42.9696 709.818 40.9999C706.97 38.9999 703.455 37.9999 699.273 37.9999C695.091 37.9999 691.561 38.9999 688.682 40.9999C685.833 42.9696 683.667 45.8787 682.182 49.7272C680.727 53.5453 680 58.2423 680 63.8181C680 69.3938 680.727 74.1059 682.182 77.9544C683.667 81.7726 685.833 84.6817 688.682 86.6817C691.561 88.6514 695.091 89.6363 699.273 89.6363C703.455 89.6363 706.97 88.6514 709.818 86.6817C712.697 84.6817 714.864 81.7726 716.318 77.9544C717.803 74.1059 718.546 69.3938 718.546 63.8181ZM811.33 17.2726H836.602V76.909C836.602 83.9999 834.905 90.1363 831.511 95.3181C828.148 100.47 823.451 104.454 817.421 107.273C811.39 110.06 804.39 111.454 796.421 111.454C788.39 111.454 781.36 110.06 775.33 107.273C769.299 104.454 764.602 100.47 761.239 95.3181C757.905 90.1363 756.239 83.9999 756.239 76.909V17.2726H781.511V74.7272C781.511 77.6059 782.148 80.1817 783.421 82.4544C784.693 84.6969 786.451 86.4544 788.693 87.7272C790.966 88.9999 793.542 89.6363 796.421 89.6363C799.33 89.6363 801.905 88.9999 804.148 87.7272C806.39 86.4544 808.148 84.6969 809.421 82.4544C810.693 80.1817 811.33 77.6059 811.33 74.7272V17.2726ZM848.614 110.364V17.2726H888.796C895.705 17.2726 901.75 18.5302 906.932 21.0453C912.114 23.5605 916.144 27.1817 919.023 31.909C921.902 36.6363 923.341 42.3029 923.341 48.909C923.341 55.5756 921.856 61.1969 918.886 65.7726C915.947 70.3484 911.811 73.8029 906.477 76.1363C901.174 78.4696 894.977 79.6363 887.886 79.6363H863.886V59.9999H882.796C885.765 59.9999 888.296 59.6363 890.386 58.909C892.508 58.1514 894.129 56.9544 895.25 55.3181C896.402 53.6817 896.977 51.5453 896.977 48.909C896.977 46.2423 896.402 44.0756 895.25 42.409C894.129 40.712 892.508 39.4696 890.386 38.6817C888.296 37.8635 885.765 37.4544 882.796 37.4544H873.886V110.364H848.614ZM903.159 67.6362L926.432 110.364H898.977L876.25 67.6362H903.159ZM959.614 17.2726H991.068L1012.7 69.9999H1013.8L1035.43 17.2726H1066.89V110.364H1042.16V56.5453H1041.43L1020.7 109.636H1005.8L985.068 56.1817H984.341V110.364H959.614V17.2726ZM1078.86 110.364V17.2726H1145.95V37.6363H1104.14V53.6362H1142.5V73.9999H1104.14V89.9999H1145.77V110.364H1078.86Z" fill="url(#paint0_linear_201_739)"/>
<path d="M103.273 52.1817V68.1817C107.749 68.1817 112.02 66.3071 115.049 63.0129C118.079 59.7187 119.591 55.3061 119.217 50.8461L103.273 52.1817ZM77.6365 52.1817L61.695 53.5481C62.4044 61.8247 69.3296 68.1817 77.6365 68.1817V52.1817ZM76.182 46.409L61.5293 52.8355C61.5606 52.9069 61.5925 52.9781 61.6248 53.0491L76.182 46.409ZM73.0001 41.9544L61.9525 53.5281C62.0421 53.6137 62.1327 53.6981 62.2243 53.7816L73.0001 41.9544ZM68.1365 39.0453L62.6495 54.0751C62.72 54.1008 62.7907 54.1261 62.8616 54.1508L68.1365 39.0453ZM50.8638 41.0908L41.6793 27.9894C41.658 28.0044 41.6367 28.0194 41.6155 28.0344L50.8638 41.0908ZM44.2274 49.9544L29.3397 44.0931C29.3263 44.127 29.3131 44.161 29.2999 44.195L44.2274 49.9544ZM44.2729 78.1363L29.3851 83.9976C29.4038 84.0449 29.4226 84.0922 29.4417 84.1393L44.2729 78.1363ZM50.9547 86.7726L42.0795 100.085C42.1116 100.107 42.1439 100.128 42.1762 100.149L50.9547 86.7726ZM67.7274 88.7726L72.4855 104.049C72.5613 104.025 72.6368 104.001 72.7122 103.976L67.7274 88.7726ZM72.5456 86.1817L82.7073 98.5405L82.7073 98.5405L72.5456 86.1817ZM75.8638 82.1363L61.8276 74.4561C61.8104 74.4875 61.7932 74.5191 61.7762 74.5507L75.8638 82.1363ZM77.6365 76.7272L77.75 60.7276C69.7962 60.6712 63.0086 66.466 61.817 74.3303L77.6365 76.7272ZM103.273 76.909L119.226 78.1361C119.566 73.7122 118.054 69.3456 115.051 66.0795C112.048 62.8133 107.823 60.9408 103.386 60.9094L103.273 76.909ZM99.9547 88.9544L114.434 95.762C114.441 95.7482 114.447 95.7344 114.454 95.7206L99.9547 88.9544ZM91.8183 100.227L103.032 111.64L103.033 111.639L91.8183 100.227ZM78.8638 108.5L72.8464 93.6745L78.8638 108.5ZM37.9092 106.136L30.2785 120.199C30.2873 120.204 30.2961 120.209 30.3049 120.214L37.9092 106.136ZM21.8638 89.9544L7.83802 97.6537C7.8464 97.6689 7.8548 97.6842 7.86323 97.6994L21.8638 89.9544ZM22.0001 37.6363L35.9358 45.4974C35.9406 45.4889 35.9453 45.4805 35.9501 45.472L22.0001 37.6363ZM38.182 21.4999L45.7375 35.6036C45.7538 35.5948 45.77 35.5861 45.7863 35.5773L38.182 21.4999ZM77.1365 18.409L82.084 3.19312H82.084L77.1365 18.409ZM90.1365 25.4544L79.9231 37.7706C79.943 37.787 79.9629 37.8034 79.9828 37.8198L90.1365 25.4544ZM99.1365 36.7726L84.8644 44.0051L84.8644 44.0051L99.1365 36.7726ZM103.273 52.1817V36.1817H77.6365V52.1817V68.1817H103.273V52.1817ZM77.6365 52.1817L93.578 50.8153C93.2587 47.0895 92.3731 43.3513 90.7391 39.7689L76.182 46.409L61.6248 53.0491C61.6 52.9945 61.6045 52.9899 61.6214 53.0569C61.6389 53.1263 61.6723 53.2836 61.695 53.5481L77.6365 52.1817ZM76.182 46.409L90.8346 39.9824C89.1978 36.2506 86.8335 32.913 83.776 30.1273L73.0001 41.9544L62.2243 53.7816C62.0802 53.6503 61.9321 53.4867 61.7986 53.2997C61.6656 53.1136 61.5793 52.9494 61.5293 52.8355L76.182 46.409ZM73.0001 41.9544L84.0477 30.3807C80.9096 27.3852 77.2634 25.285 73.4114 23.9399L68.1365 39.0453L62.8616 54.1508C62.8641 54.1517 62.7536 54.1129 62.5712 54.0038C62.3851 53.8925 62.1687 53.7345 61.9525 53.5281L73.0001 41.9544ZM68.1365 39.0453L73.6235 24.0156C69.6538 22.5663 65.5808 21.9999 61.6365 21.9999V37.9999V53.9999C62.5407 53.9999 62.8011 54.1304 62.6495 54.0751L68.1365 39.0453ZM61.6365 37.9999V21.9999C54.7202 21.9999 47.7714 23.7187 41.6793 27.9894L50.8638 41.0908L60.0482 54.1922C60.0061 54.2217 60.0145 54.1979 60.1742 54.1521C60.3558 54.1 60.8094 53.9999 61.6365 53.9999V37.9999ZM50.8638 41.0908L41.6155 28.0344C35.7803 32.1677 31.808 37.8236 29.3397 44.0931L44.2274 49.9544L59.1152 55.8157C59.4112 55.0639 59.6773 54.6465 59.8307 54.4416C59.9737 54.2507 60.065 54.1805 60.112 54.1472L50.8638 41.0908ZM44.2274 49.9544L29.2999 44.195C26.9252 50.3499 26.0001 57.0291 26.0001 63.8181H42.0001H58.0001C58.0001 59.8192 58.5599 57.2559 59.1549 55.7138L44.2274 49.9544ZM42.0001 63.8181H26.0001C26.0001 70.8156 26.9145 77.7222 29.3851 83.9976L44.2729 78.1363L59.1606 72.2749C58.6009 70.8533 58.0001 68.2145 58.0001 63.8181H42.0001ZM44.2729 78.1363L29.4417 84.1393C31.9734 90.3941 36.0468 96.0636 42.0795 100.085L50.9547 86.7726L59.8299 73.4598C59.8762 73.4907 59.854 73.4934 59.7571 73.3682C59.6474 73.2265 59.3987 72.8613 59.104 72.1332L44.2729 78.1363ZM50.9547 86.7726L42.1762 100.149C48.1241 104.053 54.8033 105.636 61.4547 105.636V89.6363V73.6363C60.6532 73.6363 60.1875 73.5431 59.9714 73.4841C59.8624 73.4544 59.8008 73.4291 59.7743 73.4173C59.7486 73.4058 59.7379 73.399 59.7332 73.3958L50.9547 86.7726ZM61.4547 89.6363V105.636C65.0818 105.636 68.8185 105.191 72.4855 104.049L67.7274 88.7726L62.9693 73.4965C62.9393 73.5058 62.4942 73.6363 61.4547 73.6363V89.6363ZM67.7274 88.7726L72.7122 103.976C76.2556 102.815 79.6606 101.046 82.7073 98.5405L72.5456 86.1817L62.3839 73.8229C62.5311 73.7019 62.6582 73.6229 62.7407 73.5785C62.8205 73.5356 62.8306 73.5401 62.7426 73.5689L67.7274 88.7726ZM72.5456 86.1817L82.7073 98.5405C85.6998 96.08 88.1308 93.1029 89.9513 89.7219L75.8638 82.1363L61.7762 74.5507C61.8276 74.4552 61.9098 74.3253 62.0269 74.1825C62.1444 74.0393 62.2688 73.9176 62.3839 73.8229L72.5456 86.1817ZM75.8638 82.1363L89.9 89.8164C91.7673 86.4038 92.9017 82.7823 93.4559 79.124L77.6365 76.7272L61.817 74.3303C61.7898 74.5101 61.7633 74.5918 61.7618 74.5965C61.7608 74.5995 61.7649 74.5866 61.7761 74.5605C61.7874 74.5344 61.8042 74.4987 61.8276 74.4561L75.8638 82.1363ZM77.6365 76.7272L77.523 92.7268L103.159 92.9086L103.273 76.909L103.386 60.9094L77.75 60.7276L77.6365 76.7272ZM103.273 76.909L87.32 75.6818C87.184 77.4495 86.6657 79.5955 85.4558 82.1883L99.9547 88.9544L114.454 95.7206C117.062 90.1316 118.756 84.2473 119.226 78.1361L103.273 76.909ZM99.9547 88.9544L85.4751 82.1469C84.4485 84.3305 82.899 86.5594 80.6034 88.8155L91.8183 100.227L103.033 111.639C107.768 106.986 111.643 101.7 114.434 95.762L99.9547 88.9544ZM91.8183 100.227L80.6043 88.8147C78.8037 90.5839 76.325 92.2626 72.8464 93.6745L78.8638 108.5L84.8811 123.325C91.7055 120.555 97.8632 116.719 103.032 111.64L91.8183 100.227ZM78.8638 108.5L72.8464 93.6745C69.9856 94.8357 66.1179 95.6363 60.9092 95.6363V111.636V127.636C69.3369 127.636 77.439 126.346 84.8811 123.325L78.8638 108.5ZM60.9092 111.636V95.6363C54.7274 95.6363 49.7218 94.332 45.5136 92.0588L37.9092 106.136L30.3049 120.214C39.6724 125.274 50.0001 127.636 60.9092 127.636V111.636ZM37.9092 106.136L45.5399 92.0731C41.6246 89.9487 38.417 86.824 35.8643 82.2094L21.8638 89.9544L7.86323 97.6994C13.1893 107.327 20.6787 114.991 30.2785 120.199L37.9092 106.136ZM21.8638 89.9544L35.8895 82.2552C33.5779 78.0441 32.0001 72.1366 32.0001 63.8181H16.0001H0.000133514C0.000133514 76.1056 2.33144 87.6223 7.83802 97.6537L21.8638 89.9544ZM16.0001 63.8181H32.0001C32.0001 55.4718 33.6102 49.6201 35.9358 45.4974L22.0001 37.6363L8.06448 29.7751C2.39011 39.8342 0.000133514 51.437 0.000133514 63.8181H16.0001ZM22.0001 37.6363L35.9501 45.472C38.5534 40.8374 41.7998 37.7131 45.7375 35.6036L38.182 21.4999L30.6264 7.3962C20.9884 12.5594 13.4469 20.1927 8.05017 29.8005L22.0001 37.6363ZM38.182 21.4999L45.7863 35.5773C50.0447 33.277 54.9716 31.9999 60.9092 31.9999V15.9999V-0.000114441C50.1195 -0.000114441 39.895 2.3894 30.5776 7.42245L38.182 21.4999ZM60.9092 15.9999V31.9999C65.3262 31.9999 69.0425 32.6017 72.189 33.6248L77.1365 18.409L82.084 3.19312C75.3517 1.00409 68.2498 -0.000114441 60.9092 -0.000114441V15.9999ZM77.1365 18.409L72.189 33.6248C75.3466 34.6515 77.8623 36.0616 79.9231 37.7706L90.1365 25.4544L100.35 13.1383C94.9562 8.66547 88.8052 5.37855 82.084 3.19312L77.1365 18.409ZM90.1365 25.4544L79.9828 37.8198C81.9236 39.4134 83.5505 41.4122 84.8644 44.0051L99.1365 36.7726L113.409 29.5402C110.177 23.1634 105.804 17.6166 100.29 13.0891L90.1365 25.4544ZM99.1365 36.7726L84.8644 44.0051C86.0719 46.3878 86.9896 49.4691 87.3287 53.5173L103.273 52.1817L119.217 50.8461C118.586 43.3185 116.747 36.1271 113.409 29.5401L99.1365 36.7726ZM114.739 110.364H98.7388C98.7388 119.2 105.902 126.364 114.739 126.364V110.364ZM114.739 17.2726V1.27261C105.902 1.27261 98.7388 8.43606 98.7388 17.2726H114.739ZM173.057 21.0453L166.07 35.4394L173.057 21.0453ZM185.148 31.909L198.813 23.5871V23.5871L185.148 31.909ZM185.012 65.7726L171.59 57.0622C171.577 57.0831 171.563 57.104 171.55 57.125L185.012 65.7726ZM172.602 76.1363L166.189 61.4777C166.179 61.4822 166.169 61.4867 166.159 61.4912L172.602 76.1363ZM130.011 79.6363H114.011C114.011 88.4728 121.175 95.6363 130.011 95.6363V79.6363ZM130.011 59.9999V43.9999C121.175 43.9999 114.011 51.1633 114.011 59.9999H130.011ZM156.512 58.909L161.768 74.0209C161.81 74.0064 161.851 73.9917 161.893 73.9769L156.512 58.909ZM161.375 55.3181L148.29 46.1102C148.252 46.1647 148.214 46.2194 148.176 46.2744L161.375 55.3181ZM161.375 42.409L148.026 51.2291C148.087 51.3213 148.149 51.4129 148.211 51.5039L161.375 42.409ZM156.512 38.6817L150.681 53.5816C150.767 53.6153 150.854 53.6483 150.94 53.6805L156.512 38.6817ZM140.012 37.4544V21.4544C131.175 21.4544 124.011 28.6179 124.011 37.4544H140.012ZM140.012 110.364V126.364C148.848 126.364 156.012 119.2 156.012 110.364H140.012ZM169.284 67.6362L183.335 59.983C180.533 54.8381 175.143 51.6362 169.284 51.6362V67.6362ZM192.557 110.364V126.364C198.202 126.364 203.43 123.389 206.313 118.535C209.196 113.682 209.308 107.668 206.608 102.71L192.557 110.364ZM165.102 110.364L150.976 117.877C153.754 123.1 159.187 126.364 165.102 126.364V110.364ZM142.375 67.6362V51.6362C136.758 51.6362 131.552 54.5818 128.66 59.3967C125.767 64.2117 125.611 70.1909 128.249 75.1501L142.375 67.6362ZM114.739 110.364H130.739V17.2726H114.739H98.7388V110.364H114.739ZM114.739 17.2726V33.2726H154.921V17.2726V1.27261H114.739V17.2726ZM154.921 17.2726V33.2726C159.886 33.2726 163.458 34.1713 166.07 35.4394L173.057 21.0453L180.044 6.65132C172.292 2.88908 163.773 1.27261 154.921 1.27261V17.2726ZM173.057 21.0453L166.07 35.4394C168.608 36.6709 170.268 38.2369 171.482 40.2309L185.148 31.909L198.813 23.5871C194.27 16.1265 187.87 10.4501 180.044 6.65132L173.057 21.0453ZM185.148 31.909L171.482 40.2309C172.562 42.0033 173.466 44.6661 173.466 48.909H189.466H205.466C205.466 39.9397 203.492 31.2692 198.813 23.5871L185.148 31.909ZM189.466 48.909H173.466C173.466 53.175 172.536 55.6043 171.59 57.0622L185.012 65.7726L198.433 74.483C203.426 66.7895 205.466 57.9762 205.466 48.909H189.466ZM185.012 65.7726L171.55 57.125C170.438 58.8564 168.845 60.3157 166.189 61.4777L172.602 76.1363L179.016 90.7948C187.026 87.2901 193.707 81.8404 198.473 74.4202L185.012 65.7726ZM172.602 76.1363L166.159 61.4912C163.287 62.7545 159.368 63.6363 154.012 63.6363V79.6363V95.6363C162.836 95.6363 171.311 94.1846 179.046 90.7813L172.602 76.1363ZM154.012 79.6363V63.6363H130.011V79.6363V95.6363H154.012V79.6363ZM130.011 79.6363H146.012V59.9999H130.011H114.011V79.6363H130.011ZM130.011 59.9999V75.9999H148.921V59.9999V43.9999H130.011V59.9999ZM148.921 59.9999V75.9999C153.108 75.9999 157.52 75.4984 161.768 74.0209L156.512 58.909L151.255 43.797C151.321 43.7741 150.673 43.9999 148.921 43.9999V59.9999ZM156.512 58.909L161.893 73.9769C166.741 72.2452 171.294 69.1483 174.574 64.3618L161.375 55.3181L148.176 46.2744C148.641 45.5955 149.212 45.0164 149.815 44.5713C150.402 44.1379 150.888 43.9276 151.13 43.8411L156.512 58.909ZM161.375 55.3181L174.46 64.526C178.028 59.4551 179.102 53.8054 179.102 48.909H163.102H147.102C147.102 49.2853 147.025 47.9084 148.29 46.1102L161.375 55.3181ZM163.102 48.909H179.102C179.102 44.0089 178.041 38.383 174.539 33.3141L161.375 42.409L148.211 51.5039C147.012 49.7683 147.102 48.4758 147.102 48.909H163.102ZM161.375 42.409L174.725 33.5889C171.522 28.7422 167.011 25.5134 162.083 23.6829L156.512 38.6817L150.94 53.6805C150.667 53.5788 150.168 53.3505 149.586 52.904C148.99 52.447 148.451 51.8724 148.026 51.2291L161.375 42.409ZM156.512 38.6817L162.342 23.7818C157.9 22.0438 153.277 21.4544 148.921 21.4544V37.4544V53.4544C150.504 53.4544 150.941 53.6833 150.681 53.5816L156.512 38.6817ZM148.921 37.4544V21.4544H140.012V37.4544V53.4544H148.921V37.4544ZM140.012 37.4544H124.011V110.364H140.012H156.012V37.4544H140.012ZM140.012 110.364V94.3635H114.739V110.364V126.364H140.012V110.364ZM169.284 67.6362L155.233 75.2895L178.506 118.017L192.557 110.364L206.608 102.71L183.335 59.983L169.284 67.6362ZM192.557 110.364V94.3635H165.102V110.364V126.364H192.557V110.364ZM165.102 110.364L179.228 102.85L156.501 60.1224L142.375 67.6362L128.249 75.1501L150.976 117.877L165.102 110.364ZM142.375 67.6362V83.6362H169.284V67.6362V51.6362H142.375V67.6362ZM200.239 110.364H184.239C184.239 119.2 191.402 126.364 200.239 126.364V110.364ZM200.239 17.2726V1.27261C191.402 1.27261 184.239 8.43606 184.239 17.2726H200.239ZM267.33 17.2726H283.33C283.33 8.43606 276.166 1.27261 267.33 1.27261V17.2726ZM267.33 37.6363V53.6363C276.166 53.6363 283.33 46.4728 283.33 37.6363H267.33ZM225.512 37.6363V21.6363C216.675 21.6363 209.512 28.7997 209.512 37.6363H225.512ZM225.512 53.6362H209.512C209.512 62.4728 216.675 69.6362 225.512 69.6362V53.6362ZM263.875 53.6362H279.875C279.875 44.7997 272.712 37.6362 263.875 37.6362V53.6362ZM263.875 73.9999V89.9999C272.712 89.9999 279.875 82.8364 279.875 73.9999H263.875ZM225.512 73.9999V57.9999C216.675 57.9999 209.512 65.1633 209.512 73.9999H225.512ZM225.512 89.9999H209.512C209.512 98.8364 216.675 106 225.512 106V89.9999ZM267.148 89.9999H283.148C283.148 81.1633 275.984 73.9999 267.148 73.9999V89.9999ZM267.148 110.364V126.364C275.984 126.364 283.148 119.2 283.148 110.364H267.148ZM200.239 110.364H216.239V17.2726H200.239H184.239V110.364H200.239ZM200.239 17.2726V33.2726H267.33V17.2726V1.27261H200.239V17.2726ZM267.33 17.2726H251.33V37.6363H267.33H283.33V17.2726H267.33ZM267.33 37.6363V21.6363H225.512V37.6363V53.6363H267.33V37.6363ZM225.512 37.6363H209.512V53.6362H225.512H241.512V37.6363H225.512ZM225.512 53.6362V69.6362H263.875V53.6362V37.6362H225.512V53.6362ZM263.875 53.6362H247.875V73.9999H263.875H279.875V53.6362H263.875ZM263.875 73.9999V57.9999H225.512V73.9999V89.9999H263.875V73.9999ZM225.512 73.9999H209.512V89.9999H225.512H241.512V73.9999H225.512ZM225.512 89.9999V106H267.148V89.9999V73.9999H225.512V89.9999ZM267.148 89.9999H251.148V110.364H267.148H283.148V89.9999H267.148ZM267.148 110.364V94.3635H200.239V110.364V126.364H267.148V110.364ZM304.046 110.364V126.364C311.101 126.364 317.324 121.742 319.363 114.988L304.046 110.364ZM276.773 110.364L261.579 105.348C259.97 110.224 260.798 115.577 263.807 119.738C266.815 123.899 271.638 126.364 276.773 126.364V110.364ZM307.5 17.2726V1.27261C300.596 1.27261 294.47 5.70127 292.306 12.2575L307.5 17.2726ZM342.046 17.2726L357.239 12.2575C355.075 5.70127 348.95 1.27261 342.046 1.27261V17.2726ZM372.773 110.364V126.364C377.908 126.364 382.731 123.899 385.739 119.738C388.747 115.577 389.576 110.224 387.967 105.348L372.773 110.364ZM345.5 110.364L330.183 114.988C332.222 121.742 338.445 126.364 345.5 126.364V110.364ZM325.137 42.909L340.454 38.2849C338.415 31.5305 332.192 26.909 325.137 26.909V42.909ZM324.409 42.909V26.909C317.354 26.909 311.131 31.5305 309.092 38.2849L324.409 42.909ZM298.955 73.6363V57.6363C290.118 57.6363 282.955 64.7997 282.955 73.6363H298.955ZM350.227 73.6363H366.227C366.227 64.7997 359.064 57.6363 350.227 57.6363V73.6363ZM350.227 92.5453V108.545C359.064 108.545 366.227 101.382 366.227 92.5453H350.227ZM298.955 92.5453H282.955C282.955 101.382 290.118 108.545 298.955 108.545V92.5453ZM304.046 110.364V94.3635H276.773V110.364V126.364H304.046V110.364ZM276.773 110.364L291.967 115.379L322.694 22.2877L307.5 17.2726L292.306 12.2575L261.579 105.348L276.773 110.364ZM307.5 17.2726V33.2726H342.046V17.2726V1.27261H307.5V17.2726ZM342.046 17.2726L326.852 22.2877L357.579 115.379L372.773 110.364L387.967 105.348L357.239 12.2575L342.046 17.2726ZM372.773 110.364V94.3635H345.5V110.364V126.364H372.773V110.364ZM345.5 110.364L360.817 105.739L340.454 38.2849L325.137 42.909L309.819 47.5331L330.183 114.988L345.5 110.364ZM325.137 42.909V26.909H324.409V42.909V58.909H325.137V42.909ZM324.409 42.909L309.092 38.2849L288.728 105.739L304.046 110.364L319.363 114.988L339.726 47.5331L324.409 42.909ZM298.955 73.6363V89.6363H350.227V73.6363V57.6363H298.955V73.6363ZM350.227 73.6363H334.227V92.5453H350.227H366.227V73.6363H350.227ZM350.227 92.5453V76.5453H298.955V92.5453V108.545H350.227V92.5453ZM298.955 92.5453H314.955V73.6363H298.955H282.955V92.5453H298.955ZM367.443 37.6363H351.443C351.443 46.4728 358.607 53.6363 367.443 53.6363V37.6363ZM367.443 17.2726V1.27261C358.607 1.27261 351.443 8.43606 351.443 17.2726H367.443ZM448.352 17.2726H464.352C464.352 8.43606 457.189 1.27261 448.352 1.27261V17.2726ZM448.352 37.6363V53.6363C457.189 53.6363 464.352 46.4728 464.352 37.6363H448.352ZM420.352 37.6363V21.6363C411.516 21.6363 404.352 28.7997 404.352 37.6363H420.352ZM420.352 110.364V126.364C429.189 126.364 436.352 119.2 436.352 110.364H420.352ZM395.443 110.364H379.443C379.443 119.2 386.607 126.364 395.443 126.364V110.364ZM395.443 37.6363H411.443C411.443 28.7997 404.28 21.6363 395.443 21.6363V37.6363ZM367.443 37.6363H383.443V17.2726H367.443H351.443V37.6363H367.443ZM367.443 17.2726V33.2726H448.352V17.2726V1.27261H367.443V17.2726ZM448.352 17.2726H432.352V37.6363H448.352H464.352V17.2726H448.352ZM448.352 37.6363V21.6363H420.352V37.6363V53.6363H448.352V37.6363ZM420.352 37.6363H404.352V110.364H420.352H436.352V37.6363H420.352ZM420.352 110.364V94.3635H395.443V110.364V126.364H420.352V110.364ZM395.443 110.364H411.443V37.6363H395.443H379.443V110.364H395.443ZM395.443 37.6363V21.6363H367.443V37.6363V53.6363H395.443V37.6363ZM457.864 110.364H441.864C441.864 119.2 449.027 126.364 457.864 126.364V110.364ZM457.864 17.2726V1.27261C449.027 1.27261 441.864 8.43606 441.864 17.2726H457.864ZM524.955 17.2726H540.955C540.955 8.43606 533.791 1.27261 524.955 1.27261V17.2726ZM524.955 37.6363V53.6363C533.791 53.6363 540.955 46.4728 540.955 37.6363H524.955ZM483.137 37.6363V21.6363C474.3 21.6363 467.137 28.7997 467.137 37.6363H483.137ZM483.137 53.6362H467.137C467.137 62.4728 474.3 69.6362 483.137 69.6362V53.6362ZM521.5 53.6362H537.5C537.5 44.7997 530.337 37.6362 521.5 37.6362V53.6362ZM521.5 73.9999V89.9999C530.337 89.9999 537.5 82.8364 537.5 73.9999H521.5ZM483.137 73.9999V57.9999C474.3 57.9999 467.137 65.1633 467.137 73.9999H483.137ZM483.137 89.9999H467.137C467.137 98.8364 474.3 106 483.137 106V89.9999ZM524.773 89.9999H540.773C540.773 81.1633 533.609 73.9999 524.773 73.9999V89.9999ZM524.773 110.364V126.364C533.609 126.364 540.773 119.2 540.773 110.364H524.773ZM457.864 110.364H473.864V17.2726H457.864H441.864V110.364H457.864ZM457.864 17.2726V33.2726H524.955V17.2726V1.27261H457.864V17.2726ZM524.955 17.2726H508.955V37.6363H524.955H540.955V17.2726H524.955ZM524.955 37.6363V21.6363H483.137V37.6363V53.6363H524.955V37.6363ZM483.137 37.6363H467.137V53.6362H483.137H499.137V37.6363H483.137ZM483.137 53.6362V69.6362H521.5V53.6362V37.6362H483.137V53.6362ZM521.5 53.6362H505.5V73.9999H521.5H537.5V53.6362H521.5ZM521.5 73.9999V57.9999H483.137V73.9999V89.9999H521.5V73.9999ZM483.137 73.9999H467.137V89.9999H483.137H499.137V73.9999H483.137ZM483.137 89.9999V106H524.773V89.9999V73.9999H483.137V89.9999ZM524.773 89.9999H508.773V110.364H524.773H540.773V89.9999H524.773ZM524.773 110.364V94.3635H457.864V110.364V126.364H524.773V110.364ZM559.171 17.2726V1.27261C553.545 1.27261 548.333 4.22666 545.443 9.05285C542.554 13.879 542.41 19.8683 545.066 24.827L559.171 17.2726ZM587.352 17.2726L601.772 10.3399C599.108 4.79738 593.502 1.27261 587.352 1.27261V17.2726ZM605.534 55.0908L591.114 62.0235C593.779 67.566 599.384 71.0908 605.534 71.0908V55.0908ZM606.261 55.0908V71.0908C612.411 71.0908 618.017 67.566 620.682 62.0235L606.261 55.0908ZM624.443 17.2726V1.27261C618.294 1.27261 612.688 4.79738 610.023 10.3399L624.443 17.2726ZM652.625 17.2726L666.729 24.827C669.385 19.8683 669.242 13.879 666.352 9.05285C663.462 4.22666 658.25 1.27261 652.625 1.27261V17.2726ZM618.443 81.0908L604.339 73.5364C603.095 75.8599 602.443 78.4549 602.443 81.0908H618.443ZM618.443 110.364V126.364C627.28 126.364 634.443 119.2 634.443 110.364H618.443ZM593.352 110.364H577.352C577.352 119.2 584.516 126.364 593.352 126.364V110.364ZM593.352 81.0908H609.352C609.352 78.4549 608.701 75.8599 607.457 73.5364L593.352 81.0908ZM559.171 17.2726V33.2726H587.352V17.2726V1.27261H559.171V17.2726ZM587.352 17.2726L572.932 24.2053L591.114 62.0235L605.534 55.0908L619.954 48.1581L601.772 10.3399L587.352 17.2726ZM605.534 55.0908V71.0908H606.261V55.0908V39.0908H605.534V55.0908ZM606.261 55.0908L620.682 62.0235L638.863 24.2053L624.443 17.2726L610.023 10.3399L591.841 48.1581L606.261 55.0908ZM624.443 17.2726V33.2726H652.625V17.2726V1.27261H624.443V17.2726ZM652.625 17.2726L638.521 9.71819L604.339 73.5364L618.443 81.0908L632.548 88.6452L666.729 24.827L652.625 17.2726ZM618.443 81.0908H602.443V110.364H618.443H634.443V81.0908H618.443ZM618.443 110.364V94.3635H593.352V110.364V126.364H618.443V110.364ZM593.352 110.364H609.352V81.0908H593.352H577.352V110.364H593.352ZM593.352 81.0908L607.457 73.5364L573.275 9.71819L559.171 17.2726L545.066 24.827L579.248 88.6452L593.352 81.0908ZM738.5 90.0453L752.41 97.9515C752.415 97.9431 752.42 97.9346 752.425 97.9261L738.5 90.0453ZM722.182 106.182L729.685 120.313C729.702 120.305 729.718 120.296 729.734 120.287L722.182 106.182ZM676.273 106.136L668.646 120.202C668.671 120.215 668.696 120.228 668.721 120.242L676.273 106.136ZM660 89.9544L646.05 97.7902C646.063 97.8137 646.077 97.8372 646.09 97.8606L660 89.9544ZM660 37.6363L646.076 29.7555C646.072 29.7621 646.068 29.7686 646.064 29.7751L660 37.6363ZM676.273 21.4999L683.802 35.6175C683.81 35.6135 683.817 35.6095 683.825 35.6054L676.273 21.4999ZM722.182 21.4999L714.63 35.6054C714.646 35.6141 714.662 35.6227 714.679 35.6314L722.182 21.4999ZM738.5 37.6363L724.576 45.517C724.58 45.5255 724.585 45.534 724.59 45.5424L738.5 37.6363ZM716.318 49.7272L701.352 55.3839C701.37 55.4314 701.388 55.4789 701.406 55.5263L716.318 49.7272ZM709.818 40.9999L700.624 54.0945C700.677 54.1316 700.73 54.1684 700.783 54.2048L709.818 40.9999ZM688.682 40.9999L697.782 54.16C697.792 54.1533 697.801 54.1467 697.811 54.14L688.682 40.9999ZM682.182 49.7272L667.255 43.9678C667.246 43.9889 667.238 44.0101 667.23 44.0312L682.182 49.7272ZM682.182 77.9544L667.215 83.6111C667.233 83.6587 667.251 83.7062 667.27 83.7536L682.182 77.9544ZM688.682 86.6817L679.488 99.7763C679.541 99.8134 679.594 99.8502 679.647 99.8866L688.682 86.6817ZM709.818 86.6817L718.918 99.8418C718.928 99.8352 718.938 99.8285 718.947 99.8218L709.818 86.6817ZM716.318 77.9544L701.391 72.195C701.383 72.2162 701.375 72.2373 701.367 72.2585L716.318 77.9544ZM744.546 63.8181H728.546C728.546 72.1427 726.929 78.0065 724.576 82.1646L738.5 90.0453L752.425 97.9261C758.132 87.8417 760.546 76.2207 760.546 63.8181H744.546ZM738.5 90.0453L724.59 82.1391C721.974 86.7426 718.68 89.9075 714.63 92.0762L722.182 106.182L729.734 120.287C739.38 115.123 746.966 107.53 752.41 97.9515L738.5 90.0453ZM722.182 106.182L714.679 92.0502C710.337 94.3555 705.312 95.6363 699.273 95.6363V111.636V127.636C710.082 127.636 720.33 125.281 729.685 120.313L722.182 106.182ZM699.273 111.636V95.6363C693.174 95.6363 688.141 94.3414 683.825 92.0307L676.273 106.136L668.721 120.242C678.102 125.264 688.402 127.636 699.273 127.636V111.636ZM676.273 106.136L683.899 92.0709C679.849 89.8745 676.543 86.6797 673.91 82.0482L660 89.9544L646.09 97.8606C651.518 107.411 659.061 115.004 668.646 120.202L676.273 106.136ZM660 89.9544L673.95 82.1187C671.602 77.938 670 72.0818 670 63.8181H654H638C638 76.1604 640.398 87.7284 646.05 97.7902L660 89.9544ZM654 63.8181H670C670 55.4718 671.61 49.6201 673.936 45.4974L660 37.6363L646.064 29.7751C640.39 39.8342 638 51.437 638 63.8181H654ZM660 37.6363L673.925 45.517C676.551 40.8766 679.825 37.7385 683.802 35.6175L676.273 21.4999L668.743 7.38224C659.084 12.534 651.51 20.1535 646.076 29.7555L660 37.6363ZM676.273 21.4999L683.825 35.6054C688.141 33.2947 693.174 31.9999 699.273 31.9999V15.9999V-0.000114441C688.402 -0.000114441 678.102 2.3717 668.721 7.39435L676.273 21.4999ZM699.273 15.9999V31.9999C705.29 31.9999 710.297 33.2858 714.63 35.6054L722.182 21.4999L729.734 7.39435C720.37 2.38062 710.104 -0.000114441 699.273 -0.000114441V15.9999ZM722.182 21.4999L714.679 35.6314C718.683 37.7576 721.96 40.8947 724.576 45.517L738.5 37.6363L752.425 29.7555C746.98 20.1354 739.378 12.5149 729.685 7.36842L722.182 21.4999ZM738.5 37.6363L724.59 45.5424C726.928 49.6554 728.546 55.4901 728.546 63.8181H744.546H760.546C760.546 51.4188 758.133 39.799 752.41 29.7301L738.5 37.6363ZM718.546 63.8181H734.546C734.546 56.9285 733.643 50.1308 731.23 43.928L716.318 49.7272L701.406 55.5263C701.964 56.9599 702.546 59.5561 702.546 63.8181H718.546ZM716.318 49.7272L731.285 44.0705C728.886 37.7219 724.893 31.9277 718.853 27.795L709.818 40.9999L700.783 54.2048C700.707 54.1523 700.7 54.1217 700.77 54.2161C700.854 54.3286 701.082 54.6694 701.352 55.3839L716.318 49.7272ZM709.818 40.9999L719.012 27.9053C712.966 23.6597 706.069 21.9999 699.273 21.9999V37.9999V53.9999C700.092 53.9999 700.522 54.0978 700.668 54.1393C700.79 54.174 700.738 54.1742 700.624 54.0945L709.818 40.9999ZM699.273 37.9999V21.9999C692.471 21.9999 685.596 23.6618 679.553 27.8598L688.682 40.9999L697.811 54.14C697.729 54.1966 697.707 54.1845 697.849 54.1442C698.014 54.0976 698.455 53.9999 699.273 53.9999V37.9999ZM688.682 40.9999L679.582 27.8398C673.621 31.9618 669.67 37.7072 667.255 43.9678L682.182 49.7272L697.109 55.4866C697.399 54.7354 697.646 54.359 697.753 54.2161C697.846 54.0909 697.856 54.1086 697.782 54.16L688.682 40.9999ZM682.182 49.7272L667.23 44.0312C664.88 50.1992 664 56.9585 664 63.8181H680H696C696 59.5262 696.574 56.8915 697.134 55.4231L682.182 49.7272ZM680 63.8181H664C664 70.684 664.882 77.4384 667.215 83.6111L682.182 77.9544L697.149 72.2977C696.573 70.7735 696 68.1037 696 63.8181H680ZM682.182 77.9544L667.27 83.7536C669.692 89.9826 673.625 95.6596 679.488 99.7763L688.682 86.6817L697.876 73.5871C697.903 73.606 697.862 73.5902 697.753 73.4427C697.631 73.2795 697.381 72.8941 697.094 72.1553L682.182 77.9544ZM688.682 86.6817L679.647 99.8866C685.679 104.014 692.519 105.636 699.273 105.636V89.6363V73.6363C698.435 73.6363 697.973 73.5376 697.788 73.4861C697.625 73.4407 697.637 73.4222 697.717 73.4768L688.682 86.6817ZM699.273 89.6363V105.636C706.02 105.636 712.882 104.016 718.918 99.8418L709.818 86.6817L700.718 73.5216C700.83 73.4441 700.872 73.4509 700.729 73.4909C700.563 73.5373 700.112 73.6363 699.273 73.6363V89.6363ZM709.818 86.6817L718.947 99.8218C724.889 95.6938 728.864 89.9677 731.27 83.6504L716.318 77.9544L701.367 72.2585C701.099 72.9602 700.869 73.3098 700.77 73.4427C700.683 73.5595 700.66 73.5621 700.689 73.5416L709.818 86.6817ZM716.318 77.9544L731.246 83.7139C733.641 77.5065 734.546 70.714 734.546 63.8181H718.546H702.546C702.546 68.0736 701.966 70.7054 701.391 72.195L716.318 77.9544ZM811.33 17.2726V1.27261C802.493 1.27261 795.33 8.43606 795.33 17.2726H811.33ZM836.602 17.2726H852.602C852.602 8.43606 845.439 1.27261 836.602 1.27261V17.2726ZM831.511 95.3181L818.127 86.5515C818.123 86.5579 818.119 86.5642 818.114 86.5706L831.511 95.3181ZM817.421 107.273L824.135 121.796C824.155 121.786 824.175 121.777 824.195 121.768L817.421 107.273ZM775.33 107.273L768.556 121.768C768.576 121.777 768.595 121.786 768.615 121.796L775.33 107.273ZM761.239 95.3181L747.782 103.974C747.802 104.005 747.822 104.035 747.842 104.066L761.239 95.3181ZM756.239 17.2726V1.27261C747.402 1.27261 740.239 8.43606 740.239 17.2726H756.239ZM781.511 17.2726H797.511C797.511 8.43606 790.348 1.27261 781.511 1.27261V17.2726ZM783.421 82.4544L769.461 90.2721C769.475 90.2988 769.49 90.3255 769.506 90.3521L783.421 82.4544ZM788.693 87.7272L780.796 101.642C780.822 101.657 780.849 101.672 780.876 101.687L788.693 87.7272ZM804.148 87.7272L812.046 101.642V101.642L804.148 87.7272ZM809.421 82.4544L823.336 90.3521C823.351 90.3255 823.366 90.2988 823.381 90.2721L809.421 82.4544ZM811.33 17.2726V33.2726H836.602V17.2726V1.27261H811.33V17.2726ZM836.602 17.2726H820.602V76.909H836.602H852.602V17.2726H836.602ZM836.602 76.909H820.602C820.602 81.3487 819.577 84.3373 818.127 86.5515L831.511 95.3181L844.896 104.085C850.234 95.9352 852.602 86.6511 852.602 76.909H836.602ZM831.511 95.3181L818.114 86.5706C816.513 89.0227 814.207 91.1136 810.646 92.7774L817.421 107.273L824.195 121.768C832.695 117.795 839.782 111.916 844.909 104.066L831.511 95.3181ZM817.421 107.273L810.706 92.7495C807.158 94.3898 802.527 95.4544 796.421 95.4544V111.454V127.454C806.253 127.454 815.622 125.731 824.135 121.796L817.421 107.273ZM796.421 111.454V95.4544C790.233 95.4544 785.577 94.3829 782.044 92.7495L775.33 107.273L768.615 121.796C777.143 125.738 786.547 127.454 796.421 127.454V111.454ZM775.33 107.273L782.104 92.7774C778.544 91.1136 776.237 89.0227 774.636 86.5706L761.239 95.3181L747.842 104.066C752.968 111.916 760.055 117.795 768.556 121.768L775.33 107.273ZM761.239 95.3181L774.695 86.662C773.262 84.4336 772.239 81.4045 772.239 76.909H756.239H740.239C740.239 86.5952 742.549 95.8389 747.782 103.974L761.239 95.3181ZM756.239 76.909H772.239V17.2726H756.239H740.239V76.909H756.239ZM756.239 17.2726V33.2726H781.511V17.2726V1.27261H756.239V17.2726ZM781.511 17.2726H765.511V74.7272H781.511H797.511V17.2726H781.511ZM781.511 74.7272H765.511C765.511 80.0489 766.713 85.3664 769.461 90.2721L783.421 82.4544L797.381 74.6368C797.416 74.699 797.447 74.7652 797.473 74.8311C797.499 74.8968 797.514 74.9487 797.522 74.9805C797.529 75.0118 797.527 75.0123 797.523 74.9753C797.519 74.9378 797.511 74.857 797.511 74.7272H781.511ZM783.421 82.4544L769.506 90.3521C772.204 95.1067 776.041 98.9436 780.796 101.642L788.693 87.7272L796.591 73.8122C796.673 73.8589 796.832 73.9654 797.007 74.1407C797.182 74.316 797.289 74.4745 797.336 74.5567L783.421 82.4544ZM788.693 87.7272L780.876 101.687C785.781 104.434 791.099 105.636 796.421 105.636V89.6363V73.6363C796.291 73.6363 796.21 73.6291 796.172 73.6247C796.135 73.6204 796.136 73.6183 796.167 73.626C796.199 73.6339 796.251 73.649 796.317 73.6749C796.383 73.7008 796.449 73.7322 796.511 73.7671L788.693 87.7272ZM796.421 89.6363V105.636C801.737 105.636 807.099 104.449 812.046 101.642L804.148 87.7272L796.25 73.8122C796.338 73.7625 796.426 73.7206 796.51 73.6875C796.593 73.6545 796.658 73.6356 796.697 73.626C796.779 73.6058 796.705 73.6363 796.421 73.6363V89.6363ZM804.148 87.7272L812.046 101.642C816.8 98.9436 820.637 95.1067 823.336 90.3521L809.421 82.4544L795.506 74.5567C795.552 74.4745 795.659 74.316 795.834 74.1407C796.009 73.9654 796.168 73.8589 796.25 73.8122L804.148 87.7272ZM809.421 82.4544L823.381 90.2721C826.128 85.3664 827.33 80.0489 827.33 74.7272H811.33H795.33C795.33 74.857 795.323 74.9378 795.318 74.9753C795.314 75.0123 795.312 75.0118 795.319 74.9805C795.327 74.9487 795.342 74.8968 795.368 74.8311C795.394 74.7652 795.426 74.699 795.461 74.6368L809.421 82.4544ZM811.33 74.7272H827.33V17.2726H811.33H795.33V74.7272H811.33ZM848.614 110.364H832.614C832.614 119.2 839.777 126.364 848.614 126.364V110.364ZM848.614 17.2726V1.27261C839.777 1.27261 832.614 8.43606 832.614 17.2726H848.614ZM906.932 21.0453L899.945 35.4394L906.932 21.0453ZM919.023 31.909L932.688 23.5871V23.5871L919.023 31.909ZM918.886 65.7726L905.465 57.0622C905.452 57.0831 905.438 57.104 905.425 57.125L918.886 65.7726ZM906.477 76.1363L900.064 61.4777C900.054 61.4822 900.044 61.4867 900.034 61.4912L906.477 76.1363ZM863.886 79.6363H847.886C847.886 88.4728 855.05 95.6363 863.886 95.6363V79.6363ZM863.886 59.9999V43.9999C855.05 43.9999 847.886 51.1633 847.886 59.9999H863.886ZM890.386 58.909L895.643 74.0209C895.685 74.0064 895.726 73.9917 895.768 73.9769L890.386 58.909ZM895.25 55.3181L882.165 46.1102C882.127 46.1647 882.089 46.2194 882.051 46.2744L895.25 55.3181ZM895.25 42.409L881.901 51.2291C881.962 51.3213 882.024 51.4129 882.086 51.5039L895.25 42.409ZM890.386 38.6817L884.556 53.5816C884.642 53.6153 884.729 53.6483 884.815 53.6805L890.386 38.6817ZM873.886 37.4544V21.4544C865.05 21.4544 857.886 28.6179 857.886 37.4544H873.886ZM873.886 110.364V126.364C882.723 126.364 889.886 119.2 889.886 110.364H873.886ZM903.159 67.6362L917.21 59.983C914.408 54.8381 909.018 51.6362 903.159 51.6362V67.6362ZM926.432 110.364V126.364C932.077 126.364 937.305 123.389 940.188 118.535C943.071 113.682 943.183 107.668 940.483 102.71L926.432 110.364ZM898.977 110.364L884.851 117.877C887.629 123.1 893.062 126.364 898.977 126.364V110.364ZM876.25 67.6362V51.6362C870.633 51.6362 865.427 54.5818 862.535 59.3967C859.642 64.2117 859.486 70.1909 862.124 75.1501L876.25 67.6362ZM848.614 110.364H864.614V17.2726H848.614H832.614V110.364H848.614ZM848.614 17.2726V33.2726H888.796V17.2726V1.27261H848.614V17.2726ZM888.796 17.2726V33.2726C893.761 33.2726 897.333 34.1713 899.945 35.4394L906.932 21.0453L913.919 6.65132C906.167 2.88908 897.648 1.27261 888.796 1.27261V17.2726ZM906.932 21.0453L899.945 35.4394C902.483 36.6709 904.143 38.2369 905.357 40.2309L919.023 31.909L932.688 23.5871C928.145 16.1265 921.745 10.4501 913.919 6.65132L906.932 21.0453ZM919.023 31.909L905.357 40.2309C906.437 42.0033 907.341 44.6661 907.341 48.909H923.341H939.341C939.341 39.9397 937.367 31.2692 932.688 23.5871L919.023 31.909ZM923.341 48.909H907.341C907.341 53.175 906.411 55.6043 905.465 57.0622L918.886 65.7726L932.308 74.483C937.301 66.7895 939.341 57.9762 939.341 48.909H923.341ZM918.886 65.7726L905.425 57.125C904.313 58.8564 902.72 60.3157 900.064 61.4777L906.477 76.1363L912.891 90.7948C920.901 87.2901 927.582 81.8404 932.348 74.4202L918.886 65.7726ZM906.477 76.1363L900.034 61.4912C897.162 62.7545 893.243 63.6363 887.886 63.6363V79.6363V95.6363C896.711 95.6363 905.186 94.1846 912.921 90.7813L906.477 76.1363ZM887.886 79.6363V63.6363H863.886V79.6363V95.6363H887.886V79.6363ZM863.886 79.6363H879.886V59.9999H863.886H847.886V79.6363H863.886ZM863.886 59.9999V75.9999H882.796V59.9999V43.9999H863.886V59.9999ZM882.796 59.9999V75.9999C886.983 75.9999 891.395 75.4984 895.643 74.0209L890.386 58.909L885.13 43.797C885.196 43.7741 884.548 43.9999 882.796 43.9999V59.9999ZM890.386 58.909L895.768 73.9769C900.616 72.2452 905.169 69.1483 908.449 64.3618L895.25 55.3181L882.051 46.2744C882.516 45.5955 883.087 45.0164 883.69 44.5713C884.277 44.1379 884.763 43.9276 885.005 43.8411L890.386 58.909ZM895.25 55.3181L908.335 64.526C911.903 59.4551 912.977 53.8054 912.977 48.909H896.977H880.977C880.977 49.2853 880.9 47.9084 882.165 46.1102L895.25 55.3181ZM896.977 48.909H912.977C912.977 44.0089 911.916 38.383 908.414 33.3141L895.25 42.409L882.086 51.5039C880.887 49.7683 880.977 48.4758 880.977 48.909H896.977ZM895.25 42.409L908.599 33.5889C905.397 28.7422 900.886 25.5134 895.958 23.6829L890.386 38.6817L884.815 53.6805C884.542 53.5788 884.043 53.3505 883.461 52.904C882.865 52.447 882.326 51.8724 881.901 51.2291L895.25 42.409ZM890.386 38.6817L896.217 23.7818C891.775 22.0438 887.152 21.4544 882.796 21.4544V37.4544V53.4544C884.379 53.4544 884.816 53.6833 884.556 53.5816L890.386 38.6817ZM882.796 37.4544V21.4544H873.886V37.4544V53.4544H882.796V37.4544ZM873.886 37.4544H857.886V110.364H873.886H889.886V37.4544H873.886ZM873.886 110.364V94.3635H848.614V110.364V126.364H873.886V110.364ZM903.159 67.6362L889.108 75.2895L912.381 118.017L926.432 110.364L940.483 102.71L917.21 59.983L903.159 67.6362ZM926.432 110.364V94.3635H898.977V110.364V126.364H926.432V110.364ZM898.977 110.364L913.103 102.85L890.376 60.1224L876.25 67.6362L862.124 75.1501L884.851 117.877L898.977 110.364ZM876.25 67.6362V83.6362H903.159V67.6362V51.6362H876.25V67.6362ZM959.614 17.2726V1.27261C950.777 1.27261 943.614 8.43606 943.614 17.2726H959.614ZM991.068 17.2726L1005.87 11.1986C1003.41 5.19382 997.559 1.27261 991.068 1.27261V17.2726ZM1012.7 69.9999L997.902 76.0739C1000.37 82.0787 1006.21 85.9999 1012.7 85.9999V69.9999ZM1013.8 69.9999V85.9999C1020.29 85.9999 1026.13 82.0787 1028.6 76.0739L1013.8 69.9999ZM1035.43 17.2726V1.27261C1028.94 1.27261 1023.09 5.19382 1020.63 11.1986L1035.43 17.2726ZM1066.89 17.2726H1082.89C1082.89 8.43606 1075.72 1.27261 1066.89 1.27261V17.2726ZM1066.89 110.364V126.364C1075.72 126.364 1082.89 119.2 1082.89 110.364H1066.89ZM1042.16 110.364H1026.16C1026.16 119.2 1033.32 126.364 1042.16 126.364V110.364ZM1042.16 56.5453H1058.16C1058.16 47.7088 1051 40.5453 1042.16 40.5453V56.5453ZM1041.43 56.5453V40.5453C1034.84 40.5453 1028.92 44.5869 1026.53 50.7265L1041.43 56.5453ZM1020.7 109.636V125.636C1027.3 125.636 1033.21 121.595 1035.61 115.455L1020.7 109.636ZM1005.8 109.636L990.878 115.421C993.266 121.578 999.191 125.636 1005.8 125.636V109.636ZM985.068 56.1817L999.986 50.3973C997.598 44.2396 991.673 40.1817 985.068 40.1817V56.1817ZM984.341 56.1817V40.1817C975.505 40.1817 968.341 47.3451 968.341 56.1817H984.341ZM984.341 110.364V126.364C993.178 126.364 1000.34 119.2 1000.34 110.364H984.341ZM959.614 110.364H943.614C943.614 119.2 950.777 126.364 959.614 126.364V110.364ZM959.614 17.2726V33.2726H991.068V17.2726V1.27261H959.614V17.2726ZM991.068 17.2726L976.266 23.3466L997.902 76.0739L1012.7 69.9999L1027.51 63.9259L1005.87 11.1986L991.068 17.2726ZM1012.7 69.9999V85.9999H1013.8V69.9999V53.9999H1012.7V69.9999ZM1013.8 69.9999L1028.6 76.0739L1050.23 23.3466L1035.43 17.2726L1020.63 11.1986L998.993 63.9259L1013.8 69.9999ZM1035.43 17.2726V33.2726H1066.89V17.2726V1.27261H1035.43V17.2726ZM1066.89 17.2726H1050.89V110.364H1066.89H1082.89V17.2726H1066.89ZM1066.89 110.364V94.3635H1042.16V110.364V126.364H1066.89V110.364ZM1042.16 110.364H1058.16V56.5453H1042.16H1026.16V110.364H1042.16ZM1042.16 56.5453V40.5453H1041.43V56.5453V72.5453H1042.16V56.5453ZM1041.43 56.5453L1026.53 50.7265L1005.8 103.817L1020.7 109.636L1035.61 115.455L1056.34 62.3642L1041.43 56.5453ZM1020.7 109.636V93.6363H1005.8V109.636V125.636H1020.7V109.636ZM1005.8 109.636L1020.71 103.852L999.986 50.3973L985.068 56.1817L970.151 61.9662L990.878 115.421L1005.8 109.636ZM985.068 56.1817V40.1817H984.341V56.1817V72.1817H985.068V56.1817ZM984.341 56.1817H968.341V110.364H984.341H1000.34V56.1817H984.341ZM984.341 110.364V94.3635H959.614V110.364V126.364H984.341V110.364ZM959.614 110.364H975.614V17.2726H959.614H943.614V110.364H959.614ZM1078.86 110.364H1062.86C1062.86 119.2 1070.03 126.364 1078.86 126.364V110.364ZM1078.86 17.2726V1.27261C1070.03 1.27261 1062.86 8.43606 1062.86 17.2726H1078.86ZM1145.95 17.2726H1161.95C1161.95 8.43606 1154.79 1.27261 1145.95 1.27261V17.2726ZM1145.95 37.6363V53.6363C1154.79 53.6363 1161.95 46.4728 1161.95 37.6363H1145.95ZM1104.14 37.6363V21.6363C1095.3 21.6363 1088.14 28.7997 1088.14 37.6363H1104.14ZM1104.14 53.6362H1088.14C1088.14 62.4728 1095.3 69.6362 1104.14 69.6362V53.6362ZM1142.5 53.6362H1158.5C1158.5 44.7997 1151.34 37.6362 1142.5 37.6362V53.6362ZM1142.5 73.9999V89.9999C1151.34 89.9999 1158.5 82.8364 1158.5 73.9999H1142.5ZM1104.14 73.9999V57.9999C1095.3 57.9999 1088.14 65.1633 1088.14 73.9999H1104.14ZM1104.14 89.9999H1088.14C1088.14 98.8364 1095.3 106 1104.14 106V89.9999ZM1145.77 89.9999H1161.77C1161.77 81.1633 1154.61 73.9999 1145.77 73.9999V89.9999ZM1145.77 110.364V126.364C1154.61 126.364 1161.77 119.2 1161.77 110.364H1145.77ZM1078.86 110.364H1094.86V17.2726H1078.86H1062.86V110.364H1078.86ZM1078.86 17.2726V33.2726H1145.95V17.2726V1.27261H1078.86V17.2726ZM1145.95 17.2726H1129.95V37.6363H1145.95H1161.95V17.2726H1145.95ZM1145.95 37.6363V21.6363H1104.14V37.6363V53.6363H1145.95V37.6363ZM1104.14 37.6363H1088.14V53.6362H1104.14H1120.14V37.6363H1104.14ZM1104.14 53.6362V69.6362H1142.5V53.6362V37.6362H1104.14V53.6362ZM1142.5 53.6362H1126.5V73.9999H1142.5H1158.5V53.6362H1142.5ZM1142.5 73.9999V57.9999H1104.14V73.9999V89.9999H1142.5V73.9999ZM1104.14 73.9999H1088.14V89.9999H1104.14H1120.14V73.9999H1104.14ZM1104.14 89.9999V106H1145.77V89.9999V73.9999H1104.14V89.9999ZM1145.77 89.9999H1129.77V110.364H1145.77H1161.77V89.9999H1145.77ZM1145.77 110.364V94.3635H1078.86V110.364V126.364H1145.77V110.364Z" fill="url(#paint1_linear_201_739)" mask="url(#path-1-outside-1_201_739)"/>
<defs>
<linearGradient id="paint0_linear_201_739" x1="583.253" y1="21.5387" x2="583.363" y2="113.181" gradientUnits="userSpaceOnUse">
<stop stop-color="#FDFFFF"/>
<stop offset="1" stop-color="#B2F0FA"/>
</linearGradient>
<linearGradient id="paint1_linear_201_739" x1="592.142" y1="28.2212" x2="592.142" y2="128.346" gradientUnits="userSpaceOnUse">
<stop stop-color="#0C4E7D"/>
<stop offset="1" stop-color="#2BB9CD"/>
</linearGradient>
</defs>
</svg>
