<svg xmlns="http://www.w3.org/2000/svg" xmlns:xlink="http://www.w3.org/1999/xlink" viewBox="0 0 750 500"><defs><style>.cls-1{fill:none;}.cls-2{isolation:isolate;}.cls-3{fill:url(#linear-gradient);}.cls-4{clip-path:url(#clip-path);}.cls-5,.cls-6,.cls-7,.cls-8,.cls-9{fill:#fff;}.cls-5{opacity:0.3;}.cls-41,.cls-43,.cls-5,.cls-50,.cls-51,.cls-6,.cls-66,.cls-68,.cls-69,.cls-7,.cls-8,.cls-9{mix-blend-mode:overlay;}.cls-6{opacity:0.5;}.cls-51,.cls-7{opacity:0.4;}.cls-43,.cls-69,.cls-8{opacity:0.15;}.cls-41,.cls-66,.cls-9{opacity:0.2;}.cls-10{fill:url(#linear-gradient-2);}.cls-11{fill:#edba67;}.cls-12{fill:#eebf70;}.cls-13{fill:#f0c882;}.cls-14{fill:url(#linear-gradient-3);}.cls-15{fill:url(#linear-gradient-4);}.cls-16{fill:url(#linear-gradient-5);}.cls-17{fill:url(#linear-gradient-6);}.cls-18{fill:#e17474;}.cls-19{fill:#e58d8d;}.cls-20{fill:#e79c9c;}.cls-21{fill:url(#linear-gradient-7);}.cls-22{fill:url(#linear-gradient-8);}.cls-23{fill:url(#linear-gradient-9);}.cls-24{fill:url(#linear-gradient-10);}.cls-25{fill:url(#linear-gradient-11);}.cls-26{fill:url(#linear-gradient-12);}.cls-27{fill:url(#linear-gradient-13);}.cls-28{fill:url(#linear-gradient-14);}.cls-29{fill:url(#linear-gradient-15);}.cls-30{fill:url(#linear-gradient-16);}.cls-31{fill:url(#linear-gradient-17);}.cls-32{fill:url(#linear-gradient-18);}.cls-33{fill:url(#linear-gradient-19);}.cls-34{fill:url(#linear-gradient-20);}.cls-35{fill:url(#linear-gradient-21);}.cls-36{fill:url(#linear-gradient-22);}.cls-37{fill:url(#linear-gradient-23);}.cls-38{fill:url(#linear-gradient-24);}.cls-39{fill:url(#linear-gradient-25);}.cls-40{fill:url(#linear-gradient-26);}.cls-42{fill:url(#linear-gradient-27);}.cls-43,.cls-50{fill:#585858;}.cls-44{fill:#ddbb85;}.cls-45{fill:#f1dbb8;}.cls-46{fill:#a85c3a;}.cls-47{fill:#f3d4a3;}.cls-48{fill:#ac9269;}.cls-49{fill:url(#linear-gradient-28);}.cls-50{opacity:0.19;}.cls-51{fill:#ffff98;}.cls-52{fill:url(#linear-gradient-29);}.cls-53{fill:url(#linear-gradient-30);}.cls-54{fill:url(#linear-gradient-31);}.cls-55{fill:url(#linear-gradient-32);}.cls-56{fill:url(#linear-gradient-33);}.cls-57{fill:url(#linear-gradient-34);}.cls-58{fill:url(#linear-gradient-35);}.cls-59{fill:url(#linear-gradient-36);}.cls-60{fill:url(#linear-gradient-37);}.cls-61{fill:url(#linear-gradient-38);}.cls-62{fill:url(#linear-gradient-39);}.cls-63{fill:url(#linear-gradient-40);}.cls-64{fill:url(#linear-gradient-41);}.cls-65{fill:url(#linear-gradient-42);}.cls-66{fill:#444;}.cls-67{fill:url(#linear-gradient-43);}.cls-68{opacity:0.16;}.cls-70{fill:#45391b;}.cls-71{fill:url(#linear-gradient-44);}.cls-72{fill:url(#linear-gradient-45);}.cls-73{fill:url(#linear-gradient-46);}.cls-74{fill:url(#linear-gradient-47);}.cls-75{fill:url(#linear-gradient-48);}.cls-76{fill:url(#linear-gradient-49);}.cls-77{fill:url(#linear-gradient-50);}.cls-78{fill:url(#linear-gradient-51);}.cls-79{fill:url(#linear-gradient-52);}.cls-80{fill:url(#linear-gradient-53);}.cls-81{fill:url(#linear-gradient-54);}.cls-82{fill:url(#linear-gradient-55);}.cls-83{fill:url(#linear-gradient-56);}.cls-84{fill:url(#linear-gradient-57);}.cls-85{fill:url(#linear-gradient-58);}.cls-86{fill:url(#linear-gradient-59);}.cls-87{fill:url(#linear-gradient-60);}</style><linearGradient id="linear-gradient" x1="375" y1="319.08" x2="375" y2="-40.94" gradientUnits="userSpaceOnUse"><stop offset="0" stop-color="#f1cc71"/><stop offset="1" stop-color="#b8f4f4"/></linearGradient><clipPath id="clip-path"><rect class="cls-1" width="750" height="500"/></clipPath><linearGradient id="linear-gradient-2" x1="833.06" y1="-15.97" x2="834.62" y2="-4.17" gradientTransform="translate(19.71 943.05) rotate(-45.99)" gradientUnits="userSpaceOnUse"><stop offset="0" stop-color="#9cbb5e"/><stop offset="1" stop-color="#50852a"/></linearGradient><linearGradient id="linear-gradient-3" x1="834.61" y1="-16.17" x2="836.17" y2="-4.38" xlink:href="#linear-gradient-2"/><linearGradient id="linear-gradient-4" x1="1852.4" y1="107.1" x2="1853.96" y2="118.9" gradientTransform="matrix(-0.97, 0.22, 0.22, 0.97, 2378.56, -193.04)" xlink:href="#linear-gradient-2"/><linearGradient id="linear-gradient-5" x1="1853.95" y1="106.9" x2="1855.51" y2="118.7" gradientTransform="matrix(-0.97, 0.22, 0.22, 0.97, 2378.56, -193.04)" xlink:href="#linear-gradient-2"/><linearGradient id="linear-gradient-6" x1="768.76" y1="26.79" x2="771.02" y2="41.58" gradientTransform="translate(-125.09 613.97) rotate(-23.94)" xlink:href="#linear-gradient-2"/><linearGradient id="linear-gradient-7" x1="770.67" y1="26.5" x2="772.94" y2="41.29" gradientTransform="translate(-125.09 613.97) rotate(-23.94)" xlink:href="#linear-gradient-2"/><linearGradient id="linear-gradient-8" x1="773.62" y1="26.05" x2="775.88" y2="40.84" gradientTransform="translate(-125.09 613.97) rotate(-23.94)" xlink:href="#linear-gradient-2"/><linearGradient id="linear-gradient-9" x1="768.08" y1="26.9" x2="770.34" y2="41.69" gradientTransform="translate(-125.09 613.97) rotate(-23.94)" xlink:href="#linear-gradient-2"/><linearGradient id="linear-gradient-10" x1="1449.1" y1="161.78" x2="1450.66" y2="172" gradientTransform="matrix(-1, 0.04, 0.04, 1, 2042.25, 110.29)" xlink:href="#linear-gradient-2"/><linearGradient id="linear-gradient-11" x1="1450.42" y1="161.58" x2="1451.98" y2="171.8" gradientTransform="matrix(-1, 0.04, 0.04, 1, 2042.25, 110.29)" xlink:href="#linear-gradient-2"/><linearGradient id="linear-gradient-12" x1="1452.46" y1="161.27" x2="1454.02" y2="171.49" gradientTransform="matrix(-1, 0.04, 0.04, 1, 2042.25, 110.29)" xlink:href="#linear-gradient-2"/><linearGradient id="linear-gradient-13" x1="1448.63" y1="161.85" x2="1450.19" y2="172.07" gradientTransform="matrix(-1, 0.04, 0.04, 1, 2042.25, 110.29)" xlink:href="#linear-gradient-2"/><linearGradient id="linear-gradient-14" x1="638.5" y1="352.74" x2="639.54" y2="360.6" gradientTransform="matrix(0.97, -0.25, 0.25, 0.97, -102.42, 145.42)" xlink:href="#linear-gradient-2"/><linearGradient id="linear-gradient-15" x1="639.53" y1="352.6" x2="640.57" y2="360.46" gradientTransform="matrix(0.97, -0.25, 0.25, 0.97, -102.42, 145.42)" xlink:href="#linear-gradient-2"/><linearGradient id="linear-gradient-16" x1="1816.94" y1="523.91" x2="1817.98" y2="531.76" gradientTransform="matrix(-0.95, -0.32, -0.32, 0.95, 2501.83, 405.9)" xlink:href="#linear-gradient-2"/><linearGradient id="linear-gradient-17" x1="1817.98" y1="523.77" x2="1819.02" y2="531.63" gradientTransform="matrix(-0.95, -0.32, -0.32, 0.95, 2501.83, 405.9)" xlink:href="#linear-gradient-2"/><linearGradient id="linear-gradient-18" x1="725.92" y1="442.12" x2="727.42" y2="451.97" gradientTransform="translate(-54.82 -209.83) rotate(7.5)" xlink:href="#linear-gradient-2"/><linearGradient id="linear-gradient-19" x1="727.19" y1="441.93" x2="728.7" y2="451.77" gradientTransform="translate(-54.82 -209.83) rotate(7.5)" xlink:href="#linear-gradient-2"/><linearGradient id="linear-gradient-20" x1="729.15" y1="441.63" x2="730.66" y2="451.47" gradientTransform="translate(-54.82 -209.83) rotate(7.5)" xlink:href="#linear-gradient-2"/><linearGradient id="linear-gradient-21" x1="725.46" y1="442.19" x2="726.97" y2="452.04" gradientTransform="translate(-54.82 -209.83) rotate(7.5)" xlink:href="#linear-gradient-2"/><linearGradient id="linear-gradient-22" x1="1339.21" y1="562.68" x2="1340.25" y2="569.48" gradientTransform="matrix(-0.87, -0.49, -0.49, 0.87, 2056.98, 490.31)" xlink:href="#linear-gradient-2"/><linearGradient id="linear-gradient-23" x1="1340.09" y1="562.54" x2="1341.13" y2="569.35" gradientTransform="matrix(-0.87, -0.49, -0.49, 0.87, 2056.98, 490.31)" xlink:href="#linear-gradient-2"/><linearGradient id="linear-gradient-24" x1="1341.44" y1="562.34" x2="1342.48" y2="569.14" gradientTransform="matrix(-0.87, -0.49, -0.49, 0.87, 2056.98, 490.31)" xlink:href="#linear-gradient-2"/><linearGradient id="linear-gradient-25" x1="1338.89" y1="562.73" x2="1339.93" y2="569.53" gradientTransform="matrix(-0.87, -0.49, -0.49, 0.87, 2056.98, 490.31)" xlink:href="#linear-gradient-2"/><linearGradient id="linear-gradient-26" x1="623.41" y1="275.71" x2="609.66" y2="235.29" gradientTransform="matrix(0.98, -0.17, 0.18, 1.05, -53.86, 180.94)" gradientUnits="userSpaceOnUse"><stop offset="0" stop-color="#729a39"/><stop offset="1" stop-color="#f3d37f"/></linearGradient><linearGradient id="linear-gradient-27" x1="735.2" y1="352.09" x2="736.65" y2="367.98" gradientTransform="translate(17.3 -69.38) rotate(2.62)" gradientUnits="userSpaceOnUse"><stop offset="0" stop-color="#8ab041"/><stop offset="1" stop-color="#4f8342"/></linearGradient><linearGradient id="linear-gradient-28" x1="340.24" y1="320.74" x2="396.92" y2="470.87" gradientUnits="userSpaceOnUse"><stop offset="0" stop-color="#b8cf6f"/><stop offset="0.03" stop-color="#c5cd6a"/><stop offset="1" stop-color="#578f31"/></linearGradient><linearGradient id="linear-gradient-29" x1="527.48" y1="55.19" x2="530.22" y2="75.91" gradientTransform="matrix(0.82, -0.58, 0.58, 0.82, -70.77, 680.78)" xlink:href="#linear-gradient-2"/><linearGradient id="linear-gradient-30" x1="530.2" y1="54.83" x2="532.94" y2="75.55" gradientTransform="matrix(0.82, -0.58, 0.58, 0.82, -70.77, 680.78)" xlink:href="#linear-gradient-2"/><linearGradient id="linear-gradient-31" x1="2060.46" y1="328.71" x2="2063.2" y2="349.44" gradientTransform="matrix(-1, 0.04, 0.04, 1, 2457.93, 4.61)" xlink:href="#linear-gradient-2"/><linearGradient id="linear-gradient-32" x1="2063.19" y1="328.35" x2="2065.93" y2="349.08" gradientTransform="matrix(-1, 0.04, 0.04, 1, 2457.93, 4.61)" xlink:href="#linear-gradient-2"/><linearGradient id="linear-gradient-33" x1="515.2" y1="202.17" x2="519.18" y2="228.15" gradientTransform="matrix(0.97, -0.23, 0.23, 0.97, -151.55, 331.85)" xlink:href="#linear-gradient-2"/><linearGradient id="linear-gradient-34" x1="518.56" y1="201.66" x2="522.53" y2="227.64" gradientTransform="matrix(0.97, -0.23, 0.23, 0.97, -151.55, 331.85)" xlink:href="#linear-gradient-2"/><linearGradient id="linear-gradient-35" x1="523.73" y1="200.87" x2="527.7" y2="226.85" gradientTransform="matrix(0.97, -0.23, 0.23, 0.97, -151.55, 331.85)" xlink:href="#linear-gradient-2"/><linearGradient id="linear-gradient-36" x1="514" y1="202.36" x2="517.97" y2="228.33" gradientTransform="matrix(0.97, -0.23, 0.23, 0.97, -151.55, 331.85)" xlink:href="#linear-gradient-2"/><linearGradient id="linear-gradient-37" x1="1610.49" y1="420.82" x2="1613.23" y2="438.78" gradientTransform="matrix(-0.99, -0.15, -0.15, 0.99, 2071.49, 240.25)" xlink:href="#linear-gradient-2"/><linearGradient id="linear-gradient-38" x1="1612.81" y1="420.47" x2="1615.55" y2="438.42" gradientTransform="matrix(-0.99, -0.15, -0.15, 0.99, 2071.49, 240.25)" xlink:href="#linear-gradient-2"/><linearGradient id="linear-gradient-39" x1="1616.38" y1="419.92" x2="1619.13" y2="437.88" gradientTransform="matrix(-0.99, -0.15, -0.15, 0.99, 2071.49, 240.25)" xlink:href="#linear-gradient-2"/><linearGradient id="linear-gradient-40" x1="1609.65" y1="420.95" x2="1612.4" y2="438.91" gradientTransform="matrix(-0.99, -0.15, -0.15, 0.99, 2071.49, 240.25)" xlink:href="#linear-gradient-2"/><linearGradient id="linear-gradient-41" x1="427.5" y1="441.49" x2="419.33" y2="418.26" gradientTransform="matrix(1, 0, 0, 1, 0, 0)" xlink:href="#linear-gradient-26"/><linearGradient id="linear-gradient-42" x1="251.8" y1="370.62" x2="233.42" y2="461" gradientUnits="userSpaceOnUse"><stop offset="0" stop-color="#b3bb58"/><stop offset="1" stop-color="#629f3a"/></linearGradient><linearGradient id="linear-gradient-43" x1="369.04" y1="355.32" x2="404.27" y2="538.38" gradientUnits="userSpaceOnUse"><stop offset="0" stop-color="#d2d975"/><stop offset="1" stop-color="#6fb345"/></linearGradient><linearGradient id="linear-gradient-44" x1="118.24" y1="410.64" x2="74.33" y2="356.34" gradientTransform="matrix(1, 0, 0, 1, 0, 0)" xlink:href="#linear-gradient-26"/><linearGradient id="linear-gradient-45" x1="125.86" y1="268.83" x2="180.97" y2="431.03" gradientUnits="userSpaceOnUse"><stop offset="0" stop-color="#c9cf76"/><stop offset="1" stop-color="#6fad49"/></linearGradient><linearGradient id="linear-gradient-46" x1="192.57" y1="194.69" x2="197.17" y2="229.46" gradientTransform="translate(-89.85 293.99) rotate(-18.02)" xlink:href="#linear-gradient-2"/><linearGradient id="linear-gradient-47" x1="197.14" y1="194.09" x2="201.74" y2="228.86" gradientTransform="translate(-89.85 293.99) rotate(-18.02)" xlink:href="#linear-gradient-2"/><linearGradient id="linear-gradient-48" x1="2251.54" y1="622.92" x2="2256.14" y2="657.69" gradientTransform="matrix(-0.97, -0.26, -0.26, 0.97, 2525.87, 397.09)" xlink:href="#linear-gradient-2"/><linearGradient id="linear-gradient-49" x1="2256.11" y1="622.31" x2="2260.71" y2="657.09" gradientTransform="matrix(-0.97, -0.26, -0.26, 0.97, 2525.87, 397.09)" xlink:href="#linear-gradient-2"/><linearGradient id="linear-gradient-50" x1="262.03" y1="452.72" x2="268.7" y2="496.32" gradientTransform="matrix(1, 0.07, -0.07, 1, -63.74, -64.79)" xlink:href="#linear-gradient-2"/><linearGradient id="linear-gradient-51" x1="267.66" y1="451.86" x2="274.33" y2="495.46" gradientTransform="matrix(1, 0.07, -0.07, 1, -63.74, -64.79)" xlink:href="#linear-gradient-2"/><linearGradient id="linear-gradient-52" x1="276.34" y1="450.54" x2="283.01" y2="494.13" gradientTransform="matrix(1, 0.07, -0.07, 1, -63.74, -64.79)" xlink:href="#linear-gradient-2"/><linearGradient id="linear-gradient-53" x1="260.01" y1="453.03" x2="266.68" y2="496.63" gradientTransform="matrix(1, 0.07, -0.07, 1, -63.74, -64.79)" xlink:href="#linear-gradient-2"/><linearGradient id="linear-gradient-54" x1="1738.66" y1="749.45" x2="1743.27" y2="779.58" gradientTransform="matrix(-0.9, -0.43, -0.43, 0.9, 2085.98, 507.75)" xlink:href="#linear-gradient-2"/><linearGradient id="linear-gradient-55" x1="1742.55" y1="748.86" x2="1747.16" y2="778.98" gradientTransform="matrix(-0.9, -0.43, -0.43, 0.9, 2085.98, 507.75)" xlink:href="#linear-gradient-2"/><linearGradient id="linear-gradient-56" x1="1748.55" y1="747.94" x2="1753.16" y2="778.07" gradientTransform="matrix(-0.9, -0.43, -0.43, 0.9, 2085.98, 507.75)" xlink:href="#linear-gradient-2"/><linearGradient id="linear-gradient-57" x1="1737.26" y1="749.67" x2="1741.87" y2="779.79" gradientTransform="matrix(-0.9, -0.43, -0.43, 0.9, 2085.98, 507.75)" xlink:href="#linear-gradient-2"/><linearGradient id="linear-gradient-58" x1="162.1" y1="509.06" x2="155.23" y2="489.5" gradientTransform="matrix(1, 0.07, -0.08, 1.08, 35.95, -100.06)" xlink:href="#linear-gradient-26"/><linearGradient id="linear-gradient-59" x1="379.04" y1="431.58" x2="334.79" y2="354.14" gradientUnits="userSpaceOnUse"><stop offset="0" stop-color="#ae4c25"/><stop offset="1" stop-color="#f3d37f"/></linearGradient><linearGradient id="linear-gradient-60" x1="291.4" y1="427.51" x2="264.21" y2="383.59" gradientTransform="matrix(1, 0, 0, 1, 0, 0)" xlink:href="#linear-gradient-26"/></defs><g class="cls-2"><g id="BACKGROUND"><rect class="cls-3" width="750" height="500"/></g><g id="OBJECTS"><g class="cls-4"><path class="cls-5" d="M870.9,193.48C860,173.91,841.55,157.87,819.66,153s-45,1.62-63.48,14.12-30.18,30-41.54,49.17a23.63,23.63,0,0,0-19.83-19.08C685.05,196,673,202.54,669,211.56c-5.95-18.41-12.06-37.15-23.28-52.91s-28.55-28.38-47.88-29.06c-17.36-.62-34.18,8.66-45.13,22.14s-16.51,30.73-18.35,48,.54,34,2.64,51.29c-2-12.71-13.38-22.87-26.07-25s-25.95,3.15-35.11,12.17c-4,3.88-10.63,21.21-5.1,37.41a39.28,39.28,0,0,0-30-22.52c-14.17-1.85-30.19,5-38,17,6.71-23.64-4.88-48.73-19.92-68.16-10.57-13.66-24.16-26.51-41.19-29.32-15.74-2.6-32.3,4.33-42.83,16.31s-15.28,28.44-14.52,44.37,7.71,30.79,16.34,44.21a22.71,22.71,0,0,0-23.5-6.65c-8.21,2.61-15.84,10.4-16.67,19-1.46-4.83-6.51-7.6-11.34-9.08-12.26-3.74-28.48-3.39-39.63,2.93,7.82-13.24,6.08-31.19-3.44-43.27s-25.94-18-41.14-15.63-28.17,12.06-35.62,25.51c-.06-19.86-.57-39.91-5.4-59.17S109.5,153.24,94.1,140.71s-37.22-18.06-55.81-11.08c-18.88,7.08-31.74,26.05-34.91,46-2.49,15.65.57,31,6.5,45.48a25.78,25.78,0,0,0-9.68-7.9c-7.78-3.56-17.79-2.35-23.8,3.73-7.17,7.26-7.56,17.45-7.14,27.65a40.4,40.4,0,0,0-15.67-29,40.45,40.45,0,0,0-32.15-7.31c-15.57,3.2-28.17,15.85-33.93,30.67s-5.38,31.46-1.76,46.94,10.3,30.05,17,44.48c37,7.6,75.62,40.34,94.34,73.11,28.2,49.36,78.91,82.74,132.7,101.11S240.9,527.83,297.59,532c109.28,8.06,220.66,13.66,327.06-12.56s236.5-86.19,254.24-194.32c3.63-22.13,7.27-44.39,7.15-66.82S881.84,213.06,870.9,193.48Z"/><path class="cls-6" d="M832.4,334.45c5.15-1.62,9.1-6,11.17-11s2.43-10.53,2.17-15.92c-.4-7.88-2.16-15.84-6.31-22.55s-10.91-12-18.69-13.32c-6.82-1.12-13.86.9-19.88,4.28s-11.2,8.07-16.32,12.71c6-7.28,7.73-17,6.62-26.31s-4.7-18.16-8.3-26.84c-4.1-9.87-8.55-20.11-16.77-26.94-11.51-9.58-28.74-10.33-42.42-4.25s-24,18.06-31,31.31-10.9,27.85-14.78,42.31A37.37,37.37,0,0,0,643,265.52a39.77,39.77,0,0,0-29.56,24.27c-.67-4.42-4.77-8.36-9.06-9.63a16.24,16.24,0,0,0-12.86,2,25,25,0,0,0-8.79,9.91c-4-7.32-8.64-14.36-15.76-18.73-8.16-5-18.34-6.93-27.59-4.45s-17.31,9.61-20.17,18.75,0,20,7.48,26c-3.34-3.78-10.11-4.46-15-3.21a14.11,14.11,0,0,0-10,10.29c-17.57-11.28-43.47-.75-53.12,17.78s-5,42.22,7.57,58.92,31.65,27.34,51.33,34.35c50.46,18,105.75,14.84,159.08,9.75,24.4-2.33,49.2-5.13,71.73-14.81C780.65,408.52,806.5,372.65,832.4,334.45Z"/><path class="cls-7" d="M520.26,320.84c-8.43-13.9-25.3-23-41.26-19.91-8.81,1.7-18,7.73-23.89,15.46a56.92,56.92,0,0,0-.51-14c-1.25-7.56-4.4-15.33-10.8-19.57-4.07-2.7-9.07-3.69-13.95-3.76a42.36,42.36,0,0,0-37.92,23.61c-6.75,14.21-7,33.08,3.1,45.13A82.07,82.07,0,0,0,282.22,358a29.49,29.49,0,0,0-27.86-12.16c-10.57,1.53-20.38,8.71-23.7,18.85-.73-14.17-12.32-27-26.34-29.25s-30.47,5.81-35.52,19.07c4.82-18.81,20.63-34.77,19.87-54.18-.6-15.11-12.26-28.63-26.67-33.19s-30.74-.84-43,8-20.65,22.37-25.2,36.79c3.29-16.23,2.22-33.66-5-48.56s-21-26.94-37.31-30.1S17,236.82,8.16,250.87c-6.28,10-7.4,22.63-5.47,34.31s8.82,20.66,13.6,31.49c-6.06-8-17.28-10.79-27.18-9S-31.41,317-39.41,323.12c-8.21-15.85-17.93-33.05-34.79-38.92-18.87-6.57-41,5.06-49.69,23s-5.56,40.1,4.43,57.41C-8,419.44,113.66,457.16,237,471.41c46.28,5.34,93.4,7.69,139.22-.66s90.6-28.13,122.74-61.84c11.22-11.77,20.94-25.39,25.68-40.94S528.68,334.74,520.26,320.84Z"/><path class="cls-8" d="M-25,16.08C108.33-22.7,250.82-3,388.17,17.43s279.47,41.22,413.38,4.42c-2.84,5.61-5.72,9.68-8.56,15.28C719.62,69.45,636.43,63.8,557.07,52.39s-157.19-32.92-237-40.47A687.18,687.18,0,0,0-15.61,65.05C-12.21,46.64-22.16,34.58-25,16.08Z"/><path class="cls-9" d="M-24.18,75.56c61,13.35,124.61,3.68,185.66-9.51s122-30,184.47-30.78c77.6-1,153.06,22.6,228.32,41.53s154.73,33.32,229.88,14c-.77,4.34-1.43,11.09-2.2,15.42-60.14,14.59-123.86,5.23-184.45-7.33s-121-29.08-182.86-30.22C358.42,67.25,284,89.21,210.06,107.81S59,141.87-15.91,127.41C-14.83,107.69-20.7,95-24.18,75.56Z"/><path class="cls-10" d="M598.21,342.8l-.24.11a19.54,19.54,0,0,0-3.86-5.66A58.89,58.89,0,0,0,589,332.6l.17-.2a56.42,56.42,0,0,1,5.14,4.67A19.46,19.46,0,0,1,598.21,342.8Z"/><path class="cls-11" d="M587.07,332.93a11.22,11.22,0,0,0-1.14-.59A5.31,5.31,0,0,1,585,332a1.54,1.54,0,0,1-.61-.74,5,5,0,0,1-.25-.94c0-.14,0-.31.06-.4a.38.38,0,0,1,.33,0c.41.1.79.32,1.21.38s.6,0,.9,0a3.88,3.88,0,0,1,1.81.8,3.19,3.19,0,0,1,.94.85c.2.3.4,1,0,1.28a1.58,1.58,0,0,1-.72.09,3.53,3.53,0,0,1-1.58-.39Z"/><path class="cls-12" d="M588.46,330.34a2.93,2.93,0,0,0-1.48-1.83l-.73-.51a.71.71,0,0,0-.38-.16c-.23,0-.4.25-.42.49a2.81,2.81,0,0,0,.14.7c.08.34.08.69.17,1a3.64,3.64,0,0,0,.79,1.35,3.77,3.77,0,0,0,.73.71,1.75,1.75,0,0,0,1,.35c.31,0,.72-.15.78-.49a.59.59,0,0,0-.08-.32l-.21-.6Z"/><path class="cls-13" d="M588.21,333.94a6.5,6.5,0,0,1-1-.29,6.59,6.59,0,0,0-1.12-.42,1.27,1.27,0,0,0-1.12.27c0-.09-.12-.13-.21-.1a1.27,1.27,0,0,0-.23.12c-.08,0-.19.05-.24,0a.21.21,0,0,1,0-.19,2.53,2.53,0,0,1,.61-1.26,1.76,1.76,0,0,1,1.25-.57,3,3,0,0,1,1.39.51,3.44,3.44,0,0,0,1.37.58,1.42,1.42,0,0,1,.36.05.34.34,0,0,1,.24.24.45.45,0,0,1-.06.28,2,2,0,0,1-.43.69A1,1,0,0,1,588.21,333.94Z"/><path class="cls-13" d="M588.67,327.6a.41.41,0,0,0-.34,0,2.58,2.58,0,0,1-.32.18c-.2.08-.43.06-.61.18a.89.89,0,0,0-.26.68,4.2,4.2,0,0,0,.1,1.66c.24.7.83,1.23,1.06,1.93.08.22.11.45.18.68a1.29,1.29,0,0,0,.32.61c.17.17.24.26.46.19a2.37,2.37,0,0,0,1-1,2.05,2.05,0,0,0,.2-1.37,4.43,4.43,0,0,0-.88-1.53,2.71,2.71,0,0,1-.69-1.61,2.29,2.29,0,0,0,0-.37A.34.34,0,0,0,588.67,327.6Z"/><path class="cls-14" d="M590.06,330.88a.53.53,0,0,0-.26.37,2.56,2.56,0,0,0,0,.47.72.72,0,0,1-.17.43.66.66,0,0,1-.4.17,2.14,2.14,0,0,0-.44.08.43.43,0,0,0-.29.31c0,.15.06.3,0,.44a.39.39,0,0,1-.27.19c-.11,0-.23,0-.34.05a.32.32,0,0,0-.24.22c0,.16.13.28.27.34a1.63,1.63,0,0,0,1,.14c.31,0,.59-.19.9-.25a1.12,1.12,0,0,1,1,.23l.21-.18a.74.74,0,0,1-.34-.69,4.94,4.94,0,0,1,.14-.75,2.75,2.75,0,0,0,0-.86,1,1,0,0,0-.19-.54A.47.47,0,0,0,590.06,330.88Z"/><path class="cls-15" d="M599.73,339.91l.22-.16a19.26,19.26,0,0,1-2.86-6.22,59.29,59.29,0,0,1-1.34-6.78l-.26,0a59.79,59.79,0,0,0,1.34,6.81A19.5,19.5,0,0,0,599.73,339.91Z"/><path class="cls-11" d="M597,325.27c0-.43,0-.86.08-1.28a4.78,4.78,0,0,0,.22-1,1.56,1.56,0,0,0-.32-.9,4.51,4.51,0,0,0-.67-.71c-.11-.09-.24-.2-.38-.15s-.16.15-.2.26a12.48,12.48,0,0,1-.31,1.24c-.12.27-.31.5-.44.77a3.86,3.86,0,0,0-.25,2,3.26,3.26,0,0,0,.24,1.24c.16.33.68.88,1.09.66a1.44,1.44,0,0,0,.46-.57,4,4,0,0,0,.31-.7A3.47,3.47,0,0,0,597,325.27Z"/><path class="cls-12" d="M594.09,325.12a3.93,3.93,0,0,1-.52-.76,3.74,3.74,0,0,1-.28-1.45l-.06-.9a.69.69,0,0,1,.06-.4.5.5,0,0,1,.64-.1,2.36,2.36,0,0,1,.52.48c.25.24.55.42.8.67A3.72,3.72,0,0,1,596,324a3.56,3.56,0,0,1,.24,1,1.68,1.68,0,0,1-.19,1c-.16.27-.5.55-.83.42-.11,0-.17-.15-.23-.23l-.41-.5Z"/><path class="cls-13" d="M597.31,326.77a7.18,7.18,0,0,0,.25-1,5.73,5.73,0,0,1,.23-1.18,1.21,1.21,0,0,1,.81-.82c-.08,0-.05-.17,0-.23a.86.86,0,0,1,.23-.13c.07-.05.14-.14.11-.22a.23.23,0,0,0-.16-.12,2.45,2.45,0,0,0-1.39-.13,1.72,1.72,0,0,0-1.13.78,2.86,2.86,0,0,0-.28,1.45,3.62,3.62,0,0,1-.21,1.47,1.47,1.47,0,0,0-.15.34.34.34,0,0,0,.09.33.48.48,0,0,0,.27.09,1.85,1.85,0,0,0,.81,0A1,1,0,0,0,597.31,326.77Z"/><path class="cls-13" d="M591.64,323.89a.42.42,0,0,1,.21-.28,3.24,3.24,0,0,0,.32-.17c.17-.13.27-.34.46-.43a.85.85,0,0,1,.72.12,4.31,4.31,0,0,1,1.38.95c.47.56.62,1.34,1.09,1.9.16.18.34.33.5.5a1.42,1.42,0,0,1,.36.6c.05.23.1.33-.08.48a2.39,2.39,0,0,1-1.35.36,2,2,0,0,1-1.27-.55,4.15,4.15,0,0,1-.85-1.54,2.8,2.8,0,0,0-1-1.42,1.69,1.69,0,0,1-.32-.19A.38.38,0,0,1,591.64,323.89Z"/><path class="cls-16" d="M593.73,326.77a.51.51,0,0,1,.45,0,3.42,3.42,0,0,1,.43.21.65.65,0,0,0,.45.08.71.71,0,0,0,.35-.26,2.43,2.43,0,0,1,.3-.34.43.43,0,0,1,.42-.08c.13,0,.22.21.36.23a.33.33,0,0,0,.3-.14c.08-.08.14-.18.22-.26a.3.3,0,0,1,.32-.08c.14.06.17.25.15.4a1.61,1.61,0,0,1-.37.88c-.21.24-.47.41-.68.64a1.16,1.16,0,0,0-.32,1l-.26.09a.71.71,0,0,0-.41-.64,3.67,3.67,0,0,0-.72-.27,2.61,2.61,0,0,1-.74-.43,1,1,0,0,1-.37-.44A.47.47,0,0,1,593.73,326.77Z"/><path class="cls-17" d="M596.93,343.05h-.31a22.13,22.13,0,0,0-1.64-7.61,66.89,66.89,0,0,0-3.41-7.08l.27-.15a65.67,65.67,0,0,1,3.42,7.12A22.32,22.32,0,0,1,596.93,343.05Z"/><path class="cls-18" d="M589.39,327.89a10,10,0,0,0-.94-1.11,6.1,6.1,0,0,1-.86-.74,1.74,1.74,0,0,1-.33-1,6.74,6.74,0,0,1,.13-1.1c0-.16.09-.35.24-.4a.41.41,0,0,1,.36.11c.4.27.71.67,1.12.91s.63.25.94.4a4.41,4.41,0,0,1,1.56,1.62,3.57,3.57,0,0,1,.63,1.3c.08.4,0,1.26-.54,1.34a1.55,1.55,0,0,1-.8-.21,3.51,3.51,0,0,1-.76-.42A3.94,3.94,0,0,1,589.39,327.89Z"/><path class="cls-19" d="M592,325.75a4,4,0,0,0,0-1,4.39,4.39,0,0,0-.74-1.52c-.18-.29-.37-.57-.55-.85a.81.81,0,0,0-.33-.33.56.56,0,0,0-.65.34,3.06,3.06,0,0,0-.15.79c-.06.39-.21.77-.26,1.16a4.1,4.1,0,0,0,.25,1.76,4.61,4.61,0,0,0,.46,1.07,2,2,0,0,0,.86.77.85.85,0,0,0,1-.19.66.66,0,0,0,.06-.37c0-.24,0-.48,0-.72Z"/><path class="cls-20" d="M590.17,329.44a7.1,7.1,0,0,1-.91-.73,6.31,6.31,0,0,0-1-.92,1.42,1.42,0,0,0-1.29-.19c0-.09-.07-.19-.17-.2a1.54,1.54,0,0,0-.3,0c-.1,0-.22,0-.25-.13a.27.27,0,0,1,.06-.21,2.77,2.77,0,0,1,1.18-1.07A2,2,0,0,1,589,326a3.29,3.29,0,0,1,1.25,1.13,4,4,0,0,0,1.19,1.19,1.79,1.79,0,0,1,.36.21.37.37,0,0,1,.15.36.45.45,0,0,1-.19.26,2,2,0,0,1-.74.54A1.14,1.14,0,0,1,590.17,329.44Z"/><path class="cls-20" d="M593.37,323a.53.53,0,0,0-.39-.1,2.9,2.9,0,0,1-.41.06c-.24,0-.48-.13-.71-.08s-.44.35-.57.61a4.88,4.88,0,0,0-.61,1.79c0,.84.36,1.65.3,2.49a7.49,7.49,0,0,1-.11.79,1.58,1.58,0,0,0,.08.78c.11.25.14.38.41.39a2.69,2.69,0,0,0,1.46-.59,2.34,2.34,0,0,0,.79-1.37,4.84,4.84,0,0,0-.28-2,3.16,3.16,0,0,1,0-2,2,2,0,0,0,.16-.4A.44.44,0,0,0,593.37,323Z"/><path class="cls-21" d="M593.43,327a.58.58,0,0,0-.44.27,4.3,4.3,0,0,0-.24.48.81.81,0,0,1-.36.39.85.85,0,0,1-.5,0,2.13,2.13,0,0,0-.49-.1.48.48,0,0,0-.44.2c-.09.15-.06.34-.18.46a.39.39,0,0,1-.36.09,3,3,0,0,0-.38-.09.35.35,0,0,0-.35.13c-.09.16,0,.35.14.48a1.83,1.83,0,0,0,.94.54c.35.08.71.06,1.06.12a1.32,1.32,0,0,1,.94.67l.29-.1a.83.83,0,0,1,0-.86,5.69,5.69,0,0,1,.46-.74,2.89,2.89,0,0,0,.39-.9,1.2,1.2,0,0,0,0-.65A.52.52,0,0,0,593.43,327Z"/><path class="cls-22" d="M598.93,326.73a.88.88,0,0,0-.95-.06,3.14,3.14,0,0,0-1.68,2,6.27,6.27,0,0,0-.14,2.66,9,9,0,0,1,.15,2.13,2.05,2.05,0,0,1-1.13,1.7,5,5,0,0,1-.57-3.35,11.09,11.09,0,0,1,1.1-3.24,6.7,6.7,0,0,1,.76-1.26,2.41,2.41,0,0,1,1.2-.82A1.26,1.26,0,0,1,598.93,326.73Z"/><path class="cls-23" d="M593.85,332.79a7.35,7.35,0,0,0-1.84-1.72,3.57,3.57,0,0,0-1-.49,2.15,2.15,0,0,0-1.9.35,1,1,0,0,0-.46.9,1.07,1.07,0,0,1,.25-.44.42.42,0,0,1,.48-.11.78.78,0,0,1,.24.3,2.59,2.59,0,0,0,1.33,1.24,4.22,4.22,0,0,0,1.62.18A3,3,0,0,0,593.85,332.79Z"/><path class="cls-24" d="M600.44,341.85l.19-.09a15.2,15.2,0,0,1-1.3-5.22,44.78,44.78,0,0,1-.05-5.43h-.21a45.09,45.09,0,0,0,0,5.45A15.38,15.38,0,0,0,600.44,341.85Z"/><path class="cls-18" d="M600.48,330.15a7.81,7.81,0,0,1,.25-1,3.82,3.82,0,0,0,.31-.72,1.23,1.23,0,0,0-.12-.75,3.87,3.87,0,0,0-.41-.64c-.07-.09-.16-.19-.27-.17a.27.27,0,0,0-.19.17,9.41,9.41,0,0,1-.42.91c-.13.19-.32.35-.46.53a3,3,0,0,0-.47,1.49,2.36,2.36,0,0,0,0,1c.08.28.4.78.75.67a1.09,1.09,0,0,0,.43-.37,3,3,0,0,0,.35-.5A2.85,2.85,0,0,0,600.48,330.15Z"/><path class="cls-19" d="M598.23,329.61a3.49,3.49,0,0,1-.29-.66,3.07,3.07,0,0,1,0-1.17l.09-.7a.51.51,0,0,1,.1-.3.39.39,0,0,1,.51,0,2.22,2.22,0,0,1,.34.45c.15.22.36.41.51.63a2.83,2.83,0,0,1,.38,1.17,3.15,3.15,0,0,1,0,.81,1.32,1.32,0,0,1-.3.73.58.58,0,0,1-.69.21.48.48,0,0,1-.15-.22l-.24-.44Z"/><path class="cls-20" d="M600.48,331.34a5.43,5.43,0,0,0,.34-.73,4.62,4.62,0,0,1,.34-.87,1,1,0,0,1,.75-.51.12.12,0,0,1,0-.18.68.68,0,0,1,.2-.07c.06,0,.12-.08.11-.15s-.06-.09-.1-.12a2,2,0,0,0-1-.3,1.39,1.39,0,0,0-1,.43,2.22,2.22,0,0,0-.43,1.09,2.83,2.83,0,0,1-.38,1.1,1.25,1.25,0,0,0-.16.24.26.26,0,0,0,0,.27.33.33,0,0,0,.2.11,1.47,1.47,0,0,0,.62.1A.8.8,0,0,0,600.48,331.34Z"/><path class="cls-20" d="M596.51,328.3a.34.34,0,0,1,.21-.18c.09,0,.19-.05.27-.09s.26-.23.42-.27a.7.7,0,0,1,.54.2,3.26,3.26,0,0,1,.92.93c.29.51.29,1.13.57,1.63.1.16.21.31.31.46a1.11,1.11,0,0,1,.2.51c0,.19,0,.28-.14.37a1.84,1.84,0,0,1-1.09.07,1.56,1.56,0,0,1-.9-.6,3.49,3.49,0,0,1-.44-1.32,2.17,2.17,0,0,0-.58-1.24c-.07-.07-.15-.12-.22-.2A.31.31,0,0,1,596.51,328.3Z"/><path class="cls-25" d="M597.71,330.83a.42.42,0,0,1,.36,0,2.21,2.21,0,0,1,.29.22.5.5,0,0,0,.34.13.57.57,0,0,0,.31-.15,1.37,1.37,0,0,1,.28-.21.32.32,0,0,1,.34,0c.09.06.14.19.25.23a.3.3,0,0,0,.25-.06c.07,0,.13-.12.21-.17a.23.23,0,0,1,.25,0,.29.29,0,0,1,.06.33,1.24,1.24,0,0,1-.42.63c-.19.15-.42.25-.62.4a.9.9,0,0,0-.38.69l-.21,0a.6.6,0,0,0-.23-.56,3.3,3.3,0,0,0-.51-.31,2.21,2.21,0,0,1-.52-.44.84.84,0,0,1-.22-.39A.38.38,0,0,1,597.71,330.83Z"/><path class="cls-26" d="M594.22,332.34a.59.59,0,0,1,.57-.33,2.16,2.16,0,0,1,1.64.71,4.26,4.26,0,0,1,.9,1.61,6.07,6.07,0,0,0,.56,1.37,1.42,1.42,0,0,0,1.22.71,3.5,3.5,0,0,0-.67-2.26,7.73,7.73,0,0,0-1.67-1.66,4.38,4.38,0,0,0-.86-.56,1.62,1.62,0,0,0-1-.14A.86.86,0,0,0,594.22,332.34Z"/><path class="cls-27" d="M599.22,334.54a4.75,4.75,0,0,1,.61-1.62,2.38,2.38,0,0,1,.44-.6,1.5,1.5,0,0,1,1.28-.36.69.69,0,0,1,.56.42.69.69,0,0,0-.28-.2.29.29,0,0,0-.33.08.46.46,0,0,0-.06.26,1.88,1.88,0,0,1-.45,1.18,3.13,3.13,0,0,1-1,.6A2,2,0,0,1,599.22,334.54Z"/><path class="cls-28" d="M607.15,335.88l-.17,0a13,13,0,0,0-.23-4.55,38.69,38.69,0,0,0-1.29-4.42l.17-.05a40.39,40.39,0,0,1,1.3,4.43A13.18,13.18,0,0,1,607.15,335.88Z"/><path class="cls-11" d="M604.25,326.4a6.73,6.73,0,0,0-.44-.73,3.42,3.42,0,0,1-.43-.51,1.05,1.05,0,0,1-.09-.63,3.48,3.48,0,0,1,.18-.63c0-.09.08-.19.17-.2s.15,0,.21.09a6.8,6.8,0,0,0,.56.63,5.29,5.29,0,0,0,.5.32,2.77,2.77,0,0,1,.75,1.09,2.36,2.36,0,0,1,.24.81c0,.24-.13.73-.44.73a1,1,0,0,1-.45-.2,2.44,2.44,0,0,1-.4-.32A2.22,2.22,0,0,1,604.25,326.4Z"/><path class="cls-12" d="M605.94,325.41a3.09,3.09,0,0,0,.08-.61,2.73,2.73,0,0,0-.28-.95l-.25-.54a.42.42,0,0,0-.15-.22.33.33,0,0,0-.41.13,1.74,1.74,0,0,0-.17.45c-.07.22-.19.42-.26.64a2.43,2.43,0,0,0,0,1,2.91,2.91,0,0,0,.17.66,1.16,1.16,0,0,0,.42.53.48.48,0,0,0,.61,0,.4.4,0,0,0,.07-.21l.09-.41Z"/><path class="cls-13" d="M604.55,327.37a4.41,4.41,0,0,1-.46-.51,5,5,0,0,0-.49-.62.82.82,0,0,0-.73-.24c0-.05,0-.11-.08-.13a.55.55,0,0,0-.18,0,.13.13,0,0,1-.13-.09s0-.09.06-.12a1.57,1.57,0,0,1,.78-.51,1.17,1.17,0,0,1,.9.11,1.91,1.91,0,0,1,.62.78,2.2,2.2,0,0,0,.58.8,1.3,1.3,0,0,1,.18.15.25.25,0,0,1,.06.23.29.29,0,0,1-.14.13,1.15,1.15,0,0,1-.48.24A.65.65,0,0,1,604.55,327.37Z"/><path class="cls-13" d="M607,323.93a.27.27,0,0,0-.21-.1,1,1,0,0,1-.24,0c-.14,0-.27-.12-.41-.11a.54.54,0,0,0-.38.3,2.83,2.83,0,0,0-.53,1c-.1.48,0,1-.06,1.46a3.88,3.88,0,0,1-.14.45.9.9,0,0,0,0,.46c0,.15,0,.23.2.26a1.5,1.5,0,0,0,.9-.2,1.35,1.35,0,0,0,.59-.72,3.06,3.06,0,0,0,0-1.17,1.8,1.8,0,0,1,.16-1.15,1.2,1.2,0,0,0,.13-.21A.23.23,0,0,0,607,323.93Z"/><path class="cls-29" d="M606.66,326.27a.38.38,0,0,0-.28.12,2.4,2.4,0,0,0-.18.26.49.49,0,0,1-.25.18.43.43,0,0,1-.29,0,1.53,1.53,0,0,0-.27-.11.29.29,0,0,0-.28.08c-.06.07-.06.19-.14.25a.24.24,0,0,1-.22,0,1.89,1.89,0,0,0-.21-.09.2.2,0,0,0-.21.05c-.07.08,0,.2,0,.29a1.07,1.07,0,0,0,.49.4c.2.08.41.1.6.17a.75.75,0,0,1,.48.47l.18,0a.52.52,0,0,1,0-.51,4,4,0,0,1,.34-.38,1.88,1.88,0,0,0,.31-.48.61.61,0,0,0,.08-.37A.3.3,0,0,0,606.66,326.27Z"/><path class="cls-30" d="M609,334.76h.18a12.87,12.87,0,0,1,.54-4.53,37.77,37.77,0,0,1,1.59-4.32l-.17-.07a39.38,39.38,0,0,0-1.6,4.34A13.19,13.19,0,0,0,609,334.76Z"/><path class="cls-11" d="M612.57,325.5a7.09,7.09,0,0,1,.49-.69,3.46,3.46,0,0,0,.46-.48,1.07,1.07,0,0,0,.14-.63,3.38,3.38,0,0,0-.14-.63c0-.09-.07-.2-.16-.22a.25.25,0,0,0-.21.08,8.35,8.35,0,0,1-.6.59c-.16.12-.35.18-.52.29a2.63,2.63,0,0,0-.83,1,2.28,2.28,0,0,0-.29.79c0,.24.08.74.39.76a.92.92,0,0,0,.45-.17,2.16,2.16,0,0,0,.43-.29A2,2,0,0,0,612.57,325.5Z"/><path class="cls-12" d="M611,324.4a2.5,2.5,0,0,1,0-.61,2.68,2.68,0,0,1,.34-.93l.28-.52a.4.4,0,0,1,.17-.21.32.32,0,0,1,.4.16,1.81,1.81,0,0,1,.14.45c0,.23.16.44.21.66a2.29,2.29,0,0,1-.05,1,2.75,2.75,0,0,1-.21.65,1.17,1.17,0,0,1-.46.5.51.51,0,0,1-.61,0c0-.06,0-.14,0-.22l-.06-.42Z"/><path class="cls-13" d="M612.21,326.45a4.34,4.34,0,0,0,.49-.47,3.33,3.33,0,0,1,.53-.59.83.83,0,0,1,.75-.19c0-.05,0-.11.08-.12a.54.54,0,0,1,.18,0c.06,0,.13,0,.14-.09s0-.08,0-.12a1.7,1.7,0,0,0-.74-.56,1.19,1.19,0,0,0-.91.05,2,2,0,0,0-.67.73,2.46,2.46,0,0,1-.63.76l-.2.14a.24.24,0,0,0-.07.22.27.27,0,0,0,.13.15,1.43,1.43,0,0,0,.46.27A.65.65,0,0,0,612.21,326.45Z"/><path class="cls-13" d="M610,322.85a.27.27,0,0,1,.22-.08h.24a2.1,2.1,0,0,1,.42-.09c.16,0,.27.18.36.32a2.66,2.66,0,0,1,.45,1c.08.48-.11,1,0,1.46,0,.16.07.3.1.46a.8.8,0,0,1,0,.46c0,.15-.06.23-.21.25a1.56,1.56,0,0,1-.89-.27,1.34,1.34,0,0,1-.53-.75,2.73,2.73,0,0,1,0-1.17,1.84,1.84,0,0,0-.09-1.16,1.2,1.2,0,0,1-.11-.23A.24.24,0,0,1,610,322.85Z"/><path class="cls-31" d="M610.17,325.21a.35.35,0,0,1,.27.14,2.46,2.46,0,0,1,.17.27.45.45,0,0,0,.23.2.41.41,0,0,0,.29,0,1.57,1.57,0,0,1,.29-.08.28.28,0,0,1,.26.09c.06.08.06.2.13.26a.24.24,0,0,0,.22,0,1.72,1.72,0,0,1,.21-.07.2.2,0,0,1,.21.06c.06.08,0,.2-.05.28a1.09,1.09,0,0,1-.52.37c-.2.07-.41.07-.61.13a.78.78,0,0,0-.51.44l-.18,0a.49.49,0,0,0,0-.51,2.44,2.44,0,0,0-.32-.4,1.86,1.86,0,0,1-.27-.5.71.71,0,0,1-.06-.38A.32.32,0,0,1,610.17,325.21Z"/><path class="cls-32" d="M606.34,335.57l-.18-.1a14.64,14.64,0,0,0,1.71-4.9,43.6,43.6,0,0,0,.52-5.2h.21a46.56,46.56,0,0,1-.53,5.23A15,15,0,0,1,606.34,335.57Z"/><path class="cls-18" d="M607.32,324.34a6.19,6.19,0,0,0-.15-1,3.56,3.56,0,0,1-.23-.72,1.16,1.16,0,0,1,.17-.7,4.34,4.34,0,0,1,.46-.58c.07-.08.17-.17.27-.14s.14.1.17.18c.13.3.17.63.32.91s.27.36.39.55a2.93,2.93,0,0,1,.33,1.46,2.56,2.56,0,0,1-.09,1c-.1.26-.45.71-.78.58-.16-.07-.28-.27-.38-.4a3.2,3.2,0,0,1-.29-.51A2.7,2.7,0,0,1,607.32,324.34Z"/><path class="cls-19" d="M609.53,324a2.8,2.8,0,0,0,.34-.61,3,3,0,0,0,.11-1.12c0-.22,0-.45,0-.67a.58.58,0,0,0-.07-.3.38.38,0,0,0-.49,0,2.28,2.28,0,0,0-.37.39c-.17.21-.38.37-.55.57a2.65,2.65,0,0,0-.46,1.09,2.87,2.87,0,0,0-.11.77,1.28,1.28,0,0,0,.22.73.55.55,0,0,0,.65.25c.08,0,.12-.12.16-.19l.27-.4C609.31,324.34,609.42,324.18,609.53,324Z"/><path class="cls-20" d="M607.22,325.49a4.52,4.52,0,0,1-.26-.73,5.11,5.11,0,0,0-.25-.87.94.94,0,0,0-.67-.56c.05,0,0-.13,0-.17a1,1,0,0,0-.18-.08c-.06,0-.12-.1-.1-.16s.06-.08.11-.1a1.87,1.87,0,0,1,1-.2,1.35,1.35,0,0,1,.91.5,2.22,2.22,0,0,1,.31,1.08,2.74,2.74,0,0,0,.27,1.1,1.12,1.12,0,0,1,.13.24.23.23,0,0,1,0,.25.31.31,0,0,1-.2.09,1.4,1.4,0,0,1-.61,0A.73.73,0,0,1,607.22,325.49Z"/><path class="cls-20" d="M611.29,322.92a.32.32,0,0,0-.18-.2,1.36,1.36,0,0,1-.25-.11c-.14-.08-.23-.23-.38-.29a.7.7,0,0,0-.54.15,3.26,3.26,0,0,0-1,.81c-.32.46-.38,1.06-.69,1.51-.11.15-.23.28-.34.42a1,1,0,0,0-.23.47c0,.18-.05.26.09.36a1.71,1.71,0,0,0,1,.17,1.48,1.48,0,0,0,.92-.5,3.13,3.13,0,0,0,.54-1.22,2.15,2.15,0,0,1,.66-1.15,1.24,1.24,0,0,0,.23-.17A.27.27,0,0,0,611.29,322.92Z"/><path class="cls-33" d="M609.92,325.24a.39.39,0,0,0-.35,0,2.49,2.49,0,0,0-.3.19.52.52,0,0,1-.34.09.55.55,0,0,1-.28-.17,1.37,1.37,0,0,0-.25-.23.33.33,0,0,0-.32,0c-.09.05-.15.17-.26.2a.26.26,0,0,1-.23-.08c-.07-.06-.12-.13-.19-.18a.24.24,0,0,0-.24,0c-.1.05-.11.2-.09.31a1.23,1.23,0,0,0,.35.64c.17.17.38.28.56.44a.87.87,0,0,1,.3.7l.2.05a.56.56,0,0,1,.27-.51,3.6,3.6,0,0,1,.52-.26,2,2,0,0,0,.53-.37.87.87,0,0,0,.25-.36A.36.36,0,0,0,609.92,325.24Z"/><path class="cls-34" d="M613.14,327c0-.21-.29-.32-.52-.36a2.09,2.09,0,0,0-1.64.54,4.09,4.09,0,0,0-1,1.46,5.89,5.89,0,0,1-.66,1.27,1.36,1.36,0,0,1-1.23.57,3.31,3.31,0,0,1,.84-2.1,7.47,7.47,0,0,1,1.75-1.46,4.22,4.22,0,0,1,.87-.45,1.54,1.54,0,0,1,1,0A.83.83,0,0,1,613.14,327Z"/><path class="cls-35" d="M608.15,328.67a4.56,4.56,0,0,0-.45-1.61,2.37,2.37,0,0,0-.37-.61,1.41,1.41,0,0,0-1.2-.46.66.66,0,0,0-.57.35.69.69,0,0,1,.29-.16.27.27,0,0,1,.31.1.37.37,0,0,1,0,.25,1.77,1.77,0,0,0,.33,1.17,3,3,0,0,0,.86.67A2,2,0,0,0,608.15,328.67Z"/><path class="cls-36" d="M608.75,336.11h.14A10.33,10.33,0,0,1,610,332.7a32.18,32.18,0,0,1,1.86-3.1l-.12-.08a31.31,31.31,0,0,0-1.86,3.12A10.18,10.18,0,0,0,608.75,336.11Z"/><path class="cls-18" d="M612.84,329.48a4.25,4.25,0,0,1,.48-.47,2.68,2.68,0,0,0,.42-.31.77.77,0,0,0,.2-.46,2.18,2.18,0,0,0,0-.51.2.2,0,0,0-.09-.19c-.05,0-.12,0-.17,0a6.61,6.61,0,0,1-.55.37c-.14.06-.3.09-.45.15a2.75,2.75,0,0,0-1.13,1.24c0,.18,0,.58.2.64a.8.8,0,0,0,.37-.06,2.43,2.43,0,0,0,.37-.16A2.51,2.51,0,0,0,612.84,329.48Z"/><path class="cls-19" d="M611.75,328.39a1.91,1.91,0,0,1,.06-.48,2.09,2.09,0,0,1,.4-.67l.29-.36a.42.42,0,0,1,.16-.14.27.27,0,0,1,.29.19,1.45,1.45,0,0,1,0,.37c0,.18.06.35.07.54a1.84,1.84,0,0,1-.19.79,2,2,0,0,1-.26.47,1,1,0,0,1-.42.32.4.4,0,0,1-.47-.13c0-.05,0-.11,0-.17s0-.22,0-.34Z"/><path class="cls-20" d="M612.42,330.15a2.23,2.23,0,0,0,.44-.29,3.75,3.75,0,0,1,.51-.38.61.61,0,0,1,.6,0,.08.08,0,0,1,.08-.09.7.7,0,0,1,.14,0,.1.1,0,0,0,.12-.05.12.12,0,0,0,0-.1,1.34,1.34,0,0,0-.49-.54,1,1,0,0,0-.72-.09,1.55,1.55,0,0,0-.62.46,1.61,1.61,0,0,1-.6.5,1.3,1.3,0,0,0-.17.08.18.18,0,0,0-.08.16c0,.05,0,.09.07.13a1.22,1.22,0,0,0,.32.28A.53.53,0,0,0,612.42,330.15Z"/><path class="cls-20" d="M611.23,327.05a.18.18,0,0,1,.18,0l.18,0c.11,0,.23,0,.33,0s.19.18.24.31a2.25,2.25,0,0,1,.2.84c0,.39-.23.74-.24,1.13,0,.12,0,.24,0,.37a.68.68,0,0,1-.06.35c-.06.11-.08.17-.21.16a1.2,1.2,0,0,1-.64-.33,1,1,0,0,1-.31-.66,2.37,2.37,0,0,1,.21-.9,1.44,1.44,0,0,0,.11-.91,1.27,1.27,0,0,1-.06-.18A.19.19,0,0,1,611.23,327.05Z"/><path class="cls-37" d="M611,328.9a.26.26,0,0,1,.19.15,1.57,1.57,0,0,1,.09.23.35.35,0,0,0,.15.19.41.41,0,0,0,.22,0l.24,0a.26.26,0,0,1,.19.12c0,.07,0,.15.06.21a.19.19,0,0,0,.16.06l.18,0a.16.16,0,0,1,.15.08c0,.07,0,.16-.08.21a.89.89,0,0,1-.45.21c-.17,0-.33,0-.49,0a.61.61,0,0,0-.46.27l-.13-.06a.39.39,0,0,0,.06-.39,2.42,2.42,0,0,0-.18-.36,1.57,1.57,0,0,1-.15-.43.61.61,0,0,1,0-.3A.24.24,0,0,1,611,328.9Z"/><path class="cls-38" d="M608.52,328.54a.38.38,0,0,1,.43,0,1.42,1.42,0,0,1,.69,1,3,3,0,0,1,0,1.23,4,4,0,0,0-.16,1,1,1,0,0,0,.44.83,2.38,2.38,0,0,0,.41-1.52,5.2,5.2,0,0,0-.38-1.53,2.84,2.84,0,0,0-.29-.61,1.09,1.09,0,0,0-.52-.43A.6.6,0,0,0,608.52,328.54Z"/><path class="cls-39" d="M610.59,331.53a3.54,3.54,0,0,1,.92-.71,1.46,1.46,0,0,1,.45-.18,1,1,0,0,1,.86.24.46.46,0,0,1,.17.43.5.5,0,0,0-.09-.21.22.22,0,0,0-.22-.07.3.3,0,0,0-.12.13,1.27,1.27,0,0,1-.67.51,1.89,1.89,0,0,1-.75,0A1.33,1.33,0,0,1,610.59,331.53Z"/><path class="cls-40" d="M566.49,348.81a2.21,2.21,0,0,1,2.74-2,1.37,1.37,0,0,1-.57-1.68,1.19,1.19,0,0,1,1.58-.57,1.64,1.64,0,0,1,2.8-.91,4.57,4.57,0,0,1,1.79-6.3,4.3,4.3,0,0,1,5.58,3.12,2.44,2.44,0,0,1,3.68-.75,3.22,3.22,0,0,1,2.21-1.14c-.81.25-1.66-.78-1.44-1.65a1.67,1.67,0,0,1,2-1.11,2.91,2.91,0,0,1,1.8,1.82,2.67,2.67,0,0,1,2.22-3.53,2.78,2.78,0,0,1,2.4,3.5,1.4,1.4,0,0,1,2.6,0,3,3,0,0,1,3.67-.21,1.52,1.52,0,0,1,.58-1.78,1.39,1.39,0,0,1,1.76.35,4.39,4.39,0,0,1-.35-5.36,4.34,4.34,0,0,1,5-1.45,5.85,5.85,0,0,1,3.47,4.31,1.46,1.46,0,0,1,1.35-1.32,1.52,1.52,0,0,1,1.43,1.27,3.22,3.22,0,0,1,3.25-.75c-.83,0-1.44-1.11-1.08-1.9a1.61,1.61,0,0,1,2.16-.68,2.78,2.78,0,0,1,1.36,2.13,1.29,1.29,0,0,1,1.07-1.28,1.34,1.34,0,0,1,1.38,1,5.8,5.8,0,0,1,1.88-5,4.39,4.39,0,0,1,5-.41,4.46,4.46,0,0,1,1.87,4.91A3.13,3.13,0,0,1,633,333.8a5.25,5.25,0,0,1-.95,4.33,12,12,0,0,1-3.33,2.9c-8.6,5.61-18.58,8.62-28.67,10a119,119,0,0,1-15.1.95c-4.92,0-9.87-.49-14.78-.37C568.65,351.61,566.36,351.05,566.49,348.81Z"/><path class="cls-41" d="M580.68,348.22a1.53,1.53,0,0,1,1.9-1.39.94.94,0,0,1-.39-1.17.82.82,0,0,1,1.09-.39,1.13,1.13,0,0,1,1.94-.63,3.17,3.17,0,0,1,1.25-4.37,3,3,0,0,1,3.86,2.16,1.69,1.69,0,0,1,2.55-.51,2.21,2.21,0,0,1,1.53-.79c-.56.17-1.15-.54-1-1.15a1.14,1.14,0,0,1,1.41-.76,2,2,0,0,1,1.24,1.26,1.86,1.86,0,0,1,1.55-2.45,1.93,1.93,0,0,1,1.66,2.43,1,1,0,0,1,1.8,0,2.07,2.07,0,0,1,2.54-.15,1.06,1.06,0,0,1,.41-1.23,1,1,0,0,1,1.21.24,2.92,2.92,0,0,1,3.21-4.72,4.06,4.06,0,0,1,2.4,3,1,1,0,0,1,.94-.91,1.05,1.05,0,0,1,1,.88A2.23,2.23,0,0,1,615,337c-.57,0-1-.77-.74-1.32a1.12,1.12,0,0,1,1.49-.46,1.89,1.89,0,0,1,.94,1.47.86.86,0,0,1,1.7-.22,4.05,4.05,0,0,1,1.3-3.49,3,3,0,0,1,3.5-.29,3.11,3.11,0,0,1,1.3,3.4,2.18,2.18,0,0,1,2.29,1.68,3.68,3.68,0,0,1-.66,3,8.54,8.54,0,0,1-2.31,2,47.73,47.73,0,0,1-19.87,6.9,83.15,83.15,0,0,1-10.47.66c-3.41,0-6.84-.34-10.24-.26C582.18,350.16,580.59,349.77,580.68,348.22Z"/><path class="cls-42" d="M758.68,327.29a3.88,3.88,0,0,0-4.14-.25c-.58-1.83-.67-3.64-2.34-5.22-1.39-1.32-9.15-3.09-9.82,3.72a8.68,8.68,0,0,0-7.68,1.35,4.07,4.07,0,0,0-2.15-4.22,4.8,4.8,0,0,0-4.82.41,5.83,5.83,0,0,0-2.35,4.33,3.37,3.37,0,0,0-4.52,1.31,2.2,2.2,0,0,0-4.33,0,3.32,3.32,0,0,0-4.26,3.84,4.5,4.5,0,0,0,2.8,3,13,13,0,0,0,4.21.77l29.06,2.09c2.77.2,5.67.37,8.2-.76C760.09,336.12,762.37,330,758.68,327.29Z"/><path class="cls-43" d="M755.47,332.44a3.16,3.16,0,0,0-3.36-.2c-.46-1.48-.54-2.95-1.89-4.23-1.13-1.06-7.41-2.5-8,3a7,7,0,0,0-6.22,1.09,3.28,3.28,0,0,0-1.75-3.42,3.88,3.88,0,0,0-3.9.34,4.73,4.73,0,0,0-1.9,3.5,2.72,2.72,0,0,0-3.65,1.07,1.79,1.79,0,0,0-3.52,0,2.69,2.69,0,0,0-3.44,3.11,3.65,3.65,0,0,0,2.26,2.46,11.29,11.29,0,0,0,3.41.62l23.54,1.69c2.24.16,4.59.3,6.64-.61C756.61,339.6,758.46,334.67,755.47,332.44Z"/><rect class="cls-44" x="692.6" y="264.52" width="18.01" height="27.89"/><polygon class="cls-45" points="723.27 340.87 694.76 340.87 694.76 311.59 709.02 282.03 723.27 311.59 723.27 340.87"/><polygon class="cls-46" points="712.04 279.57 633.7 279.57 619.45 311.59 697.79 311.59 712.04 279.57"/><rect class="cls-44" x="651.04" y="311.59" width="72.24" height="29.28"/><polygon class="cls-47" points="651.04 340.87 622.53 340.87 622.53 311.59 636.78 282.03 651.04 311.59 651.04 340.87"/><polygon class="cls-46" points="636.78 279.57 712.1 279.57 726.36 311.59 651.04 311.59 636.78 279.57"/><path class="cls-48" d="M642.71,340.87H630.85V325.3a5.94,5.94,0,0,1,5.93-5.93h0a5.94,5.94,0,0,1,5.93,5.93Z"/><rect class="cls-48" x="665.15" y="319.37" width="10.3" height="10.3"/><rect class="cls-48" x="684.46" y="319.37" width="10.3" height="10.3"/><rect class="cls-48" x="703.77" y="319.37" width="10.3" height="10.3"/><polygon class="cls-46" points="701.6 235.7 690.19 264.52 701.6 264.52 713.01 264.52 701.6 235.7"/><path class="cls-48" d="M697.83,275h-3.4v-4.22a1.7,1.7,0,0,1,1.7-1.7h0a1.7,1.7,0,0,1,1.7,1.7Z"/><path class="cls-48" d="M703.62,275h-3.41v-4.22a1.7,1.7,0,0,1,1.7-1.7h0a1.7,1.7,0,0,1,1.71,1.7Z"/><path class="cls-48" d="M709.4,275H706v-4.22a1.7,1.7,0,0,1,1.7-1.7h0a1.7,1.7,0,0,1,1.7,1.7Z"/><path class="cls-49" d="M771.43,341.07C664.72,320.62,550.85,350.74,414,388.79c-126.11,35-281.41,25.85-423.4,10.1L-9.57,516l6.89,0H771c.25,0-1.82-3.83-1.57-3.83Z"/><path class="cls-50" d="M799.26,362.77c-63.11-29.85-136.9-29.35-205.18-14.81s-132.94,42.18-198.8,65.35-134.8,42.13-204.51,38.2c.52,0,1.78-2,2.29-2V534H798.23Z"/><path class="cls-51" d="M622.47,340.18c-36.9,6.86-149.24,31.25-295.28,106.05L392,444.7s153.87-91.91,250.66-107Q632.65,338.74,622.47,340.18Z"/><path class="cls-52" d="M407.81,442.22l-.46.1a34.13,34.13,0,0,0-4.8-11,104.68,104.68,0,0,0-7.31-9.7l.37-.29A102.92,102.92,0,0,1,403,431,34.42,34.42,0,0,1,407.81,442.22Z"/><path class="cls-11" d="M391.8,421.54a18.12,18.12,0,0,0-1.77-1.4,8.83,8.83,0,0,1-1.53-.86,2.74,2.74,0,0,1-.81-1.48,8.07,8.07,0,0,1-.13-1.7c0-.25,0-.55.23-.68a.69.69,0,0,1,.59.05,21.81,21.81,0,0,0,2,1c.5.16,1,.19,1.53.33a6.73,6.73,0,0,1,2.87,2,5.64,5.64,0,0,1,1.35,1.77c.24.59.35,1.92-.41,2.21a2.53,2.53,0,0,1-1.28-.08,6.67,6.67,0,0,1-1.29-.41A6.24,6.24,0,0,1,391.8,421.54Z"/><path class="cls-12" d="M395.05,417.51a7,7,0,0,0-.37-1.57,6.91,6.91,0,0,0-1.58-2.07l-1.1-1.12a1.16,1.16,0,0,0-.59-.4c-.41-.08-.79.31-.89.71a4.36,4.36,0,0,0,0,1.25c0,.61-.09,1.22,0,1.83a6.3,6.3,0,0,0,.92,2.59,7.54,7.54,0,0,0,1,1.48,3,3,0,0,0,1.53.9,1.3,1.3,0,0,0,1.51-.59,1.14,1.14,0,0,0,0-.58l-.18-1.1Z"/><path class="cls-13" d="M393.44,423.65a10.44,10.44,0,0,1-1.59-.83,10.69,10.69,0,0,0-1.81-1.08,2.13,2.13,0,0,0-2,.1.27.27,0,0,0-.32-.25,2.35,2.35,0,0,0-.45.14.36.36,0,0,1-.41-.11.4.4,0,0,1,0-.35,4.39,4.39,0,0,1,1.45-2,3,3,0,0,1,2.34-.57,5,5,0,0,1,2.24,1.33,6.17,6.17,0,0,0,2.18,1.45,3.25,3.25,0,0,1,.6.2.63.63,0,0,1,.34.5.81.81,0,0,1-.21.46,3.33,3.33,0,0,1-1,1A1.74,1.74,0,0,1,393.44,423.65Z"/><path class="cls-13" d="M396.32,412.85a.74.74,0,0,0-.62,0,6,6,0,0,1-.6.2c-.36.08-.76,0-1.1.11a1.49,1.49,0,0,0-.68,1.09,7.21,7.21,0,0,0-.37,2.9c.18,1.28,1,2.39,1.2,3.67.06.41.05.82.08,1.23a2.39,2.39,0,0,0,.35,1.17c.24.34.33.52.74.47a4.15,4.15,0,0,0,2-1.35,3.53,3.53,0,0,0,.78-2.31,7.45,7.45,0,0,0-1-2.92,4.78,4.78,0,0,1-.66-3,4.8,4.8,0,0,0,.12-.66A.69.69,0,0,0,396.32,412.85Z"/><path class="cls-53" d="M397.64,419a.88.88,0,0,0-.58.55,6.71,6.71,0,0,0-.22.8,1.2,1.2,0,0,1-.43.69,1.27,1.27,0,0,1-.75.15,3.39,3.39,0,0,0-.78,0,.72.72,0,0,0-.6.44c-.09.24,0,.54-.13.75a.62.62,0,0,1-.53.24c-.2,0-.4,0-.6,0a.55.55,0,0,0-.48.31c-.09.26.13.52.35.68a2.92,2.92,0,0,0,1.59.54c.55,0,1.09-.13,1.64-.14a2,2,0,0,1,1.63.72l.42-.24a1.3,1.3,0,0,1-.36-1.29,7.36,7.36,0,0,1,.49-1.25,5,5,0,0,0,.31-1.48,1.79,1.79,0,0,0-.14-1A.79.79,0,0,0,397.64,419Z"/><path class="cls-54" d="M411.37,437.72l.43-.2a34,34,0,0,1-2.89-11.68,104.54,104.54,0,0,1-.1-12.13l-.47,0a101.29,101.29,0,0,0,.1,12.19A34.24,34.24,0,0,0,411.37,437.72Z"/><path class="cls-11" d="M411.51,411.56a20.45,20.45,0,0,1,.55-2.18,8.82,8.82,0,0,0,.7-1.61,2.77,2.77,0,0,0-.26-1.67,8.34,8.34,0,0,0-.93-1.43c-.15-.2-.35-.42-.59-.39s-.34.21-.44.39c-.36.65-.52,1.41-.93,2-.3.44-.71.78-1,1.19a6.76,6.76,0,0,0-1.07,3.32,5.77,5.77,0,0,0,0,2.23c.17.61.89,1.73,1.67,1.5a2.61,2.61,0,0,0,1-.84,6.65,6.65,0,0,0,.77-1.11A5.89,5.89,0,0,0,411.51,411.56Z"/><path class="cls-12" d="M406.48,410.35a6.11,6.11,0,0,1-.65-1.48,6.69,6.69,0,0,1,0-2.6c.06-.52.12-1,.19-1.56a1.23,1.23,0,0,1,.23-.68.85.85,0,0,1,1.13,0,4.4,4.4,0,0,1,.76,1c.35.5.81.91,1.15,1.42a6.42,6.42,0,0,1,.84,2.61,6.8,6.8,0,0,1,.08,1.8,3,3,0,0,1-.66,1.65A1.3,1.3,0,0,1,408,413a1.15,1.15,0,0,1-.33-.48c-.17-.33-.35-.65-.53-1Z"/><path class="cls-13" d="M411.49,414.24a9.67,9.67,0,0,0,.76-1.63,11,11,0,0,1,.78-1.95,2.18,2.18,0,0,1,1.66-1.15c-.11-.11,0-.31.1-.39a2.09,2.09,0,0,1,.44-.16c.14,0,.29-.19.26-.34a.42.42,0,0,0-.23-.26,4.4,4.4,0,0,0-2.35-.68,3.06,3.06,0,0,0-2.21,1,5.06,5.06,0,0,0-1,2.42,6.06,6.06,0,0,1-.85,2.47,4.41,4.41,0,0,0-.35.53.63.63,0,0,0,0,.61.81.81,0,0,0,.45.23,3.21,3.21,0,0,0,1.4.24A1.74,1.74,0,0,0,411.49,414.24Z"/><path class="cls-13" d="M402.64,407.42a.73.73,0,0,1,.47-.4,6.08,6.08,0,0,0,.6-.21c.34-.16.58-.5.94-.58a1.52,1.52,0,0,1,1.21.45,7.29,7.29,0,0,1,2.06,2.08c.63,1.12.63,2.52,1.27,3.64.2.36.46.68.69,1a2.38,2.38,0,0,1,.43,1.14c0,.41.06.61-.3.82a4.16,4.16,0,0,1-2.44.16,3.57,3.57,0,0,1-2-1.35,7.62,7.62,0,0,1-1-2.94,4.77,4.77,0,0,0-1.29-2.78,4.22,4.22,0,0,1-.49-.45A.66.66,0,0,1,402.64,407.42Z"/><path class="cls-55" d="M405.32,413.08a.89.89,0,0,1,.79.09,8.16,8.16,0,0,1,.66.5,1.22,1.22,0,0,0,.76.29,1.25,1.25,0,0,0,.69-.34,4.6,4.6,0,0,1,.62-.47.75.75,0,0,1,.75,0c.21.14.32.43.56.52a.61.61,0,0,0,.56-.13c.16-.12.3-.28.47-.39a.56.56,0,0,1,.57,0c.22.15.21.49.13.75a2.84,2.84,0,0,1-.94,1.4c-.42.34-.94.55-1.38.88a2,2,0,0,0-.86,1.56l-.47.07a1.31,1.31,0,0,0-.51-1.24,8.29,8.29,0,0,0-1.14-.7,4.71,4.71,0,0,1-1.15-1,1.8,1.8,0,0,1-.49-.88A.81.81,0,0,1,405.32,413.08Z"/><path class="cls-56" d="M405.51,442.22l-.53-.09a38.81,38.81,0,0,0-.35-13.67,119,119,0,0,0-3.56-13.34l.52-.15a118.68,118.68,0,0,1,3.57,13.39A39.16,39.16,0,0,1,405.51,442.22Z"/><path class="cls-18" d="M397.47,413.59a20.23,20.23,0,0,0-1.27-2.22,10.23,10.23,0,0,1-1.24-1.56,3,3,0,0,1-.22-1.91,8.64,8.64,0,0,1,.58-1.85c.1-.27.26-.57.54-.61a.75.75,0,0,1,.59.3c.59.61,1,1.39,1.64,1.94.45.38,1,.63,1.47,1a7.84,7.84,0,0,1,2.18,3.32,6.39,6.39,0,0,1,.66,2.44c0,.73-.44,2.17-1.38,2.15a2.81,2.81,0,0,1-1.31-.63,7.31,7.31,0,0,1-1.18-1A6.76,6.76,0,0,1,397.47,413.59Z"/><path class="cls-19" d="M402.62,410.74a8.51,8.51,0,0,0,.27-1.81,7.87,7.87,0,0,0-.78-2.87l-.68-1.65a1.36,1.36,0,0,0-.45-.67,1,1,0,0,0-1.24.38,4.93,4.93,0,0,0-.53,1.32c-.23.65-.61,1.25-.83,1.9a7.13,7.13,0,0,0-.13,3.12,7.63,7.63,0,0,0,.45,2,3.38,3.38,0,0,0,1.22,1.61,1.5,1.5,0,0,0,1.85,0,1.36,1.36,0,0,0,.22-.62c.09-.42.19-.83.28-1.24S402.5,411.24,402.62,410.74Z"/><path class="cls-20" d="M398.3,416.52A11.66,11.66,0,0,1,397,415a12.74,12.74,0,0,0-1.44-1.91,2.47,2.47,0,0,0-2.17-.75c.09-.16-.06-.35-.23-.4a2.28,2.28,0,0,0-.52,0c-.18,0-.38-.12-.39-.3a.47.47,0,0,1,.17-.35,5.07,5.07,0,0,1,2.37-1.46,3.5,3.5,0,0,1,2.72.41,5.63,5.63,0,0,1,1.79,2.36,6.94,6.94,0,0,0,1.67,2.45,3.1,3.1,0,0,1,.55.47.7.7,0,0,1,.15.67,1,1,0,0,1-.42.4,3.75,3.75,0,0,1-1.46.68A2,2,0,0,1,398.3,416.52Z"/><path class="cls-20" d="M405.94,406.37a.85.85,0,0,0-.64-.3,5.79,5.79,0,0,1-.72,0c-.41-.08-.78-.37-1.21-.36s-.87.46-1.18.86a8.34,8.34,0,0,0-1.63,2.9c-.35,1.42.07,3-.29,4.38-.12.45-.31.88-.45,1.33a2.75,2.75,0,0,0-.13,1.39c.11.45.12.68.58.8a4.68,4.68,0,0,0,2.72-.55,4.09,4.09,0,0,0,1.81-2.1,8.66,8.66,0,0,0,.17-3.52,5.5,5.5,0,0,1,.58-3.43,4.27,4.27,0,0,0,.4-.64A.76.76,0,0,0,405.94,406.37Z"/><path class="cls-57" d="M404.71,413.39a1,1,0,0,0-.84.33,8.23,8.23,0,0,0-.57.75,1.31,1.31,0,0,1-.75.54,1.44,1.44,0,0,1-.86-.15,3.65,3.65,0,0,0-.82-.34.86.86,0,0,0-.82.21c-.2.22-.22.57-.46.74a.73.73,0,0,1-.66,0c-.21-.08-.4-.21-.62-.28a.62.62,0,0,0-.64.13c-.2.23-.09.59.08.86a3.24,3.24,0,0,0,1.44,1.25c.58.24,1.21.32,1.79.55a2.3,2.3,0,0,1,1.41,1.45l.54-.07a1.49,1.49,0,0,1,.18-1.51,9.15,9.15,0,0,1,1.05-1.11,5.78,5.78,0,0,0,1-1.43,2.06,2.06,0,0,0,.27-1.11A.9.9,0,0,0,404.71,413.39Z"/><path class="cls-58" d="M414.29,414.71a1.52,1.52,0,0,0-1.6-.42,5.51,5.51,0,0,0-3.55,2.87A10.9,10.9,0,0,0,408,421.7a15.53,15.53,0,0,1-.43,3.73,3.6,3.6,0,0,1-2.51,2.57,8.9,8.9,0,0,1,.11-6,19.41,19.41,0,0,1,3-5.21,10.26,10.26,0,0,1,1.72-1.94,4.15,4.15,0,0,1,2.34-1A2.17,2.17,0,0,1,414.29,414.71Z"/><path class="cls-59" d="M403.55,423.51a12.77,12.77,0,0,0-2.61-3.58,6.33,6.33,0,0,0-1.48-1.15,3.76,3.76,0,0,0-3.38,0,1.78,1.78,0,0,0-1.1,1.4,2.06,2.06,0,0,1,.57-.67.74.74,0,0,1,.87,0,1.16,1.16,0,0,1,.31.59,4.63,4.63,0,0,0,1.9,2.58,7.42,7.42,0,0,0,2.73.84A5.4,5.4,0,0,0,403.55,423.51Z"/><path class="cls-60" d="M412,441.29l.36-.09a26.89,26.89,0,0,1-.54-9.44,83.85,83.85,0,0,1,1.69-9.39l-.36-.08a81.73,81.73,0,0,0-1.7,9.44A27.09,27.09,0,0,0,412,441.29Z"/><path class="cls-18" d="M415.87,421.11a14.55,14.55,0,0,1,.74-1.6,7.61,7.61,0,0,0,.77-1.14,2.16,2.16,0,0,0,0-1.33,7.09,7.09,0,0,0-.5-1.25c-.09-.17-.21-.37-.41-.38a.49.49,0,0,0-.39.24,16,16,0,0,1-1,1.42c-.29.3-.65.5-1,.78a5.35,5.35,0,0,0-1.3,2.4,4.32,4.32,0,0,0-.32,1.73c0,.49.43,1.46,1.07,1.39a2,2,0,0,0,.87-.5,5.25,5.25,0,0,0,.75-.74A5,5,0,0,0,415.87,421.11Z"/><path class="cls-19" d="M412.16,419.45a4.08,4.08,0,0,1,.08-3.26c.12-.39.25-.78.38-1.17a.92.92,0,0,1,.27-.49.67.67,0,0,1,.87.19,3.16,3.16,0,0,1,.44.88c.2.43.49.82.68,1.26a5,5,0,0,1,.27,2.14,5.91,5.91,0,0,1-.19,1.4,2.35,2.35,0,0,1-.76,1.18,1,1,0,0,1-1.27.12.89.89,0,0,1-.18-.41l-.27-.84C412.37,420.11,412.27,419.78,412.16,419.45Z"/><path class="cls-20" d="M415.46,423.18a7.81,7.81,0,0,0,.83-1.15,8.45,8.45,0,0,1,.88-1.4,1.72,1.72,0,0,1,1.45-.64c-.07-.1,0-.25.14-.29a1.43,1.43,0,0,1,.36-.06c.12,0,.25-.1.25-.22a.35.35,0,0,0-.14-.24,3.47,3.47,0,0,0-1.72-.86,2.39,2.39,0,0,0-1.85.43,3.88,3.88,0,0,0-1.09,1.72,4.81,4.81,0,0,1-1,1.79,3,3,0,0,0-.35.36.47.47,0,0,0-.06.47.64.64,0,0,0,.31.25,2.66,2.66,0,0,0,1.05.38A1.37,1.37,0,0,0,415.46,423.18Z"/><path class="cls-20" d="M409.62,416.62a.62.62,0,0,1,.42-.24,4.29,4.29,0,0,0,.5-.07c.28-.08.52-.3.81-.32a1.22,1.22,0,0,1,.86.53,5.67,5.67,0,0,1,1.29,1.9c.32,1,.12,2,.45,3,.11.31.26.59.39.9a1.79,1.79,0,0,1,.16.94c0,.32,0,.48-.35.59a3.3,3.3,0,0,1-1.91-.23,2.77,2.77,0,0,1-1.36-1.34,5.9,5.9,0,0,1-.32-2.41,3.85,3.85,0,0,0-.59-2.34,3.22,3.22,0,0,1-.32-.41A.55.55,0,0,1,409.62,416.62Z"/><path class="cls-61" d="M410.87,421.39a.65.65,0,0,1,.59.18,4,4,0,0,1,.44.48.91.91,0,0,0,.55.33.94.94,0,0,0,.58-.15,2.85,2.85,0,0,1,.55-.28.6.6,0,0,1,.58.09c.14.14.18.38.35.49a.5.5,0,0,0,.46,0c.14-.06.27-.17.41-.22a.43.43,0,0,1,.45.05c.15.14.09.4,0,.59a2.28,2.28,0,0,1-.92.95c-.38.2-.81.29-1.2.48a1.62,1.62,0,0,0-.89,1.08l-.37,0a1,1,0,0,0-.22-1,5.81,5.81,0,0,0-.78-.7,4.2,4.2,0,0,1-.75-.93,1.56,1.56,0,0,1-.25-.75A.63.63,0,0,1,410.87,421.39Z"/><path class="cls-62" d="M404.34,422.84a1.06,1.06,0,0,1,1.08-.37,3.77,3.77,0,0,1,2.61,1.77,7.66,7.66,0,0,1,1,3.06,10.8,10.8,0,0,0,.51,2.54,2.47,2.47,0,0,0,1.88,1.63,6.16,6.16,0,0,0-.42-4.11,13.49,13.49,0,0,0-2.34-3.42,7.62,7.62,0,0,0-1.3-1.24,2.9,2.9,0,0,0-1.67-.57A1.48,1.48,0,0,0,404.34,422.84Z"/><path class="cls-63" d="M412.24,428.29a8.78,8.78,0,0,1,1.6-2.61,4.18,4.18,0,0,1,1-.88,2.63,2.63,0,0,1,2.33-.21,1.23,1.23,0,0,1,.83.91,1.29,1.29,0,0,0-.43-.44.53.53,0,0,0-.6,0,.84.84,0,0,0-.18.42,3.24,3.24,0,0,1-1.16,1.89,5.32,5.32,0,0,1-1.83.73A3.71,3.71,0,0,1,412.24,428.29Z"/><path class="cls-64" d="M397.66,440.23a3.13,3.13,0,0,1,2.62-2,9.1,9.1,0,0,1,3.47.35,2.52,2.52,0,1,1,2.48-4.13,12.15,12.15,0,0,1-1.45-7.36c.47-2.5,2.5-4.84,5-5a6.16,6.16,0,0,1,5.24,3.2,18.2,18.2,0,0,1,1.94,6.11,3.23,3.23,0,0,1,6.25.4,2.75,2.75,0,1,1,4.87-1.52c-.58-2.81,2-5.63,4.85-5.87a3.41,3.41,0,0,1,2.72.82,3.12,3.12,0,0,1,.65,2.82,9,9,0,0,1-1.22,2.73,4.28,4.28,0,0,1,6.3,1.41,3.15,3.15,0,0,1,1.37-3.57,6,6,0,0,1,4-.73,9.72,9.72,0,0,1,6.61,3.54,7.52,7.52,0,0,1,1.15,7.27c-1,2.39-3.21,4-5.45,5.24a46.76,46.76,0,0,1-22.25,5.68,61,61,0,0,1-18.53-2.81C405.67,446,396.58,444.06,397.66,440.23Z"/><path class="cls-41" d="M441.52,433.44a5,5,0,0,0-3.24.59,2.57,2.57,0,0,0-1.11,2.9,3.47,3.47,0,0,0-5.11-1.14,7.6,7.6,0,0,0,1-2.22,2.53,2.53,0,0,0-.53-2.29,2.74,2.74,0,0,0-2.21-.66,4.42,4.42,0,0,0-4,4.14,2.2,2.2,0,1,0-4.31.89,2.76,2.76,0,0,0-2-1.17,2.71,2.71,0,0,0-2.66,1.81,14.63,14.63,0,0,0-1.58-5,5,5,0,0,0-4.25-2.6,4.78,4.78,0,0,0-4.09,4,9.84,9.84,0,0,0,1.17,6,2,2,0,1,0-2,3.35,7.49,7.49,0,0,0-2.81-.29,2.57,2.57,0,0,0-2.13,1.65,1.81,1.81,0,0,0,.12,1.28,59.39,59.39,0,0,0,6.54,2.09,61,61,0,0,0,18.53,2.81,48.59,48.59,0,0,0,15.93-2.83l.63-.32c1.83-1,3.65-2.32,4.43-4.26a6.13,6.13,0,0,0-.93-5.91A7.91,7.91,0,0,0,441.52,433.44Z"/><path class="cls-65" d="M-56.64,376.33c52.39-20.57,111.57-15.34,166.05-1.2s106.51,36.7,161,50.68A533.13,533.13,0,0,0,529.06,427v91.23H-51C-56.33,471.5-57.71,423.36-56.64,376.33Z"/><path class="cls-66" d="M54.89,369.85c59,11.55,106.51,57.47,165.1,71,49.57,11.48,101.95-1.38,152.11,7.2,21.08,3.61,43.13,12.3,54,30.74,12.29,20.87,6.09,48.84-9.21,67.62-16.07,19.72-40.51,31.18-65.43,36.31s-50.62,4.51-76.05,3.87l-149.22-3.74c-37.94-1-76.48-2-112.64-13.5s-70.3-35.06-85.62-69.78c-6.87-15.59-9.59-32.7-9.47-49.66.09-12.09-.56-32.29,6.49-42.72,7.43-11,24.51-19.3,36.13-24.87A154.76,154.76,0,0,1,4,369,147.42,147.42,0,0,1,54.89,369.85Z"/><path class="cls-7" d="M-16.23,459.77c56-69.19,147.5-71,175-69.82-9.78-3.24-19.59-6.37-29.47-9.29C82,374,10.17,377.32-37,399.69-28.68,418.84-29.38,476-16.23,459.77Z"/><path class="cls-7" d="M216.78,409.66c-9.91-3.31-19.79-6.7-29.67-10.1-26.36,2-91.94,12.33-135.15,64.89l66,16S162,417.07,216.78,409.66Z"/><path class="cls-67" d="M-39,443.27C20.7,412,93.15,422.06,158.57,438.36s132.1,38.28,198.78,28.35c50-7.45,95.46-32.31,142.09-51.91a713.11,713.11,0,0,1,303.64-54.92V519.06L-32.43,520Z"/><path class="cls-41" d="M631.92,382.33c-61.27,13.17-115.34,47.73-171.09,76.34s-118.36,52.16-180,40.72c-59.63-11.07-109.38-53.34-168.34-67.57C57.75,418.6-2.79,431.9-47,466.85c-16.1,12.73-31.15,31.43-27.62,51.66,4,23.14,29.42,35.16,51.83,42.19C114.07,603.64,260.51,600.54,403.9,597c119.36-2.92,240.65-6.16,354.31-42.71,25-8.05,51-18.73,66.46-40,12.44-17.09,16.09-38.45,16.68-59.14.53-18.72-.4-28.75-16.66-38.94-36.05-22.58-78.05-35.78-120.42-38.84A256.59,256.59,0,0,0,631.92,382.33Z"/><path class="cls-68" d="M71.61,435.85c31.5,2.18,62.14,11.53,91.29,23.66,7.12,3,15.24,7.54,15.74,15.25.26,4.14-2,8.15-5,10.95s-6.9,4.61-10.71,6.27c-38.15,16.56-80,22.8-121.61,24.5-15.25.62-31.43.43-44.51-7.45-15.91-9.57-23.67-30.46-18.62-48.21,2.58-9.08,11.75-11.55,20-14.74a155.9,155.9,0,0,1,33.59-8.79A185.57,185.57,0,0,1,71.61,435.85Z"/><path class="cls-68" d="M210.16,485.57a122.74,122.74,0,0,1,30.93,6.23c2.42.78,5.17,2,5.34,4a3.46,3.46,0,0,1-1.7,2.89,13.79,13.79,0,0,1-3.63,1.64c-12.93,4.36-27.13,6-41.22,6.45-5.17.17-10.65.12-15.09-2-5.39-2.51-8-8-6.31-12.69.88-2.39,4-3,6.77-3.88A66,66,0,0,1,196.63,486,81.48,81.48,0,0,1,210.16,485.57Z"/><g class="cls-69"><path d="M680.12,400.84c-20.87,5.05-41.8,12.68-57.64,27.18-6.77,6.2-12.84,15.15-10.35,24,2.2,7.81,10.18,12.34,17.63,15.55,43.58,18.79,92.64,20.73,139.94,16.78,10.64-.89,21.61-2.17,30.83-7.55,13.41-7.83,21-23.88,20.24-39.38-.87-17.33-13-36.34-29.82-42.35-5-1.79-11.73-1.51-17-1.9q-9-.66-18.06-.79a304.52,304.52,0,0,0-75.73,8.47Z"/><path d="M504.36,458.93c25.92-6.62,53.83-6.54,79,2.39,6.71,2.37,13.66,5.76,17,12,2.85,5.29,2.57,11.88.27,17.43s-6.41,10.17-11,14.06c-10.38,8.85-23.28,14.37-36.52,17.66s-26.9,4.46-40.51,5.42c-18.44,1.31-37.47,2.18-54.9-4-7.55-2.65-15.06-6.85-19.26-13.92-2.82-4.74-5.49-11.61-1.94-16.61,4.15-5.87,12.72-9.92,18.75-13.56a194,194,0,0,1,22.47-11.72A170.55,170.55,0,0,1,504.36,458.93Z"/><path d="M549.9,430c-2,1.46-4,3.27-4.45,5.69-.51,2.58.84,5.18,2.56,7.17a25.73,25.73,0,0,0,12.45,7.49,64.85,64.85,0,0,0,14.56,2c6.17.32,12.41.43,18.44-.9,5.1-1.12,10.18-3.42,13.31-7.6s3.74-10.51.38-14.51a16.11,16.11,0,0,0-6.38-4.14c-12.47-5.16-27.89-5.85-40.52-.89A46.1,46.1,0,0,0,549.9,430Z"/><path d="M611.05,485.15a7.4,7.4,0,0,0-2.54,4.19,7.68,7.68,0,0,0,1.46,5.27,14.43,14.43,0,0,0,7.07,5.51,28.7,28.7,0,0,0,8.28,1.49,30.25,30.25,0,0,0,10.47-.66,12.36,12.36,0,0,0,7.56-5.6c1.78-3.07,2.12-7.73.21-10.67a9.16,9.16,0,0,0-3.62-3.05c-7.08-3.8-15.84-4.31-23-.66A24.85,24.85,0,0,0,611.05,485.15Z"/><path d="M605.82,411.5a3.83,3.83,0,0,0-1.79,2.15,3.2,3.2,0,0,0,1,2.7,10.48,10.48,0,0,0,5,2.83,27.44,27.44,0,0,0,5.86.77,29.6,29.6,0,0,0,7.41-.34,9.13,9.13,0,0,0,5.35-2.88,4.3,4.3,0,0,0,.15-5.47,6.52,6.52,0,0,0-2.56-1.57,23.82,23.82,0,0,0-16.29-.33A18.6,18.6,0,0,0,605.82,411.5Z"/><path d="M526.43,438.94a2,2,0,0,0-1,1.17,1.71,1.71,0,0,0,.56,1.47,5.72,5.72,0,0,0,2.72,1.54,14.74,14.74,0,0,0,3.18.41,15.89,15.89,0,0,0,4-.18,4.9,4.9,0,0,0,2.91-1.56,2.35,2.35,0,0,0,.09-3,3.57,3.57,0,0,0-1.4-.85,12.94,12.94,0,0,0-8.85-.18A9.85,9.85,0,0,0,526.43,438.94Z"/><path d="M535.64,447.38a1.49,1.49,0,0,0-.67.8,1.22,1.22,0,0,0,.39,1,3.87,3.87,0,0,0,1.86,1.05,9.94,9.94,0,0,0,2.18.28,11.09,11.09,0,0,0,2.76-.12,3.39,3.39,0,0,0,2-1.07,1.6,1.6,0,0,0,.05-2,2.48,2.48,0,0,0-1-.58,8.89,8.89,0,0,0-6.06-.13A7.34,7.34,0,0,0,535.64,447.38Z"/><path d="M496.58,445.69c-1,.59-2,1.32-2.27,2.29a3.15,3.15,0,0,0,1.31,2.89,14,14,0,0,0,6.35,3,40.82,40.82,0,0,0,7.43.81,44.76,44.76,0,0,0,9.41-.36c2.6-.45,5.19-1.38,6.79-3.06s1.91-4.24.19-5.85a8.71,8.71,0,0,0-3.25-1.67,35.71,35.71,0,0,0-20.68-.36A26,26,0,0,0,496.58,445.69Z"/><path d="M652,500.56a10.12,10.12,0,0,0-3.42,5.66,10.44,10.44,0,0,0,2,7.13,19.6,19.6,0,0,0,9.56,7.45,39.12,39.12,0,0,0,11.18,2c4.74.32,9.53.42,14.16-.9a16.7,16.7,0,0,0,10.22-7.56c2.41-4.16,2.87-10.46.29-14.44a12.55,12.55,0,0,0-4.89-4.12c-9.58-5.13-21.42-5.82-31.12-.89A34.2,34.2,0,0,0,652,500.56Z"/></g><path class="cls-70" d="M93,421.26a65.62,65.62,0,0,1-2.36,32.23,28.59,28.59,0,0,1,10.42-1.63,98.35,98.35,0,0,1-.49-29.47C98,422.33,95.48,422.32,93,421.26Z"/><path class="cls-71" d="M104.36,430.37a28.58,28.58,0,0,1-24.92-4,33.37,33.37,0,0,1-13.35-23.07,20.31,20.31,0,0,1,1.16-10.47c1.42-3.22,4.29-5.84,7.58-6.09-2.42-1.52-3.75-5.26-3.62-8.29a10.69,10.69,0,0,1,4-7.68c2.25-1.81,8.18-2.48,10.31-1.1-3.51-6.89-2.61-17.52.3-24.46a26.61,26.61,0,0,1,5.69-8.77,15.18,15.18,0,0,1,8.9-4.45,12.91,12.91,0,0,1,11.4,5.18,24.42,24.42,0,0,1,3.75,9.06c1.8,7.48,2.28,15.79-1.07,22.62,2.41-1.77,6-.64,8.11,1.47a10.55,10.55,0,0,1,2.71,8.59,17.1,17.1,0,0,1-3.66,8.43c3.15-.69,6.16,1.35,8,4.22a14.32,14.32,0,0,1,1.62,10,27.07,27.07,0,0,1-3.92,9.44C121.73,419.91,113.9,427.36,104.36,430.37Z"/><path class="cls-41" d="M129.57,391.55a8.89,8.89,0,0,0-5.9-4.3l-.26.18.1-.2a5.88,5.88,0,0,0-1.91.1,17.1,17.1,0,0,0,3.66-8.43,10.55,10.55,0,0,0-2.71-8.59c-2.16-2.11-5.7-3.24-8.11-1.47,2.48-5.07,2.86-10.95,2.16-16.7a12.4,12.4,0,0,0-7.27-1.58,15.18,15.18,0,0,0-8.9,4.45,26.47,26.47,0,0,0-5.68,8.78c-2.92,6.94-3.82,17.57-.31,24.45-2.13-1.38-8.06-.71-10.31,1.1A10.68,10.68,0,0,0,80.19,397c-.14,3,1.19,6.77,3.61,8.29-3.29.26-6.16,2.88-7.58,6.09a20.31,20.31,0,0,0-1.16,10.47c0,.27.07.53.11.8a29.29,29.29,0,0,0,4.27,3.69,28.58,28.58,0,0,0,24.92,4c9.54-3,17.37-10.46,22.91-19.38a27.07,27.07,0,0,0,3.92-9.44A14.32,14.32,0,0,0,129.57,391.55Z"/><path class="cls-70" d="M146.13,415.71A96.24,96.24,0,0,1,142.68,463c4.92-1.56,10.22-2.76,15.27-2.39a143.88,143.88,0,0,1-.72-43.21C153.42,417.28,149.76,417.26,146.13,415.71Z"/><path class="cls-72" d="M150.07,425.72c-10.3.46-20.51-3.92-28.06-11s-12.55-16.51-15.2-26.47c-1.68-6.3-2.43-13.18,0-19.21s9-10.78,15.35-9.44c-3.06-13.59-5.94-26.47-5.27-40.38s4.34-27.9,12.14-39.44c4.29-6.34,10-12,17.11-14.81,7-2.74,14.8-2.56,22.09-.87,15.2,3.52,23.76,15.53,24.76,30.76.81,12.42-1.37,24.8-4.37,36.81-2.23,8.95-4.91,19.66-12,26.11,4.28-3.9,18.68-4.31,23.41,7.1,5.73,13.8,0,30.57-9.61,42S165,425.05,150.07,425.72Z"/><path class="cls-41" d="M190.46,406.93c9.61-11.43,15.34-28.2,9.61-42-4.73-11.41-19.13-11-23.41-7.1,7.09-6.45,9.77-17.16,12-26.11,3-12,5.18-24.39,4.37-36.81a42.26,42.26,0,0,0-.55-4.57,34.56,34.56,0,0,0-16.86,1.8c-7.13,2.8-12.83,8.46-17.12,14.81-7.8,11.54-11.45,25.52-12.13,39.43s2.2,26.8,5.27,40.38c-6.38-1.33-12.88,3.41-15.35,9.44s-1.73,12.91,0,19.21a63.77,63.77,0,0,0,3.17,9.11,35.15,35.15,0,0,0,10.66,1.2C165,425.05,180.84,418.37,190.46,406.93Z"/><path class="cls-73" d="M168.8,461,168,461a57.2,57.2,0,0,0-2.21-20.06,175.2,175.2,0,0,0-6.88-19.17l.74-.3a175.34,175.34,0,0,1,6.91,19.26A57.8,57.8,0,0,1,168.8,461Z"/><path class="cls-11" d="M153.43,419.92a28.07,28.07,0,0,0-2.14-3.11,15.67,15.67,0,0,1-2-2.14,4.59,4.59,0,0,1-.56-2.77,13.6,13.6,0,0,1,.63-2.81c.12-.4.3-.86.71-.95a1.09,1.09,0,0,1,.91.36c.94.82,1.63,1.92,2.65,2.65.71.51,1.55.81,2.29,1.28a11.47,11.47,0,0,1,3.61,4.6,9.47,9.47,0,0,1,1.28,3.52c.09,1.06-.39,3.24-1.76,3.32a4.26,4.26,0,0,1-2-.75,11.29,11.29,0,0,1-1.86-1.3A10.77,10.77,0,0,1,153.43,419.92Z"/><path class="cls-12" d="M160.65,415.1a11.23,11.23,0,0,0,.17-2.71,11.44,11.44,0,0,0-1.49-4.11l-1.21-2.35a2,2,0,0,0-.75-.92,1.44,1.44,0,0,0-1.77.7,6.89,6.89,0,0,0-.61,2c-.26,1-.75,1.91-1,2.9a10.53,10.53,0,0,0,.19,4.6,11.93,11.93,0,0,0,.91,2.88,5,5,0,0,0,2,2.22c.79.43,2.07.62,2.71-.2a1.81,1.81,0,0,0,.25-.94c.08-.62.18-1.24.27-1.86Z"/><path class="cls-13" d="M155,424.12a16.49,16.49,0,0,1-2.14-2.12,19,19,0,0,0-2.35-2.63,3.65,3.65,0,0,0-3.29-.84c.11-.24-.13-.51-.39-.56a3.31,3.31,0,0,0-.77,0c-.27,0-.57-.13-.61-.39a.68.68,0,0,1,.21-.54,7.35,7.35,0,0,1,3.31-2.44,5.16,5.16,0,0,1,4,.26,8.42,8.42,0,0,1,2.92,3.25,10.55,10.55,0,0,0,2.77,3.4,4.49,4.49,0,0,1,.86.62,1,1,0,0,1,.3,1,1.32,1.32,0,0,1-.56.63,5.52,5.52,0,0,1-2.07,1.19A2.9,2.9,0,0,1,155,424.12Z"/><path class="cls-13" d="M165,408.25a1.25,1.25,0,0,0-1-.36,9.38,9.38,0,0,1-1.06,0c-.63-.06-1.21-.45-1.83-.38s-1.23.78-1.63,1.41a12.28,12.28,0,0,0-2,4.46c-.34,2.14.47,4.35.11,6.48-.11.69-.34,1.34-.49,2a4,4,0,0,0,0,2c.2.66.26,1,.94,1.11a6.88,6.88,0,0,0,3.94-1.15,6,6,0,0,0,2.39-3.31,12.49,12.49,0,0,0-.18-5.19,8.15,8.15,0,0,1,.42-5.13,6.13,6.13,0,0,0,.52-1A1.13,1.13,0,0,0,165,408.25Z"/><path class="cls-74" d="M164.06,418.73a1.5,1.5,0,0,0-1.2.59,11.06,11.06,0,0,0-.75,1.17,2,2,0,0,1-1,.89,2.09,2.09,0,0,1-1.28-.12,6.48,6.48,0,0,0-1.25-.4,1.29,1.29,0,0,0-1.19.41c-.25.35-.25.87-.58,1.15a1.08,1.08,0,0,1-1,.11c-.33-.09-.63-.26-1-.33a.91.91,0,0,0-.92.26c-.27.37-.05.89.22,1.26a4.75,4.75,0,0,0,2.29,1.65c.87.3,1.81.34,2.69.6a3.39,3.39,0,0,1,2.25,2l.79-.17a2.2,2.2,0,0,1,.08-2.24,13.11,13.11,0,0,1,1.4-1.77,8.06,8.06,0,0,0,1.24-2.22,3,3,0,0,0,.26-1.66A1.33,1.33,0,0,0,164.06,418.73Z"/><path class="cls-75" d="M176.74,455.59l.79-.11a57.23,57.23,0,0,1,1.17-20.15,174.76,174.76,0,0,1,5.89-19.49l-.76-.26a175,175,0,0,0-5.9,19.58A57.87,57.87,0,0,0,176.74,455.59Z"/><path class="cls-11" d="M190,413.75a27.71,27.71,0,0,1,2-3.22,15.51,15.51,0,0,0,1.91-2.24,4.64,4.64,0,0,0,.42-2.8,13.61,13.61,0,0,0-.78-2.77c-.14-.39-.34-.85-.76-.92a1.12,1.12,0,0,0-.89.41c-.9.87-1.53,2-2.5,2.78-.69.55-1.52.9-2.23,1.4a11.5,11.5,0,0,0-3.36,4.78,9.43,9.43,0,0,0-1.1,3.58c0,1.07.55,3.22,1.93,3.23a4.21,4.21,0,0,0,2-.86,10.47,10.47,0,0,0,1.79-1.39A11.14,11.14,0,0,0,190,413.75Z"/><path class="cls-12" d="M182.52,409.3a11.17,11.17,0,0,1-.31-2.69,11.45,11.45,0,0,1,1.28-4.19l1.08-2.4a2,2,0,0,1,.7-1,1.46,1.46,0,0,1,1.81.62,7.35,7.35,0,0,1,.71,2c.31,1,.84,1.87,1.13,2.85a10.35,10.35,0,0,1,.05,4.6,11.8,11.8,0,0,1-.75,2.93,5,5,0,0,1-1.89,2.31c-.77.47-2,.73-2.72-.06a1.82,1.82,0,0,1-.29-.92c-.11-.62-.24-1.23-.37-1.85S182.66,410,182.52,409.3Z"/><path class="cls-13" d="M188.61,418a17.17,17.17,0,0,0,2-2.23,17.85,17.85,0,0,1,2.22-2.74,3.6,3.6,0,0,1,3.23-1c-.11-.24.11-.52.36-.59a4,4,0,0,1,.78,0,.58.58,0,0,0,.59-.41.71.71,0,0,0-.24-.53,7.39,7.39,0,0,0-3.43-2.26,5.15,5.15,0,0,0-4,.46,8.49,8.49,0,0,0-2.75,3.39,10.21,10.21,0,0,1-2.59,3.54,5.94,5.94,0,0,0-.83.67,1,1,0,0,0-.24,1,1.42,1.42,0,0,0,.59.6,5.5,5.5,0,0,0,2.13,1.07A2.88,2.88,0,0,0,188.61,418Z"/><path class="cls-13" d="M177.83,402.69a1.22,1.22,0,0,1,.95-.41,9.38,9.38,0,0,0,1.06,0c.62-.09,1.18-.51,1.81-.47s1.27.72,1.7,1.32a12.28,12.28,0,0,1,2.26,4.36c.45,2.12-.24,4.36.22,6.47.15.68.42,1.32.6,2a4,4,0,0,1,.12,2.05c-.17.67-.21,1-.88,1.15a6.85,6.85,0,0,1-4-.94,5.92,5.92,0,0,1-2.56-3.18,12.47,12.47,0,0,1-.09-5.2,8.11,8.11,0,0,0-.69-5.09,7.14,7.14,0,0,1-.57-1A1.13,1.13,0,0,1,177.83,402.69Z"/><path class="cls-76" d="M179.3,413.1a1.52,1.52,0,0,1,1.23.53,12.79,12.79,0,0,1,.8,1.13,2,2,0,0,0,1.08.84,2.13,2.13,0,0,0,1.28-.19,5.87,5.87,0,0,1,1.23-.46,1.25,1.25,0,0,1,1.2.35c.27.33.29.85.64,1.11a1,1,0,0,0,1,.07,9.25,9.25,0,0,1,.94-.38.91.91,0,0,1,.94.21c.28.35.09.89-.16,1.26a4.74,4.74,0,0,1-2.2,1.78c-.85.34-1.79.42-2.66.73a3.39,3.39,0,0,0-2.14,2.07l-.8-.12a2.22,2.22,0,0,0-.19-2.24A13.25,13.25,0,0,0,180,418.1,8.32,8.32,0,0,1,178.6,416a3.2,3.2,0,0,1-.35-1.65A1.35,1.35,0,0,1,179.3,413.1Z"/><path class="cls-77" d="M165.11,459.89l-.8-.41a65,65,0,0,0,6.23-22.08,197.41,197.41,0,0,0,.94-23.14h.9a199.55,199.55,0,0,1-.94,23.25C170.39,446.26,168.33,453.59,165.11,459.89Z"/><path class="cls-18" d="M166.46,410a32.55,32.55,0,0,0-.92-4.19,17.54,17.54,0,0,1-1.22-3.12,5.21,5.21,0,0,1,.6-3.16,15,15,0,0,1,1.86-2.69c.29-.37.69-.78,1.15-.7a1.22,1.22,0,0,1,.81.77c.64,1.27.9,2.72,1.66,3.92.53.84,1.29,1.52,1.87,2.33,1.3,1.83,1.61,4.16,1.83,6.39a10.71,10.71,0,0,1-.15,4.26c-.35,1.15-1.79,3.24-3.27,2.75a4.82,4.82,0,0,1-1.79-1.66,11.79,11.79,0,0,1-1.41-2.16A12.22,12.22,0,0,1,166.46,410Z"/><path class="cls-19" d="M176.13,408a9.84,9.84,0,0,0,1.52-7.75l-.27-3A2.32,2.32,0,0,0,177,396a1.64,1.64,0,0,0-2.17,0,8.16,8.16,0,0,0-1.5,1.85c-.7.94-1.6,1.7-2.28,2.64a12.08,12.08,0,0,0-1.77,4.93,13.63,13.63,0,0,0-.27,3.43,5.69,5.69,0,0,0,1.16,3.18c.65.8,1.92,1.54,3,.95a2.07,2.07,0,0,0,.66-.88c.35-.62.71-1.23,1.07-1.85Z"/><path class="cls-20" d="M166.33,415.11A19,19,0,0,1,165,412a21.44,21.44,0,0,0-1.36-3.77,4.14,4.14,0,0,0-3.1-2.3c.21-.2.07-.58-.17-.75a3.76,3.76,0,0,0-.83-.32c-.27-.12-.53-.38-.47-.67a.76.76,0,0,1,.45-.48,8.33,8.33,0,0,1,4.53-1.15,5.8,5.8,0,0,1,4.15,2,9.56,9.56,0,0,1,1.69,4.67,11.72,11.72,0,0,0,1.47,4.77,6,6,0,0,1,.64,1,1.15,1.15,0,0,1-.1,1.15,1.51,1.51,0,0,1-.86.43,6.38,6.38,0,0,1-2.69.36A3.34,3.34,0,0,1,166.33,415.11Z"/><path class="cls-20" d="M183.63,402.65a1.41,1.41,0,0,0-.87-.8,10.9,10.9,0,0,1-1.13-.42c-.63-.33-1.08-1-1.76-1.18a2.94,2.94,0,0,0-2.32.79,13.92,13.92,0,0,0-4.06,3.84c-1.27,2.11-1.36,4.77-2.65,6.87-.41.67-.93,1.27-1.38,1.91a4.67,4.67,0,0,0-.89,2.16c-.06.78-.15,1.16.52,1.57a7.86,7.86,0,0,0,4.64.47,6.74,6.74,0,0,0,3.94-2.46c1.2-1.58,1.57-3.62,2-5.55s1.1-4,2.64-5.22a7.64,7.64,0,0,0,1-.82A1.3,1.3,0,0,0,183.63,402.65Z"/><path class="cls-78" d="M178.18,413.29a1.68,1.68,0,0,0-1.52.12,11.54,11.54,0,0,0-1.29.91,2.28,2.28,0,0,1-1.47.5,2.42,2.42,0,0,1-1.3-.68,6.53,6.53,0,0,0-1.15-.95,1.42,1.42,0,0,0-1.42-.08c-.42.26-.63.81-1.1,1a1.18,1.18,0,0,1-1.06-.29c-.3-.24-.55-.54-.87-.76a1,1,0,0,0-1.08-.12c-.44.28-.44.92-.31,1.42a5.45,5.45,0,0,0,1.7,2.72c.8.69,1.77,1.13,2.59,1.78a3.92,3.92,0,0,1,1.54,3l.9.16a2.49,2.49,0,0,1,1-2.33,14,14,0,0,1,2.23-1.27,9.34,9.34,0,0,0,2.26-1.8,3.54,3.54,0,0,0,1-1.65A1.54,1.54,0,0,0,178.18,413.29Z"/><path class="cls-79" d="M192.87,420.18a2.55,2.55,0,0,0-2.37-1.47,9.22,9.22,0,0,0-7.11,2.82,18.53,18.53,0,0,0-4,6.72,25.44,25.44,0,0,1-2.55,5.76c-1.2,1.73-3.2,3.1-5.29,2.87a14.88,14.88,0,0,1,3.14-9.52,32.94,32.94,0,0,1,7.35-6.88,18,18,0,0,1,3.73-2.25,7,7,0,0,1,4.26-.48A3.62,3.62,0,0,1,192.87,420.18Z"/><path class="cls-80" d="M171.29,428.92a21.53,21.53,0,0,0-2.42-7,10.27,10.27,0,0,0-1.79-2.58,6.38,6.38,0,0,0-5.42-1.72,2.94,2.94,0,0,0-2.44,1.71,3.38,3.38,0,0,1,1.24-.81,1.27,1.27,0,0,1,1.41.39,2,2,0,0,1,.2,1.1,7.9,7.9,0,0,0,1.76,5.09,12.7,12.7,0,0,0,4,2.7A8.81,8.81,0,0,0,171.29,428.92Z"/><path class="cls-81" d="M175.91,461.61l.62,0a45.1,45.1,0,0,1,3.84-15.39,136.11,136.11,0,0,1,7.37-14.2l-.54-.31A138.42,138.42,0,0,0,179.79,446,45.71,45.71,0,0,0,175.91,461.61Z"/><path class="cls-18" d="M192.21,431.22a23.23,23.23,0,0,1,2-2.2,12.21,12.21,0,0,0,1.8-1.46,3.56,3.56,0,0,0,.73-2.1,11.4,11.4,0,0,0-.19-2.25c-.06-.32-.15-.7-.46-.82a.88.88,0,0,0-.75.19c-.82.54-1.47,1.32-2.34,1.78-.6.33-1.29.47-1.92.76a9,9,0,0,0-3.29,3.21,7.56,7.56,0,0,0-1.37,2.6c-.18.82,0,2.57,1,2.77a3.24,3.24,0,0,0,1.64-.37,8.54,8.54,0,0,0,1.59-.82A8.37,8.37,0,0,0,192.21,431.22Z"/><path class="cls-19" d="M187.1,426.7a8.47,8.47,0,0,1,.15-2.13,9,9,0,0,1,1.59-3l1.19-1.7a1.58,1.58,0,0,1,.68-.65,1.15,1.15,0,0,1,1.31.74,5.56,5.56,0,0,1,.26,1.63c.1.8.38,1.56.46,2.36a8.33,8.33,0,0,1-.63,3.57,9,9,0,0,1-1,2.15,4,4,0,0,1-1.79,1.51,1.73,1.73,0,0,1-2.09-.44,1.32,1.32,0,0,1-.09-.76c0-.49,0-1,0-1.48S187.1,427.29,187.1,426.7Z"/><path class="cls-20" d="M190.54,434.32a13.79,13.79,0,0,0,1.89-1.43,13.94,13.94,0,0,1,2.11-1.8,2.84,2.84,0,0,1,2.64-.31c-.05-.19.16-.38.36-.39a2.5,2.5,0,0,1,.61.09.49.49,0,0,0,.52-.24.55.55,0,0,0-.11-.44,5.8,5.8,0,0,0-2.33-2.25,4,4,0,0,0-3.17-.23,6.69,6.69,0,0,0-2.62,2.23,8.15,8.15,0,0,1-2.51,2.35,4.06,4.06,0,0,0-.74.4.78.78,0,0,0-.33.72,1,1,0,0,0,.37.56,4.4,4.4,0,0,0,1.48,1.13A2.26,2.26,0,0,0,190.54,434.32Z"/><path class="cls-20" d="M184.44,420.91a1,1,0,0,1,.79-.18,7.39,7.39,0,0,0,.82.14c.49,0,1-.23,1.46-.11s.88.74,1.12,1.27a9.63,9.63,0,0,1,1.12,3.69c0,1.71-.82,3.34-.77,5,0,.54.13,1.08.18,1.62A3.22,3.22,0,0,1,189,434c-.23.49-.31.75-.85.76a5.37,5.37,0,0,1-2.94-1.31,4.62,4.62,0,0,1-1.52-2.82,9.91,9.91,0,0,1,.69-4,6.38,6.38,0,0,0,.21-4,4,4,0,0,1-.3-.82A.85.85,0,0,1,184.44,420.91Z"/><path class="cls-82" d="M184.06,429.17a1.15,1.15,0,0,1,.87.59,10,10,0,0,1,.46,1,1.51,1.51,0,0,0,.71.8,1.65,1.65,0,0,0,1,0,5.07,5.07,0,0,1,1-.18,1,1,0,0,1,.88.45c.16.29.1.69.33.95a.82.82,0,0,0,.73.19c.27,0,.52-.14.78-.16a.71.71,0,0,1,.69.3c.18.31,0,.7-.3.95a3.83,3.83,0,0,1-2,1.06c-.71.13-1.45.06-2.17.17a2.68,2.68,0,0,0-2,1.29l-.6-.21a1.72,1.72,0,0,0,.17-1.76,10.65,10.65,0,0,0-.9-1.52,6.7,6.7,0,0,1-.74-1.86,2.47,2.47,0,0,1,0-1.32A1,1,0,0,1,184.06,429.17Z"/><path class="cls-83" d="M172.88,428.26a1.77,1.77,0,0,1,1.92-.07,6.34,6.34,0,0,1,3.3,4.14,12.49,12.49,0,0,1,.12,5.41,18.23,18.23,0,0,0-.44,4.34,4.17,4.17,0,0,0,2.19,3.53,10.26,10.26,0,0,0,1.38-6.79,22.79,22.79,0,0,0-2-6.65,12.52,12.52,0,0,0-1.46-2.63,5,5,0,0,0-2.39-1.75A2.54,2.54,0,0,0,172.88,428.26Z"/><path class="cls-84" d="M182.83,440.91a14.75,14.75,0,0,1,3.86-3.39,7.35,7.35,0,0,1,2-.93,4.4,4.4,0,0,1,3.84.83,2,2,0,0,1,.88,1.86,2.33,2.33,0,0,0-.47-.91.88.88,0,0,0-1-.25,1.44,1.44,0,0,0-.5.59,5.41,5.41,0,0,1-2.8,2.45,8.51,8.51,0,0,1-3.3.26A6,6,0,0,1,182.83,440.91Z"/><path class="cls-85" d="M136,465.9a7.73,7.73,0,0,1-3.47-.95,3.2,3.2,0,0,1-1.49-3.26,3,3,0,0,1,2.41-2.11,8,8,0,0,1,3.21.29,2.32,2.32,0,0,1,1.12-2.87,2,2,0,0,1,2.58,1.32c-.21-2.93-.37-6,.52-8.76s3.11-5.31,5.82-5.48a6.28,6.28,0,0,1,5.5,3.39,13.18,13.18,0,0,1,1.45,6.93,1.67,1.67,0,0,1,1.51-1.71,1.61,1.61,0,0,1,1.52,1.66,2.57,2.57,0,0,1,4.6.34,3.86,3.86,0,0,1,7.69.62,9.22,9.22,0,0,1,5.45-6.1,6.54,6.54,0,0,1,7.31,2.17,6.75,6.75,0,0,1-.17,8,2.83,2.83,0,0,1,3,1.47,3.44,3.44,0,0,1-.24,3.55c-.95,1.3-2.62,1.59-4.13,1.76a162.06,162.06,0,0,1-34,.8C142.8,466.68,139.4,466.29,136,465.9Z"/><path class="cls-41" d="M136,465.9c3.39.39,6.79.78,10.19,1.1a162.06,162.06,0,0,0,34-.8c.31,0,.63-.08,1-.13a2.54,2.54,0,0,0-2.31-.84A6,6,0,0,0,179,458a5.86,5.86,0,0,0-6.57-1.95,8.25,8.25,0,0,0-4.9,5.48,3.47,3.47,0,0,0-6.92-.56,2.3,2.3,0,0,0-4.13-.3,1.48,1.48,0,0,0-1.37-1.5,1.52,1.52,0,0,0-1.37,1.54,11.8,11.8,0,0,0-1.3-6.23,5.62,5.62,0,0,0-4.94-3.05c-2.44.15-4.44,2.42-5.24,4.93a21.25,21.25,0,0,0-.47,7.88,1.79,1.79,0,0,0-2.31-1.19,2.11,2.11,0,0,0-1,2.58,7.06,7.06,0,0,0-2.88-.26,3.16,3.16,0,0,0-.89.32C135.1,465.79,135.55,465.85,136,465.9Z"/><path class="cls-70" d="M357,422.61a50.49,50.49,0,0,1-1.82,24.81,22,22,0,0,1,8-1.26,76,76,0,0,1-.38-22.68A14.86,14.86,0,0,1,357,422.61Z"/><path class="cls-86" d="M363.87,430.91c.76-.06,1.51-.16,2.26-.29A16.07,16.07,0,0,0,377.78,422a38.87,38.87,0,0,0,4.69-17.47,14.61,14.61,0,0,0-1.66-8c-1.43-2.35-4.26-4-6.95-3.39a13.09,13.09,0,0,0,2-6.88,28.48,28.48,0,0,0-.92-6.87,83.18,83.18,0,0,0-9.42-23.95c-.93-1.57-2.21-3.28-4-3.31-1.67,0-3,1.39-4,2.73A80.21,80.21,0,0,0,346,377.53a38.71,38.71,0,0,0-2.33,10.59,16.62,16.62,0,0,0,2.7,10.34,5.65,5.65,0,0,0-7.14.57,9.09,9.09,0,0,0-2.37,7.26,22.87,22.87,0,0,0,2.3,7.51,40.61,40.61,0,0,0,9.76,13.69c2,1.82,5.47,2.61,8.07,3.09A26,26,0,0,0,363.87,430.91Z"/><path class="cls-41" d="M377.78,422a38.87,38.87,0,0,0,4.69-17.47,14.61,14.61,0,0,0-1.66-8c-1.43-2.35-4.26-4-6.95-3.39a13.09,13.09,0,0,0,2-6.88,28.48,28.48,0,0,0-.92-6.87,87.24,87.24,0,0,0-4.65-14.48,6.69,6.69,0,0,0-3.1,2.6,80.34,80.34,0,0,0-11.45,22.69,38.78,38.78,0,0,0-2.33,10.6,16.51,16.51,0,0,0,2.7,10.33,5.65,5.65,0,0,0-7.14.58,9.09,9.09,0,0,0-2.37,7.26,22.87,22.87,0,0,0,2.3,7.51c.24.53.49,1.05.74,1.57,2,1.44,5.07,2.12,7.39,2.55a26,26,0,0,0,6.88.33c.76-.06,1.51-.16,2.26-.29A16.07,16.07,0,0,0,377.78,422Z"/><path class="cls-70" d="M270.11,415a34.63,34.63,0,0,1-1.25,17,15.2,15.2,0,0,1,5.51-.86,52.15,52.15,0,0,1-.26-15.58A10.14,10.14,0,0,1,270.11,415Z"/><path class="cls-87" d="M276.11,419.85a15.1,15.1,0,0,1-13.17-2.11,17.67,17.67,0,0,1-7.06-12.2,10.68,10.68,0,0,1,.61-5.53,5.12,5.12,0,0,1,4-3.22,5.2,5.2,0,0,1-1.91-4.38,5.62,5.62,0,0,1,2.09-4.06c1.18-1,4.32-1.31,5.45-.59-1.86-3.63-1.38-9.25.16-12.92a14.05,14.05,0,0,1,3-4.64,8,8,0,0,1,4.71-2.35,6.8,6.8,0,0,1,6,2.74,12.71,12.71,0,0,1,2,4.79c.95,3.95,1.21,8.34-.56,11.95,1.27-.93,3.14-.34,4.28.78a5.55,5.55,0,0,1,1.43,4.54,8.94,8.94,0,0,1-1.93,4.45,4.18,4.18,0,0,1,4.21,2.23,7.56,7.56,0,0,1,.86,5.29,14.51,14.51,0,0,1-2.07,5C285.29,414.32,281.15,418.26,276.11,419.85Z"/><path class="cls-41" d="M289.43,399.33a4.68,4.68,0,0,0-3.11-2.27.71.71,0,0,0-.14.1l.05-.11a3.45,3.45,0,0,0-1,.05,8.94,8.94,0,0,0,1.93-4.45,5.55,5.55,0,0,0-1.43-4.54c-1.14-1.12-3-1.71-4.28-.78a15.75,15.75,0,0,0,1.14-8.83,6.64,6.64,0,0,0-3.84-.83A8,8,0,0,0,274,380a14.05,14.05,0,0,0-3,4.64c-1.54,3.67-2,9.29-.16,12.92-1.13-.72-4.27-.37-5.45.59a5.62,5.62,0,0,0-2.09,4.06,5.19,5.19,0,0,0,1.91,4.38,5.11,5.11,0,0,0-4,3.22,10.58,10.58,0,0,0-.62,5.53l.06.42a16.13,16.13,0,0,0,2.26,2,15.1,15.1,0,0,0,13.17,2.11c5-1.59,9.18-5.53,12.11-10.24a14.51,14.51,0,0,0,2.07-5A7.56,7.56,0,0,0,289.43,399.33Z"/></g></g></g></svg>