<svg xmlns="http://www.w3.org/2000/svg" xmlns:xlink="http://www.w3.org/1999/xlink" viewBox="0 0 362.27 159.4"><defs><style>.cls-1{fill:url(#linear-gradient);}.cls-2{fill:url(#linear-gradient-2);}.cls-3{fill:url(#linear-gradient-3);}</style><linearGradient id="linear-gradient" x1="61.24" y1="159.4" x2="61.24" gradientUnits="userSpaceOnUse"><stop offset="0" stop-color="#ffd97b"/><stop offset="0.21" stop-color="#ffd775"/><stop offset="0.47" stop-color="#ffd365"/><stop offset="0.77" stop-color="#ffcb4a"/><stop offset="1" stop-color="#ffc431"/></linearGradient><linearGradient id="linear-gradient-2" x1="193.31" y1="127.39" x2="193.31" xlink:href="#linear-gradient"/><linearGradient id="linear-gradient-3" x1="314.57" y1="69.37" x2="314.57" xlink:href="#linear-gradient"/></defs><g id="Layer_2" data-name="Layer 2"><g id="Layer_1-2" data-name="Layer 1"><path class="cls-1" d="M103.21,0H19.27C20.2,0,.88,75.64,0,145.83c3.69,2.37,25.77,15.54,57.35,13.32,2.87-11-1.67-97.93,3.72-98.48a1.93,1.93,0,0,1,.34,0c5.39.68.84,87.39,3.71,98.48,31.59,2.22,53.67-11,57.36-13.32C121.39,76.17,102.57-.74,103.21,0Z"/><path class="cls-2" d="M235.66.18l-85-.15c1.6-1.49-16.95,59.35-18.39,117,6.5,2.71,26.63,10,56,10.36a1.72,1.72,0,0,0,1.74-1.76c-.86-40.92.65-55.76,2.45-64.48a.89.89,0,0,1,1.75,0c1.8,8.72,3.31,23.56,2.45,64.48a1.72,1.72,0,0,0,1.74,1.76c29.34-.39,49.47-7.65,56-10.36C252.87,59.83,234.14-1.94,235.66.18Z"/><path class="cls-3" d="M357.27,0s-85.39,0-85.39,0c-.09.58-3.52,31.54-5,58.65,8.55,7.7,28.87,9.92,44.24,10.71,3.35.28,1.64-9.77,3.45-10.48,1.87.93.07,10.61,3.46,10.48,15.35-.79,35.69-3,44.24-10.71C360.78,31.55,357.36.58,357.27,0Z"/></g></g></svg>