<svg xmlns="http://www.w3.org/2000/svg" xmlns:xlink="http://www.w3.org/1999/xlink" viewBox="0 0 606.23 199.03"><defs><style>.cls-1{fill:url(#linear-gradient);}.cls-2{fill:url(#linear-gradient-2);}.cls-3{fill:url(#linear-gradient-3);}.cls-4{fill:url(#linear-gradient-4);}</style><linearGradient id="linear-gradient" x1="54.53" y1="75.17" x2="54.53" gradientUnits="userSpaceOnUse"><stop offset="0" stop-color="#ffd97b"/><stop offset="0.21" stop-color="#ffd775"/><stop offset="0.47" stop-color="#ffd365"/><stop offset="0.77" stop-color="#ffcb4a"/><stop offset="1" stop-color="#ffc431"/></linearGradient><linearGradient id="linear-gradient-2" x1="349.18" y1="166.01" x2="349.18" y2="0" xlink:href="#linear-gradient"/><linearGradient id="linear-gradient-3" x1="531.48" y1="199.03" x2="531.48" y2="0" xlink:href="#linear-gradient"/><linearGradient id="linear-gradient-4" x1="202.4" y1="114.54" x2="202.4" y2="0" xlink:href="#linear-gradient"/></defs><g id="Layer_2" data-name="Layer 2"><g id="Layer_1-2" data-name="Layer 1"><path class="cls-1" d="M54.57,75.17a185.47,185.47,0,0,0,54.5-9.54L96.44.05C75.54,0,33.53,0,12.63.05L0,65.63A185.58,185.58,0,0,0,54.57,75.17Z"/><path class="cls-2" d="M422.19,152.17l1.75-.72L392.86,0C371.06,0,327.3,0,305.51,0L274.43,151.45l1.91.78C322.5,170.61,376.08,170.63,422.19,152.17Z"/><path class="cls-3" d="M604.49,182.43c1.13-.54,1.74-.85,1.74-.85L575.15.05C553.36,0,509.6,0,487.8.05L456.73,181.58s.66.33,1.91.92A168.78,168.78,0,0,0,604.49,182.43Z"/><path class="cls-4" d="M261.84,97.83,245.94,0H158.86L143,97.83C183.39,120.11,221.41,120.12,261.84,97.83Z"/></g></g></svg>