<svg xmlns="http://www.w3.org/2000/svg" width="2122.57" height="1875.52" viewBox="0 0 2122.57 1875.52">
  <defs>
    <linearGradient id="cosmic-bg" x1="0%" y1="0%" x2="0%" y2="100%">
      <stop offset="0%" stop-color="#14133F" />
      <stop offset="40%" stop-color="#391474" />
      <stop offset="100%" stop-color="#04DDF4" />
    </linearGradient>
  </defs>

  <!-- Background Gradient -->
  <rect width="100%" height="100%" fill="url(#cosmic-bg)" />

  <!-- Stars Group -->
  <g fill="#ffffff">
    <circle cx="1463.45" cy="110.72" r="2.44" opacity="0.44" />
    <circle cx="1651.23" cy="1214.53" r="1.27" opacity="0.79" />
    <circle cx="1294.35" cy="1713.20" r="0.60" opacity="0.61" />
    <circle cx="270.77" cy="612.19" r="1.55" opacity="0.93" />
    <circle cx="532.83" cy="1233.07" r="0.62" opacity="0.38" />
    <circle cx="938.96" cy="504.30" r="1.21" opacity="0.80" />
    <circle cx="2119.44" cy="1865.10" r="0.97" opacity="0.77" />
    <circle cx="530.26" cy="1084.53" r="0.67" opacity="0.92" />
    <circle cx="463.36" cy="1148.75" r="0.95" opacity="0.37" />
    <circle cx="663.07" cy="754.64" r="1.50" opacity="0.97" />
    <circle cx="601.14" cy="86.93" r="0.71" opacity="0.44" />
    <circle cx="566.81" cy="1836.29" r="0.87" opacity="0.61" />
    <circle cx="1707.63" cy="335.74" r="0.81" opacity="0.47" />
    <circle cx="887.08" cy="1159.02" r="0.86" opacity="0.57" />
    <circle cx="1689.37" cy="1460.97" r="1.45" opacity="0.46" />
    <circle cx="1668.95" cy="1830.55" r="0.88" opacity="0.24" />
    <circle cx="141.00" cy="857.82" r="1.30" opacity="0.43" />
    <circle cx="1445.14" cy="464.52" r="1.37" opacity="0.50" />
    <circle cx="770.02" cy="1821.80" r="1.45" opacity="0.23" />
    <circle cx="52.86" cy="1770.49" r="0.66" opacity="0.49" />
    <circle cx="1293.54" cy="434.61" r="0.58" opacity="0.86" />
    <circle cx="1125.33" cy="555.99" r="1.61" opacity="0.41" />
    <circle cx="1791.46" cy="467.22" r="0.79" opacity="0.60" />
    <circle cx="1577.64" cy="1009.09" r="0.53" opacity="0.94" />
    <circle cx="975.26" cy="1865.30" r="0.78" opacity="0.66" />
    <circle cx="855.25" cy="646.22" r="1.26" opacity="0.57" />
    <circle cx="1407.99" cy="209.18" r="1.36" opacity="0.77" />
    <circle cx="2115.37" cy="1291.17" r="0.73" opacity="0.61" />
    <circle cx="141.49" cy="448.68" r="0.63" opacity="0.68" />
    <circle cx="2089.42" cy="112.47" r="0.63" opacity="0.40" />
    <circle cx="463.57" cy="226.99" r="0.83" opacity="0.49" />
    <circle cx="29.20" cy="1198.41" r="1.02" opacity="0.57" />
    <circle cx="1252.28" cy="278.03" r="2.42" opacity="0.70" />
    <circle cx="1275.63" cy="792.38" r="1.10" opacity="0.30" />
    <circle cx="1436.81" cy="900.63" r="1.38" opacity="0.85" />
    <circle cx="1735.54" cy="867.39" r="0.79" opacity="0.73" />
    <circle cx="1586.75" cy="1827.95" r="1.14" opacity="0.64" />
    <circle cx="698.14" cy="596.74" r="2.38" opacity="0.45" />
    <circle cx="2003.47" cy="664.50" r="1.52" opacity="0.25" />
    <circle cx="1247.20" cy="503.61" r="0.95" opacity="0.55" />
    <circle cx="619.97" cy="957.05" r="1.07" opacity="0.94" />
    <circle cx="1324.40" cy="1689.03" r="0.76" opacity="0.40" />
    <circle cx="474.01" cy="1515.81" r="1.12" opacity="0.89" />
    <circle cx="1704.86" cy="910.53" r="0.56" opacity="0.34" />
    <circle cx="638.24" cy="507.95" r="2.03" opacity="0.69" />
    <circle cx="747.74" cy="615.09" r="2.01" opacity="0.49" />
    <circle cx="475.44" cy="1050.44" r="1.04" opacity="0.44" />
    <circle cx="1164.65" cy="1745.35" r="0.54" opacity="0.24" />
    <circle cx="349.45" cy="307.28" r="1.93" opacity="0.81" />
    <circle cx="1745.70" cy="1730.86" r="0.75" opacity="0.98" />
    <circle cx="1325.91" cy="1197.85" r="0.74" opacity="0.23" />
    <circle cx="934.21" cy="116.18" r="2.43" opacity="0.65" />
    <circle cx="2.82" cy="438.99" r="2.12" opacity="0.89" />
    <circle cx="1580.15" cy="10.18" r="0.65" opacity="0.65" />
    <circle cx="645.74" cy="397.73" r="2.15" opacity="0.39" />
    <circle cx="315.28" cy="729.02" r="1.90" opacity="0.49" />
    <circle cx="2019.34" cy="823.90" r="0.96" opacity="0.49" />
    <circle cx="1873.67" cy="1620.23" r="1.43" opacity="0.54" />
    <circle cx="1872.47" cy="1254.47" r="0.81" opacity="0.92" />
    <circle cx="197.08" cy="1765.30" r="0.64" opacity="0.92" />
    <circle cx="1645.48" cy="75.67" r="1.31" opacity="0.79" />
    <circle cx="2107.84" cy="68.34" r="1.80" opacity="0.88" />
    <circle cx="1062.55" cy="415.21" r="1.40" opacity="0.59" />
    <circle cx="290.16" cy="935.89" r="1.28" opacity="0.22" />
    <circle cx="1586.01" cy="1247.36" r="1.22" opacity="0.76" />
    <circle cx="1384.12" cy="966.56" r="1.03" opacity="0.32" />
    <circle cx="1729.19" cy="1475.43" r="1.22" opacity="0.85" />
    <circle cx="193.86" cy="1293.26" r="0.76" opacity="0.92" />
    <circle cx="1756.42" cy="897.38" r="0.58" opacity="0.94" />
    <circle cx="1350.63" cy="74.65" r="1.87" opacity="0.32" />
    <circle cx="494.02" cy="1227.22" r="0.78" opacity="0.28" />
    <circle cx="508.13" cy="169.61" r="1.61" opacity="0.26" />
    <circle cx="1157.97" cy="778.19" r="0.84" opacity="0.45" />
    <circle cx="1972.13" cy="136.01" r="2.18" opacity="0.63" />
    <circle cx="175.22" cy="711.53" r="0.89" opacity="0.55" />
    <circle cx="1445.61" cy="1493.97" r="1.05" opacity="0.23" />
    <circle cx="1720.98" cy="39.29" r="2.27" opacity="0.51" />
    <circle cx="371.57" cy="952.84" r="1.33" opacity="0.84" />
    <circle cx="969.23" cy="1049.03" r="0.92" opacity="0.49" />
    <circle cx="1992.86" cy="771.28" r="0.53" opacity="0.71" />
    <circle cx="1722.83" cy="932.30" r="1.17" opacity="0.72" />
    <circle cx="1910.92" cy="1397.60" r="1.43" opacity="0.91" />
    <circle cx="324.03" cy="1612.77" r="1.03" opacity="0.85" />
    <circle cx="610.81" cy="1187.97" r="0.86" opacity="1.00" />
    <circle cx="1495.51" cy="65.89" r="1.59" opacity="0.41" />
    <circle cx="128.61" cy="1450.72" r="0.88" opacity="0.71" />
    <circle cx="963.14" cy="1057.83" r="1.23" opacity="0.73" />
    <circle cx="1828.34" cy="598.81" r="1.49" opacity="0.98" />
    <circle cx="63.26" cy="1464.55" r="0.63" opacity="0.91" />
    <circle cx="1854.33" cy="845.47" r="1.12" opacity="0.96" />
    <circle cx="1125.44" cy="955.37" r="1.44" opacity="0.38" />
    <circle cx="294.72" cy="553.91" r="1.76" opacity="0.47" />
    <circle cx="2027.34" cy="1295.21" r="1.46" opacity="0.55" />
    <circle cx="2114.45" cy="610.02" r="0.94" opacity="0.37" />
    <circle cx="141.95" cy="1005.13" r="0.81" opacity="0.94" />
    <circle cx="1494.73" cy="1297.84" r="1.27" opacity="0.46" />
    <circle cx="939.61" cy="1319.23" r="1.34" opacity="0.76" />
    <circle cx="670.05" cy="1453.17" r="1.00" opacity="0.67" />
    <circle cx="1162.38" cy="446.07" r="0.58" opacity="0.92" />
    <circle cx="1386.54" cy="1369.44" r="1.45" opacity="0.53" />
    <circle cx="514.25" cy="352.47" r="1.23" opacity="0.38" />
    <circle cx="1638.04" cy="226.14" r="1.98" opacity="0.82" />
    <circle cx="597.45" cy="1244.28" r="0.60" opacity="0.45" />
    <circle cx="1953.95" cy="639.55" r="1.96" opacity="0.36" />
    <circle cx="940.68" cy="1535.80" r="0.52" opacity="0.27" />
    <circle cx="1187.64" cy="768.46" r="0.93" opacity="0.82" />
    <circle cx="1130.44" cy="91.15" r="1.35" opacity="0.33" />
    <circle cx="66.84" cy="268.12" r="0.74" opacity="0.53" />
    <circle cx="1782.70" cy="76.67" r="0.93" opacity="0.89" />
    <circle cx="1658.49" cy="1548.14" r="0.94" opacity="0.44" />
    <circle cx="813.73" cy="870.88" r="0.60" opacity="0.50" />
    <circle cx="1427.26" cy="1047.50" r="1.01" opacity="0.91" />
    <circle cx="1013.76" cy="232.16" r="1.62" opacity="0.38" />
    <circle cx="1258.53" cy="1655.98" r="1.40" opacity="0.28" />
    <circle cx="865.85" cy="340.03" r="1.38" opacity="0.48" />
    <circle cx="418.56" cy="1276.75" r="0.90" opacity="0.91" />
    <circle cx="1829.43" cy="681.07" r="2.46" opacity="0.72" />
    <circle cx="2112.17" cy="149.52" r="2.17" opacity="0.30" />
    <circle cx="1448.56" cy="1231.75" r="0.61" opacity="0.27" />
    <circle cx="943.83" cy="830.76" r="0.86" opacity="0.33" />
    <circle cx="1133.27" cy="543.38" r="0.85" opacity="0.80" />
    <circle cx="1145.19" cy="402.33" r="1.54" opacity="0.28" />
    <circle cx="1079.65" cy="1477.59" r="1.24" opacity="0.32" />
    <circle cx="2098.81" cy="1603.58" r="1.49" opacity="0.77" />
    <circle cx="2013.56" cy="1302.93" r="0.81" opacity="0.70" />
    <circle cx="579.02" cy="1211.07" r="0.96" opacity="0.84" />
    <circle cx="1207.17" cy="1092.17" r="1.43" opacity="0.63" />
    <circle cx="428.47" cy="1268.74" r="0.80" opacity="0.66" />
    <circle cx="1398.90" cy="1294.59" r="0.51" opacity="0.45" />
    <circle cx="376.94" cy="897.43" r="1.05" opacity="0.22" />
    <circle cx="2118.67" cy="1685.53" r="1.05" opacity="0.41" />
    <circle cx="231.41" cy="349.35" r="0.87" opacity="0.79" />
    <circle cx="2113.47" cy="1598.32" r="0.82" opacity="0.30" />
    <circle cx="324.04" cy="484.20" r="1.60" opacity="0.41" />
    <circle cx="1963.06" cy="715.27" r="1.47" opacity="0.28" />
    <circle cx="1839.81" cy="890.09" r="0.58" opacity="0.71" />
    <circle cx="594.94" cy="1581.11" r="1.35" opacity="0.63" />
    <circle cx="1339.00" cy="912.62" r="1.09" opacity="0.79" />
    <circle cx="155.91" cy="510.91" r="1.49" opacity="0.44" />
    <circle cx="912.77" cy="1036.53" r="0.80" opacity="0.81" />
    <circle cx="1544.22" cy="1765.26" r="1.16" opacity="0.38" />
    <circle cx="1404.46" cy="909.98" r="1.28" opacity="0.47" />
    <circle cx="314.37" cy="336.14" r="2.48" opacity="0.70" />
    <circle cx="1913.63" cy="277.09" r="1.67" opacity="0.80" />
    <circle cx="756.77" cy="267.09" r="0.62" opacity="0.82" />
    <circle cx="1482.24" cy="130.48" r="1.76" opacity="0.59" />
    <circle cx="626.26" cy="1152.86" r="0.92" opacity="0.33" />
    <circle cx="1120.19" cy="1076.24" r="0.76" opacity="0.26" />
    <circle cx="2121.21" cy="151.31" r="1.23" opacity="0.64" />
    <circle cx="1226.02" cy="329.44" r="1.41" opacity="0.42" />
    <circle cx="1957.93" cy="622.34" r="0.76" opacity="0.84" />
    <circle cx="1634.39" cy="226.87" r="2.25" opacity="0.80" />
    <circle cx="1724.83" cy="1410.85" r="1.03" opacity="0.82" />
    <circle cx="1747.71" cy="1364.75" r="1.26" opacity="0.45" />
    <circle cx="372.20" cy="462.90" r="2.14" opacity="0.95" />
    <circle cx="619.98" cy="1551.59" r="0.55" opacity="0.96" />
    <circle cx="817.06" cy="124.65" r="1.46" opacity="0.65" />
    <circle cx="183.29" cy="1056.43" r="0.58" opacity="0.43" />
    <circle cx="26.69" cy="365.99" r="2.21" opacity="0.51" />
    <circle cx="2001.08" cy="1219.71" r="1.29" opacity="0.97" />
    <circle cx="1877.29" cy="1517.58" r="0.89" opacity="0.54" />
    <circle cx="965.86" cy="1420.94" r="0.80" opacity="0.95" />
    <circle cx="58.91" cy="1777.80" r="0.87" opacity="0.92" />
    <circle cx="1537.23" cy="822.99" r="1.18" opacity="0.46" />
    <circle cx="46.31" cy="582.35" r="0.75" opacity="0.35" />
    <circle cx="1992.19" cy="1269.50" r="0.90" opacity="0.45" />
    <circle cx="842.51" cy="99.91" r="1.40" opacity="0.95" />
    <circle cx="1825.61" cy="1855.31" r="0.98" opacity="0.26" />
    <circle cx="1078.14" cy="885.83" r="1.34" opacity="0.97" />
    <circle cx="732.82" cy="1704.11" r="0.54" opacity="0.77" />
    <circle cx="1390.29" cy="674.27" r="2.39" opacity="0.99" />
    <circle cx="1774.41" cy="1178.81" r="1.06" opacity="0.23" />
    <circle cx="276.14" cy="492.81" r="1.01" opacity="0.33" />
    <circle cx="486.25" cy="1353.00" r="1.36" opacity="0.73" />
    <circle cx="1292.24" cy="316.47" r="1.63" opacity="0.93" />
    <circle cx="1899.18" cy="872.63" r="0.98" opacity="0.23" />
    <circle cx="1557.27" cy="732.70" r="1.87" opacity="0.90" />
    <circle cx="437.16" cy="1476.14" r="0.91" opacity="0.46" />
    <circle cx="2115.83" cy="129.70" r="1.13" opacity="0.73" />
    <circle cx="1395.50" cy="479.98" r="0.51" opacity="0.72" />
    <circle cx="1355.59" cy="371.25" r="0.59" opacity="0.29" />
    <circle cx="542.36" cy="1754.39" r="1.46" opacity="0.26" />
    <circle cx="1644.97" cy="625.88" r="0.53" opacity="0.77" />
    <circle cx="837.63" cy="329.56" r="1.88" opacity="0.47" />
    <circle cx="1349.75" cy="36.51" r="0.83" opacity="0.33" />
    <circle cx="1161.94" cy="380.58" r="0.72" opacity="0.71" />
    <circle cx="127.61" cy="852.97" r="0.87" opacity="0.67" />
    <circle cx="1842.15" cy="1091.34" r="0.88" opacity="0.81" />
    <circle cx="1943.34" cy="1263.50" r="0.76" opacity="0.82" />
    <circle cx="645.54" cy="1715.79" r="0.64" opacity="0.23" />
    <circle cx="1853.93" cy="1770.65" r="1.24" opacity="0.45" />
    <circle cx="767.15" cy="420.27" r="2.27" opacity="0.29" />
    <circle cx="2067.47" cy="1205.65" r="1.37" opacity="0.29" />
    <circle cx="597.37" cy="1133.36" r="0.63" opacity="0.41" />
    <circle cx="1080.41" cy="1760.28" r="0.94" opacity="0.94" />
    <circle cx="198.02" cy="754.34" r="0.87" opacity="0.86" />
    <circle cx="1638.42" cy="1617.31" r="1.23" opacity="0.93" />
    <circle cx="655.45" cy="584.16" r="2.15" opacity="0.72" />
    <circle cx="251.47" cy="1004.35" r="1.17" opacity="1.00" />
    <circle cx="1613.76" cy="1546.46" r="1.23" opacity="0.27" />
    <circle cx="791.02" cy="407.26" r="1.17" opacity="0.51" />
    <circle cx="1315.03" cy="1064.41" r="1.05" opacity="0.43" />
    <circle cx="1705.54" cy="272.46" r="1.68" opacity="0.68" />
    <circle cx="2019.88" cy="1475.35" r="0.79" opacity="0.87" />
    <circle cx="852.16" cy="699.88" r="0.79" opacity="0.77" />
    <circle cx="641.86" cy="1512.37" r="1.42" opacity="0.23" />
    <circle cx="1187.38" cy="1748.64" r="0.77" opacity="0.43" />
    <circle cx="812.25" cy="1682.17" r="1.32" opacity="0.60" />
    <circle cx="19.39" cy="734.67" r="2.40" opacity="0.44" />
    <circle cx="525.12" cy="1291.56" r="1.15" opacity="0.37" />
    <circle cx="2023.17" cy="402.60" r="0.64" opacity="0.57" />
    <circle cx="1214.53" cy="1474.21" r="1.12" opacity="0.96" />
    <circle cx="748.55" cy="1469.61" r="1.11" opacity="0.22" />
    <circle cx="1779.97" cy="573.95" r="1.06" opacity="0.94" />
    <circle cx="1936.91" cy="1712.09" r="1.07" opacity="0.51" />
    <circle cx="611.33" cy="1817.51" r="1.26" opacity="0.98" />
    <circle cx="717.85" cy="451.12" r="1.08" opacity="0.89" />
    <circle cx="1301.83" cy="587.64" r="1.65" opacity="0.56" />
    <circle cx="613.25" cy="23.04" r="0.70" opacity="0.74" />
    <circle cx="1262.05" cy="1384.03" r="1.32" opacity="0.52" />
    <circle cx="1588.63" cy="1634.34" r="1.38" opacity="0.52" />
    <circle cx="140.02" cy="968.20" r="0.79" opacity="0.37" />
    <circle cx="2113.36" cy="1507.24" r="0.55" opacity="0.43" />
    <circle cx="1527.14" cy="534.30" r="2.16" opacity="0.55" />
    <circle cx="1334.58" cy="1758.02" r="1.10" opacity="0.90" />
    <circle cx="1484.97" cy="201.30" r="1.72" opacity="0.45" />
    <circle cx="1399.09" cy="399.02" r="1.92" opacity="0.25" />
    <circle cx="748.16" cy="208.33" r="1.82" opacity="0.88" />
    <circle cx="1800.33" cy="488.88" r="2.32" opacity="0.62" />
    <circle cx="654.64" cy="1161.65" r="0.68" opacity="0.96" />
    <circle cx="114.50" cy="232.89" r="1.57" opacity="1.00" />
    <circle cx="532.75" cy="1528.65" r="1.22" opacity="0.34" />
    <circle cx="921.08" cy="1174.14" r="1.43" opacity="0.31" />
    <circle cx="1449.05" cy="1684.73" r="0.62" opacity="0.65" />
    <circle cx="809.56" cy="1791.49" r="0.66" opacity="0.61" />
    <circle cx="1288.81" cy="303.84" r="2.12" opacity="0.84" />
    <circle cx="269.30" cy="428.33" r="1.68" opacity="0.29" />
    <circle cx="1480.32" cy="1482.80" r="0.67" opacity="0.67" />
    <circle cx="1560.38" cy="1107.36" r="1.47" opacity="0.99" />
    <circle cx="814.03" cy="447.59" r="0.98" opacity="0.48" />
    <circle cx="513.61" cy="1199.83" r="1.45" opacity="0.33" />
    <circle cx="853.45" cy="713.47" r="0.97" opacity="0.60" />
    <circle cx="1695.16" cy="494.09" r="0.54" opacity="0.96" />
    <circle cx="930.90" cy="1327.74" r="1.47" opacity="0.62" />
    <circle cx="1165.11" cy="1313.04" r="1.38" opacity="0.94" />
    <circle cx="1777.12" cy="1076.22" r="1.46" opacity="0.58" />
    <circle cx="371.02" cy="762.80" r="0.65" opacity="0.61" />
    <circle cx="1752.07" cy="901.87" r="0.96" opacity="0.92" />
    <circle cx="1413.01" cy="172.94" r="1.15" opacity="0.51" />
    <circle cx="1144.48" cy="572.55" r="0.55" opacity="0.86" />
    <circle cx="1794.78" cy="1753.39" r="0.84" opacity="0.55" />
    <circle cx="1606.19" cy="685.93" r="0.92" opacity="0.95" />
    <circle cx="64.18" cy="1105.12" r="0.63" opacity="0.29" />
    <circle cx="330.09" cy="1053.16" r="0.78" opacity="0.85" />
    <circle cx="639.61" cy="1093.14" r="1.18" opacity="0.71" />
    <circle cx="1032.69" cy="70.16" r="1.14" opacity="0.79" />
    <circle cx="880.28" cy="802.87" r="1.22" opacity="0.85" />
    <circle cx="650.15" cy="211.93" r="2.20" opacity="0.93" />
    <circle cx="475.56" cy="809.81" r="1.39" opacity="0.96" />
    <circle cx="486.89" cy="1827.55" r="0.61" opacity="0.45" />
    <circle cx="1966.82" cy="338.25" r="0.75" opacity="0.21" />
    <circle cx="1205.87" cy="706.47" r="1.06" opacity="0.87" />
    <circle cx="37.07" cy="524.57" r="2.43" opacity="0.77" />
    <circle cx="110.97" cy="636.97" r="2.35" opacity="0.78" />
    <circle cx="1016.47" cy="1293.47" r="1.14" opacity="0.50" />
    <circle cx="1402.53" cy="1344.54" r="0.87" opacity="0.53" />
    <circle cx="556.84" cy="1197.44" r="1.10" opacity="0.29" />
    <circle cx="119.86" cy="664.34" r="0.55" opacity="0.85" />
    <circle cx="1513.71" cy="592.01" r="0.88" opacity="0.55" />
    <circle cx="1322.02" cy="1706.85" r="0.52" opacity="0.92" />
    <circle cx="772.58" cy="522.06" r="1.14" opacity="0.45" />
    <circle cx="79.21" cy="78.61" r="1.47" opacity="0.99" />
    <circle cx="1876.56" cy="1225.35" r="0.50" opacity="0.43" />
    <circle cx="2113.46" cy="1590.14" r="0.54" opacity="0.73" />
    <circle cx="395.27" cy="1596.72" r="1.41" opacity="0.30" />
    <circle cx="603.70" cy="744.31" r="1.23" opacity="0.87" />
    <circle cx="278.98" cy="1546.38" r="0.90" opacity="0.41" />
    <circle cx="158.04" cy="427.76" r="1.65" opacity="0.47" />
    <circle cx="1150.89" cy="918.61" r="0.67" opacity="0.24" />
    <circle cx="1908.97" cy="1510.78" r="0.51" opacity="0.36" />
    <circle cx="1772.01" cy="1133.60" r="1.16" opacity="0.71" />
    <circle cx="1306.26" cy="1274.27" r="1.08" opacity="0.97" />
    <circle cx="781.45" cy="1588.39" r="0.80" opacity="0.27" />
    <circle cx="1441.66" cy="1145.27" r="1.48" opacity="0.20" />
    <circle cx="942.18" cy="318.00" r="0.90" opacity="0.68" />
    <circle cx="1799.17" cy="1353.35" r="0.56" opacity="0.24" />
    <circle cx="1584.20" cy="585.98" r="2.00" opacity="0.40" />
    <circle cx="500.67" cy="314.17" r="0.81" opacity="0.30" />
    <circle cx="1294.19" cy="598.24" r="2.44" opacity="0.51" />
    <circle cx="206.19" cy="997.41" r="0.52" opacity="0.25" />
    <circle cx="70.92" cy="502.27" r="2.39" opacity="0.27" />
    <circle cx="302.87" cy="22.01" r="1.06" opacity="0.86" />
    <circle cx="1889.92" cy="370.56" r="1.75" opacity="0.99" />
    <circle cx="2001.09" cy="847.08" r="1.38" opacity="0.63" />
    <circle cx="626.09" cy="1259.56" r="0.77" opacity="0.69" />
    <circle cx="2008.93" cy="1816.63" r="0.90" opacity="0.95" />
    <circle cx="1123.03" cy="696.72" r="2.16" opacity="0.64" />
    <circle cx="1161.00" cy="1246.89" r="0.89" opacity="0.96" />
    <circle cx="102.65" cy="467.69" r="1.03" opacity="0.56" />
    <circle cx="6.78" cy="283.38" r="0.55" opacity="0.38" />
    <circle cx="494.51" cy="523.88" r="9.68" opacity="0.19" />
    <circle cx="494.51" cy="523.88" r="3.87" opacity="0.95" />
    <circle cx="305.39" cy="915.25" r="8.45" opacity="0.15" />
    <circle cx="305.39" cy="915.25" r="3.38" opacity="0.77" />
    <circle cx="550.23" cy="718.11" r="11.80" opacity="0.15" />
    <circle cx="550.23" cy="718.11" r="4.72" opacity="0.73" />
    <circle cx="473.24" cy="339.57" r="9.85" opacity="0.18" />
    <circle cx="473.24" cy="339.57" r="3.94" opacity="0.89" />
    <circle cx="1737.08" cy="504.85" r="8.65" opacity="0.17" />
    <circle cx="1737.08" cy="504.85" r="3.46" opacity="0.84" />
    <circle cx="1201.52" cy="756.72" r="12.18" opacity="0.17" />
    <circle cx="1201.52" cy="756.72" r="4.87" opacity="0.86" />
    <circle cx="1847.89" cy="256.28" r="10.63" opacity="0.18" />
    <circle cx="1847.89" cy="256.28" r="4.25" opacity="0.92" />
    <circle cx="1595.18" cy="653.92" r="12.15" opacity="0.15" />
    <circle cx="1595.18" cy="653.92" r="4.86" opacity="0.73" />
    <circle cx="430.33" cy="586.50" r="9.85" opacity="0.15" />
    <circle cx="430.33" cy="586.50" r="3.94" opacity="0.75" />
    <circle cx="712.55" cy="642.13" r="12.38" opacity="0.17" />
    <circle cx="712.55" cy="642.13" r="4.95" opacity="0.83" />
    <circle cx="1123.50" cy="732.40" r="8.65" opacity="0.15" />
    <circle cx="1123.50" cy="732.40" r="3.46" opacity="0.75" />
    <circle cx="913.89" cy="94.19" r="10.45" opacity="0.17" />
    <circle cx="913.89" cy="94.19" r="4.18" opacity="0.84" />
    <circle cx="1778.85" cy="1121.52" r="10.10" opacity="0.15" />
    <circle cx="1778.85" cy="1121.52" r="4.04" opacity="0.75" />
    <circle cx="1841.51" cy="546.11" r="11.73" opacity="0.15" />
    <circle cx="1841.51" cy="546.11" r="4.69" opacity="0.75" />
    <circle cx="1950.85" cy="69.09" r="8.47" opacity="0.19" />
    <circle cx="1950.85" cy="69.09" r="3.39" opacity="0.95" />
  </g>
</svg>