<?xml version="1.0" encoding="utf-8"?>
<!-- Generator: Adobe Illustrator 25.0.0, SVG Export Plug-In . SVG Version: 6.00 Build 0)  -->
<svg version="1.1" id="Layer_1" xmlns="http://www.w3.org/2000/svg" xmlns:xlink="http://www.w3.org/1999/xlink" x="0px" y="0px"
	 viewBox="-1000 0 960 250" style="enable-background:new -1000 0 960 250;" xml:space="preserve">
<style type="text/css">
	.st0{fill:url(#SVGID_1_);}
	.st1{fill:url(#SVGID_2_);}
	.st2{fill:#FFFFFF;}
</style>
<linearGradient id="SVGID_1_" gradientUnits="userSpaceOnUse" x1="-527.0792" y1="-68.0599" x2="-527.0792" y2="349.6798">
	<stop  offset="0" style="stop-color:#0C4E7D"/>
	<stop  offset="0.1783" style="stop-color:#0D5380"/>
	<stop  offset="0.3775" style="stop-color:#11608A"/>
	<stop  offset="0.5867" style="stop-color:#18769B"/>
	<stop  offset="0.8014" style="stop-color:#2195B2"/>
	<stop  offset="1" style="stop-color:#2BB9CD"/>
</linearGradient>
<path class="st0" d="M-55.5,250.5c-22.8-4.7-34.1-7.4-41-17.5c-3.7-5.4,0.2-12.8,6.8-12.6c0,0,0,0,0,0c5.7,0,10.5-4.1,11.4-9.7
	c1.6-10,3.3-17.2,5.8-20c2-2.2,6.5-3.8,16.6-5.9c5-1,9-5.1,9.5-10.2c0.6-6-3.4-11.3-9.2-12.5c-10.3-2.1-14.9-3.7-16.9-6
	c-2.5-2.8-4.1-9.8-5.7-19.6c-0.9-5.3-5.1-9.5-10.4-10c-6.1-0.6-11.5,3.7-12.5,9.6c-1.6,10-3.3,17.2-5.8,20c-2,2.2-6.6,3.9-16.9,6
	c-15.3,3.8-15.2-22.2-15.2-22.2c0.2-6.2-3.2-12.1-9.1-15c-2.2-1.1-4.7-1.6-7.2-1.6h-25.2c-2.8,0-5.6,0.8-8,2.1
	c-2.4-1.4-5.1-2.1-8-2.1h-25.3c-4.9,0-9.2,2.2-12.2,5.6l3-6.7c3.2-2.9,5.2-7.1,5.2-11.8V85.1l32.1-60c2-3.8,2.6-8.2,1.4-12.3
	c-2.1-7-8.4-11.5-15.4-11.5h-28.2c-6.1,0-11.8,3.5-14.4,9.1l-4.1,8.6l-4.1-8.6c-2.7-5.5-8.3-9.1-14.4-9.1H-301
	c-5.3,0-10.2,2.6-13.2,7c-2.9-4.3-7.8-7-13.2-7h-34.5c-6.9,0-13,4.4-15.2,11l-20.4,61.9c-0.7-0.1-1.5-0.2-2.2-0.2h-21.6V17.3
	c0-8.8-7.2-16-16-16h-25.3c-6.1,0-11.4,3.4-14.1,8.4c-1.3-0.9-2.7-1.7-4.1-2.5c-7.9-4.1-16.5-5.9-25.6-5.9h-40.2
	c-8.8,0-16,7.2-16,16l-11.6,4.3l0,0c-4.8-7.3-11.5-12.7-19.4-16.4c-8-3.7-16.9-5.2-26.2-5.2c-9.2,0-17.9,1.5-26,5.1c0,0,0,0,0,0
	c-3.2,1.4-6.3,3.1-9.1,5.1c-2.6-5.3-8-8.9-14.3-8.9h-17.5c-2.3,0-4.6,0.5-6.6,1.4c-2-0.9-4.2-1.4-6.6-1.4h-80.9
	c-1.7,0-3.4,0.3-5,0.8c-1.6-0.5-3.2-0.8-5-0.8h-67.1c-8.8,0-16,7.2-16,16V74h-15.9V17.3c0-8.8-7.2-16-16-16h-17.2
	c2.3-0.6,5-1.2,8-1.8c4.8-1,8.6-4.9,9.1-9.7c0.6-5.7-3.3-10.7-8.7-11.9c-14.5-3-20.8-5.3-24.1-9c-3.9-4.4-6.1-13.4-8.4-27.5
	c-0.8-5-4.8-9-9.8-9.5c-5.8-0.5-10.9,3.5-11.9,9.1c-2.4,14.3-4.5,23.4-8.5,27.8c-3.3,3.6-9.5,6-23.7,8.9c-4.8,1-8.6,4.9-9,9.7
	c-0.6,5.7,3.3,10.7,8.7,11.8c14.5,3,20.8,5.3,24.1,9c3.9,4.4,6.1,13.4,8.4,27.5c0.8,5.1,5,9.2,10.1,9.5c5.9,0.4,11-3.9,11.7-9.7
	c0,0,0,0,0,0l0,74.8c0,8.8,7.2,16,16,16h18.2c-2.6,1.9-4.7,4.6-5.7,7.9l-30.6,92.7c-1.2,3.7-1.2,7.7,0.2,11.3
	c2.5,6.2,8.4,10.1,14.9,10.1h27.3c7.1,0,13.3-4.6,15.3-11.4l1.9-6.4h6.9l1.9,6.4c2,6.8,8.3,11.4,15.3,11.4h27.3c1.5,0,3-0.2,4.5-0.6
	c1.4,0.4,2.9,0.6,4.5,0.6h25.3c8.3,0,15.1-6.3,15.9-14.3l5.1,7.4c3,4.3,7.9,6.9,13.2,6.9h21.1c2.1,0,4.1-0.4,6-1.2
	c1.8,0.7,3.9,1.2,6,1.2h35.8c11.6,0,22.4-2.3,32.1-7.4h38c2.8,4.5,7.8,7.4,13.5,7.4h62.9c1.8,0,3.5-0.3,5.1-0.8
	c1.6,0.5,3.3,0.8,5.1,0.8h66.9c1.7,0,3.3-0.3,4.8-0.7c1.5,0.5,3.2,0.7,4.8,0.7h27.3c7.1,0,13.3-4.6,15.3-11.4l1.9-6.4h6.9l1.9,6.4
	c2,6.8,8.3,11.4,15.3,11.4h27.3c1.5,0,3-0.2,4.5-0.6c1.4,0.4,2.9,0.6,4.5,0.6h25.3c5.1,0,9.6-2.4,12.5-6.1c3,3.8,7.6,6.1,12.5,6.1
	h27.5c1.3,0,2.6-0.2,3.9-0.5c1.2,0.3,2.5,0.5,3.8,0.5h25.3c8.3,0,15.1-6.3,15.9-14.3l5.1,7.4c3,4.3,7.9,6.9,13.2,6.9h21.1
	c4.3,0,8.2-1.7,11.1-4.5c3.1,4.2-0.5,5.8-2.4,6.3c-0.4,0.1-0.7,0.1-1.1,0.2c-6,1.2-10.8,6.1-11.6,12.2c-0.9,7.5,4.1,14.2,11.2,15.6
	c40.6,8.3,44.7,10.5,52.8,59.2c1.1,6.7,6.6,11.9,13.3,12.3c7.2,0.4,13.5-4.8,14.7-11.8c8.1-48.9,12.1-51.2,52.5-59.5
	c6-1.2,10.8-6.1,11.6-12.2C-43.4,258.7-48.4,251.9-55.5,250.5z M-946.9,35.6L-946.9,35.6C-946.9,35.6-946.9,35.6-946.9,35.6z"/>
<linearGradient id="SVGID_2_" gradientUnits="userSpaceOnUse" x1="-545.0973" y1="204.0435" x2="-544.2543" y2="-6.7557" gradientTransform="matrix(1 0 0 -1 0 250.5197)">
	<stop  offset="0" style="stop-color:#FDFFFF"/>
	<stop  offset="1" style="stop-color:#B2F0FA"/>
</linearGradient>
<path class="st1" d="M-930.9,110.4V17.3h25.3V90h37.6v20.4H-930.9z M-857.8,110.4V17.3h67.1v20.4h-41.8v16h38.4V74h-38.4v16h41.6
	v20.4H-857.8z M-780.7,37.6V17.3h80.9v20.4h-28v72.7h-24.9V37.6H-780.7z M-669.2,17.3v10.9c0,3-0.6,5.9-1.8,8.9
	c-1.2,2.9-2.7,5.7-4.5,8.2c-1.8,2.5-3.7,4.6-5.6,6.3l-10.4-5.3c1.3-2.2,2.4-4.7,3.4-7.6c1-2.9,1.5-6.4,1.5-10.6V17.3H-669.2z
	 M-607.2,46.4c-0.2-3-1.4-5.4-3.4-7.1c-2-1.7-5-2.5-9.1-2.5c-2.6,0-4.7,0.3-6.4,1c-1.6,0.6-2.8,1.4-3.6,2.5
	c-0.8,1.1-1.2,2.3-1.2,3.6c-0.1,1.1,0.1,2.1,0.6,3c0.5,0.9,1.2,1.7,2.3,2.4c1,0.7,2.3,1.3,4,1.9c1.6,0.6,3.5,1.1,5.7,1.5l7.6,1.6
	c5.2,1.1,9.6,2.5,13.2,4.3c3.7,1.8,6.7,3.9,9,6.3c2.3,2.4,4,5.1,5.1,8.1c1.1,3,1.7,6.3,1.7,9.8c0,6.1-1.6,11.3-4.6,15.5
	c-3,4.2-7.4,7.5-13,9.7c-5.6,2.2-12.3,3.3-20.2,3.3c-8.1,0-15.2-1.2-21.2-3.6c-6-2.4-10.7-6.1-14-11c-3.3-5-5-11.4-5-19.2h24
	c0.2,2.8,0.9,5.2,2.1,7.2c1.3,1.9,3.1,3.4,5.4,4.4c2.3,1,5.1,1.5,8.3,1.5c2.7,0,5-0.3,6.8-1c1.8-0.7,3.2-1.6,4.1-2.8
	c0.9-1.2,1.4-2.5,1.5-4c0-1.4-0.5-2.7-1.4-3.7c-0.9-1.1-2.3-2.1-4.4-2.9c-2-0.9-4.8-1.7-8.2-2.5l-9.3-2c-8.2-1.8-14.7-4.8-19.5-9
	c-4.7-4.2-7.1-10-7-17.2c0-5.9,1.5-11.1,4.7-15.5c3.2-4.5,7.7-7.9,13.3-10.4c5.7-2.5,12.2-3.7,19.6-3.7c7.5,0,14,1.3,19.5,3.8
	c5.5,2.5,9.7,6.1,12.7,10.6c3,4.5,4.5,9.9,4.5,16H-607.2z M-546.7,110.4V17.3h40.2c6.9,0,13,1.4,18.1,4.1c5.2,2.7,9.2,6.6,12.1,11.5
	s4.3,10.7,4.3,17.3c0,6.7-1.5,12.4-4.5,17.3c-2.9,4.9-7.1,8.6-12.4,11.3c-5.3,2.6-11.5,4-18.6,4h-24V63.1h18.9c3,0,5.5-0.5,7.6-1.5
	c2.1-1.1,3.7-2.6,4.9-4.5c1.2-1.9,1.7-4.2,1.7-6.9c0-2.7-0.6-4.9-1.7-6.8c-1.1-1.9-2.7-3.4-4.9-4.4c-2.1-1-4.6-1.5-7.6-1.5h-8.9
	v72.9H-546.7z M-462.7,110.4V17.3h25.3V90h37.6v20.4H-462.7z M-365.4,110.4h-27.3l30.7-93.1h34.5l30.7,93.1h-27.3l-20.4-67.5h-0.7
	L-365.4,110.4z M-370.4,73.6h51.3v18.9h-51.3V73.6z M-301,17.3h28.2l18.2,37.8h0.7l18.2-37.8h28.2l-34.2,63.8v29.3h-25.1V81.1
	L-301,17.3z M-906.7,232.4H-934l30.7-93.1h34.5l30.7,93.1h-27.3l-20.4-67.5h-0.7L-906.7,232.4z M-911.8,195.6h51.3v18.9h-51.3V195.6
	z M-748.5,139.3v93.1h-21.1l-33.6-48.9h-0.5v48.9H-829v-93.1h21.5l33.1,48.7h0.7v-48.7H-748.5z M-700.7,232.4h-35.8v-93.1h35.5
	c9.6,0,17.8,1.9,24.8,5.6c7,3.7,12.4,9,16.2,16c3.8,6.9,5.7,15.3,5.7,25c0,9.7-1.9,18-5.7,25c-3.8,6.9-9.2,12.3-16.1,16
	C-683.1,230.5-691.3,232.4-700.7,232.4z M-711.3,210.9h9.6c4.6,0,8.5-0.7,11.8-2.2c3.3-1.5,5.8-4,7.5-7.7c1.7-3.6,2.6-8.7,2.6-15.2
	s-0.9-11.5-2.6-15.2c-1.7-3.6-4.3-6.2-7.6-7.7c-3.3-1.5-7.4-2.2-12.3-2.2h-8.9V210.9z M-617.2,232.4v-93.1h25.3V212h37.6v20.4
	H-617.2z M-544,232.4v-93.1h67.1v20.4h-41.8v16h38.4V196h-38.4v16h41.6v20.4H-544z M-440.2,232.4h-27.3l30.7-93.1h34.5l30.7,93.1
	h-27.3l-20.4-67.5h-0.7L-440.2,232.4z M-445.3,195.6h51.3v18.9h-51.3V195.6z M-362.5,232.4v-93.1h40.2c6.9,0,13,1.3,18.1,3.8
	s9.2,6.1,12.1,10.9c2.9,4.7,4.3,10.4,4.3,17c0,6.7-1.5,12.3-4.5,16.9c-2.9,4.6-7.1,8-12.4,10.4c-5.3,2.3-11.5,3.5-18.6,3.5h-24V182
	h18.9c3,0,5.5-0.4,7.6-1.1c2.1-0.8,3.7-2,4.9-3.6c1.2-1.6,1.7-3.8,1.7-6.4c0-2.7-0.6-4.8-1.7-6.5c-1.1-1.7-2.7-2.9-4.9-3.7
	c-2.1-0.8-4.6-1.2-7.6-1.2h-8.9v72.9H-362.5z M-308,189.6l23.3,42.7h-27.5l-22.7-42.7H-308z M-196.5,139.3v93.1h-21.1l-33.6-48.9
	h-0.5v48.9H-277v-93.1h21.5l33.1,48.7h0.7v-48.7H-196.5z M-155.1,139.3l-2.4,64h-20.7l-2.4-64H-155.1z M-167.8,233.8
	c-3.5,0-6.5-1.2-9-3.7c-2.5-2.5-3.7-5.5-3.7-9c0-3.5,1.2-6.4,3.7-8.9c2.5-2.5,5.5-3.7,9-3.7c3.3,0,6.3,1.2,8.8,3.7
	c2.6,2.5,3.9,5.4,3.9,8.9c0,2.4-0.7,4.5-1.9,6.5c-1.2,1.9-2.7,3.4-4.6,4.6C-163.5,233.3-165.6,233.8-167.8,233.8z"/>
<ellipse class="st2" cx="-957.8" cy="-11.3" rx="37.5" ry="41.7"/>
<ellipse class="st2" cx="-122.4" cy="264.4" rx="64" ry="71.1"/>
<ellipse class="st2" cx="-89.7" cy="173.4" rx="31.9" ry="35.4"/>
</svg>
