<svg xmlns="http://www.w3.org/2000/svg" xmlns:xlink="http://www.w3.org/1999/xlink" viewBox="0 0 1714.72 499.47"><defs><style>.cls-1{fill:url(#linear-gradient);}.cls-2{fill:#048ba2;}.cls-3{fill:#feb825;}.cls-4{fill:url(#linear-gradient-2);}.cls-5{fill:#0d3266;}.cls-6{fill:url(#linear-gradient-3);}.cls-7{fill:#0eaaaa;}.cls-8{fill:#fff;}.cls-9{fill:url(#linear-gradient-4);}.cls-10{fill:url(#linear-gradient-5);}.cls-11{fill:url(#linear-gradient-6);}.cls-12{fill:url(#linear-gradient-7);}.cls-13{fill:url(#linear-gradient-8);}.cls-14{fill:#0a70e2;}.cls-15{fill:#fd7d2e;}</style><linearGradient id="linear-gradient" x1="243.29" y1="12.91" x2="243.29" y2="426.7" gradientUnits="userSpaceOnUse"><stop offset="0" stop-color="#0a70e2"/><stop offset="0.33" stop-color="#096ede"/><stop offset="0.65" stop-color="#0669d2"/><stop offset="0.97" stop-color="#015fbe"/><stop offset="1" stop-color="#005ebc"/></linearGradient><linearGradient id="linear-gradient-2" x1="205.79" y1="29.82" x2="161.91" y2="295.99" gradientTransform="translate(70.73 68)" gradientUnits="userSpaceOnUse"><stop offset="0" stop-color="#fff"/><stop offset="0.37" stop-color="#fdfeff"/><stop offset="0.57" stop-color="#f5f9ff"/><stop offset="0.74" stop-color="#e7f2ff"/><stop offset="0.88" stop-color="#d4e7ff"/><stop offset="1" stop-color="#bbdaff"/></linearGradient><linearGradient id="linear-gradient-3" x1="205.86" y1="29.36" x2="164.64" y2="279.37" gradientTransform="translate(70.73 68)" gradientUnits="userSpaceOnUse"><stop offset="0" stop-color="#d6d6d6"/><stop offset="0.4" stop-color="#d4d5d6"/><stop offset="0.62" stop-color="#ccd1d5"/><stop offset="0.79" stop-color="#bec9d5"/><stop offset="0.94" stop-color="#abbfd4"/><stop offset="1" stop-color="#a1bad3"/></linearGradient><linearGradient id="linear-gradient-4" x1="240.46" y1="279.15" x2="240.46" y2="467.13" gradientUnits="userSpaceOnUse"><stop offset="0" stop-color="#d6d6d6"/><stop offset="0.25" stop-color="#d0d3d6"/><stop offset="0.57" stop-color="#c1cbd5"/><stop offset="0.93" stop-color="#a7bdd3"/><stop offset="1" stop-color="#a1bad3"/></linearGradient><linearGradient id="linear-gradient-5" x1="240.46" y1="285.53" x2="240.46" y2="460.46" gradientTransform="matrix(1, 0, 0, 1, 0, 0)" xlink:href="#linear-gradient-2"/><linearGradient id="linear-gradient-6" x1="147.36" y1="301.07" x2="147.36" y2="499.03" xlink:href="#linear-gradient"/><linearGradient id="linear-gradient-7" x1="333.56" y1="301.07" x2="333.56" y2="499.3" gradientUnits="userSpaceOnUse"><stop offset="0" stop-color="#0eaaaa"/><stop offset="0.36" stop-color="#0da6a9"/><stop offset="0.72" stop-color="#099aa6"/><stop offset="1" stop-color="#048ba2"/></linearGradient><linearGradient id="linear-gradient-8" x1="240.31" y1="499.47" x2="240.31" y2="356.37" gradientTransform="matrix(1, 0, 0, 1, 0, 0)" xlink:href="#linear-gradient-2"/></defs><g id="Layer_2" data-name="Layer 2"><g id="Layer_1-2" data-name="Layer 1"><path class="cls-1" d="M416.8,426.7a242.42,242.42,0,0,0,69.77-170.51C486.57,154.35,424,67.13,335.2,30.87c-.12,1.12-.29,2.25-.51,3.37A41.34,41.34,0,0,1,323,55.89a215.63,215.63,0,0,1,99.3,320.33C420.49,393,418.56,410.6,416.8,426.7ZM253.51,18.46a41.17,41.17,0,0,1,1.39-5.27q-5.78-.28-11.61-.28C108.92,12.91,0,121.83,0,256.19A242.35,242.35,0,0,0,63.39,420c-2-17.82-4-37-6-54.61A214.52,214.52,0,0,1,27.75,256.19c0-119,96.5-215.54,215.54-215.54q6.12,0,12.15.34A41.1,41.1,0,0,1,253.51,18.46Z"/><path class="cls-2" d="M290,56.2h0a8,8,0,0,1,8,8v64a8,8,0,0,1-8,8h0a27,27,0,0,1-27-27V83.24a27,27,0,0,1,27-27Z" transform="translate(428 -161.06) rotate(100.9)"/><rect class="cls-2" x="280.26" y="37.03" width="13.5" height="51.54" transform="matrix(0.98, 0.19, -0.19, 0.98, 17.27, -53.63)"/><circle class="cls-3" cx="294.1" cy="26.35" r="26.35"/><path class="cls-2" d="M114.15,146.74h0a9,9,0,0,1,9,9V228a9,9,0,0,1-9,9h0a30.53,30.53,0,0,1-30.53-30.53V177.27A30.53,30.53,0,0,1,114.15,146.74Z" transform="translate(38.16 -16.09) rotate(10.9)"/><path class="cls-2" d="M419.35,207.71h0a9,9,0,0,1,9,9V289a9,9,0,0,1-9,9h0a30.53,30.53,0,0,1-30.53-30.53V238.23a30.53,30.53,0,0,1,30.53-30.53Z" transform="translate(761.96 578.42) rotate(-169.1)"/><path class="cls-4" d="M277.71,350l-90.77-17.27c-56.56-10.76-93.49-64.34-82.5-119.68l7.49-37.68c11-55.34,65.77-91.48,122.33-80.72L325,112c56.56,10.76,93.5,64.35,82.5,119.69L400,269.33C389,324.67,334.27,360.8,277.71,350Z"/><path class="cls-5" d="M289.51,294.49l-93.28-17.1c-33.55-6.15-55.46-36.77-48.94-68.4l2.6-12.61c6.53-31.63,39-52.28,72.56-46.13l93.29,17.1c33.55,6.15,55.46,36.77,48.93,68.4l-2.6,12.61C355.55,280,323.06,300.64,289.51,294.49Z"/><path class="cls-6" d="M413.72,209.59c-1.19-48.81-36.93-92.08-87.87-101.76l-8.92-1.7h0L246.11,92.66h0l-11-2.1a109.87,109.87,0,0,0-81.48,16.21,105.9,105.9,0,0,0-39.27,46.56,104.58,104.58,0,0,0-6.63,21.28l-7.49,37.68a103.4,103.4,0,0,0-2,22.85h0a103.87,103.87,0,0,0,12.07,46.06c.66,1.27,1.35,2.52,2.07,3.76a106.88,106.88,0,0,0,19.92,24.87,108.78,108.78,0,0,0,53.82,27.08l27.82,5.28L248,348.69l3.91.75.83.16,24.15,4.59a111.91,111.91,0,0,0,21,2A109.59,109.59,0,0,0,358.37,338a106.42,106.42,0,0,0,36.54-40.71c1-1.92,1.88-3.88,2.72-5.86.78-1.76,1.49-3.54,2.15-5.35.47-1.25.9-2.52,1.32-3.8a106.7,106.7,0,0,0,3.16-12.12l7.49-37.67A103.68,103.68,0,0,0,413.72,209.59ZM353.55,331a101.14,101.14,0,0,1-75,14.93l-13.94-2.66h0l-76.82-14.61a99.86,99.86,0,0,1-63.12-40.42c-1-1.35-1.87-2.72-2.75-4.1a95.66,95.66,0,0,1-13.22-70.23l7.49-37.67a97,97,0,0,1,42.26-62.46A100.87,100.87,0,0,1,214.14,97a102.67,102.67,0,0,1,19.29,1.83l7.54,1.43L318.44,115l5.76,1.1c46,8.74,78.56,47.25,80.81,91.13a95.65,95.65,0,0,1-1.72,23.61l-7.49,37.67A98.38,98.38,0,0,1,393.12,279c-.32,1-.67,2.07-1,3.09a93.35,93.35,0,0,1-3.57,8.7,90.86,90.86,0,0,1-4.57,8.61A98.28,98.28,0,0,1,353.55,331Z"/><rect class="cls-7" x="291.49" y="206.18" width="25.35" height="37.66" rx="12.68" transform="translate(48.54 -53.92) rotate(11)"/><rect class="cls-7" x="201.19" y="188.44" width="25.35" height="37.66" rx="12.68" transform="translate(43.5 -37.01) rotate(11)"/><path class="cls-8" d="M272.73,249h0a4.73,4.73,0,0,0-4.3,1.3,19.36,19.36,0,0,1-30.94-6,4.7,4.7,0,0,0-3.5-2.81h0c-4.15-.73-7.53,4-5.76,8a29.41,29.41,0,0,0,46.86,9.11C278.21,255.58,276.85,249.93,272.73,249Z"/><path class="cls-8" d="M249.29,266.07h0Z"/><path class="cls-9" d="M403.27,283.82a13.07,13.07,0,0,0-1.74-1.5,14.82,14.82,0,0,0-3.09-1.67,20.1,20.1,0,0,0-4.93-1.23,33.47,33.47,0,0,0-4.41-.27,60.34,60.34,0,0,0-6.73.43c-14.08,1.69-35.16,8.07-64.45,19.51-33.52,13.1-66.94,28.75-77.46,33.76-10.52-5-43.94-20.66-77.46-33.76-15.52-6.07-29.07-10.81-40.27-14.1-2-.6-4.1-1.17-6.09-1.71s-3.79-1-5.65-1.41c-7.82-1.83-14.1-2.72-19.19-2.72-5.44,0-9.38,1-12.43,3.19a12.13,12.13,0,0,0-4.92,11.78l.83,7.3C77.71,323,82.35,365.41,87,408a179.25,179.25,0,0,0,2.71,17.72c.66,3.35,1.24,6.24,1.74,10.85l.13,1.26,1,.78c1.18.93,2.45,1.89,3.73,2.83a244.27,244.27,0,0,0,24.07,15.85c2.13,1.23,4.4,2.49,6.73,3.74l.59.31,100.39,4.86h.3l5.34.26v.65l6.74-.33,6.7.25v-.57l5.26-.26h.07l106.92-5.17.6-.32c2.15-1.16,4.39-2.41,6.65-3.72,5.91-3.42,11.75-7.15,17.34-11.06q1.88-1.31,3.72-2.64l1.08-.79.14-1.31a93.66,93.66,0,0,1,1.57-9.55,163.39,163.39,0,0,0,2.72-17.51c6.12-56.13,10.29-94.06,12.39-112.73l.3-2.6c.15-1.41.3-2.71.44-3.9l.09-.79A12.21,12.21,0,0,0,403.27,283.82Z"/><path class="cls-10" d="M400.15,293.39c-.07.61-.14,1.26-.22,1.95-.2,1.75-.43,3.74-.67,5.94-2.81,25-8.5,77-12.74,116-1.74,16-3.24,17.45-4.2,26.24q-8.32,5.82-17.14,10.93l-112.74,5.45h-.07l-11.55.56v0l-.36,0-.36,0v0l-11.55-.56-.37,0L121.89,454.7a240,240,0,0,1-23.77-15.65c-1.08-9.91-2.62-11.72-4.35-27.64C89.61,373.26,84.33,325,81.66,301.28c-.34-3.06-.64-5.71-.89-7.89-1.1-9.56,12.23-9.49,31.61-4.62q2.84.71,5.84,1.56h0c2.09.58,4.22,1.22,6.41,1.89,42.15,12.95,101.2,40.7,113.77,46.69a4.21,4.21,0,0,1,2.05,2.11,4.21,4.21,0,0,1,2-2.11C258,331.52,344.19,291.05,382.19,286a44.12,44.12,0,0,1,9.9-.37,15,15,0,0,1,4.21,1h0a6,6,0,0,1,3.47,3.26A7.14,7.14,0,0,1,400.15,293.39Z"/><path class="cls-11" d="M228.55,359.07V499l-.37,0a242.16,242.16,0,0,1-58.45-10.86h0a240.74,240.74,0,0,1-41.14-17.3c-2.23-1.19-4.45-2.42-6.64-3.69A240,240,0,0,1,98.16,451.5q-1.86-1.37-3.68-2.79c-4.86-3.76-9.62-7.79-14.17-11.91-.1-.87-.19-1.76-.29-2.64-.06-.61-.13-1.22-.2-1.84C79,424.86,78.14,417,77.26,408.9c-.13-1.22-.26-2.45-.4-3.68s-.27-2.49-.41-3.74-.27-2.5-.41-3.76-.27-2.51-.41-3.76c-.1-.89-.19-1.79-.29-2.68C71.59,357,67.86,323.13,66.24,309c-.67-5.83,4-8.13,12-8,1.07,0,2.21.09,3.4.2C94,302.39,112.55,308,132.3,315.16c3.79,1.38,7.62,2.82,11.46,4.3,18.39,7.08,37,15.09,52.11,21.83h0c6.87,3.07,13,5.86,18,8.19,5.5,2.55,9.71,4.54,12.16,5.71a4.26,4.26,0,0,1,2.24,2.56A4.13,4.13,0,0,1,228.55,359.07Z"/><path class="cls-12" d="M414.68,309c-1.74,15.14-5.92,53.17-9.94,89.93l-.09.83c-.11,1-.23,2.05-.34,3.08-.42,3.9-.85,7.79-1.26,11.61-.07.61-.14,1.22-.2,1.83-.14,1.31-.29,2.63-.43,3.93l-.36,3.3-.06.58q-.13,1.23-.27,2.43l0,.25c-.13,1.27-.27,2.53-.41,3.78s-.25,2.31-.37,3.44c0,.22-.05.45-.07.67-.1.86-.19,1.71-.28,2.55a.77.77,0,0,1,0,.15l-.18,1.66c-.12,1.07-.23,2.13-.34,3.18q-6.81,5.76-14,11-1.82,1.32-3.66,2.6-8.32,5.82-17.14,10.93-3.26,1.89-6.57,3.68a241.53,241.53,0,0,1-40.76,17.37h0a241.84,241.84,0,0,1-65.38,11.48h-.07V359.07a4,4,0,0,1,.06-.7h0a4.39,4.39,0,0,1,.31-1,4.29,4.29,0,0,1,2.07-2.13l3-1.41,6.8-3.19h0C289.72,338.92,347.84,312.82,384,304c1.93-.47,3.8-.89,5.59-1.26h0q2.81-.57,5.36-1c1.52-.23,3-.41,4.35-.53,1.19-.11,2.33-.18,3.4-.2C410.73,300.91,415.35,303.21,414.68,309Z"/><path class="cls-13" d="M252.44,358.6V499.3h-.07q-4.51.17-9.08.17-7.42,0-14.74-.44l-.37,0V358.6a2.37,2.37,0,0,1,.16-.84,2.26,2.26,0,0,1,2.07-1.39H250.2a2.24,2.24,0,0,1,1.71.79,2.29,2.29,0,0,1,.52,1.2h0A1.77,1.77,0,0,1,252.44,358.6Z"/><path class="cls-3" d="M351.53,436.27l-17.3-7.11-16.7,10.63c-4.27,2.71-8.93-.46-7.93-5.3l3.74-18.19L301.75,406c-2.89-2.56-.9-8.1,3.37-9.45l16.9-5.34,8.12-16.36c2.09-4.21,8-5.41,10-2l8.08,13.72,19.21-.81c5.19-.22,7.49,5.21,3.79,9.17L357,410.17l3.71,18.55C361.75,433.72,356.24,438.21,351.53,436.27Z"/><path class="cls-14" d="M596,384.07c-35.43-5.55-39-35.33-27.68-67.26l46.24-131.38c10.67-32.36,29.17-59.51,66.22-58.16,39.65-.2,52.84,23.7,65.86,58.16l45.9,131.38c11,31.78,9.81,61.69-26.28,67.26-22.26,2.86-46.34-3.88-50.45-27.32-6-14.32,11-39.07-2.8-38.89-3,1.48-72.4-3.67-70.59,3.32-.1,11.86,6.71,21.55,3,35.57C641.19,380.14,618.41,386.94,596,384.07ZM706.3,268.81,688.09,211.7c-1-4.43-2.43-7.37-7.36-7.35s-6.23,3-7.71,7.35l-17.87,57.11Z"/><path class="cls-14" d="M848.89,384.77c-20.48.41-36.7-14.27-36.43-34.68V164.76c-.23-20.6,15.22-36.93,36.43-36.44,21.86-.54,37.56,14.78,37.49,35.74v186C886.71,370.61,869.15,385.18,848.89,384.77Z"/><path class="cls-7" d="M940.68,384.07c-19.38.47-33.76-13.44-33.63-32.23,3.53-16.72-9.1-220.52,8.93-227.72,10.38-13.23,39.63-13.88,49.75,0,15.64,13.55,5.54,112.58,8.23,131.38l1,.35c4.22-51.55,66.77-71.81,104.06-40.64,16.94,13.44,20.88,48.7,8.93,66.39-9.78,14.46-26.88,17.51-44,17.34v5.95q31.18,0,44.32,12.44c15.85,13.47,18.19,44.79,2.63,58.33-25,21.38-58.85,3.35-69.37-24.87C1010,330,1005.75,297.06,974,302.09,971.71,331.11,986.26,383.87,940.68,384.07Zm40.64-105.8c2.06,11,12,8.45,26.27,9.46,13.79-1,24.67,1.6,26.28-9.46-2-10.9-12.2-8.92-25.92-9.81C993.33,269.43,983.43,267.09,981.32,278.27Z"/><path class="cls-3" d="M1149.48,384.07c-20.67.46-32.47-12.65-32.58-31.88V243.47c.06-20.52,11.21-32.82,32.58-32.58,20.89-.31,32.86,11.9,32.93,31.88V352.19C1182.43,371.13,1169.33,384.51,1149.48,384.07Zm5.68-267.5,10.34,21,23.13,3.36a6.19,6.19,0,0,1,3.43,10.55l-16.74,16.32,4,23a6.19,6.19,0,0,1-9,6.52l-20.68-10.88-20.69,10.88a6.19,6.19,0,0,1-9-6.52l4-23-16.74-16.32a6.19,6.19,0,0,1,3.43-10.55l23.13-3.36,10.35-21A6.19,6.19,0,0,1,1155.16,116.57Z"/><path class="cls-15" d="M1264,384.07c-80,11.79-92.28-185.87-.7-183.23,32.87-1.34,48.89,24.72,53.6,54l1-.35V148.29c0-19.59,12.56-34.87,33.63-34.33,21.45-.43,31.83,15.24,31.88,35V306.65c-1.39,21.89,12.23,45.3-.52,64.63-8.86,14.67-44.55,18.17-54.65,5.08-9.94-8.72-11-30-10.34-45.19h-6.66C1311.68,362.68,1295.07,384,1264,384.07Zm-5.26-97c.67,18.13,11.45,21,30.48,21.37,19.31-.41,30.12-3.07,30.83-21.37-.66-18.65-10.95-20.89-30.48-21.37C1270.16,266.14,1259.45,268.36,1258.78,287Z"/><path class="cls-14" d="M1437.14,383.66c-39.16,1.86-38.22-55.82,0-54.45C1474.86,327.74,1475.65,385.49,1437.14,383.66Z"/><path class="cls-14" d="M1534.61,386.31c-23.87-.51-35.19-14.37-43.52-38.17-2.45-13.56-26.33-59-18.27-72.37,4.08-11.06,21.18-15,30.72-9.31,12.07,4.64,23,56.1,28.28,66.55q3.24,9.32,8,13.74c5.45,6,18.55,1.89,18.85-6.4,1.46-14-10.77-26.47-18.5-36.89-21.53-40.69,48.08-57.73,49.57-12.8-.71,16.69-11.7,41.43-16.06,57.95C1567.32,368.81,1558.61,387.41,1534.61,386.31Z"/><path class="cls-14" d="M1621.64,386.31c-12.83.31-22.68-8.91-22.58-21.41,2-12.87-5.39-84.59,5.82-93.55,6.84-8.87,26.27-9.15,33,0,6.48,6.64,5.68,19.54,5.58,28.62h4.19c-3.38-33.88,40.68-48,58.18-22.46q8.37,12.92,8.38,36.66c-2,11.78,5.19,57.63-6,66-7.49,8.32-25.46,8.13-32.93,0-14.21-14.07.22-53.7-9.31-69.46-3.92-6.59-15.86-6-19.32.46-5.88,7.58-2.14,44.41-3.14,53.76C1643.57,377.33,1634.6,386.61,1621.64,386.31Z"/></g></g></svg>
