<svg width="123" height="130" viewBox="0 0 123 130" fill="none" xmlns="http://www.w3.org/2000/svg">
<path d="M122.432 61.22C122.432 61.15 122.432 61.08 122.432 61.01C122.516 54.1482 121.329 47.3299 118.932 40.9C114.802 29.1738 107.203 18.9813 97.1435 11.676C87.0841 4.37077 75.0404 0.2985 62.6118 3.05176e-05H61.6118H61.1918H60.3618C59.7218 3.05176e-05 59.0718 3.35686e-05 58.4318 0.0500336C58.0718 0.0500336 57.7118 0.0500311 57.3618 0.110031L55.5818 0.240036L53.9818 0.410034L52.9818 0.540039C39.0997 2.40101 26.2797 8.97872 16.6718 19.17L16.3518 19.5L15.3518 20.58C9.51629 27.0146 5.19108 34.6708 2.69177 42.99C2.55177 43.44 2.42177 43.9 2.30177 44.36C0.975063 48.9923 0.202994 53.7657 0.00176986 58.58C0.00176986 59.2 0.00176986 59.82 0.00176986 60.45C0.00176986 60.71 0.00176986 60.96 0.00176986 61.22V61.28C-0.023275 64.5442 0.217521 67.805 0.72177 71.03C4.40177 91.29 10.2118 111.33 18.9718 129.98L19.3618 129.77C15.7818 100.17 10.9418 65.16 29.3618 39.42C36.9318 28.87 47.8218 18.2 61.6418 17.97C82.3518 19.4 97.5318 41.16 103.182 59.49C109.112 82.4 106.532 106.6 103.412 129.77L103.832 129.93C108.312 121.51 110.922 112.17 114.142 103.2C117.702 92.6599 120.231 81.7989 121.692 70.77C122.188 67.611 122.436 64.4178 122.432 61.22Z" fill="url(#paint0_linear_126_8)"/>
<defs>
<linearGradient id="paint0_linear_126_8" x1="61.1818" y1="129.98" x2="61.1818" y2="-0.0299666" gradientUnits="userSpaceOnUse">
    <stop stop-color="#565ca6"/>
    <stop offset="0.14" stop-color="#44498f"/>
    <stop offset="0.35" stop-color="#303577"/>
    <stop offset="0.6" stop-color="#262a6a"/>
    <stop offset="1" stop-color="#222665"/>
    </linearGradient>
</defs>
</svg>
