<svg xmlns="http://www.w3.org/2000/svg" viewBox="0 0 50 25">
  <g id="Layer_2" data-name="Layer 2">
    <g id="Layer_1-2" data-name="Layer 1" transform="translate(-23.155, -26.759999999999998)">
      <path d="M33.37,36.38a1,1,0,0,0-.13,2c.06,0,5.36.37,8.85,3.12a1,1,0,0,0,.62.21,1,1,0,0,0,.78-.38,1,1,0,0,0-.16-1.41C39.34,36.78,33.61,36.39,33.37,36.38Z"/>
      <path d="M63.07,38.77a1,1,0,0,0-1.13-1.65s-4.45,3-8.88,3a1,1,0,0,0-1,1,1,1,0,0,0,1,1C58.12,42.14,62.87,38.9,63.07,38.77Z"/>
    </g>
  </g>
</svg>
